<?xml version="1.0" encoding="utf-8"?>
<!DOCTYPE svg PUBLIC "-//W3C//DTD SVG 1.1//EN" "http://www.w3.org/Graphics/SVG/1.1/DTD/svg11.dtd">
<svg version="1.1" id="Layer_3" xmlns="http://www.w3.org/2000/svg" xmlns:xlink="http://www.w3.org/1999/xlink" viewBox="0 0 1280 800">
<defs>
	<filter id="OpacityMaskFilter" filterUnits="userSpaceOnUse" x="295.022" y="447.42" width="57.908" height="126.908">
		<feColorMatrix  type="matrix" values="1 0 0 0 0  0 1 0 0 0  0 0 1 0 0  0 0 0 1 0"/>
	</filter>
</defs>
<mask maskUnits="userSpaceOnUse" x="295.022" y="447.42" width="57.908" height="126.908" id="SVGID_1_">
	<g filter="url(#OpacityMaskFilter)">
		<rect fill="#FFFFFF" width="1280" height="800"/>
	</g>
</mask>
<g mask="url(#SVGID_1_)">
	<g id="right_arm">
		<g id="XMLID_17_">
			<g>
				<path fill="#96BBD6" d="M352.708,564.983c0.186,1.07,0.309,2.189,0.147,3.271c-0.113,0.775-0.355,1.738-0.917,2.343
					c-0.033,0.047-0.072,0.086-0.118,0.125c-0.064,0.144-0.141,0.285-0.239,0.438c-0.054,0.082-0.183,0.071-0.21-0.026
					c-0.185-0.689-0.494-1.333-0.715-2.005l0.186-0.079c0.013,0.029,0.025,0.061,0.039,0.089c0.007,0.011,0.011,0.017,0.021,0.024
					c0.016,0.017,0.018,0.041,0.014,0.06c0.221,0.521,0.438,1.044,0.603,1.584c0.023-0.045,0.045-0.09,0.065-0.132
					c0-0.017,0.001-0.034,0.011-0.051c0.01-0.02,0.019-0.031,0.03-0.049c0.117-0.301,0.17-0.602,0.229-0.959
					c0.007-0.049,0.089-0.049,0.099,0c0.019,0.133,0.027,0.253,0.027,0.367c0.14-0.234,0.269-0.479,0.355-0.761
					c0.15-0.48,0.246-0.979,0.275-1.485c0.068-1.138-0.069-2.274-0.31-3.388c-0.39-1.808-1.007-3.543-1.6-5.289
					c-0.029,0.014-0.064,0.023-0.104,0.019c-0.037-0.009-0.076-0.015-0.114-0.021c-0.047,0.018-0.094,0.006-0.133-0.021
					c-3.09-0.48-6.189-0.447-9.238,0.318c-1.449,0.363-2.882,0.85-4.199,1.563c-1.047,0.564-1.902,1.318-2.842,2.032
					c-0.019,0.016-0.041,0.012-0.058,0c-0.019-0.018-0.031-0.048-0.017-0.072c0.62-1.042,1.857-1.763,2.908-2.305
					c1.304-0.679,2.694-1.183,4.119-1.53c3.008-0.738,6.349-1.018,9.403-0.35c0.039-0.039,0.073-0.078,0.109-0.121
					c-0.005-0.017-0.01-0.029-0.015-0.048c-0.039-0.11,0.081-0.177,0.168-0.143c1.487-2.005,0.256-5.089-0.599-7.132
					c-0.482-1.158-1.047-2.283-1.438-3.475c-0.565-1.713-1.093-3.437-1.648-5.15c-0.595-1.836-1.218-3.666-1.955-5.45
					c-0.735-1.783-1.501-3.542-2.137-5.366c-1.271-3.646-2.279-7.373-3.403-11.064c-1.097-3.606-2.222-7.297-4.114-10.582
					c-0.895-1.552-1.876-3.05-2.759-4.604c-0.75-1.32-1.491-2.695-1.82-4.188c-0.023-0.103,0.125-0.145,0.156-0.045
					c0.04,0.135,0.081,0.262,0.125,0.391c-0.227-1.263-0.337-2.542-0.625-3.797c-0.312-1.361-0.691-2.709-1.142-4.025
					c-0.928-2.729-2.096-5.365-3.269-7.992c-0.479-1.069-0.956-2.117-1.546-3.132c-0.566-0.971-1.148-1.932-1.667-2.929
					c-0.024-0.052-0.05-0.103-0.077-0.15c0.336,0.916,0.682,1.829,0.991,2.756c0.455,1.363,1.063,2.95,0.901,4.407
					c-0.01,0.095-0.137,0.095-0.146,0c-0.377-3.37-1.984-6.396-2.897-9.621c-0.905-3.195-1.181-6.563-2.345-9.685
					c-0.633-1.696-1.55-3.273-2.321-4.91c-0.728-1.54-1.419-3.1-2.096-4.662c-1.271-2.938-2.584-5.875-3.776-8.844
					c-0.655-0.656-1.996-1.021-2.639-1.183c-1.271-0.319-2.711-0.521-3.922,0.1c-2.651,1.359-3.866,4.622-4.688,7.3
					c-0.936,3.063-1.532,6.214-2.192,9.343c-0.844,4.002-1.637,8.022-2.03,12.1c-0.193,1.986-0.287,3.978-0.299,5.976
					c-0.009,1.317-0.056,2.642,0.067,3.954c0.127,1.347,0.346,2.887,1.684,3.557c1.28,0.641,2.735,0.771,4.043,1.338
					c0.005,0.001,0.01,0.005,0.016,0.011l0.025,0.042c0.01,0.058-0.042,0.126-0.107,0.104c-1-0.295-2.025-0.494-3.015-0.818
					c-0.727-0.239-1.581-0.543-2.045-1.188c-1.035-1.433-0.956-3.601-0.951-5.282c0.015-5.264,0.527-10.414,1.511-15.588
					c0.699-3.679,1.421-7.385,2.343-11.009c0.629-2.478,1.333-5.055,2.701-7.243c1.187-1.897,2.895-3.413,5.253-3.205
					c1.146,0.101,2.314,0.377,3.345,0.897c0.305,0.153,0.678,0.354,0.974,0.609c0.029,0,0.058,0.014,0.072,0.044
					c0.009,0.017,0.017,0.028,0.024,0.046c0.237,0.231,0.408,0.509,0.426,0.843c0,0.004-0.001,0.004-0.001,0.005
					c1.365,2.8,2.475,5.737,3.72,8.584c0.711,1.631,1.438,3.255,2.218,4.852c0.7,1.444,1.503,2.843,2.03,4.36
					c0.869,2.504,1.223,5.13,1.814,7.701c0.021-0.313,0.081-0.619,0.185-0.923c0.005-0.011,0.019-0.007,0.018,0.004
					c-0.119,0.543-0.113,1.104-0.023,1.664c0.122,0.48,0.255,0.97,0.404,1.444c0.013,0.036,0.024,0.073,0.036,0.106
					c0.42,1.079,1.028,2.112,1.536,2.991c0.536,0.926,1.106,1.83,1.624,2.767c0.596,1.076,1.063,2.23,1.567,3.354
					c1.092,2.434,2.151,4.895,2.976,7.435c0.433,1.33,0.814,2.68,1.1,4.048c0.265,1.267,0.58,2.625,0.562,3.921
					c0,0.074-0.064,0.117-0.127,0.12c1.159,3.011,3.256,5.613,4.782,8.436c1.784,3.304,2.87,6.996,3.94,10.576
					c1.106,3.693,2.117,7.425,3.43,11.052c0.66,1.817,1.465,3.572,2.17,5.374c0.703,1.792,1.314,3.619,1.9,5.454
					c0.56,1.759,1.018,3.595,1.723,5.303c0.5,1.211,1.064,2.395,1.521,3.619c0.745,2.012,1.547,4.736,0.065,6.565
					C351.545,560.763,352.335,562.819,352.708,564.983z"/>
				<path fill="#96BBD6" d="M350.843,569.051l-0.186,0.079c-1.632-1.396-4.39-1.41-6.354-0.968
					c-1.046,0.234-2.159,0.614-2.957,1.366c-0.813,0.765-0.904,1.563-0.918,2.623c0,0.077-0.116,0.117-0.154,0.041
					c-0.442-0.931-0.001-2.065,0.69-2.757c0.834-0.831,1.989-1.317,3.126-1.566c1.995-0.436,4.827-0.513,6.47,0.951
					c0-0.003,0-0.006-0.001-0.008c-0.03-0.106,0.123-0.146,0.163-0.047C350.763,568.863,350.803,568.957,350.843,569.051z"/>
				<path fill="#96BBD6" d="M350.093,551.255c0.854,2.043,2.085,5.127,0.599,7.132c-0.087-0.033-0.207,0.03-0.168,0.145
					c0.005,0.017,0.01,0.029,0.015,0.046c-0.036,0.043-0.07,0.084-0.109,0.123c-3.056-0.669-6.395-0.393-9.403,0.348
					c-1.425,0.351-2.815,0.854-4.12,1.53c-1.05,0.542-2.288,1.263-2.908,2.305c-0.014,0.024-0.002,0.058,0.017,0.072l-0.103,0.127
					c-1.064-0.855-2.125-1.717-3.09-2.688c-1.286-1.297-2.151-2.77-2.85-4.44c-1.349-3.237-2.21-6.674-2.989-10.08
					c-0.771-3.38-1.409-6.786-2.215-10.155c-0.441-1.843-1.215-3.603-1.833-5.388c-0.422-1.221-0.753-2.438-1.018-3.683
					c0.069,0.035,0.177-0.022,0.142-0.108c-0.205-0.538-0.309-1.084-0.463-1.625c-0.002-0.015-0.003-0.027-0.007-0.039
					c-0.001-0.013-0.005-0.02-0.01-0.021c-0.058-0.2-0.125-0.398-0.207-0.599c-0.328-0.79-0.729-1.551-1.151-2.296
					c-0.852-1.508-1.828-2.938-2.681-4.447c-1.717-3.028-2.343-6.509-3.712-9.694c-1.506-3.504-3.794-6.605-5.991-9.7
					c-2.089-2.941-4.044-5.956-6.05-8.949c-0.869-1.297-1.958-2.795-3.536-3.235c-0.112-0.032-0.158,0.14-0.048,0.174
					c1.468,0.466,2.457,1.806,3.293,3.02c0.562,0.816,1.091,1.663,1.623,2.504c-0.005-0.007-0.01-0.011-0.016-0.012
					c-1.309-0.565-2.763-0.697-4.043-1.337c-1.338-0.67-1.558-2.209-1.684-3.558c-0.123-1.313-0.076-2.636-0.067-3.953
					c0.012-1.997,0.104-3.987,0.299-5.977c0.395-4.075,1.187-8.097,2.03-12.099c0.66-3.129,1.256-6.28,2.192-9.343
					c0.822-2.679,2.037-5.939,4.688-7.301c1.211-0.621,2.652-0.419,3.922-0.1c0.643,0.161,1.984,0.525,2.639,1.183
					c1.192,2.97,2.506,5.904,3.776,8.845c0.677,1.563,1.37,3.121,2.096,4.661c0.771,1.638,1.688,3.215,2.321,4.91
					c1.164,3.122,1.438,6.488,2.345,9.686c0.914,3.225,2.521,6.251,2.898,9.621c0.009,0.094,0.136,0.094,0.146,0
					c0.162-1.456-0.446-3.044-0.901-4.407c-0.31-0.927-0.655-1.84-0.991-2.756c0.027,0.05,0.053,0.1,0.077,0.149
					c0.519,0.997,1.102,1.958,1.667,2.931c0.591,1.013,1.067,2.061,1.546,3.131c1.171,2.627,2.339,5.264,3.269,7.992
					c0.45,1.315,0.83,2.664,1.142,4.024c0.287,1.255,0.397,2.534,0.625,3.797c-0.044-0.129-0.085-0.256-0.125-0.39
					c-0.031-0.1-0.18-0.059-0.156,0.045c0.329,1.493,1.071,2.868,1.82,4.188c0.883,1.557,1.865,3.055,2.759,4.604
					c1.892,3.286,3.018,6.976,4.114,10.582c1.125,3.692,2.133,7.419,3.403,11.065c0.636,1.823,1.402,3.584,2.137,5.365
					c0.737,1.784,1.36,3.614,1.955,5.45c0.555,1.716,1.083,3.438,1.648,5.151C349.045,548.972,349.611,550.098,350.093,551.255z"/>
				<path fill="#96BBD6" d="M340.856,573.956c0.096,0.088-0.007,0.231-0.12,0.205c-0.536-0.115-1.174-0.419-1.654-0.855
					c0.043,0.082,0.088,0.16,0.133,0.242c0.091,0.168-0.158,0.313-0.255,0.15c-1.206-2.021-2.325-4.115-3.333-6.239
					c-0.118-0.245-1.386-2.869-1.288-3.814l0.182,0.009c-0.008,1.032,1.653,4.27,1.833,4.622c0.638,1.266,1.328,2.502,2.015,3.739
					c-0.001-0.022-0.004-0.047-0.005-0.071c-0.003-0.09,0.134-0.135,0.174-0.049c0.181,0.396,0.327,0.761,0.6,1.077
					c0.255-0.031,0.578,0.241,0.769,0.356C340.225,573.521,340.58,573.703,340.856,573.956z"/>
				<path fill="#96BBD6" d="M334.684,563.396c0.174,0.011,0.172,0.285-0.008,0.285c-0.182,0-0.183-0.274-0.007-0.285
					c0-0.018,0-0.03,0-0.051c-0.102,0.03-0.146,0.142-0.147,0.307l-0.182-0.009c-0.053,0.038-0.125,0.048-0.187-0.003
					c-0.146-0.115-0.291-0.229-0.436-0.347c-1.279-1.015-2.575-2.042-3.656-3.275c-1.048-1.194-1.778-2.521-2.381-3.985
					c-1.333-3.248-2.216-6.664-2.989-10.081c-0.778-3.445-1.442-6.914-2.247-10.354c-0.769-3.278-2.655-6.429-2.908-9.83
					c-0.171-0.527-0.285-1.078-0.521-1.594c-0.35-0.766-0.735-1.516-1.159-2.244c-0.87-1.495-1.846-2.93-2.676-4.444
					c-0.838-1.529-1.38-3.098-1.897-4.755c-1.064-3.419-2.414-6.609-4.361-9.626c-2.221-3.436-4.685-6.704-6.929-10.125
					c-0.286-0.434-0.565-0.874-0.844-1.313l-0.025-0.042c-0.532-0.841-1.061-1.688-1.623-2.503
					c-0.836-1.215-1.825-2.555-3.293-3.021c-0.11-0.033-0.064-0.206,0.048-0.173c1.579,0.44,2.667,1.938,3.536,3.236
					c2.006,2.992,3.961,6.007,6.051,8.948c2.196,3.095,4.484,6.195,5.991,9.699c1.369,3.188,1.996,6.666,3.712,9.696
					c0.854,1.507,1.829,2.938,2.681,4.446c0.422,0.745,0.824,1.506,1.152,2.296c0.082,0.198,0.149,0.396,0.207,0.598
					c0.005,0.004,0.009,0.012,0.01,0.022c0.004,0.012,0.005,0.023,0.007,0.039c0.154,0.541,0.258,1.087,0.463,1.625
					c0.035,0.086-0.073,0.146-0.142,0.107c0.264,1.244,0.596,2.462,1.018,3.684c0.618,1.784,1.392,3.545,1.833,5.388
					c0.806,3.369,1.445,6.775,2.215,10.155c0.779,3.405,1.64,6.843,2.989,10.08c0.698,1.673,1.564,3.145,2.85,4.439
					c0.965,0.974,2.025,1.832,3.09,2.688c0.148,0.117,0.296,0.236,0.445,0.355c0.013,0.008,0.021,0.019,0.029,0.026
					c0.05-0.106,0.14-0.164,0.282-0.149c0-0.064,0.002-0.131,0.002-0.195c0-0.008,0.01-0.008,0.01,0
					c0.001,0.066,0.001,0.133,0.002,0.197c0.008,0.009,0.01,0.021,0,0.024C334.684,563.36,334.684,563.379,334.684,563.396z"/>
			</g>
		</g>
		<g id="XMLID_18_">
			<g>
				<path d="M352.708,564.983c0.186,1.07,0.309,2.189,0.147,3.271c-0.113,0.775-0.355,1.738-0.917,2.343
					c-0.033,0.047-0.072,0.086-0.118,0.125c-0.064,0.144-0.141,0.285-0.239,0.438c-0.054,0.082-0.183,0.071-0.21-0.026
					c-0.185-0.689-0.494-1.333-0.715-2.005l0.186-0.079c0.013,0.029,0.025,0.061,0.039,0.089c0.007,0.011,0.011,0.017,0.021,0.024
					c0.016,0.017,0.018,0.041,0.014,0.06c0.221,0.521,0.438,1.044,0.603,1.584c0.023-0.045,0.045-0.09,0.065-0.132
					c0-0.017,0.001-0.034,0.011-0.051c0.01-0.02,0.019-0.031,0.03-0.049c0.117-0.301,0.17-0.602,0.229-0.959
					c0.007-0.049,0.089-0.049,0.099,0c0.019,0.133,0.027,0.253,0.027,0.367c0.14-0.234,0.269-0.479,0.355-0.761
					c0.15-0.48,0.246-0.979,0.275-1.485c0.068-1.138-0.069-2.274-0.31-3.388c-0.39-1.808-1.007-3.543-1.6-5.289
					c-0.029,0.014-0.064,0.023-0.104,0.019c-0.037-0.009-0.076-0.015-0.114-0.021c-0.047,0.018-0.094,0.006-0.133-0.021
					c-3.09-0.48-6.189-0.447-9.238,0.318c-1.449,0.363-2.882,0.85-4.199,1.563c-1.047,0.564-1.902,1.318-2.842,2.032
					c-0.019,0.016-0.041,0.012-0.058,0c-0.019-0.018-0.031-0.048-0.017-0.072c0.62-1.042,1.857-1.763,2.908-2.305
					c1.304-0.679,2.694-1.183,4.119-1.53c3.008-0.738,6.349-1.018,9.403-0.35c0.039-0.039,0.073-0.078,0.109-0.121
					c-0.005-0.017-0.01-0.029-0.015-0.048c-0.039-0.11,0.081-0.177,0.168-0.143c1.487-2.005,0.256-5.089-0.599-7.132
					c-0.482-1.158-1.047-2.283-1.438-3.475c-0.565-1.713-1.093-3.437-1.648-5.15c-0.595-1.836-1.218-3.666-1.955-5.45
					c-0.735-1.783-1.501-3.542-2.137-5.366c-1.271-3.646-2.279-7.373-3.403-11.064c-1.097-3.606-2.222-7.297-4.114-10.582
					c-0.895-1.552-1.876-3.05-2.759-4.604c-0.75-1.32-1.491-2.695-1.82-4.188c-0.023-0.103,0.125-0.145,0.156-0.045
					c0.04,0.135,0.081,0.262,0.125,0.391c-0.227-1.263-0.337-2.542-0.625-3.797c-0.312-1.361-0.691-2.709-1.142-4.025
					c-0.928-2.729-2.096-5.365-3.269-7.992c-0.479-1.069-0.956-2.117-1.546-3.132c-0.566-0.971-1.148-1.932-1.667-2.929
					c-0.024-0.052-0.05-0.103-0.077-0.15c0.336,0.916,0.682,1.829,0.991,2.756c0.455,1.363,1.063,2.95,0.901,4.407
					c-0.01,0.095-0.137,0.095-0.146,0c-0.377-3.37-1.984-6.396-2.897-9.621c-0.905-3.195-1.181-6.563-2.345-9.685
					c-0.633-1.696-1.55-3.273-2.321-4.91c-0.728-1.54-1.419-3.1-2.096-4.662c-1.271-2.938-2.584-5.875-3.776-8.844
					c-0.655-0.656-1.996-1.021-2.639-1.183c-1.271-0.319-2.711-0.521-3.922,0.1c-2.651,1.359-3.866,4.622-4.688,7.3
					c-0.936,3.063-1.532,6.214-2.192,9.343c-0.844,4.002-1.637,8.022-2.03,12.1c-0.193,1.986-0.287,3.978-0.299,5.976
					c-0.009,1.317-0.056,2.642,0.067,3.954c0.127,1.347,0.346,2.887,1.684,3.557c1.28,0.641,2.735,0.771,4.043,1.338
					c0.005,0.001,0.01,0.005,0.016,0.011l0.025,0.042c0.01,0.058-0.042,0.126-0.107,0.104c-1-0.295-2.025-0.494-3.015-0.818
					c-0.727-0.239-1.581-0.543-2.045-1.188c-1.035-1.433-0.956-3.601-0.951-5.282c0.015-5.264,0.527-10.414,1.511-15.588
					c0.699-3.679,1.421-7.385,2.343-11.009c0.629-2.478,1.333-5.055,2.701-7.243c1.187-1.897,2.895-3.413,5.253-3.205
					c1.146,0.101,2.314,0.377,3.345,0.897c0.305,0.153,0.678,0.354,0.974,0.609c0.029,0,0.058,0.014,0.072,0.044
					c0.009,0.017,0.017,0.028,0.024,0.046c0.237,0.231,0.408,0.509,0.426,0.843c0,0.004-0.001,0.004-0.001,0.005
					c1.365,2.8,2.475,5.737,3.72,8.584c0.711,1.631,1.438,3.255,2.218,4.852c0.7,1.444,1.503,2.843,2.03,4.36
					c0.869,2.504,1.223,5.13,1.814,7.701c0.021-0.313,0.081-0.619,0.185-0.923c0.005-0.011,0.019-0.007,0.018,0.004
					c-0.119,0.543-0.113,1.104-0.023,1.664c0.122,0.48,0.255,0.97,0.404,1.444c0.013,0.036,0.024,0.073,0.036,0.106
					c0.42,1.079,1.028,2.112,1.536,2.991c0.536,0.926,1.106,1.83,1.624,2.767c0.596,1.076,1.063,2.23,1.567,3.354
					c1.092,2.434,2.151,4.895,2.976,7.435c0.433,1.33,0.814,2.68,1.1,4.048c0.265,1.267,0.58,2.625,0.562,3.921
					c0,0.074-0.064,0.117-0.127,0.12c1.159,3.011,3.256,5.613,4.782,8.436c1.784,3.304,2.87,6.996,3.94,10.576
					c1.106,3.693,2.117,7.425,3.43,11.052c0.66,1.817,1.465,3.572,2.17,5.374c0.703,1.792,1.314,3.619,1.9,5.454
					c0.56,1.759,1.018,3.595,1.723,5.303c0.5,1.211,1.064,2.395,1.521,3.619c0.745,2.012,1.547,4.736,0.065,6.565
					C351.545,560.763,352.335,562.819,352.708,564.983z"/>
				<path fill="#AF712C" d="M352.301,564.354c0.241,1.11,0.378,2.25,0.31,3.387c-0.029,0.507-0.125,1.005-0.275,1.486
					c-0.086,0.28-0.215,0.523-0.354,0.761c0-0.115-0.008-0.235-0.027-0.368c-0.009-0.049-0.091-0.049-0.099,0
					c-0.059,0.357-0.113,0.659-0.229,0.959c-0.012,0.018-0.02,0.03-0.03,0.049c-0.01,0.018-0.011,0.034-0.011,0.051
					c-0.021,0.042-0.042,0.087-0.065,0.133c-0.164-0.54-0.382-1.063-0.603-1.584c0.004-0.02,0.001-0.043-0.014-0.061
					c-0.01-0.01-0.014-0.016-0.021-0.023c-0.013-0.029-0.026-0.061-0.039-0.09c-0.04-0.094-0.08-0.188-0.119-0.282
					c-0.04-0.101-0.192-0.063-0.163,0.046c0.001,0.002,0.001,0.005,0.001,0.009c-1.643-1.465-4.476-1.387-6.47-0.952
					c-1.137,0.249-2.292,0.735-3.126,1.567c-0.691,0.688-1.132,1.825-0.69,2.756c0.038,0.077,0.154,0.037,0.154-0.041
					c0.001-0.045,0.001-0.09,0.003-0.134l0.091,0.002c-0.009,0.244,0.028,0.474,0.081,0.716c0.082,0.388,0.155,0.853,0.333,1.235
					l-0.051,0.022c-0.006-0.015-0.016-0.026-0.03-0.039c-0.276-0.253-0.632-0.436-0.951-0.628c-0.191-0.115-0.514-0.39-0.769-0.354
					c-0.272-0.318-0.418-0.686-0.6-1.078c-0.04-0.086-0.177-0.041-0.174,0.048c0.001,0.024,0.003,0.049,0.005,0.072
					c-0.688-1.238-1.377-2.476-2.015-3.74c-0.178-0.354-1.839-3.589-1.833-4.621c0.001-0.166,0.046-0.275,0.147-0.307
					c0,0.02,0,0.032,0,0.052c-0.176,0.009-0.174,0.284,0.007,0.284c0.18,0,0.182-0.275,0.008-0.284c0-0.021,0-0.038,0-0.059
					c0.01-0.003,0.008-0.018,0-0.023c-0.001-0.065-0.001-0.131-0.002-0.198c0-0.007-0.01-0.007-0.01,0
					c0,0.064-0.002,0.131-0.002,0.196c-0.143-0.016-0.232,0.043-0.282,0.148c-0.009-0.01-0.017-0.021-0.029-0.026
					c-0.149-0.118-0.296-0.238-0.445-0.355l0.103-0.127c0.017,0.012,0.039,0.017,0.058,0c0.939-0.714,1.793-1.467,2.842-2.032
					c1.315-0.714,2.749-1.197,4.198-1.563c3.05-0.769,6.148-0.801,9.238-0.319c0.04,0.025,0.086,0.037,0.133,0.021
					c0.039,0.008,0.077,0.013,0.114,0.021c0.04,0.007,0.074-0.004,0.104-0.018C351.294,560.81,351.912,562.545,352.301,564.354z"/>
				<path d="M350.843,569.051l-0.186,0.079c-1.632-1.396-4.39-1.41-6.354-0.968c-1.046,0.234-2.159,0.614-2.957,1.366
					c-0.778,0.73-0.895,1.496-0.915,2.488c-0.001,0.044-0.001,0.09-0.003,0.135c0,0.077-0.116,0.117-0.154,0.041
					c-0.442-0.931-0.001-2.065,0.69-2.757c0.834-0.831,1.989-1.317,3.126-1.566c1.995-0.436,4.827-0.513,6.47,0.951
					c0-0.003,0-0.006-0.001-0.008c-0.03-0.106,0.123-0.146,0.163-0.047C350.763,568.863,350.803,568.957,350.843,569.051z"/>
				<path fill="#AF712C" d="M350.093,551.255c0.854,2.043,2.085,5.127,0.599,7.132c-0.087-0.033-0.207,0.03-0.168,0.145
					c0.005,0.017,0.01,0.029,0.015,0.046c-0.036,0.043-0.07,0.084-0.109,0.123c-3.056-0.669-6.395-0.393-9.403,0.348
					c-1.425,0.351-2.815,0.854-4.12,1.53c-1.05,0.542-2.288,1.263-2.908,2.305c-0.014,0.024-0.002,0.058,0.017,0.072l-0.103,0.127
					c-1.064-0.855-2.125-1.717-3.09-2.688c-1.286-1.297-2.151-2.77-2.85-4.44c-1.349-3.237-2.21-6.674-2.989-10.08
					c-0.771-3.38-1.409-6.786-2.215-10.155c-0.441-1.843-1.215-3.603-1.833-5.388c-0.422-1.221-0.753-2.438-1.018-3.683
					c0.069,0.035,0.177-0.022,0.142-0.108c-0.205-0.538-0.309-1.084-0.463-1.625c-0.002-0.015-0.003-0.027-0.007-0.039
					c-0.001-0.013-0.005-0.02-0.01-0.021c-0.058-0.2-0.125-0.398-0.207-0.599c-0.328-0.79-0.729-1.551-1.151-2.296
					c-0.852-1.508-1.828-2.938-2.681-4.447c-1.717-3.028-2.343-6.509-3.712-9.694c-1.506-3.504-3.794-6.605-5.991-9.7
					c-2.089-2.941-4.044-5.956-6.05-8.949c-0.869-1.297-1.958-2.795-3.536-3.235c-0.112-0.032-0.158,0.14-0.048,0.174
					c1.468,0.466,2.457,1.806,3.293,3.02c0.562,0.816,1.091,1.663,1.623,2.504c-0.005-0.007-0.01-0.011-0.016-0.012
					c-1.309-0.565-2.763-0.697-4.043-1.337c-1.338-0.67-1.558-2.209-1.684-3.558c-0.123-1.313-0.076-2.636-0.067-3.953
					c0.012-1.997,0.104-3.987,0.299-5.977c0.395-4.075,1.187-8.097,2.03-12.099c0.66-3.129,1.256-6.28,2.192-9.343
					c0.822-2.679,2.037-5.939,4.688-7.301c1.211-0.621,2.652-0.419,3.922-0.1c0.643,0.161,1.984,0.525,2.639,1.183
					c1.192,2.97,2.506,5.904,3.776,8.845c0.677,1.563,1.37,3.121,2.096,4.661c0.771,1.638,1.688,3.215,2.321,4.91
					c1.164,3.122,1.438,6.488,2.345,9.686c0.914,3.225,2.521,6.251,2.898,9.621c0.009,0.094,0.136,0.094,0.146,0
					c0.162-1.456-0.446-3.044-0.901-4.407c-0.31-0.927-0.655-1.84-0.991-2.756c0.027,0.05,0.053,0.1,0.077,0.149
					c0.519,0.997,1.102,1.958,1.667,2.931c0.591,1.013,1.067,2.061,1.546,3.131c1.171,2.627,2.339,5.264,3.269,7.992
					c0.45,1.315,0.83,2.664,1.142,4.024c0.287,1.255,0.397,2.534,0.625,3.797c-0.044-0.129-0.085-0.256-0.125-0.39
					c-0.031-0.1-0.18-0.059-0.156,0.045c0.329,1.493,1.071,2.868,1.82,4.188c0.883,1.557,1.865,3.055,2.759,4.604
					c1.892,3.286,3.018,6.976,4.114,10.582c1.125,3.692,2.133,7.419,3.403,11.065c0.636,1.823,1.402,3.584,2.137,5.365
					c0.737,1.784,1.36,3.614,1.955,5.45c0.555,1.716,1.083,3.438,1.648,5.151C349.045,548.972,349.611,550.098,350.093,551.255z"/>
				<path d="M341.261,574.253c0.005,0.062-0.084,0.104-0.125,0.052c-0.079-0.102-0.145-0.213-0.2-0.333
					c-0.178-0.384-0.251-0.849-0.333-1.234c-0.052-0.242-0.089-0.473-0.081-0.716c0.001-0.026,0.004-0.054,0.005-0.078
					c0.002-0.026,0.042-0.045,0.055-0.018c0.109,0.245,0.177,0.487,0.245,0.747C340.96,573.186,341.225,573.727,341.261,574.253z"/>
				<path d="M340.886,573.995c0.037,0.086-0.053,0.188-0.15,0.166c-0.536-0.115-1.174-0.419-1.654-0.855
					c0.043,0.082,0.088,0.16,0.133,0.242c0.091,0.168-0.158,0.313-0.255,0.15c-1.206-2.021-2.325-4.115-3.333-6.239
					c-0.118-0.245-1.386-2.869-1.288-3.814l0.182,0.009c-0.008,1.032,1.653,4.27,1.833,4.622c0.638,1.266,1.328,2.502,2.015,3.739
					c-0.001-0.022-0.004-0.047-0.005-0.071c-0.003-0.09,0.134-0.135,0.174-0.049c0.181,0.396,0.327,0.761,0.6,1.077
					c0.255-0.031,0.578,0.241,0.769,0.356c0.319,0.191,0.673,0.375,0.951,0.628C340.87,573.969,340.88,573.981,340.886,573.995z"/>
				<path d="M334.684,563.396c0.174,0.011,0.172,0.285-0.008,0.285c-0.182,0-0.183-0.274-0.007-0.285c0-0.018,0-0.03,0-0.051
					c-0.102,0.03-0.146,0.142-0.147,0.307l-0.182-0.009c-0.053,0.038-0.125,0.048-0.187-0.003c-0.146-0.115-0.291-0.229-0.436-0.347
					c-1.279-1.015-2.575-2.042-3.656-3.275c-1.048-1.194-1.778-2.521-2.381-3.985c-1.333-3.248-2.216-6.664-2.989-10.081
					c-0.778-3.445-1.442-6.914-2.247-10.354c-0.769-3.278-2.655-6.429-2.908-9.83c-0.171-0.527-0.285-1.078-0.521-1.594
					c-0.35-0.766-0.735-1.516-1.159-2.244c-0.87-1.495-1.846-2.93-2.676-4.444c-0.838-1.529-1.38-3.098-1.897-4.755
					c-1.064-3.419-2.414-6.609-4.361-9.626c-2.221-3.436-4.685-6.704-6.929-10.125c-0.286-0.434-0.565-0.874-0.844-1.313
					l-0.025-0.042c-0.532-0.841-1.061-1.688-1.623-2.503c-0.836-1.215-1.825-2.555-3.293-3.021c-0.11-0.033-0.064-0.206,0.048-0.173
					c1.579,0.44,2.667,1.938,3.536,3.236c2.006,2.992,3.961,6.007,6.051,8.948c2.196,3.095,4.484,6.195,5.991,9.699
					c1.369,3.188,1.996,6.666,3.712,9.696c0.854,1.507,1.829,2.938,2.681,4.446c0.422,0.745,0.824,1.506,1.152,2.296
					c0.082,0.198,0.149,0.396,0.207,0.598c0.005,0.004,0.009,0.012,0.01,0.022c0.004,0.012,0.005,0.023,0.007,0.039
					c0.154,0.541,0.258,1.087,0.463,1.625c0.035,0.086-0.073,0.146-0.142,0.107c0.264,1.244,0.596,2.462,1.018,3.684
					c0.618,1.784,1.392,3.545,1.833,5.388c0.806,3.369,1.445,6.775,2.215,10.155c0.779,3.405,1.64,6.843,2.989,10.08
					c0.698,1.673,1.564,3.145,2.85,4.439c0.965,0.974,2.025,1.832,3.09,2.688c0.148,0.117,0.296,0.236,0.445,0.355
					c0.013,0.008,0.021,0.019,0.029,0.026c0.05-0.106,0.14-0.164,0.282-0.149c0-0.064,0.002-0.131,0.002-0.195
					c0-0.008,0.01-0.008,0.01,0c0.001,0.066,0.001,0.133,0.002,0.197c0.008,0.009,0.01,0.021,0,0.024
					C334.684,563.36,334.684,563.379,334.684,563.396z"/>
			</g>
		</g>
		<path d="M331.042,507.759c-2.529,1.459-2.417,5.061-4.925,6.57c-1.639,0.988-3.27,0.529-4.955-0.028
			c-1.126-0.373-2.707-1.036-3.778-0.199c-0.085,0.066,0.023,0.2,0.113,0.146c1.342-0.816,3.224,0.211,4.55,0.628
			c1.491,0.47,2.826,0.488,4.22-0.289c1.168-0.652,1.854-1.828,2.405-3.003c0.651-1.394,1.241-2.657,2.495-3.614
			C331.287,507.878,331.183,507.68,331.042,507.759z"/>
		<path d="M316.684,516.458c-1.161-3.796-2.585-7.508-3.784-11.292c-0.937-2.956-1.803-5.945-2.539-8.957
			c-0.477-1.948-0.89-3.908-1.458-5.833c-0.546-1.848-1.198-3.834-2.447-5.342c-0.65-0.787-1.658-1.4-2.687-0.996
			c-0.104,0.044-0.064,0.188,0.047,0.171c1.839-0.316,2.875,1.425,3.559,2.862c0.95,1.996,1.502,4.187,2.018,6.328
			c1.384,5.743,2.987,11.395,4.909,16.984c0.706,2.053,1.417,4.103,2.231,6.113C316.569,516.591,316.715,516.558,316.684,516.458z"
			/>
		<path d="M310.363,503.017c-1.577-3.895-3.35-7.758-5.187-11.538c-1.587-3.268-4.682-5.998-5.319-9.681
			c-0.011-0.063-0.124-0.052-0.115,0.017c0.444,3.539,3.378,6.043,4.903,9.106c0.99,1.99,1.899,4.021,2.799,6.053
			c0.904,2.041,1.744,4.127,2.811,6.089C310.286,503.121,310.389,503.08,310.363,503.017z"/>
		<path d="M342.869,554.416c-1.223,0.107-2.426,0.354-3.656,0.417c-1.14,0.061-2.283-0.012-3.403-0.229
			c-2.253-0.442-4.269-1.607-6.125-2.916c-0.071-0.051-0.145,0.021-0.152,0.088c-0.174,1.341,0.396,2.852,1.317,3.824
			c0.049,0.056,0.137-0.015,0.099-0.074c-0.448-0.713-0.871-1.385-1.109-2.202c-0.073-0.251-0.111-0.513-0.137-0.771
			c-0.002-0.022,0.006-0.599,0.053-0.563c0.333,0.237,0.671,0.465,1.016,0.688c1.156,0.75,2.391,1.382,3.701,1.816
			c1.235,0.411,2.536,0.584,3.834,0.605c1.503,0.025,3.136-0.1,4.586-0.506C342.987,554.564,342.972,554.406,342.869,554.416z"/>
		<path d="M330.444,549.254c-0.01,0.646-0.334,0.03-0.472-0.201c-0.245-0.412-0.455-0.844-0.653-1.274
			c-0.133-0.291-0.212-0.652-0.377-0.921c-0.488-0.791-0.896-1.612-1.216-2.484c-1.093-2.979-0.669-6.217-1.582-9.217
			c-0.027-0.094-0.176-0.079-0.169,0.021c0.137,1.886,0.358,3.787,0.588,5.662c0.214,1.745,0.632,3.43,1.411,5.014
			c0.297,0.604,0.644,1.166,0.924,1.776c0.232,0.505,0.484,1.004,0.78,1.473c0.238,0.382,0.796,0.935,0.826,0.153
			C330.504,549.214,330.446,549.214,330.444,549.254z"/>
	</g>
</g>
</svg>
