<?xml version="1.0" encoding="utf-8"?>
<!DOCTYPE svg PUBLIC "-//W3C//DTD SVG 1.1//EN" "http://www.w3.org/Graphics/SVG/1.1/DTD/svg11.dtd">
<svg version="1.1" id="Layer_3" xmlns="http://www.w3.org/2000/svg" xmlns:xlink="http://www.w3.org/1999/xlink" viewBox="0 0 1280 800">
<defs>
	<filter id="OpacityMaskFilter" filterUnits="userSpaceOnUse" x="273.48" y="279.925" width="49.034" height="81.756">
		<feColorMatrix  type="matrix" values="1 0 0 0 0  0 1 0 0 0  0 0 1 0 0  0 0 0 1 0"/>
	</filter>
</defs>
<mask maskUnits="userSpaceOnUse" x="273.48" y="279.925" width="49.034" height="81.756" id="SVGID_1_">
	<g filter="url(#OpacityMaskFilter)">
		<rect fill="#FFFFFF" width="1280" height="800"/>
	</g>
</mask>
<g mask="url(#SVGID_1_)">
	<g id="right_thigh">
		<g>
			<g id="XMLID_13_">
				<g>
					<path fill="#020202" d="M305.292,360.258c-0.018-0.049-0.013-0.104,0.028-0.155c1.321-1.592,1.933-3.752,2.474-5.712
						c0.623-2.262,1.188-4.545,1.722-6.831c1.205-5.158,2.238-10.368,3.175-15.586c0.722-4.025,1.411-8.062,2.278-12.062
						c0.865-3.997,2.043-7.897,3.066-11.853c2.011-7.761,3.396-15.605,4.283-23.568c0.01-0.088,0.019-0.176,0.029-0.264
						c0.012-0.105,0.174-0.106,0.166,0c-0.435,5.364-1.29,10.708-2.391,15.973c-0.558,2.655-1.177,5.298-1.859,7.923
						c-0.697,2.684-1.511,5.336-2.174,8.027c-1.956,7.953-2.992,16.09-4.72,24.091c-0.861,3.99-1.725,7.968-2.706,11.931
						c-0.677,2.729-1.275,5.932-3.126,8.148C305.451,360.423,305.325,360.357,305.292,360.258z"/>
					<path fill="#405268" d="M322.298,284.488l0.02,0.002c-0.887,7.961-2.271,15.808-4.283,23.568
						c-1.023,3.955-2.201,7.855-3.067,11.853c-0.868,3.999-1.556,8.035-2.278,12.062c-0.937,5.219-1.97,10.427-3.175,15.586
						c-0.533,2.286-1.1,4.568-1.722,6.83c-0.541,1.961-1.153,4.121-2.474,5.713c-0.041,0.052-0.046,0.106-0.028,0.155
						c-3.585,2.249-9.906,1.104-13.988,0.084c-5.101-1.438-11.246-2.877-14.386-7.716c-3.103-4.913-4.289-8.805-2.419-14.2
						c2.207-2.177,3.507-5.163,4.812-7.924c1.583-3.344,3.453-6.51,5.318-9.701c1.008-1.725,1.999-3.459,2.916-5.233
						c0.646-1.251,1.27-2.483,1.624-3.851c0.321-1.234,0.56-2.488,0.874-3.728c0.272-1.065,0.551-2.313,1.266-3.184
						c0.058-0.067,0.12-0.132,0.187-0.188c1.514,0.334,1.119-2.165,0.979-2.93c-0.148-0.822-0.401-1.672-0.352-2.515
						c0.037-0.608,0.625-0.992,1.106-1.268c0.199-0.113,0.631-0.229,0.847-0.422c-0.019,0.176-0.028,0.347,0.012,0.5
						c0.018,0.068,0.111,0.099,0.164,0.042c0.334-0.358,0.166-1.25,0.104-1.687c-0.109-0.809-0.301-1.603-0.459-2.401
						c-0.152-0.763-0.301-1.572-0.146-2.345c0.17-0.855,0.872-1.104,1.629-1.28c0.006-0.002,0.011-0.006,0.017-0.008
						c-0.031,0.373-0.037,0.75-0.041,1.112c-0.002,0.173,0.271,0.173,0.271,0c0-0.218,0.082-1.918,0.271-2.369
						c0.037-0.036,0.074-0.07,0.112-0.106c0.001-0.001,0.001,0,0.002,0c0.008,0.001,0.014-0.006,0.011-0.014
						c3.612-3.473,7.121-6.419,12.285-7.582c3.27-0.786,12.555-3.27,13.992,1.832C322.431,283.441,322.298,284.096,322.298,284.488z
						"/>
					<path fill="#020202" d="M296.02,288.931c0.003,0.007-0.003,0.015-0.011,0.014c-0.001,0-0.001-0.001-0.002,0
						C296.011,288.94,296.015,288.936,296.02,288.931z"/>
					<path fill="#020202" d="M274.499,338.426c-0.023,0.022-0.047,0.047-0.072,0.07c-0.164,0.16-0.417-0.091-0.251-0.25
						c0.331-0.323,0.645-0.661,0.933-1.021c2.052-2.572,3.279-5.701,4.717-8.632c1.697-3.459,3.795-6.707,5.708-10.049
						c0.988-1.727,1.947-3.473,2.787-5.277c0.494-1.054,0.712-2.228,0.976-3.354c0.284-1.229,0.53-2.51,1-3.687
						c0.237-0.592,0.517-1.317,1.038-1.739c0.002-0.04,0.025-0.078,0.073-0.088c0.023-0.006,0.046-0.012,0.069-0.019
						c0.055-0.035,0.112-0.066,0.173-0.099c0.046-0.022,0.091-0.002,0.118,0.027c0.237-0.07,0.432-0.187,0.515-0.489
						c0.098-0.354,0.09-0.729,0.051-1.097c-0.091-0.872-0.322-1.722-0.442-2.588c-0.085-0.6-0.17-1.266,0.263-1.758
						c0.331-0.377,0.763-0.658,1.222-0.856c0.201-0.087,0.492-0.283,0.722-0.255c0.017-0.136,0.031-0.271,0.021-0.396
						c-0.033-0.461-0.105-0.917-0.195-1.372c-0.169-0.854-0.384-1.704-0.474-2.57c-0.14-1.36,0.248-2.842,1.907-2.765
						c0.02,0.001,0.034,0.009,0.048,0.02c0.031-0.309,0.079-0.614,0.159-0.908c0.045-0.16,0.252-0.669,0.456-0.349v0.001
						c-0.005,0.005-0.009,0.009-0.014,0.014c-0.041-0.015-0.079,0.026-0.112,0.106c-0.189,0.451-0.271,2.151-0.271,2.369
						c0,0.173-0.272,0.173-0.271,0c0.004-0.363,0.01-0.74,0.041-1.113c-0.005,0.001-0.01,0.005-0.017,0.008
						c-0.759,0.176-1.459,0.425-1.629,1.279c-0.155,0.772-0.006,1.583,0.146,2.345c0.159,0.798,0.351,1.592,0.459,2.401
						c0.062,0.436,0.23,1.328-0.104,1.687c-0.053,0.056-0.146,0.026-0.164-0.043c-0.04-0.149-0.031-0.321-0.012-0.499
						c-0.216,0.195-0.647,0.309-0.847,0.423c-0.479,0.272-1.069,0.656-1.106,1.267c-0.049,0.842,0.204,1.691,0.352,2.514
						c0.14,0.766,0.535,3.266-0.979,2.931c-0.067,0.058-0.129,0.12-0.187,0.188c-0.715,0.869-0.995,2.116-1.267,3.185
						c-0.314,1.236-0.553,2.49-0.874,3.727c-0.354,1.366-0.978,2.599-1.624,3.85c-0.917,1.774-1.908,3.511-2.916,5.234
						c-1.865,3.19-3.735,6.356-5.318,9.701C278.005,333.263,276.706,336.249,274.499,338.426z"/>
				</g>
				<g>
					<path fill="none" stroke="#405268" stroke-width="0.25" stroke-miterlimit="10" d="M296.02,288.931
						c3.612-3.473,7.121-6.419,12.285-7.582c3.27-0.786,12.555-3.27,13.993,1.832c0.132,0.261,0,0.916,0,1.309"/>
					<path fill="none" stroke="#405268" stroke-width="0.25" stroke-miterlimit="10" d="M295.895,289.051
						c0.037-0.036,0.074-0.07,0.112-0.106"/>
					<path fill="none" stroke="#405268" stroke-width="0.25" stroke-miterlimit="10" d="M305.292,360.258
						c-3.584,2.249-9.906,1.104-13.988,0.084c-5.101-1.438-11.246-2.877-14.386-7.716c-3.103-4.913-4.289-8.805-2.419-14.2"/>
				</g>
			</g>
			<path fill="#020202" d="M322.348,284.227c-0.887,8.053-2.28,15.988-4.313,23.833c-1.023,3.954-2.201,7.855-3.066,11.854
				c-0.866,3.999-1.558,8.034-2.279,12.062c-0.935,5.218-1.97,10.426-3.174,15.586c-0.533,2.286-1.1,4.568-1.722,6.831
				c-0.54,1.959-1.153,4.119-2.474,5.711c-0.126,0.151,0.09,0.371,0.219,0.219c1.851-2.219,2.449-5.42,3.125-8.148
				c0.982-3.964,1.845-7.94,2.707-11.933c1.728-7.999,2.764-16.138,4.72-24.089c0.662-2.692,1.477-5.345,2.173-8.028
				c0.683-2.624,1.302-5.268,1.858-7.922c1.103-5.266,1.957-10.609,2.392-15.973C322.521,284.12,322.359,284.123,322.348,284.227z"
				/>
			<path fill="#020202" d="M295.565,289.278c-0.08,0.292-0.128,0.6-0.16,0.909c-0.012-0.012-0.028-0.02-0.048-0.021
				c-1.658-0.077-2.045,1.404-1.905,2.765c0.088,0.868,0.306,1.717,0.474,2.571c0.089,0.453,0.163,0.91,0.194,1.371
				c0.008,0.125-0.005,0.26-0.021,0.396c-0.231-0.028-0.521,0.168-0.723,0.255c-0.459,0.199-0.891,0.479-1.221,0.856
				c-0.433,0.493-0.347,1.159-0.263,1.759c0.121,0.867,0.351,1.718,0.441,2.588c0.039,0.365,0.047,0.74-0.05,1.097
				c-0.083,0.304-0.279,0.419-0.515,0.49c-0.027-0.032-0.072-0.053-0.12-0.027c-0.06,0.028-0.117,0.062-0.172,0.097
				c-0.022,0.005-0.045,0.011-0.069,0.018c-0.047,0.011-0.069,0.048-0.073,0.088c-0.521,0.422-0.801,1.147-1.038,1.74
				c-0.471,1.176-0.716,2.455-1,3.686c-0.261,1.127-0.482,2.301-0.974,3.355c-0.84,1.803-1.798,3.552-2.787,5.275
				c-1.914,3.34-4.012,6.589-5.71,10.049c-1.438,2.932-2.664,6.06-4.716,8.631c-0.288,0.36-0.602,0.7-0.933,1.021
				c-0.165,0.16,0.087,0.412,0.251,0.252c2.251-2.182,3.564-5.204,4.884-7.993c1.582-3.346,3.454-6.51,5.318-9.701
				c1.009-1.725,2-3.46,2.916-5.234c0.645-1.25,1.27-2.483,1.624-3.85c0.321-1.234,0.561-2.488,0.873-3.728
				c0.271-1.065,0.552-2.313,1.268-3.184c0.056-0.067,0.12-0.132,0.188-0.188c1.511,0.334,1.116-2.165,0.979-2.93
				c-0.149-0.822-0.402-1.671-0.352-2.514c0.036-0.608,0.627-0.993,1.106-1.268c0.198-0.112,0.63-0.229,0.846-0.421
				c-0.018,0.176-0.027,0.347,0.013,0.499c0.018,0.068,0.113,0.097,0.164,0.042c0.336-0.358,0.166-1.25,0.105-1.687
				c-0.11-0.809-0.303-1.603-0.462-2.401c-0.151-0.761-0.301-1.573-0.146-2.344c0.171-0.854,0.873-1.104,1.63-1.281
				c0.006-0.001,0.01-0.005,0.016-0.007c-0.032,0.373-0.038,0.749-0.041,1.11c-0.002,0.175,0.271,0.175,0.271,0
				c0-0.256,0.115-2.582,0.386-2.475c0.008,0.003,0.015-0.008,0.012-0.015C295.818,288.609,295.61,289.12,295.565,289.278z"/>
		</g>
		<path d="M300.236,297.281c-0.958-1.243-2.25-2.321-3.783-2.71c-0.066-1.474-0.17-3.013,1.043-3.857
			c0.095-0.067,0.004-0.225-0.093-0.157c-1.171,0.812-1.162,2.343-1.157,3.628c0.001,0.112,0.002,0.224,0.002,0.337
			c-0.112-0.024-0.226-0.044-0.342-0.061c-0.062-0.009-0.128,0.025-0.125,0.097c0.002,0.087,0.003,0.174,0.006,0.262
			c0,0.042,0.028,0.078,0.068,0.09c0.139,0.04,0.266,0.047,0.396,0.057c0,0.556-0.022,1.112-0.149,1.654
			c-0.219,0.93-0.727,1.999-1.176,2.838c-0.107,0.2-0.179,0.392-0.224,0.58c-0.384-0.061-0.776-0.085-1.176-0.07
			c-0.055,0.002-0.09,0.051-0.08,0.104c0.153,0.743,0.517,1.298,1.221,1.608c0.082,0.036,0.155-0.084,0.07-0.122
			c-0.356-0.161-0.625-0.375-0.847-0.702c-0.128-0.19-0.19-0.417-0.249-0.637c-0.042-0.156,0.467-0.085,0.51-0.083
			c0.175,0.006,0.347,0.024,0.518,0.05c-0.101,0.617,0.092,1.193,0.381,1.84c0.194,0.431,0.398,0.895,0.451,1.367
			c0.088,0.789-0.963,0.129-1.259-0.05c-0.046-0.027-0.115-0.021-0.152,0.021c-0.881,0.969-0.646,2.444-0.621,3.646
			c0.042,1.841-0.673,3.605-1.342,5.287c-0.773,1.943-1.714,3.822-2.582,5.726c-0.852,1.867-1.7,3.736-2.584,5.592
			c-0.866,1.813-1.728,3.638-2.613,5.442c-0.412,0.842-0.84,1.7-1.368,2.478c-0.52,0.765-1.146,1.457-1.745,2.158
			c-0.99,1.16-2.008,2.385-2.462,3.866c-0.522,1.703-0.181,3.479-0.353,5.223c-0.141,1.431-1.012,2.496-1.586,3.761
			c-0.441,0.973-0.486,1.966,0.144,2.858c0.059,0.084,0.196,0.006,0.138-0.08c-1.229-1.834,0.49-3.397,1.124-5.053
			c0.639-1.666,0.313-3.432,0.444-5.166c0.147-1.943,1.247-3.471,2.461-4.913c1.125-1.335,2.165-2.602,2.988-4.15
			c0.938-1.771,1.701-3.628,2.602-5.417c0.924-1.833,1.758-3.71,2.605-5.579c0.849-1.869,1.702-3.734,2.592-5.585
			c0.778-1.621,1.437-3.482,1.709-5.261c0.162-1.043-0.008-2.101,0.062-3.148c0.021-0.313,0.188-1.604,0.705-1.313
			c0.267,0.15,0.56,0.284,0.869,0.308c1.036,0.078,0.124-1.867-0.036-2.223c-0.229-0.52-0.451-1.044-0.352-1.593
			c0.524,0.103,1.039,0.279,1.525,0.499c1.261,0.569,2.337,1.513,3.639,1.997c0.059,0.021,0.089-0.066,0.041-0.1
			c-1.589-1.052-3.288-2.188-5.172-2.542c0.024-0.086,0.059-0.174,0.102-0.262c0.493-1.003,1.018-2.045,1.315-3.128
			c0.14-0.504,0.149-1.087,0.131-1.695c0.017,0.002,0.034,0.005,0.052,0.009c0.054,0.011,0.095-0.07,0.04-0.096
			c-0.042-0.019-0.072-0.032-0.097-0.043c-0.001-0.03-0.002-0.059-0.003-0.087c0.408,0.107,0.797,0.27,1.17,0.471
			c0.98,0.529,1.665,1.418,2.532,2.091C300.201,297.367,300.271,297.327,300.236,297.281z M296.252,294.811
			c-0.013-0.002-0.026-0.003-0.043-0.004c-0.187,0.057-0.264,0.018-0.229-0.117c-0.019-0.122,0.008-0.122,0.083,0
			c0.063,0.011,0.126,0.023,0.19,0.037C296.252,294.754,296.252,294.782,296.252,294.811z"/>
	</g>
</g>
</svg>
