<?xml version="1.0" encoding="utf-8"?>
<!DOCTYPE svg PUBLIC "-//W3C//DTD SVG 1.1//EN" "http://www.w3.org/Graphics/SVG/1.1/DTD/svg11.dtd">
<svg version="1.1" id="Layer_3" xmlns="http://www.w3.org/2000/svg" xmlns:xlink="http://www.w3.org/1999/xlink" viewBox="0 0 1280 800">
<defs>
	<filter id="OpacityMaskFilter" filterUnits="userSpaceOnUse" x="252.956" y="473.56" width="44.259" height="76.034">
		<feColorMatrix  type="matrix" values="1 0 0 0 0  0 1 0 0 0  0 0 1 0 0  0 0 0 1 0"/>
	</filter>
</defs>
<mask maskUnits="userSpaceOnUse" x="252.956" y="473.56" width="44.259" height="76.034" id="SVGID_1_">
	<g filter="url(#OpacityMaskFilter)">
		<rect fill="#FFFFFF" width="1280" height="800"/>
	</g>
</mask>
<g mask="url(#SVGID_1_)">
	<g id="head">
		<g>
			<g id="XMLID_19_">
				<g>
					<path d="M293.036,527.552c-0.037,2.061-0.37,4.066-0.889,6.064c-0.544,2.1-1.208,4.158-2.226,6.081
						c-2.039,3.867-4.839,7.296-9.034,8.871c-5.823,2.183-12.94,0.801-17.564-3.373c-4.144-3.737-6.754-9.608-6.892-15.203
						c-0.341,0.451-0.765,0.822-1.365,0.869c-1.554,0.114-1.927-2.311-2.038-3.398c-0.098-0.938-0.109-1.906,0.044-2.839
						c0.102-0.617,0.328-1.126,0.571-1.694c0.738-1.72,1.396-3.498,2.349-5.112c0.389-0.656,1.588-2.536,2.342-1.224
						c0.195-1.428,0.315-2.952,1.08-4.192c0.763-1.238,1.89-2.147,2.938-3.132c0.274-0.26,0.537-0.529,0.792-0.804l0.128,0.115
						c-0.296,0.328-0.604,0.646-0.928,0.951c-1.012,0.943-2.188,1.888-2.842,3.137c-0.728,1.393-0.7,2.905-1.073,4.389
						c-0.026,0.104-0.172,0.057-0.157-0.044c0.013-0.085,0.026-0.171,0.037-0.255c-0.043,0.023-0.103,0.021-0.14-0.035
						c-0.916-1.358-2.404,2.01-2.687,2.605c-0.66,1.388-1.169,2.839-1.827,4.224c-0.353,0.74-0.406,1.646-0.413,2.455
						c-0.006,0.938,0.063,1.895,0.319,2.797c0.167,0.596,0.475,1.59,1.187,1.742c0.84,0.182,1.241-0.525,1.674-1.126
						c0-0.011,0-0.021,0-0.032c0.001-0.066,0.051-0.104,0.105-0.104c0.128-0.167,0.263-0.316,0.415-0.426
						c0.075-0.055,0.164,0.05,0.122,0.121c-0.129,0.216-0.263,0.456-0.412,0.688c0.209,6.64,3.684,13.888,9.589,17.195
						c5.804,3.253,13.869,3.469,18.967-1.313c2.426-2.275,4.452-5.424,5.542-8.569c1.122-3.225,1.911-6.532,1.937-9.953
						c0.002-0.228,0.349-0.228,0.35,0c0,0.026,0,0.056,0,0.085c0.096,0.114,0.178,0.236,0.261,0.36
						c-0.009-0.024-0.019-0.049-0.027-0.071c-0.018-0.053,0.058-0.082,0.086-0.035c0.465,0.766,1.298,1.796,2.291,1.804
						c0.687,0.01,1.036-0.54,1.164-1.157c0.293-1.399-0.065-2.889-0.502-4.22c-0.587-1.801-1.464-3.541-2.69-4.991
						c-0.583-0.688-1.229-1.339-1.959-1.874c-0.802-0.592-1.689-0.882-2.644-1.13c-0.128-0.036-0.112-0.184-0.02-0.231h0.001
						l0.137-0.119c0.04,0.047,0.081,0.093,0.122,0.14c2.128,0.42,3.807,1.972,5.052,3.687c1.287,1.777,2.188,3.828,2.652,5.973
						c0.233,1.081,0.587,3.063-0.432,3.889c-0.785,0.639-1.754,0.197-2.446-0.497c-0.017,0.012-0.036,0.014-0.058,0.01
						c-0.358-0.133-0.621-0.565-0.826-0.865C293.162,527.72,293.098,527.642,293.036,527.552z"/>
					<path fill="#FFE8CA" d="M296.311,523.793c0.437,1.331,0.795,2.818,0.501,4.22c-0.128,0.617-0.477,1.167-1.163,1.157
						c-0.992-0.008-1.826-1.038-2.292-1.804c-0.028-0.047-0.104-0.018-0.086,0.035c0.008,0.022,0.018,0.047,0.027,0.07
						c-0.083-0.123-0.166-0.246-0.261-0.359c0-0.029,0-0.059,0-0.085c-0.001-0.228-0.348-0.228-0.35,0
						c-0.024,3.421-0.815,6.729-1.937,9.952c-1.09,3.146-3.116,6.294-5.542,8.57c-5.098,4.779-13.163,4.563-18.966,1.313
						c-5.906-3.31-9.38-10.558-9.589-17.195c0.149-0.231,0.282-0.474,0.412-0.688c0.042-0.07-0.047-0.175-0.122-0.12
						c-0.152,0.107-0.287,0.259-0.415,0.426c-0.054,0.003-0.104,0.038-0.105,0.104c0,0.012,0,0.021,0,0.032
						c-0.434,0.599-0.833,1.307-1.674,1.126c-0.712-0.153-1.02-1.146-1.187-1.742c-0.255-0.903-0.325-1.859-0.319-2.797
						c0.006-0.809,0.06-1.715,0.413-2.455c0.658-1.385,1.167-2.836,1.828-4.224c0.282-0.599,1.77-3.966,2.687-2.605
						c0.037,0.056,0.096,0.061,0.14,0.035c-0.011,0.083-0.024,0.17-0.037,0.255c-0.015,0.101,0.131,0.146,0.157,0.044
						c0.374-1.481,0.346-2.997,1.074-4.389c0.653-1.249,1.829-2.191,2.842-3.137c0.324-0.307,0.631-0.623,0.927-0.951
						c0.028-0.031,0.057-0.063,0.083-0.094c0.228-0.183,0.412-0.405,0.559-0.659c0.445-0.552,0.86-1.126,1.258-1.713
						c0.29-0.43,0.543-0.853,0.768-1.279h0.001c0.449-0.858,0.778-1.742,1.029-2.741c0.297-1.183,0.636-2.358,1.591-3.181
						c0.798-0.688,1.846-1.057,2.858-1.274c1.774-0.385,3.849-0.222,5.331,0.882c-0.058,0.031-0.081,0.113-0.008,0.154
						c1.324,0.739,1.576,2.583,2.383,3.791c0.433,0.651,1.031,1.164,1.642,1.639c0.815,0.637,1.521,1.396,2.188,2.182
						c0.043,0.051,0.084,0.104,0.128,0.156l0.001,0.004c0.005,0.011,0.013,0.021,0.022,0.023c1.237,1.493,2.215,3.078,3.101,4.806
						c0.768,1.497,1.544,3.117,2.789,4.288c-0.092,0.052-0.109,0.197,0.02,0.233c0.955,0.248,1.842,0.538,2.644,1.129
						c0.73,0.536,1.375,1.186,1.959,1.875C294.847,520.252,295.723,521.992,296.311,523.793z"/>
					<path fill="#494239" d="M282.868,505.747c-0.113-0.562-0.119-1.157-0.137-1.709c-0.029-0.879-0.013-1.76,0.024-2.641
						c0.058-1.394,0.064-2.789,0.103-4.183c-0.013,0.03-0.025,0.063-0.041,0.094c-0.07,0.146-0.314,0.04-0.263-0.111
						c0.774-2.328-0.139-4.87-1.261-6.921c-1.122-2.052-2.588-3.854-3.851-5.813c-2.192-3.396-3.41-7.558-6.352-10.43
						c-0.087,0.474-0.295,0.833-0.529,1.299c-0.386,0.763-0.686,1.563-0.976,2.365c-0.586,1.637-1.333,3.158-2.029,4.752
						c-0.815,1.867-1.45,3.821-2.05,5.766c-0.535,1.729-0.956,3.485-1.054,5.293l-0.189-0.006c0.046-1.753,0.408-3.457,0.917-5.135
						c0.573-1.881,1.164-3.774,1.919-5.589c0.697-1.671,1.515-3.263,2.125-4.969c0.254-0.711,0.505-1.427,0.821-2.112
						c0.308-0.669,0.736-1.23,0.777-1.985c0.006-0.135,0.16-0.201,0.262-0.111c3.289,3.048,4.483,7.558,6.996,11.15
						c1.42,2.036,2.968,4.036,4.008,6.304c0.728,1.585,1.442,3.667,1.008,5.459c0.218,1.515,0.043,3.136-0.013,4.645
						c-0.034,0.88-0.062,1.763-0.034,2.644c0.024,0.781,0.188,1.593,0.174,2.371c1.185,1.438,2.164,2.945,3.014,4.615
						c0.84,1.65,1.673,3.257,2.896,4.658l-0.137,0.119h-0.001c-1.245-1.173-2.021-2.792-2.789-4.29
						c-0.886-1.727-1.863-3.313-3.101-4.806c-0.009-0.005-0.017-0.014-0.022-0.023l-0.001-0.004
						c-0.044-0.054-0.085-0.105-0.128-0.155c-0.667-0.784-1.374-1.546-2.188-2.182c-0.611-0.476-1.209-0.986-1.642-1.64
						c-0.808-1.208-1.06-3.052-2.383-3.791c-0.073-0.041-0.05-0.123,0.008-0.153c-1.482-1.104-3.557-1.268-5.331-0.882
						c-1.013,0.22-2.06,0.589-2.858,1.274c-0.956,0.819-1.293,1.997-1.591,3.181c-0.251,0.998-0.581,1.882-1.029,2.74h-0.001
						l-0.123-0.063c0.75-1.434,0.918-2.994,1.535-4.484c0.783-1.894,2.856-2.766,4.775-2.994c1.739-0.204,4.117-0.064,5.271,1.476
						c0.364,0.294,0.569,0.775,0.78,1.21c0.322,0.657,0.592,1.356,0.973,1.986c0.427,0.708,0.998,1.29,1.646,1.798
						C281.554,504.354,282.24,505.021,282.868,505.747z"/>
					<path fill="#FFE8CA" d="M282.817,497.311c0.016-0.03,0.028-0.063,0.041-0.094c-0.039,1.394-0.045,2.789-0.103,4.183
						c-0.037,0.881-0.054,1.762-0.024,2.642c0.018,0.552,0.024,1.147,0.137,1.708c-0.628-0.726-1.314-1.395-2.07-1.984
						c-0.648-0.508-1.219-1.09-1.646-1.798c-0.38-0.63-0.651-1.329-0.973-1.986c-0.211-0.435-0.417-0.916-0.78-1.211
						c-1.154-1.539-3.533-1.679-5.272-1.475c-1.919,0.229-3.992,1.103-4.775,2.994c-0.617,1.49-0.785,3.053-1.536,4.484
						c-0.051,0.095-0.104,0.188-0.159,0.283c-0.445,0.757-0.933,1.479-1.465,2.175c0.179-0.498,0.279-1.039,0.357-1.518
						c0.217-1.319,0.214-2.674,0.192-4.01c-0.023-1.314-0.042-2.626-0.065-3.939c-0.014-0.825-0.033-1.653-0.054-2.48
						c-0.009-0.373-0.012-0.749-0.028-1.121c-0.01-0.239,0.05-0.49-0.141-0.652c0.098-1.808,0.519-3.564,1.054-5.293
						c0.601-1.942,1.234-3.896,2.05-5.766c0.696-1.594,1.443-3.115,2.029-4.752c0.29-0.803,0.59-1.604,0.976-2.365
						c0.234-0.466,0.442-0.824,0.529-1.299c2.943,2.872,4.161,7.033,6.352,10.43c1.262,1.96,2.728,3.763,3.851,5.813
						c1.124,2.051,2.035,4.593,1.261,6.921C282.503,497.351,282.746,497.456,282.817,497.311z"/>
					<path d="M264.193,507.229c0.533-0.692,1.021-1.418,1.465-2.175c0.055-0.095,0.107-0.188,0.159-0.282l0.123,0.063
						c-0.224,0.429-0.478,0.852-0.768,1.279c-0.397,0.587-0.813,1.161-1.258,1.713c-0.147,0.254-0.331,0.479-0.559,0.659
						c-0.027,0.03-0.055,0.063-0.083,0.094l-0.128-0.115c-0.022-0.037-0.027-0.084,0.002-0.122c1.483-1.972,1.306-4.762,1.249-7.104
						c-0.031-1.297-0.036-2.596-0.062-3.891c-0.016-0.818-0.034-1.638-0.044-2.457c-0.002-0.24-0.078-0.685-0.032-1.018
						c0-0.124,0.002-0.249,0.006-0.373l0.189,0.006c0.191,0.162,0.131,0.413,0.141,0.652c0.017,0.372,0.02,0.748,0.028,1.121
						c0.021,0.827,0.04,1.654,0.054,2.48c0.023,1.313,0.042,2.625,0.065,3.939c0.022,1.336,0.024,2.688-0.192,4.01
						C264.473,506.19,264.373,506.731,264.193,507.229z"/>
				</g>
			</g>
		</g>
		<path d="M264.772,512.533c-0.509,1.03-1.075,1.874-1.891,2.654c-0.758,0.724-1.585,1.354-2.322,2.103
			c-0.756,0.771-1.292,1.666-1.571,2.744c-0.127,0.493-0.182,1.007-0.207,1.516c-0.027,0.545-0.056,1.188,0.09,1.713
			c0.012,0.042,0.065,0.03,0.068-0.01c0.048-0.559-0.042-1.139-0.017-1.703c0.025-0.599,0.125-1.188,0.291-1.759
			c0.344-1.18,1.118-2.057,1.969-2.847c1.336-1.241,3.199-2.407,3.703-4.36C264.903,512.512,264.806,512.465,264.772,512.533z"/>
		<path d="M287.471,516.329c-0.549-0.987-1.322-1.647-2.174-2.277c-0.509-0.375-0.979-0.787-1.333-1.346
			c-0.318-0.5-0.53-1.076-0.903-1.531c-0.03-0.035-0.087,0.013-0.06,0.052c0.617,0.923,0.932,1.963,1.782,2.679
			c0.438,0.372,0.913,0.688,1.344,1.07c0.428,0.383,0.789,0.854,1.095,1.356c0.577,0.947,0.885,2.06,1.081,3.174
			c0.205,1.171,0.162,2.416,0.438,3.567c0.01,0.039,0.062,0.028,0.063-0.011C288.82,520.801,288.559,518.286,287.471,516.329z"/>
		<path d="M276.383,504.637c-0.671-0.771-2.232-0.822-3.164-0.853c-0.677-0.021-1.354,0.042-2.018,0.168
			c-0.443,0.083-1.151,0.223-1.446,0.601c-0.025,0.032-0.015,0.104,0.04,0.098c0.441-0.048,0.892-0.285,1.33-0.389
			c0.629-0.146,1.28-0.189,1.923-0.197c0.641-0.01,1.283,0.056,1.91,0.188c0.487,0.104,0.899,0.326,1.358,0.497
			C276.387,504.773,276.424,504.683,276.383,504.637z"/>
		<path d="M277.247,513.89c0.135-0.124-0.014-0.377-0.173-0.261c-1.123,0.825-2.15-1.188-3.39-0.904
			c-0.625,0.146-1.087,0.558-1.587,0.931c-0.238,0.178-0.95,0.647-1.227,0.352c-0.088-0.099-0.151-0.253-0.301-0.228
			c-0.04,0.008-0.056,0.041-0.055,0.074c-0.013,0.002-0.026,0.007-0.039,0.015c-0.71,0.477-0.78,1.31-0.499,2.06
			c0.239,0.637,0.912,1.479,1.644,1.653c0,0.007,0.001,0.014,0.003,0.019c0.077,0.259,0.156,0.516,0.224,0.772
			c0.169,0.647,0.152,1.281,0.231,1.936c0.009,0.077,0.098,0.105,0.145,0.038c0.348-0.495,0.071-1.388-0.063-1.917
			c-0.059-0.229-0.114-0.565-0.248-0.816c0.101-0.024,0.126-0.165,0.033-0.226c-0.627-0.397-1.153-0.628-1.566-1.296
			c-0.436-0.706-0.396-1.462,0.181-2.046c0.419,1.11,2.552-0.814,3.057-0.979c1.276-0.416,2.195,1.648,3.446,0.944
			c0.399,0.554,0.502,1.126,0.288,1.782c-0.229,0.702-0.824,1.019-1.354,1.451c-0.079,0.063,0.01,0.162,0.087,0.15
			c0.002,0,0.003-0.001,0.005-0.001c-0.538,0.845-0.643,2.237-0.446,3.018c0.014,0.054,0.094,0.053,0.108,0
			c0.157-0.584,0.132-1.201,0.237-1.797c0.086-0.496,0.286-0.917,0.516-1.341C277.711,516.748,278.142,514.848,277.247,513.89z"/>
		<g id="XMLID_21_">
			<g>
				<path d="M283.993,525.474c0.568-0.36,0.832-0.817,1.159-1.427c0.005-0.009,0.01-0.018,0.019-0.021l0.207-0.001
					c0.025,0.021,0.041,0.054,0.039,0.096c-0.15,1.731-2.577,2.391-3.981,2.231c-0.231-0.023-0.464-0.066-0.692-0.133
					c-0.025,0.004-0.05-0.003-0.077-0.021c-1.217-0.354-2.286-1.229-2.163-2.613l0.279,0.023c0.065,1.024,0.664,1.728,1.495,2.099
					c-0.26-0.487-0.307-1.105,0.028-1.566c0.428-0.59,1.165-0.888,1.888-0.814c0.783,0.071,1.435,0.425,1.803,1.141
					C284.173,524.808,284.161,525.18,283.993,525.474z M283.449,525.748c0.518-0.444,0.602-1.021,0.093-1.556
					c-0.396-0.415-0.925-0.616-1.501-0.595c-0.57,0.023-1.265,0.234-1.529,0.797c-0.255,0.54-0.035,0.998,0.211,1.474
					c0.298,0.086,0.616,0.137,0.942,0.147C282.264,526.038,282.886,525.967,283.449,525.748z"/>
				<path d="M284.287,522.372c0.508,0.334,1.141,0.899,1.123,1.565c0,0.033-0.013,0.063-0.032,0.086l-0.207,0.001
					c-0.005-0.006-0.011-0.012-0.014-0.02c-0.391-0.688-0.667-1.206-1.435-1.548c-0.695-0.311-1.492-0.469-2.253-0.389
					c-0.612,0.068-1.074,0.352-1.578,0.685c-0.104,0.069-0.977,0.71-1.109,0.854l-0.279-0.023c0.002-0.045,0.008-0.089,0.014-0.134
					c0.01-0.077,0.072-0.104,0.131-0.097c0.315-0.467,0.967-0.813,1.417-1.089c0.587-0.362,1.127-0.561,1.831-0.544
					C282.716,521.738,283.591,521.92,284.287,522.372z"/>
				<path fill="#FFFAF3" d="M285.156,524.007c0.003,0.008,0.009,0.015,0.014,0.02c-0.009,0.006-0.014,0.014-0.019,0.021
					c-0.327,0.607-0.591,1.064-1.159,1.427c0.168-0.294,0.18-0.666,0.001-1.012c-0.368-0.715-1.021-1.067-1.802-1.14
					c-0.724-0.071-1.46,0.227-1.888,0.814c-0.335,0.46-0.289,1.079-0.028,1.566c-0.831-0.371-1.429-1.073-1.495-2.1
					c0.132-0.144,1.005-0.782,1.109-0.854c0.504-0.333,0.966-0.614,1.578-0.685c0.761-0.08,1.558,0.077,2.253,0.389
					C284.491,522.801,284.766,523.32,285.156,524.007z"/>
				<path fill="#332D25" d="M283.542,524.192c0.509,0.532,0.424,1.109-0.093,1.556c-0.563,0.219-1.186,0.29-1.783,0.27
					c-0.327-0.013-0.645-0.063-0.943-0.147c-0.246-0.474-0.467-0.933-0.211-1.473c0.265-0.563,0.959-0.772,1.529-0.798
					C282.617,523.576,283.146,523.777,283.542,524.192z"/>
			</g>
		</g>
		<g id="XMLID_20_">
			<g>
				<path d="M269.334,524.761c0.032,0.02,0.055,0.048,0.053,0.087c-0.069,0.805-0.932,1.492-1.609,1.815
					c-0.809,0.387-1.735,0.578-2.631,0.465c-0.85-0.106-1.708-0.419-2.339-1.021c-0.186-0.177-0.765-0.778-0.742-1.174
					c-0.024-0.014-0.043-0.034-0.05-0.063c-0.002-0.011-0.005-0.022-0.008-0.032c-0.008-0.039,0.006-0.071,0.039-0.095
					c0.023-0.02,0.045-0.031,0.066-0.047c-0.025-0.157,0.385-0.71,0.465-0.794c0.262-0.273,0.563-0.523,0.899-0.701
					c0.678-0.359,1.441-0.548,2.21-0.523C267.17,522.722,268.629,523.409,269.334,524.761z M269.07,524.949
					c-0.005-0.005-0.01-0.015-0.015-0.021c-0.674-1.264-2.097-1.955-3.506-1.938c-0.704,0.011-1.433,0.164-2.037,0.54
					c-0.477,0.298-0.767,0.679-1.088,1.084c0.023,0.071-0.006,0.163-0.089,0.187c0.028,0.165,0.082,0.314,0.154,0.457
					c0.023,0.009,0.031,0.031,0.025,0.053c0.24,0.439,0.664,0.78,1.155,1.025c-0.604-0.94,0.45-1.96,1.497-2.245
					c0.66-0.186,1.395-0.187,1.972,0.227c0.579,0.413,0.766,1.204,0.709,1.896c0.004-0.002,0.009-0.004,0.014-0.007
					C268.41,525.864,268.69,525.417,269.07,524.949z M267.498,526.398c0.02-0.69,0.042-1.513-0.642-1.911
					c-0.487-0.283-1.087-0.289-1.62-0.136c-0.991,0.284-2.075,1.252-1.11,2.182c0.56,0.201,1.155,0.29,1.636,0.269
					C266.351,526.773,266.956,526.65,267.498,526.398z"/>
				<path fill="#FFFAF3" d="M269.055,524.93c0.005,0.008,0.01,0.017,0.015,0.021c-0.379,0.468-0.66,0.915-1.21,1.259
					c-0.005,0.003-0.01,0.005-0.014,0.007c0.056-0.69-0.131-1.481-0.709-1.896c-0.577-0.411-1.313-0.409-1.972-0.227
					c-1.047,0.286-2.101,1.306-1.497,2.245c-0.491-0.245-0.915-0.586-1.155-1.025c0.005-0.021-0.002-0.044-0.025-0.053
					c-0.072-0.143-0.126-0.292-0.154-0.457c0.083-0.021,0.113-0.112,0.089-0.187c0.322-0.405,0.612-0.786,1.088-1.084
					c0.604-0.376,1.333-0.529,2.037-0.54C266.957,522.974,268.38,523.666,269.055,524.93z"/>
				<path fill="#332D25" d="M266.855,524.487c0.685,0.399,0.662,1.221,0.642,1.911c-0.542,0.252-1.146,0.375-1.737,0.401
					c-0.48,0.021-1.077-0.065-1.636-0.269c-0.965-0.93,0.121-1.896,1.11-2.182C265.768,524.198,266.369,524.204,266.855,524.487z"/>
			</g>
		</g>
		<path d="M277.037,506.6c-0.352,0.055-0.603,0.261-0.938,0.357c-0.413,0.122-0.837,0.141-1.264,0.14
			c-0.835-0.001-1.659-0.09-2.493,0.026c-0.662,0.092-1.317,0.271-1.924-0.063c-0.25-0.141-1.541-1.02-1.545-0.194
			c-0.004,0.598,1.023,1.058,1.502,1.31c0.797,0.42,1.589,0.3,2.452,0.25c0.952-0.054,1.896,0.082,2.845-0.059
			c0.79-0.116,1.791-0.469,1.875-1.375C277.574,506.702,277.271,506.563,277.037,506.6z"/>
		<path d="M286.168,528.03c-0.534-0.122-1.124-0.061-1.667-0.026c-0.665,0.039-1.378-0.021-2.036-0.129
			c-0.664-0.109-1.304-0.313-1.919-0.581c-0.62-0.271-1.101-0.763-1.717-1.02c-0.346-0.146-0.727,0.277-0.611,0.61
			c0.479,1.367,2.362,2.19,3.692,2.364c1.327,0.175,3.373,0.063,4.298-1.07C286.248,528.131,286.24,528.046,286.168,528.03z"/>
		<path d="M269.161,527.389c-0.536-0.016-0.972,0.327-1.412,0.594c-0.587,0.351-1.181,0.649-1.875,0.673
			c-0.656,0.021-1.268-0.157-1.912-0.208c-0.545-0.044-1.25-0.245-1.727,0.109c-0.095,0.07-0.153,0.196-0.082,0.309
			c0.339,0.524,1.085,0.646,1.639,0.834c0.68,0.232,1.568,0.297,2.28,0.247c0.707-0.052,1.354-0.354,1.957-0.708
			c0.523-0.311,1.186-0.646,1.524-1.164C269.749,527.773,269.49,527.396,269.161,527.389z"/>
	</g>
</g>
</svg>
