<?xml version="1.0" encoding="utf-8"?>
<!DOCTYPE svg PUBLIC "-//W3C//DTD SVG 1.1//EN" "http://www.w3.org/Graphics/SVG/1.1/DTD/svg11.dtd">
<svg version="1.1" id="Layer_3" xmlns="http://www.w3.org/2000/svg" xmlns:xlink="http://www.w3.org/1999/xlink" viewBox="0 0 1280 800">
<defs>
	<filter id="OpacityMaskFilter" filterUnits="userSpaceOnUse" x="239.281" y="279.796" width="66.567" height="106.825">
		<feColorMatrix  type="matrix" values="1 0 0 0 0  0 1 0 0 0  0 0 1 0 0  0 0 0 1 0"/>
	</filter>
</defs>
<mask maskUnits="userSpaceOnUse" x="239.281" y="279.796" width="66.567" height="106.825" id="SVGID_1_">
	<g filter="url(#OpacityMaskFilter)">
		<rect fill="#FFFFFF" width="1280" height="800"/>
	</g>
</mask>
<g mask="url(#SVGID_1_)">
	<g id="left_thigh">
		<g id="XMLID_11_">
			<g>
				<path fill="#020202" d="M305.816,359.698c0.017-0.011,0.035,0.006,0.032,0.022c-0.118,0.514-0.387,0.996-0.524,1.513
					c-0.197,0.744-0.35,1.499-0.5,2.253c-0.275,1.387-0.479,2.901-1.09,4.188c-1.614,3.398-4.246,6.631-4.021,10.594
					c0.008,0.146-0.141,0.191-0.242,0.141c0.024-0.079,0.05-0.159,0.076-0.243c0.04-0.128-0.078-0.198-0.177-0.174
					c-0.102-3.844,2.433-6.978,4.018-10.291c0.712-1.486,0.946-3.199,1.308-4.794c0.16-0.716,0.316-1.438,0.547-2.134
					c0.077-0.231,0.148-0.518,0.282-0.748c0.122,0.012,0.232-0.133,0.178-0.238C305.736,359.754,305.775,359.724,305.816,359.698z"
					/>
				<path fill="#405268" d="M305.702,359.787c0.054,0.105-0.056,0.25-0.178,0.238C305.572,359.938,305.631,359.855,305.702,359.787z
					"/>
				<path fill="#405268" d="M305.661,359.739c0.018,0.014,0.032,0.029,0.041,0.049c-0.07,0.068-0.129,0.149-0.178,0.238
					c-0.023-0.001-0.044-0.01-0.068-0.022c-0.977-0.595-2.084-0.99-3.108-1.491c-1.432-0.699-2.805-1.475-4.285-2.078
					c-3.266-1.334-6.663-2.307-10.033-3.331c-2.362-0.72-4.753-1.367-7.098-2.139c-1.112-0.365-2.23-0.757-3.276-1.287
					c-0.595-0.304-1.271-0.654-1.666-1.217c-0.027-0.037-0.051-0.076-0.076-0.115c-0.065-0.108,0.1-0.203,0.167-0.099
					c0.505,0.783,1.609,1.209,2.434,1.543c1.118,0.454,2.267,0.824,3.421,1.169c2.415,0.717,4.838,1.405,7.252,2.121
					c3.316,0.982,6.655,1.964,9.83,3.354c1.308,0.572,2.537,1.289,3.828,1.896C303.764,358.761,304.867,359.096,305.661,359.739z"/>
				<path fill="#405268" d="M305.524,360.026c-0.133,0.23-0.205,0.517-0.282,0.748c-0.232,0.695-0.388,1.417-0.548,2.134
					c-0.362,1.595-0.595,3.308-1.307,4.794c-1.584,3.314-4.12,6.448-4.018,10.291c-0.045,0.012-0.087,0.042-0.108,0.096
					c-0.089,0.228-0.264,0.899-0.46,1.081c-0.201,0.188-0.364,0.42-0.541,0.633c-0.461,0.56-0.959,1.078-1.492,1.565
					c-1.023,0.934-2.193,1.693-3.426,2.321c-2.542,1.293-5.394,1.905-8.21,2.221c-5.696,0.641-11.428,0.028-17.13-0.138
					c-3.067-0.091-6.135-0.25-9.185-0.606c-2.974-0.349-6.195-0.792-8.955-2.016c-2.434-1.078-4.327-3.052-6.153-4.928
					c-0.903-0.929-1.805-1.854-2.793-2.691c-0.162-0.141-0.332-0.265-0.505-0.387c0.031-0.02,0.055-0.047,0.073-0.078
					c0.232,0.048,0.25-0.25,0.423-0.323c0.047-0.021,0.013-0.104-0.036-0.084c-0.069,0.026-0.099,0.067-0.14,0.132
					c-0.064,0.099-0.146,0.123-0.233,0.116c-0.185-1.118-0.411-2.217-0.51-3.347c-0.109-1.256-0.186-2.512-0.242-3.768
					c-0.109-2.433-0.117-4.867-0.059-7.301c0.111-4.729,0.583-9.421,0.978-14.132c0.009-0.097,0.017-0.19,0.024-0.287
					c0.544-1.315,0.319-2.829,0.154-4.205c-0.218-1.808-0.131-3.567-0.126-5.383c0.004-2,0.018-3.989,0.188-5.984
					c0.18-2.092,0.484-4.169,0.834-6.237c0.679-4.016,1.579-7.981,2.123-12.022c0.541-4.021,0.976-8.069,2.02-12
					c1.266-4.765,0.921-9.82,2.58-14.5c0.019-0.002,0.039-0.011,0.056-0.029c3.297-3.206,7.879-5.43,12.523-5.623
					c1.869-0.076,3.778,0.082,5.595,0.536c1.521,0.382,3.452,1.106,3.934,2.774c0.021,0.068,0.072,0.1,0.125,0.104
					c0.414,1.084,1.083,2.062,1.34,3.215c0.438,1.956-0.035,4.172-0.215,6.136c-0.379,4.143-0.099,8.376,0.133,12.519
					c0.115,2.075,0.261,4.148,0.346,6.224c0.08,1.982-0.003,3.97-0.029,5.952c-0.023,1.854,0.147,3.657,0.445,5.483
					c0.318,1.959,0.575,3.923,0.836,5.891c0.47,3.543,0.878,7.097,0.902,10.676c0.021,3.021-0.607,6.429,1.246,9.079
					c0.131,0.188,0.438,0.01,0.308-0.181c-0.006-0.01-0.014-0.019-0.021-0.028l0.001-0.001c0.397,0.563,1.073,0.913,1.667,1.218
					c1.044,0.528,2.164,0.921,3.276,1.286c2.345,0.771,4.735,1.419,7.098,2.139c3.371,1.024,6.767,1.997,10.033,3.332
					c1.48,0.604,2.854,1.378,4.286,2.077c1.024,0.502,2.133,0.896,3.108,1.491C305.479,360.018,305.501,360.023,305.524,360.026z
					 M277.276,350.438c0,0.007,0.009,0.007,0.009,0c-0.006-0.426-0.132-0.83-0.427-1.146c-0.006-0.008-0.018,0.003-0.012,0.011
					C277.143,349.614,277.267,350.016,277.276,350.438z"/>
				<path fill="#405268" d="M299.37,377.992c0.099-0.024,0.216,0.046,0.177,0.174c-0.025,0.083-0.051,0.164-0.076,0.243
					c-0.049-0.023-0.086-0.069-0.09-0.141C299.376,378.177,299.371,378.085,299.37,377.992z"/>
				<path fill="#405268" d="M299.381,378.271c0.004,0.068,0.041,0.114,0.09,0.14c-0.165,0.51-0.336,0.938-0.669,1.38
					c-0.347,0.461-0.729,0.9-1.136,1.311c-0.816,0.817-1.719,1.557-2.701,2.171c-2.009,1.256-4.262,2.072-6.575,2.561
					c-4.972,1.049-10.093,0.831-15.136,0.585c-6.537-0.321-13.183-0.241-19.598-1.707c-1.521-0.349-3.088-0.735-4.477-1.469
					c-1.299-0.688-2.465-1.59-3.535-2.592c-1.101-1.028-2.115-2.143-3.167-3.22c-0.531-0.541-1.064-1.082-1.628-1.587
					c-0.276-0.246-0.924-0.6-0.901-0.997c0.002-0.043,0.036-0.086,0.082-0.083c0.015,0.001,0.031,0.003,0.046,0.008
					c0.017,0.091,0.033,0.181,0.049,0.271c0.027,0.158,0.186,0.174,0.29,0.104c0.173,0.122,0.343,0.247,0.505,0.386
					c0.988,0.839,1.89,1.765,2.793,2.692c1.826,1.876,3.72,3.85,6.153,4.928c2.76,1.224,5.981,1.667,8.955,2.016
					c3.051,0.356,6.118,0.518,9.186,0.606c5.703,0.167,11.434,0.777,17.13,0.138c2.816-0.314,5.668-0.928,8.21-2.221
					c1.233-0.628,2.403-1.389,3.426-2.321c0.532-0.487,1.03-1.009,1.492-1.565c0.177-0.212,0.34-0.442,0.541-0.633
					c0.196-0.182,0.371-0.854,0.46-1.081c0.021-0.054,0.063-0.084,0.108-0.096C299.371,378.085,299.376,378.177,299.381,378.271z"/>
				<path fill="#020202" d="M277.286,350.438c0,0.007-0.009,0.007-0.009,0c-0.009-0.422-0.133-0.822-0.43-1.136
					c-0.006-0.008,0.005-0.019,0.012-0.011C277.153,349.606,277.278,350.012,277.286,350.438z"/>
				<path fill="#020202" d="M276.008,348.492c0.131,0.188-0.177,0.367-0.308,0.181c-1.853-2.65-1.224-6.059-1.246-9.079
					c-0.024-3.579-0.432-7.133-0.902-10.677c-0.262-1.966-0.519-3.93-0.836-5.89c-0.297-1.826-0.468-3.631-0.445-5.483
					c0.026-1.983,0.109-3.969,0.029-5.953c-0.084-2.075-0.23-4.146-0.346-6.224c-0.232-4.143-0.513-8.375-0.133-12.518
					c0.181-1.964,0.653-4.18,0.215-6.137c-0.258-1.151-0.927-2.129-1.34-3.214c0.092,0.008,0.194-0.066,0.162-0.183
					c-0.005-0.017-0.009-0.032-0.016-0.049c0.391,0.968,1.014,1.829,1.322,2.835c0.474,1.542,0.297,3.23,0.144,4.812
					c-0.355,3.646-0.378,7.272-0.226,10.934c0.173,4.115,0.61,8.234,0.566,12.354c-0.021,1.964-0.159,3.951,0.01,5.909
					c0.165,1.905,0.563,3.78,0.82,5.677c0.527,3.862,1.107,7.742,1.277,11.64c0.086,1.991-0.058,3.964-0.044,5.952
					c0.014,1.758,0.255,3.604,1.274,5.083C275.994,348.474,276.001,348.482,276.008,348.492z"/>
				<path fill="#020202" d="M270.859,283.316c0.032,0.117-0.069,0.191-0.162,0.183c-0.086-0.224-0.16-0.452-0.219-0.688
					c-0.021-0.084,0.059-0.136,0.123-0.119c0.044,0.077,0.083,0.156,0.119,0.238c0.038,0.114,0.079,0.226,0.123,0.337
					C270.85,283.284,270.853,283.299,270.859,283.316z"/>
				<path fill="#405268" d="M270.72,282.931c0.048,0.107,0.09,0.22,0.123,0.337C270.799,283.156,270.758,283.044,270.72,282.931z"/>
				<path fill="#020202" d="M270.666,282.759c0.017,0.058,0.035,0.115,0.054,0.172c-0.036-0.082-0.075-0.162-0.119-0.238
					C270.631,282.7,270.655,282.72,270.666,282.759z"/>
				<path fill="#405268" d="M270.601,282.693c-0.064-0.017-0.145,0.035-0.123,0.119c0.059,0.236,0.133,0.464,0.219,0.688
					c-0.054-0.004-0.105-0.036-0.125-0.104c-0.482-1.667-2.413-2.392-3.934-2.774c-1.816-0.454-3.726-0.611-5.595-0.536
					c-4.644,0.193-9.225,2.417-12.523,5.623c-0.018,0.018-0.037,0.027-0.056,0.029c0.026-0.073,0.051-0.145,0.078-0.216
					c0.019-0.051-0.004-0.088-0.04-0.105c1.628-1.915,4.098-3.249,6.388-4.167c2.089-0.838,4.283-1.411,6.541-1.45
					c1.992-0.031,4.072,0.136,5.978,0.749C268.618,280.936,269.965,281.552,270.601,282.693z"/>
				<path fill="#020202" d="M248.503,285.417c0.036,0.017,0.059,0.054,0.04,0.105c-0.027,0.072-0.052,0.144-0.078,0.216
					c-0.08,0.013-0.15-0.091-0.086-0.171C248.42,285.517,248.461,285.467,248.503,285.417z"/>
				<path fill="#020202" d="M248.503,285.417c-0.042,0.05-0.083,0.1-0.125,0.15c-0.064,0.081,0.006,0.185,0.086,0.171
					c-1.659,4.68-1.314,9.736-2.58,14.5c-1.045,3.933-1.479,7.979-2.02,12.001c-0.542,4.041-1.443,8.009-2.123,12.021
					c-0.35,2.069-0.655,4.146-0.833,6.238c-0.17,1.995-0.185,3.984-0.188,5.984c-0.005,1.814-0.092,3.575,0.126,5.383
					c0.165,1.374,0.391,2.889-0.154,4.205c-0.008,0.096-0.016,0.19-0.024,0.287l-0.209-0.019c-0.112-0.015-0.221-0.141-0.158-0.277
					c0.941-2.083-0.123-4.537-0.019-6.709c0.129-2.712-0.017-5.428,0.193-8.138c0.312-3.989,1.038-7.929,1.82-11.848
					c0.802-4.013,1.323-8.038,1.907-12.083c0.29-1.999,0.615-3.999,1.092-5.963c0.448-1.852,0.816-3.681,1.063-5.571
					c0.447-3.435,0.658-7.051,2-10.284C248.384,285.406,248.456,285.393,248.503,285.417z"/>
				<path fill="#405268" d="M240.872,374.657c0.049-0.02,0.083,0.063,0.036,0.084c-0.172,0.073-0.19,0.372-0.423,0.322
					c0.019-0.035,0.027-0.08,0.019-0.13c-0.001-0.01-0.004-0.021-0.005-0.029c0.087,0.007,0.169-0.019,0.233-0.116
					C240.774,374.725,240.803,374.684,240.872,374.657z"/>
				<path fill="#020202" d="M240.457,346.342l0.209,0.019c-0.395,4.71-0.867,9.401-0.978,14.132
					c-0.058,2.434-0.05,4.869,0.059,7.301c0.056,1.255,0.133,2.512,0.242,3.768c0.099,1.129,0.325,2.229,0.51,3.347
					c-0.138-0.016-0.293-0.112-0.425-0.136c-0.174-0.984-0.369-1.964-0.454-2.959c-0.106-1.254-0.191-2.512-0.244-3.768
					c-0.107-2.516-0.123-5.035-0.051-7.552C239.46,355.771,239.793,351.02,240.457,346.342z"/>
				<path fill="#405268" d="M240.505,374.936c0.008,0.05,0,0.095-0.019,0.13c-0.016-0.003-0.032-0.007-0.05-0.014
					c-0.265-0.095-0.468-0.225-0.086,0.048c0.021,0.017,0.042,0.029,0.063,0.044c-0.104,0.071-0.263,0.056-0.29-0.104
					c-0.016-0.091-0.032-0.181-0.049-0.272c0.132,0.024,0.287,0.122,0.425,0.138C240.501,374.915,240.503,374.926,240.505,374.936z"
					/>
				<path fill="#020202" d="M240.435,375.052c0.018,0.007,0.035,0.011,0.05,0.014c-0.018,0.032-0.042,0.061-0.073,0.078
					c-0.021-0.015-0.042-0.027-0.063-0.044C239.967,374.827,240.17,374.957,240.435,375.052z"/>
			</g>
		</g>
		<g>
			<path fill="#020202" d="M305.817,359.698c-0.343,0.217-0.455,0.711-0.575,1.075c-0.232,0.695-0.387,1.419-0.549,2.134
				c-0.361,1.595-0.594,3.308-1.304,4.794c-0.875,1.832-2.042,3.606-2.893,5.478c-0.024-0.024-0.054-0.041-0.093-0.041
				c-1.854,0.015-3.773,0.188-5.614,0.417c-1.705,0.213-3.513,0.563-5.034,1.392c-1.145,0.623-2.277,1.501-3.063,2.549
				c-0.651,0.868-1.285,2.195-0.61,3.229c0.034,0.054,0.116,0.021,0.101-0.042c-0.152-0.618-0.22-1.138-0.03-1.761
				c0.205-0.683,0.677-1.275,1.152-1.79c0.856-0.928,1.951-1.665,3.085-2.207c1.582-0.756,3.525-1.004,5.248-1.177
				c1.572-0.156,3.188-0.099,4.751-0.334c-0.668,1.525-1.113,3.118-1.008,4.857c0.012,0.212,0.343,0.213,0.331,0
				c-0.225-3.965,2.407-7.195,4.022-10.596c0.611-1.287,0.814-2.804,1.091-4.188c0.151-0.755,0.302-1.509,0.5-2.253
				c0.137-0.519,0.407-1,0.523-1.514C305.851,359.704,305.834,359.688,305.817,359.698z"/>
			<path fill="#020202" d="M240.718,336.483c0.005-1.999,0.019-3.989,0.189-5.983c0.179-2.091,0.483-4.169,0.833-6.236
				c0.679-4.018,1.579-7.982,2.124-12.021c0.541-4.022,0.976-8.071,2.02-12.003c1.285-4.836,0.91-9.975,2.659-14.716
				c0.044-0.12-0.141-0.164-0.187-0.052c-1.342,3.232-1.552,6.85-1.999,10.285c-0.247,1.89-0.615,3.721-1.063,5.572
				c-0.477,1.964-0.803,3.962-1.092,5.961c-0.584,4.045-1.105,8.072-1.907,12.083c-0.784,3.919-1.509,7.856-1.819,11.848
				c-0.211,2.709-0.066,5.427-0.195,8.14c-0.104,2.171,0.96,4.626,0.019,6.708c-0.062,0.138,0.047,0.263,0.158,0.276
				c-0.664,4.679-0.997,9.432-1.13,14.15c-0.072,2.517-0.057,5.035,0.05,7.551c0.054,1.257,0.138,2.513,0.244,3.769
				c0.092,1.087,0.315,2.154,0.502,3.229c0.044,0.252,0.422,0.145,0.382-0.104c-0.186-1.126-0.415-2.235-0.514-3.375
				c-0.11-1.256-0.187-2.512-0.243-3.769c-0.109-2.433-0.116-4.867-0.059-7.3c0.113-4.826,0.601-9.612,1-14.42
				c0.545-1.316,0.32-2.831,0.155-4.205C240.627,340.063,240.715,338.301,240.718,336.483z"/>
			<path fill="#020202" d="M252.957,372.083c-1.818-0.656-3.708-1.09-5.54-1.707c-0.916-0.308-1.811-0.675-2.656-1.143
				c-0.656-0.364-1.177-0.851-1.742-1.308c-0.097-0.123-0.184-0.236-0.338-0.286c-0.036-0.575-0.069-1.151-0.103-1.727
				c-0.244-4.063-0.489-8.13-0.579-12.201c-0.184-8.412,0.49-16.854,1.305-25.22c0.454-4.67,0.951-9.341,1.538-13.996
				c0.578-4.588,1.515-9.125,1.958-13.73c0.007-0.071-0.117-0.089-0.126-0.019c-0.553,4.099-1.285,8.169-1.877,12.261
				c-0.587,4.061-1.013,8.146-1.438,12.226c-0.872,8.36-1.593,16.779-1.639,25.192c-0.025,4.733,0.245,9.469,0.538,14.192
				c0.245,3.965,0.272,8.153,1.543,11.959c0.033,0.102,0.191,0.06,0.161-0.044c-0.807-2.759-1.074-5.648-1.258-8.521
				c0.416,0.522,1.073,0.944,1.608,1.282c0.728,0.458,1.519,0.811,2.317,1.123c1.727,0.678,3.535,1.121,5.297,1.694
				c1.644,0.532,3.319,1.193,4.591,2.402c0.624,0.596,1.084,1.331,1.374,2.14c0.359,1.005,0.28,2.005,0.403,3.041
				c0.017,0.149,0.245,0.21,0.285,0.038c0.388-1.686-0.275-3.71-1.343-5.021C256.161,373.395,254.524,372.65,252.957,372.083z"/>
			<path fill="#020202" d="M256.058,355.365c0.861-0.464,1.677-0.926,2.613-1.239c0.866-0.29,1.77-0.473,2.662-0.654
				c1.715-0.349,3.462-0.659,5.018-1.505c0.036-0.02,0.059-0.061,0.058-0.101c-0.001-0.097-0.002-0.19-0.003-0.285
				c0-0.062-0.052-0.116-0.114-0.114c-0.239,0.007-0.476,0.019-0.714,0.036c-0.1,0.01-0.1,0.147,0,0.156
				c0.174,0.014,0.347,0.021,0.522,0.031c0.267,0.013-0.363,0.316-0.383,0.326c-0.511,0.238-1.054,0.408-1.596,0.561
				c-0.941,0.264-1.91,0.426-2.869,0.605c-1.78,0.334-3.957,0.718-5.298,2.05C255.885,355.301,255.974,355.409,256.058,355.365z"/>
			<path fill="#020202" d="M268.071,352.722c0.087,1.178-0.755,2.089-1.585,2.807c-1.15,0.993-2.524,1.723-3.875,2.399
				c-2.283,1.146-4.687,1.896-7.049,2.835c-0.118,0.047-0.073,0.208,0.052,0.188c1.039-0.156,2.074-0.594,3.051-0.959
				c1.533-0.577,3.038-1.235,4.492-1.987c1.366-0.707,2.737-1.538,3.842-2.62c0.705-0.688,1.418-1.643,1.222-2.683
				C268.203,352.619,268.065,352.638,268.071,352.722z"/>
			<path fill="#020202" d="M292.721,364.23c0.09-0.018,0.089-0.164,0-0.183c-0.521-0.099-1.063-0.099-1.589-0.159
				c-0.685-0.079-1.36-0.237-2.024-0.426c-1.254-0.354-2.444-0.907-3.603-1.497c-1.102-0.56-2.158-1.259-3.303-1.723
				c-1.229-0.497-2.517-0.724-3.771-1.123c-0.03-0.01-0.04,0.035-0.013,0.045c1.281,0.5,2.626,0.848,3.881,1.404
				c1.18,0.522,2.282,1.253,3.435,1.839c1.061,0.537,2.154,1.006,3.292,1.352C290.146,364.104,291.549,364.432,292.721,364.23z"/>
			<path fill="#020202" d="M277.078,365.503c0.02-0.021,0.03-0.048,0.03-0.075c0.069-0.175,0.154-0.351,0.257-0.523
				c0.064-0.107-0.102-0.204-0.167-0.1c-0.106,0.17-0.192,0.343-0.266,0.519c-1.719,0.519-3.253,1.438-4.337,2.894
				c-1.001,1.34-1.166,2.915-1.276,4.527c-0.101,1.464-0.255,2.926-0.462,4.379c-0.102,0.715-0.219,1.43-0.378,2.134
				c-0.043,0.19-0.197,1.138-0.476,1.146c-0.008,0-0.011,0.011-0.004,0.016c0.445,0.289,0.774-1.691,0.809-1.864
				c0.305-1.532,0.467-3.103,0.609-4.657c0.146-1.608,0.02-3.198,0.733-4.701c0.898-1.892,2.774-2.941,4.679-3.593
				c-0.664,2.079,0.674,4.416,0.517,6.549c-0.059,0.8-0.432,1.579-0.61,2.356c-0.172,0.754-0.27,1.525-0.338,2.294
				c-0.151,1.703-0.174,3.473-0.072,5.179c0.008,0.128,0.191,0.128,0.198,0c0.094-1.646-0.014-3.3,0.099-4.948
				c0.057-0.829,0.167-1.649,0.334-2.462c0.154-0.75,0.466-1.465,0.579-2.223C277.882,370.048,276.254,367.719,277.078,365.503z"/>
			<path fill="#020202" d="M272.039,286.713c0.438,1.957-0.036,4.172-0.216,6.137c-0.38,4.143-0.098,8.375,0.133,12.52
				c0.116,2.072,0.262,4.146,0.346,6.222c0.081,1.982-0.003,3.97-0.028,5.953c-0.024,1.854,0.146,3.656,0.444,5.482
				c0.317,1.96,0.574,3.923,0.834,5.89c0.472,3.544,0.878,7.098,0.903,10.677c0.004,0.585-0.017,1.185-0.039,1.788
				c-0.092,0.654-0.177,1.309-0.261,1.963c0.007-0.537,0.018-1.076-0.002-1.611c0-0.02-0.026-0.02-0.027,0
				c-0.021,0.568-0.007,1.143,0,1.712c0,0.008,0.007,0.013,0.014,0.013c-0.013,0.101-0.026,0.199-0.039,0.3
				c-0.169,1.315-0.418,2.748-0.272,4.081c-0.047,1.116-0.182,2.207-0.395,3.311c-0.222,1.146-0.568,2.269-0.762,3.419
				c-0.009,0.053,0.062,0.071,0.081,0.021c0.429-1.16,0.69-2.396,0.915-3.611c0.194-1.055,0.319-2.158,0.229-3.231
				c0.173-1.313,0.201-2.65,0.381-3.964c0.029-0.214,0.061-0.431,0.092-0.646c-0.013,1.955,0.181,3.893,1.33,5.537
				c0.026,0.036,0.059,0.06,0.094,0.069c0.055,0.555,0.433,1.096,0.783,1.53c-0.011,0.078,0.033,0.165,0.134,0.165
				c0.001,0,0.001,0,0.001,0c0.009,0.012,0.018,0.021,0.026,0.032c0.753,0.903,1.701,1.647,2.647,2.339
				c1.049,0.768,2.16,1.453,3.3,2.077c0.83,0.454,1.764,1.033,2.709,1.199c0.089,0.016,0.15-0.104,0.063-0.152
				c-0.763-0.434-1.593-0.757-2.369-1.17c-1.047-0.555-2.063-1.167-3.042-1.832c-1.613-1.092-3.344-2.378-4.046-4.248
				c0.043-0.049,0.056-0.118,0.006-0.19c-1.038-1.483-1.28-3.343-1.293-5.112c-0.016-1.986,0.128-3.96,0.042-5.951
				c-0.169-3.896-0.75-7.775-1.277-11.639c-0.257-1.896-0.654-3.77-0.819-5.677c-0.17-1.96-0.032-3.947-0.011-5.911
				c0.044-4.12-0.394-8.238-0.566-12.354c-0.153-3.661-0.129-7.287,0.226-10.934c0.154-1.582,0.33-3.27-0.144-4.812
				c-0.361-1.176-1.153-2.156-1.498-3.344c-0.035-0.121-0.22-0.07-0.189,0.052C270.819,284.188,271.727,285.324,272.039,286.713z"/>
		</g>
	</g>
</g>
</svg>
