<?xml version="1.0" encoding="utf-8"?>
<!DOCTYPE svg PUBLIC "-//W3C//DTD SVG 1.1//EN" "http://www.w3.org/Graphics/SVG/1.1/DTD/svg11.dtd">
<svg version="1.1" id="Layer_3" xmlns="http://www.w3.org/2000/svg" xmlns:xlink="http://www.w3.org/1999/xlink" viewBox="0 0 1280 800">
<defs>
	<filter id="OpacityMaskFilter" filterUnits="userSpaceOnUse" x="200.188" y="456.488" width="51.458" height="115.409">
		<feColorMatrix  type="matrix" values="1 0 0 0 0  0 1 0 0 0  0 0 1 0 0  0 0 0 1 0"/>
	</filter>
</defs>
<mask maskUnits="userSpaceOnUse" x="200.188" y="456.488" width="51.458" height="115.409" id="SVGID_1_">
	<g filter="url(#OpacityMaskFilter)">
		<rect fill="#FFFFFF" width="1280" height="800"/>
	</g>
</mask>
<g mask="url(#SVGID_1_)">
	<g id="left_arm">
		<g id="XMLID_16_">
			<g>
				<path fill="#96BBD6" d="M251.583,484.342c0.047,0.045,0.069,0.146,0.06,0.326c-0.052,0.982,0.076,2.005-0.193,2.964
					c-0.513,1.84-1.902,3.125-3.243,4.396c-2.189,2.078-3.544,4.834-4.976,7.457c-0.88,1.614-1.752,3.235-2.722,4.8
					c-1.001,1.613-1.938,3.228-2.731,4.957c-0.794,1.73-1.507,3.5-2.294,5.233c-0.751,1.659-1.603,3.268-2.414,4.895
					c-0.739,1.479-1.443,2.983-1.946,4.565c-0.556,1.751-0.767,3.539-1.125,5.333c-0.395,1.975-0.942,3.905-1.417,5.856
					c-0.469,1.929-0.796,3.854-1.01,5.824c-0.361,3.312-0.659,6.636-1.265,9.917c-0.601,3.262-1.473,6.53-3.061,9.464
					c-1.291,2.379-2.968,4.438-5.416,5.556c0.007,0.145,0,0.286-0.028,0.426c-0.039,0.195-0.336,0.111-0.3-0.085
					c0.013-0.066,0.021-0.14,0.023-0.212c-0.065,0.026-0.128,0.058-0.194,0.082c-0.065,1.206-0.365,2.462-0.888,3.535
					c-0.41,0.843-0.998,1.677-1.874,1.899c-0.042,0.095-0.088,0.187-0.14,0.279c-0.102,0.187-0.381,0.021-0.281-0.163
					c0.012-0.021,0.022-0.041,0.032-0.062c-0.102,0.004-0.204,0.004-0.313-0.007c-0.073-0.013-0.077-0.118,0-0.118
					c0.137,0.001,0.269-0.016,0.395-0.041c1.215-2.643-2.343-3.897-4.389-4.311c-1.46-0.295-2.973-0.42-4.461-0.323
					c-0.625,0.039-1.253,0.11-1.861,0.271c-0.245,0.063-0.492,0.138-0.721,0.246c-0.149,0.07-0.196,0.221-0.209,0.399
					c0.062,0.2,0.137,0.398,0.228,0.596c0.072,0.154-0.145,0.288-0.23,0.136c-0.009-0.016-0.017-0.031-0.024-0.046
					c-0.018,0.069-0.123,0.064-0.141-0.003c-0.059-0.216-0.104-0.421-0.131-0.629c-0.349-1.059-0.267-2.244-0.127-3.329
					c0.1-0.771,0.217-1.536,0.33-2.305c0.106-0.723,0.065-1.457,0.177-2.169c0.004-0.021,0.026-0.025,0.042-0.021
					c-0.002-0.023-0.008-0.047-0.012-0.067c-0.086-0.005-0.154-0.121-0.077-0.19c0.013-0.015,0.027-0.024,0.04-0.036
					c-0.118-0.642-0.327-1.26-0.637-1.862c-0.395-0.766-0.877-1.484-1.25-2.266c-0.365-0.765-0.642-1.59-0.62-2.446
					c0.029-1.1,0.432-2.077,0.9-3.061c0.792-1.661,1.693-3.269,2.509-4.918c0.857-1.738,1.518-3.51,2.066-5.366
					c1.101-3.732,1.064-7.675,2.542-11.309c1.22-3.002,3.12-5.788,3.767-9.004c0.353-1.755,0.214-3.537,0.495-5.302
					c0.24-1.498,0.716-2.942,1.466-4.265l0.159,0.072c-0.544,1.122-1.006,2.268-1.247,3.496c-0.256,1.31-0.24,2.601-0.321,3.919
					c-0.145,2.36-0.885,4.538-1.906,6.652c-0.755,1.563-1.568,3.099-2.191,4.72c-0.696,1.812-1.093,3.654-1.383,5.571
					c-0.292,1.933-0.537,3.894-1.142,5.754c-0.562,1.729-1.125,3.393-1.93,5.025c-0.813,1.646-1.714,3.247-2.505,4.907
					c-0.674,1.414-1.252,2.857-0.759,4.431c0.558,1.771,1.884,3.224,2.273,5c1.438-1.151,3.209-1.43,4.999-0.924
					c1.002,0.283,1.977,0.662,2.986,0.927c0.774,0.2,1.529,0.173,2.317,0.232c1.518,0.113,2.533,1.313,3.212,2.593
					c0.39,0.729,0.729,1.5,0.991,2.286c0.107,0.325,0.237,0.688,0.301,1.052c1.299-0.632,2.383-1.493,3.333-2.644
					c1.202-1.457,2.121-3.141,2.831-4.887c1.286-3.166,1.979-6.529,2.451-9.903c0.478-3.41,0.601-6.896,1.227-10.279
					c0.364-1.973,0.901-3.902,1.391-5.848c0.484-1.917,0.752-3.855,1.16-5.787c0.681-3.231,2.151-6.115,3.638-9.041
					c1.725-3.39,2.99-7,4.8-10.345c0.879-1.629,1.926-3.156,2.838-4.77c0.904-1.601,1.761-3.225,2.667-4.827
					c0.76-1.338,1.534-2.691,2.469-3.92c0.678-0.89,1.565-1.598,2.357-2.377c0.927-0.916,1.832-1.946,2.207-3.224
					c0.213-0.729,0.163-1.402,0.204-2.13c0-0.001,0-0.003,0.001-0.006C251.47,485.171,251.54,484.759,251.583,484.342z
					 M217.345,565.769c0.055-0.021,0.11-0.05,0.166-0.073c-0.061-0.481-0.267-0.989-0.417-1.396
					c-0.271-0.733-0.577-1.468-0.973-2.146c-0.404-0.691-0.938-1.463-1.643-1.882c-0.553-0.326-1.124-0.354-1.749-0.361
					c-1.648-0.019-3.1-0.652-4.666-1.093c-0.842-0.235-1.747-0.426-2.624-0.25c-0.908,0.186-1.641,0.635-2.397,1.122
					c0.055,0.355,0.07,0.729,0.033,1.117c-0.011,0.119-0.141,0.153-0.212,0.101c-0.01,0.354-0.055,0.711-0.086,1.046
					c-0.062,0.691-0.177,1.378-0.266,2.063c-0.136,1.069-0.232,2.143-0.021,3.176c0.009-0.005,0.017-0.015,0.025-0.019
					c0.227-0.131,0.469-0.231,0.717-0.313c0.633-0.198,1.298-0.301,1.96-0.35c1.666-0.13,3.375-0.011,5.008,0.353
					c2.166,0.477,5.411,1.828,4.471,4.424c0.872-0.407,1.429-1.439,1.756-2.293c0.345-0.896,0.583-1.847,0.662-2.809
					c-0.009,0.004-0.018,0.01-0.027,0.015c-0.181,0.063-0.251-0.218-0.079-0.283c0.042-0.019,0.083-0.033,0.125-0.05
					c0.004-0.077,0.009-0.153,0.01-0.229c0.001-0.146,0.229-0.146,0.229,0C217.35,565.682,217.345,565.726,217.345,565.769z"/>
				<path fill="#96BBD6" d="M251.118,479.288c0.378,1.648,0.638,3.382,0.465,5.054c-0.069-0.065-0.194-0.02-0.355,0.07
					c0.082-0.912,0.058-1.839-0.047-2.729c-0.375-3.176-1.523-6.213-2.667-9.176c-0.523-1.351-1.065-2.694-1.53-4.065
					c-0.451-1.332-0.792-2.692-1.31-4.006c-0.982-2.489-2.379-5.26-4.721-6.731c-2.63-1.657-5.517-0.797-7.904,0.883
					c-0.021,0.016-0.041,0.021-0.06,0.021c-0.091,0-0.15-0.146-0.054-0.215c2.156-1.549,4.884-2.6,7.439-1.357
					c2.26,1.093,3.776,3.334,4.832,5.536c1.208,2.512,1.846,5.227,2.844,7.82C249.176,473.315,250.414,476.228,251.118,479.288z"/>
				<path fill="#96BBD6" d="M251.228,484.412c0.161-0.09,0.286-0.138,0.355-0.07c-0.043,0.417-0.113,0.829-0.215,1.237
					c0.002-0.063,0.006-0.123,0.011-0.188c0.02-0.244,0.036-0.507,0.096-0.748c0.073-0.291-0.072-0.231-0.255-0.145
					C251.224,484.473,251.227,484.443,251.228,484.412z"/>
				<path fill="#96BBD6" d="M251.22,484.5c0.183-0.089,0.328-0.146,0.255,0.145c-0.06,0.241-0.077,0.504-0.096,0.748
					c-0.005,0.063-0.009,0.125-0.011,0.188c-0.001,0.002-0.001,0.004-0.001,0.005c-0.148,0.591-0.364,1.169-0.663,1.729
					c-0.04,0.073-0.169,0.021-0.137-0.059C250.921,486.384,251.129,485.449,251.22,484.5z"/>
				<path fill="#AF712C" d="M251.366,485.584c-0.041,0.729,0.009,1.402-0.204,2.13c-0.375,1.276-1.28,2.309-2.207,3.225
					c-0.792,0.778-1.68,1.486-2.357,2.377c-0.935,1.228-1.709,2.582-2.469,3.92c-0.906,1.604-1.764,3.228-2.667,4.827
					c-0.912,1.61-1.958,3.141-2.838,4.769c-1.811,3.345-3.076,6.957-4.8,10.346c-1.487,2.927-2.958,5.81-3.638,9.04
					c-0.406,1.934-0.675,3.87-1.16,5.788c-0.49,1.943-1.027,3.874-1.391,5.849c-0.625,3.384-0.749,6.868-1.227,10.277
					c-0.472,3.374-1.165,6.738-2.451,9.904c-0.71,1.746-1.629,3.429-2.831,4.886c-0.95,1.149-2.033,2.013-3.333,2.646
					c-0.064-0.363-0.193-0.729-0.301-1.054c-0.263-0.785-0.603-1.557-0.991-2.285c-0.679-1.277-1.695-2.479-3.212-2.593
					c-0.788-0.062-1.542-0.032-2.317-0.232c-1.01-0.266-1.983-0.645-2.986-0.927c-1.79-0.507-3.561-0.229-4.999,0.924
					c-0.389-1.777-1.715-3.229-2.273-5c-0.495-1.571,0.084-3.018,0.759-4.431c0.791-1.66,1.692-3.262,2.505-4.907
					c0.805-1.636,1.369-3.298,1.93-5.025c0.605-1.861,0.851-3.822,1.142-5.754c0.29-1.917,0.687-3.76,1.383-5.572
					c0.623-1.62,1.436-3.156,2.191-4.718c1.021-2.115,1.761-4.293,1.906-6.654c0.081-1.317,0.064-2.608,0.321-3.918
					c0.239-1.229,0.702-2.375,1.247-3.496c0.102-0.009,0.195-0.089,0.154-0.21c-0.565-1.689,0.387-2.912,1.271-4.26
					c0.943-1.434,1.436-3.026,1.692-4.712c0.134-0.88,0.227-1.767,0.373-2.645c0.168-1.008,0.486-1.971,0.816-2.937
					c0.66-1.926,1.442-3.81,2.194-5.698c0.734-1.848,1.323-3.765,2.197-5.554c0.796-1.63,1.768-3.169,2.64-4.761
					c1.766-3.226,2.543-6.819,3.728-10.273c0.622-1.806,1.514-3.535,2.056-5.363c0.454-1.531,0.612-3.518,2.039-4.5
					c0.118-0.081,0.009-0.271-0.113-0.193l-0.156-0.206c0.019,0,0.04-0.008,0.06-0.022c2.387-1.68,5.273-2.54,7.904-0.883
					c2.342,1.474,3.739,4.242,4.721,6.732c0.518,1.313,0.859,2.673,1.31,4.006c0.465,1.371,1.007,2.717,1.53,4.065
					c1.145,2.962,2.293,5.999,2.667,9.175c0.105,0.892,0.129,1.816,0.047,2.729c-0.057,0.031-0.118,0.067-0.184,0.104
					c-0.033,0.019-0.003,0.063,0.03,0.052c0.05-0.021,0.099-0.046,0.146-0.067c-0.091,0.948-0.3,1.883-0.654,2.754
					c-0.032,0.077,0.098,0.132,0.137,0.058C251.003,486.752,251.218,486.175,251.366,485.584z"/>
				<path fill="#96BBD6" d="M251.228,484.412c-0.001,0.03-0.004,0.061-0.008,0.088c-0.047,0.022-0.096,0.047-0.146,0.068
					c-0.033,0.014-0.063-0.033-0.03-0.053C251.11,484.48,251.171,484.444,251.228,484.412z"/>
				<path fill="#96BBD6" d="M233.144,458.815c0.122-0.078,0.231,0.112,0.113,0.193c-1.427,0.982-1.585,2.968-2.039,4.5
					c-0.542,1.828-1.436,3.56-2.056,5.362c-1.186,3.455-1.962,7.051-3.728,10.273c-0.872,1.593-1.842,3.132-2.64,4.761
					c-0.874,1.79-1.462,3.707-2.197,5.554c-0.752,1.892-1.536,3.772-2.194,5.699c-0.331,0.966-0.648,1.928-0.816,2.937
					c-0.146,0.878-0.238,1.765-0.373,2.645c-0.258,1.685-0.75,3.277-1.692,4.712c-0.883,1.348-1.837,2.566-1.271,4.259
					c0.041,0.122-0.052,0.202-0.154,0.21l-0.159-0.073c-0.009-0.015-0.017-0.026-0.021-0.045c-0.649-1.944,0.558-3.247,1.496-4.816
					c0.603-1.011,1.052-2.102,1.286-3.251c0.233-1.16,0.332-2.34,0.527-3.506c0.325-1.954,1.064-3.822,1.782-5.662
					c0.742-1.903,1.534-3.784,2.233-5.701c0.616-1.687,1.306-3.279,2.188-4.849c0.89-1.578,1.854-3.128,2.606-4.775
					c0.811-1.775,1.301-3.679,1.883-5.535c0.549-1.753,1.122-3.501,1.8-5.206c0.342-0.858,0.773-1.699,1.063-2.573
					c0.219-0.666,0.381-1.349,0.568-2.023C231.672,460.729,232.076,459.508,233.144,458.815z"/>
				<path fill="#AF712C" d="M217.511,565.694c-0.055,0.023-0.11,0.052-0.166,0.073c0-0.043,0.004-0.087,0.004-0.13
					c0-0.146-0.228-0.146-0.229,0c-0.001,0.076-0.006,0.152-0.01,0.229c-0.041,0.017-0.082,0.033-0.125,0.05
					c-0.173,0.067-0.103,0.346,0.079,0.283c0.009-0.004,0.018-0.011,0.027-0.015c-0.078,0.963-0.317,1.913-0.662,2.81
					c-0.328,0.853-0.885,1.885-1.756,2.292c0.939-2.594-2.305-3.946-4.471-4.424c-1.632-0.361-3.342-0.48-5.008-0.353
					c-0.662,0.049-1.328,0.15-1.96,0.35c-0.248,0.079-0.49,0.183-0.717,0.313c-0.009,0.004-0.017,0.014-0.025,0.019
					c-0.21-1.033-0.114-2.104,0.021-3.176c0.089-0.687,0.204-1.371,0.266-2.063c0.031-0.335,0.076-0.692,0.086-1.046
					c0.072,0.055,0.201,0.021,0.212-0.101c0.037-0.39,0.022-0.762-0.033-1.116c0.756-0.487,1.489-0.938,2.397-1.122
					c0.877-0.177,1.782,0.014,2.624,0.249c1.565,0.438,3.016,1.074,4.666,1.093c0.625,0.007,1.196,0.035,1.749,0.361
					c0.705,0.419,1.239,1.188,1.643,1.882c0.396,0.678,0.702,1.411,0.973,2.146C217.245,564.705,217.45,565.212,217.511,565.694z"/>
			</g>
		</g>
		<path d="M251.118,479.288c-0.703-3.063-1.942-5.974-3.068-8.896c-1-2.595-1.638-5.31-2.844-7.82
			c-1.057-2.201-2.572-4.442-4.832-5.537c-2.557-1.237-5.283-0.188-7.44,1.359c-0.117,0.084-0.006,0.278,0.114,0.194
			c2.387-1.682,5.273-2.543,7.904-0.887c2.342,1.476,3.74,4.241,4.722,6.732c0.517,1.313,0.858,2.673,1.31,4.006
			c0.465,1.371,1.007,2.718,1.53,4.066c1.145,2.963,2.294,5.999,2.668,9.174c0.217,1.844,0.09,3.837-0.616,5.571
			c-0.032,0.08,0.098,0.133,0.138,0.06C252.031,484.824,251.729,481.951,251.118,479.288z"/>
		<path d="M251.045,484.52c-0.034,0.02-0.004,0.063,0.029,0.052c0.243-0.104,0.493-0.29,0.4,0.073
			c-0.06,0.24-0.075,0.506-0.096,0.75c-0.064,0.801,0.016,1.528-0.217,2.32c-0.374,1.276-1.28,2.31-2.207,3.222
			c-0.792,0.779-1.68,1.488-2.357,2.378c-0.935,1.228-1.709,2.583-2.469,3.922c-0.907,1.6-1.764,3.226-2.667,4.825
			c-0.911,1.611-1.958,3.144-2.839,4.77c-1.81,3.345-3.075,6.957-4.8,10.347c-1.486,2.924-2.957,5.809-3.637,9.039
			c-0.406,1.934-0.676,3.869-1.159,5.789c-0.49,1.942-1.028,3.873-1.392,5.848c-0.625,3.385-0.749,6.869-1.226,10.277
			c-0.472,3.374-1.165,6.739-2.451,9.904c-0.71,1.747-1.628,3.429-2.831,4.887c-0.95,1.149-2.034,2.01-3.333,2.646
			c-0.064-0.364-0.193-0.729-0.302-1.055c-0.261-0.787-0.603-1.555-0.99-2.286c-0.679-1.276-1.694-2.479-3.212-2.592
			c-0.789-0.06-1.542-0.034-2.318-0.233c-1.01-0.263-1.981-0.645-2.985-0.929c-1.789-0.504-3.561-0.229-4.999,0.927
			c-0.389-1.778-1.715-3.231-2.272-5c-0.495-1.571,0.083-3.018,0.757-4.433c0.791-1.658,1.692-3.259,2.505-4.906
			c0.804-1.635,1.368-3.299,1.93-5.023c0.604-1.861,0.85-3.824,1.142-5.755c0.29-1.916,0.687-3.761,1.383-5.571
			c0.623-1.621,1.437-3.158,2.189-4.72c1.021-2.115,1.762-4.292,1.907-6.652c0.081-1.32,0.064-2.608,0.32-3.919
			c0.241-1.229,0.703-2.375,1.248-3.496c0.101-0.009,0.195-0.09,0.153-0.212c-0.565-1.688,0.388-2.911,1.271-4.258
			c0.942-1.434,1.436-3.027,1.692-4.711c0.135-0.881,0.227-1.767,0.373-2.646c0.167-1.009,0.486-1.971,0.815-2.937
			c0.66-1.927,1.442-3.809,2.194-5.699c0.734-1.847,1.323-3.763,2.197-5.551c0.796-1.632,1.768-3.17,2.64-4.763
			c1.765-3.225,2.542-6.819,3.728-10.275c0.621-1.808,1.513-3.533,2.055-5.362c0.455-1.529,0.613-3.518,2.041-4.5
			c0.117-0.081,0.01-0.271-0.112-0.192c-1.068,0.691-1.474,1.914-1.798,3.084c-0.188,0.677-0.349,1.356-0.567,2.023
			c-0.291,0.874-0.72,1.715-1.062,2.571c-0.68,1.708-1.253,3.454-1.802,5.206c-0.582,1.858-1.071,3.763-1.882,5.537
			c-0.753,1.648-1.716,3.196-2.606,4.775c-0.883,1.566-1.573,3.162-2.188,4.849c-0.7,1.918-1.491,3.799-2.233,5.701
			c-0.718,1.839-1.457,3.709-1.782,5.663c-0.195,1.166-0.293,2.344-0.527,3.504c-0.233,1.152-0.684,2.242-1.286,3.253
			c-0.938,1.57-2.146,2.872-1.497,4.815c0.006,0.019,0.014,0.029,0.022,0.043c-0.749,1.324-1.228,2.771-1.465,4.271
			c-0.281,1.762-0.141,3.545-0.495,5.299c-0.646,3.216-2.547,6.002-3.767,9.005c-1.476,3.635-1.44,7.575-2.542,11.307
			c-0.548,1.855-1.208,3.629-2.065,5.366c-0.815,1.65-1.716,3.259-2.509,4.919c-0.468,0.981-0.872,1.959-0.9,3.062
			c-0.022,0.855,0.256,1.683,0.62,2.446c0.372,0.778,0.855,1.5,1.25,2.268c0.31,0.601,0.519,1.22,0.637,1.86
			c-0.013,0.014-0.027,0.021-0.041,0.035c-0.075,0.069-0.008,0.188,0.079,0.19c0.003,0.021,0.007,0.045,0.011,0.07
			c-0.017-0.008-0.038-0.003-0.042,0.019c-0.111,0.713-0.071,1.448-0.177,2.169c-0.113,0.77-0.23,1.533-0.329,2.303
			c-0.141,1.086-0.222,2.272,0.126,3.331c0.027,0.207,0.072,0.412,0.13,0.63c0.018,0.067,0.124,0.071,0.141,0.002
			c0.008,0.017,0.016,0.031,0.024,0.047c0.086,0.151,0.303,0.021,0.232-0.135c-0.092-0.196-0.166-0.396-0.229-0.598
			c0.014-0.178,0.062-0.33,0.21-0.398c0.229-0.11,0.476-0.184,0.72-0.247c0.607-0.16,1.235-0.231,1.862-0.271
			c1.487-0.097,3,0.029,4.461,0.324c2.043,0.41,5.604,1.668,4.389,4.309c-0.126,0.026-0.257,0.042-0.395,0.041
			c-0.078,0-0.073,0.108,0,0.117c0.108,0.012,0.211,0.013,0.313,0.009c-0.011,0.021-0.021,0.04-0.032,0.063
			c-0.101,0.183,0.179,0.347,0.28,0.162c0.052-0.095,0.098-0.188,0.14-0.279c0.875-0.224,1.463-1.059,1.874-1.899
			c0.521-1.074,0.822-2.328,0.888-3.538c0.065-0.022,0.128-0.054,0.192-0.08c-0.002,0.072-0.009,0.146-0.022,0.215
			c-0.037,0.193,0.261,0.277,0.3,0.082c0.028-0.14,0.035-0.281,0.028-0.427c2.449-1.115,4.126-3.175,5.416-5.555
			c1.587-2.931,2.459-6.203,3.061-9.463c0.604-3.278,0.903-6.604,1.264-9.917c0.214-1.972,0.54-3.896,1.01-5.824
			c0.477-1.951,1.022-3.887,1.417-5.857c0.359-1.794,0.569-3.58,1.125-5.332c0.502-1.581,1.208-3.086,1.944-4.566
			c0.812-1.628,1.664-3.232,2.415-4.893c0.786-1.736,1.5-3.504,2.294-5.235c0.792-1.729,1.729-3.344,2.731-4.957
			c0.969-1.563,1.841-3.186,2.722-4.799c1.43-2.622,2.786-5.38,4.976-7.459c1.341-1.271,2.731-2.556,3.243-4.396
			c0.269-0.963,0.141-1.979,0.193-2.965C251.671,484.136,251.426,484.298,251.045,484.52z M217.121,565.639
			c-0.001,0.076-0.006,0.151-0.01,0.229c-0.041,0.018-0.082,0.034-0.125,0.052c-0.172,0.066-0.103,0.345,0.078,0.282
			c0.009-0.005,0.019-0.01,0.027-0.015c-0.078,0.963-0.317,1.914-0.661,2.81c-0.328,0.853-0.886,1.885-1.756,2.291
			c0.939-2.593-2.304-3.943-4.471-4.424c-1.632-0.36-3.342-0.479-5.008-0.352c-0.662,0.052-1.328,0.148-1.96,0.349
			c-0.248,0.08-0.49,0.184-0.717,0.313c-0.01,0.005-0.017,0.014-0.026,0.02c-0.21-1.032-0.115-2.104,0.022-3.176
			c0.088-0.688,0.203-1.371,0.266-2.063c0.03-0.335,0.075-0.691,0.085-1.047c0.072,0.056,0.202,0.021,0.214-0.1
			c0.037-0.39,0.021-0.761-0.034-1.115c0.755-0.489,1.49-0.938,2.396-1.122c0.876-0.178,1.78,0.011,2.625,0.248
			c1.564,0.438,3.016,1.073,4.665,1.095c0.625,0.006,1.196,0.033,1.749,0.359c0.704,0.415,1.239,1.188,1.643,1.883
			c0.395,0.677,0.702,1.408,0.973,2.144c0.15,0.407,0.356,0.915,0.417,1.398c-0.056,0.022-0.111,0.049-0.167,0.072
			c0-0.044,0.004-0.088,0.005-0.131C217.351,565.492,217.122,565.492,217.121,565.639z"/>
		<path d="M210.818,554.479c-0.712-1.842-3.37-2.892-5.165-2.183c-0.795,0.314-1.257,1.02-1.356,1.851
			c-0.058,0.479,0,1.243,0.248,1.669c0.187,0.318,0.674-0.021,0.767-0.229c0.032-0.069-0.058-0.124-0.103-0.061
			c-0.304,0.434-0.547,0.015-0.609-0.238c-0.063-0.257-0.093-0.52-0.103-0.781c-0.017-0.418,0.079-0.829,0.283-1.193
			c0.36-0.646,1.097-0.924,1.794-0.981c0.782-0.067,1.573,0.162,2.26,0.524c0.79,0.414,1.267,1.051,1.818,1.724
			C210.713,554.651,210.854,554.569,210.818,554.479z"/>
		<path d="M214.697,558.019c-1.092,0.314-1.938,0.283-2.942-0.28c-0.81-0.456-1.475-1.12-2.252-1.621
			c-0.076-0.05-0.168,0.065-0.097,0.127c1.365,1.116,3.465,3.123,5.338,1.884C214.797,558.09,214.765,558,214.697,558.019z"/>
		<path d="M218.944,560.5c-0.179-1.188-1.063-1.5-2.162-1.285c-0.054,0.009-0.094,0.068-0.093,0.121
			c0.01,0.533,0.039,1.023,0.265,1.512c0.039,0.086,0.188,0.024,0.152-0.063c-0.165-0.398-0.171-0.798-0.168-1.222
			c0.003-0.313,0.843-0.158,1.021-0.107c0.563,0.161,0.714,0.795,0.754,1.304c0.084,1.079-0.353,2.13-0.285,3.199
			c0.004,0.078,0.111,0.094,0.135,0.018C218.878,562.947,219.104,561.574,218.944,560.5z"/>
		<path d="M216.619,514.934c0.412-1.029,0.807-2.072,0.767-3.199c-0.045-1.27-0.438-2.368-0.101-3.646
			c0.018-0.066-0.074-0.087-0.1-0.027c-0.416,0.983-0.282,1.952-0.124,2.976c0.211,1.375-0.176,2.567-0.681,3.834
			c-0.479,1.198-0.813,2.392-0.907,3.684c-0.106,1.479,0.15,2.964,0.215,4.438c0.004,0.098,0.148,0.098,0.151,0
			c0.035-1.399-0.171-2.792-0.134-4.192C215.742,517.447,216.122,516.179,216.619,514.934z"/>
		<path d="M225.826,487.613c-1.319,0.186-2.378,1.412-3.129,2.409c-0.9,1.198-1.611,2.563-2.157,3.959
			c-0.028,0.071,0.084,0.1,0.113,0.03c0.578-1.379,1.309-2.698,2.206-3.895c0.496-0.66,1.064-1.276,1.735-1.762
			c0.31-0.226,0.651-0.394,1.014-0.51c0.297-0.095,0.01,0.493-0.008,0.688c-0.004,0.041,0.066,0.052,0.075,0.01
			c0.061-0.3,0.217-0.542,0.259-0.851C225.942,487.633,225.874,487.605,225.826,487.613z"/>
		<path d="M240.865,470.535c0.016,0.053,0.033,0.104,0.054,0.155c0.021,0.061,0.119,0.058,0.115-0.014
			c-0.029-0.431-0.171-0.833-0.2-1.262c-0.006-0.089-0.138-0.091-0.139,0c0,0.052,0.001,0.104,0.001,0.154
			c-0.037-0.125-0.077-0.25-0.132-0.371c-0.005-0.013-0.025-0.004-0.021,0.009c0.07,0.184,0.114,0.371,0.153,0.561
			c0.01,2.265,0.233,4.521,0.171,6.787c-0.055,2.056-0.124,5.176-2.244,6.236c-0.087,0.042-0.023,0.164,0.063,0.148
			c0.882-0.17,1.398-1.037,1.713-1.805c0.495-1.202,0.606-2.571,0.675-3.854C241.194,475.024,240.956,472.785,240.865,470.535z"/>
		<line fill="none" x1="229.209" y1="522.781" x2="229.209" y2="522.779"/>
		<path d="M229.794,523.229c-0.526,0.801-0.928,1.675-1.473,2.464c-0.04,0.059,0.042,0.104,0.089,0.068
			c0.5-0.389,0.789-1.125,1.086-1.665c0.168-0.304,0.338-0.606,0.517-0.908c0.054-0.092,0.111-0.18,0.176-0.267
			c0.099-0.136,0.063,0.232,0.058,0.278c-0.001,0.015,0.024,0.018,0.027,0.003C230.366,522.551,230.032,522.868,229.794,523.229z"/>
	</g>
</g>
</svg>
