<?xml version="1.0" encoding="utf-8"?>
<!DOCTYPE svg PUBLIC "-//W3C//DTD SVG 1.1//EN" "http://www.w3.org/Graphics/SVG/1.1/DTD/svg11.dtd">
<svg version="1.1" id="Layer_3" xmlns="http://www.w3.org/2000/svg" xmlns:xlink="http://www.w3.org/1999/xlink" viewBox="0 0 1280 800">
<defs>
	<filter id="OpacityMaskFilter" filterUnits="userSpaceOnUse" x="247.57" y="159.636" width="26.027" height="131.035">
		<feColorMatrix  type="matrix" values="1 0 0 0 0  0 1 0 0 0  0 0 1 0 0  0 0 0 1 0"/>
	</filter>
</defs>
<mask maskUnits="userSpaceOnUse" x="247.57" y="159.636" width="26.027" height="131.035" id="SVGID_1_">
	<g filter="url(#OpacityMaskFilter)">
		<rect fill="#FFFFFF" width="1280" height="800"/>
	</g>
</mask>
<g mask="url(#SVGID_1_)">
	<g id="left_calf">
		<g id="XMLID_9_">
			<g>
				<path d="M272.414,168.907c0.331,1.624,0.492,3.288,0.468,4.946c-0.027,1.802-0.29,3.582-0.498,5.37
					c-0.46,3.981-0.938,8.028-0.852,12.042c0.031,1.46,0.256,2.911,0.261,4.373c0.004,1.082-0.002,2.492-0.791,3.339
					c-0.794,0.854-1.994,1.295-3.1,1.572c-1.193,0.3-2.492,0.523-3.726,0.433c-2.444-0.178-5.085-1.223-6.187-3.576
					c-0.65-1.391-0.659-2.857-0.6-4.363c0.039-0.973,0.096-1.947,0.106-2.921c-0.04,0.077-0.082,0.157-0.125,0.232
					c-0.056,0.096-0.201,0.009-0.148-0.085c0.105-0.19,0.196-0.385,0.277-0.582c-0.004-0.874-0.053-1.748-0.195-2.616
					c-0.027-0.167,0.218-0.24,0.256-0.07c0.13,0.559,0.208,1.12,0.249,1.684c0.06-0.273,0.104-0.551,0.133-0.832
					c-0.141-0.036-0.133-0.263,0.024-0.277c0.125-1.811-0.307-3.735-0.67-5.411c-0.581-2.68-1.1-5.356-1.209-8.106
					c-0.119-2.993,0.136-6.085,1.186-8.914c0.746-2.007,2.019-3.797,3.984-4.766c2.177-1.071,4.773-1.037,6.76,0.454
					C270.483,162.683,271.817,165.975,272.414,168.907z M271.93,179.939c0.408-3.601,0.891-7.132,0.162-10.73
					c-0.347-1.713-0.876-3.403-1.711-4.944c-0.775-1.425-1.743-2.808-3.201-3.604c-2.475-1.35-5.532-0.79-7.542,1.143
					c-2.483,2.386-3.149,6.31-3.295,9.604c-0.156,3.507,0.351,6.905,1.097,10.321c0.515,2.357,1.208,5.187,0.406,7.576
					c0.054,1.624-0.128,3.26-0.115,4.886c0.014,1.878,0.521,3.667,2.053,4.873c1.378,1.084,3.258,1.625,5.004,1.578
					c1.642-0.045,3.472-0.309,4.936-1.1c0.536-0.289,1.108-0.677,1.358-1.259c0.282-0.657,0.355-1.389,0.368-2.098
					c0.028-1.501-0.181-2.985-0.249-4.482C271.024,187.795,271.492,183.816,271.93,179.939z"/>
				<path fill="#7F5903" d="M272.092,169.209c0.729,3.599,0.246,7.13-0.162,10.73c-0.438,3.877-0.906,7.856-0.729,11.763
					c0.068,1.497,0.277,2.98,0.249,4.482c-0.013,0.709-0.086,1.441-0.368,2.098c-0.25,0.582-0.823,0.97-1.358,1.259
					c-1.464,0.791-3.294,1.054-4.936,1.1c-1.747,0.047-3.626-0.492-5.004-1.578c-1.533-1.208-2.04-2.996-2.053-4.873
					c-0.013-1.626,0.169-3.263,0.115-4.886c0.802-2.388,0.109-5.218-0.406-7.576c-0.746-3.416-1.252-6.813-1.097-10.321
					c0.146-3.294,0.813-7.218,3.295-9.604c2.01-1.932,5.067-2.493,7.542-1.143c1.458,0.796,2.425,2.178,3.201,3.604
					C271.215,165.805,271.745,167.496,272.092,169.209z"/>
			</g>
		</g>
		<g>
			<g id="XMLID_10_">
				<g>
					<path fill="#405268" d="M248.644,268.782c-0.514-1.815-0.828-3.761-0.623-5.409c0.287-2.854,2.426-4.711,2.712-7.851
						c0.428-5.281,2.284-9.99,2.141-15.271c-0.143-2.57,0.571-4.853,0.857-7.423c0.284-2.711-0.144-5.138,0.714-7.85
						c1.427-4.853,1.141-10.276,1.997-15.272c0.273-1.903,0.025-11.848,0.745-13.147l0.113,0.017c3.712-0.286,10.704-2,13.845,0
						l0.22-0.047c1.438,1.494,0.494,5.081,0.494,6.897c0,3.426-0.285,6.423-0.999,9.562h-0.144c0,2.856-0.142,5.71-0.142,8.565
						c0,3.997-0.713,8.137-0.428,12.132c0.285,5.423,0.428,10.705,0.855,15.986c0.428,5.138,1.57,10.562,1,15.701
						c-0.149,1.098-0.401,2.231-0.705,3.39l0.133,0.035c0.286,2.284,1.856,3.997,2,6.423c0.14,2.948-0.824,5.76-2.895,7.889
						c-0.506,0.125-1.087,1.375-1.672,1.959c-1.999,2.283-4.425,4.281-7.421,5.139c-3.528,1.127-12.63-0.532-12.843-5.393
						c0.173-1.16,0.389-2.421,0.282-3.601c-0.144-2-1.428-3.711-1.142-5.995c0.428-2.427,1.427-3.426,0.854-5.995
						c-0.056-0.278-0.155-0.361-0.229-0.375c0.023-0.013,0.052-0.031,0.087-0.054c0.036,0,0.07,0,0.142,0L248.644,268.782z"/>
				</g>
				<g>
					<path fill="none" stroke="#000000" stroke-width="0.25" stroke-miterlimit="10" d="M257.299,196.576
						c3.713-0.286,10.704-2,13.845,0"/>
					<path fill="none" stroke="#000000" stroke-width="0.25" stroke-miterlimit="10" d="M250.021,278.075
						c-0.856-0.572,1,2.283,1.427,2.569c1.712,1.143,1.854-0.143,1.427-1.855c-0.569-2.712-2.712-5.281-3.567-7.993
						c-0.239-0.635-0.465-1.314-0.663-2.013c-0.514-1.815-0.828-3.761-0.623-5.409c0.287-2.854,2.426-4.711,2.712-7.851
						c0.428-5.281,2.284-9.99,2.141-15.271c-0.143-2.57,0.571-4.853,0.857-7.423c0.284-2.711-0.144-5.138,0.714-7.85
						c1.427-4.853,1.141-10.276,1.997-15.272c0.273-1.903,0.025-11.848,0.745-13.147c0.035-0.064,0.073-0.106,0.113-0.127"/>
					<path fill="none" stroke="#000000" stroke-width="0.25" stroke-miterlimit="10" d="M270.859,279.215
						c-0.429,1-0.856,2.855-2.141,2.999c-0.453-4.297,1.424-9.042,2.578-13.453c0.304-1.159,0.556-2.292,0.705-3.39
						c0.571-5.139-0.572-10.563-1-15.701c-0.428-5.281-0.571-10.563-0.855-15.986c-0.285-3.996,0.428-8.136,0.428-12.132
						c0-2.854,0.142-5.709,0.142-8.565h0.144c0.713-3.139,0.999-6.136,0.999-9.562c0-1.816,0.945-5.404-0.494-6.897
						c-0.144-0.148-0.31-0.277-0.504-0.381"/>
					<path fill="none" stroke="#000000" stroke-width="0.25" stroke-miterlimit="10" d="M271.429,268.797
						c0.286,2.284,1.856,3.997,2,6.423c0.14,2.948-0.824,5.76-2.895,7.889c-0.035,0.035-0.068,0.069-0.103,0.104"/>
					<path fill="none" stroke="#000000" stroke-width="0.25" stroke-miterlimit="10" d="M248.592,268.797c-0.072,0-0.106,0-0.142,0
						c-0.036,0-0.07,0-0.142,0"/>
					<path fill="none" stroke="#000000" stroke-width="0.25" stroke-miterlimit="10" d="M248.363,268.85
						c0.074,0.014,0.173,0.098,0.229,0.375c0.572,2.569-0.428,3.567-0.855,5.995c-0.286,2.283,0.999,3.995,1.142,5.995
						c0.106,1.179-0.109,2.441-0.282,3.601c-0.058,0.383-0.11,0.755-0.146,1.109"/>
					<path fill="none" stroke="#000000" stroke-width="0.25" stroke-miterlimit="10" d="M248.363,268.85
						C248.204,268.936,248.262,268.83,248.363,268.85L248.363,268.85z"/>
					<path fill="none" stroke="#000000" stroke-width="0.25" stroke-miterlimit="10" d="M248.45,268.797
						c-0.035,0.023-0.064,0.041-0.087,0.054"/>
					<path fill="none" stroke="#405268" stroke-width="0.25" stroke-miterlimit="10" d="M270.859,283.213
						c-0.105-0.105-0.214-0.132-0.327-0.104c-0.506,0.125-1.087,1.375-1.672,1.959c-1.999,2.283-4.425,4.281-7.421,5.139
						c-3.528,1.128-12.63-0.532-12.843-5.393c-0.002-0.058-0.004-0.115-0.004-0.174"/>
				</g>
			</g>
			<g>
				<path d="M257.234,196.324c-0.325,0.195-0.374,0.791-0.424,1.118c-0.133,0.856-0.177,1.73-0.22,2.596
					c-0.112,2.27-0.125,4.542-0.169,6.813c-0.046,2.366-0.418,4.664-0.625,7.019c-0.171,1.956-0.27,3.917-0.483,5.871
					c-0.223,2.028-0.678,3.949-1.176,5.921c-0.454,1.8-0.365,3.685-0.413,5.524c-0.053,2.033-0.481,4.009-0.771,6.014
					c-0.271,1.878-0.105,3.764-0.261,5.65c-0.166,1.992-0.568,3.959-0.968,5.916c-0.378,1.848-0.754,3.695-0.986,5.567
					c-0.114,0.921-0.166,1.829-0.425,2.726c-0.238,0.82-0.618,1.594-0.999,2.357c-0.633,1.272-1.247,2.527-1.412,3.958
					c-0.202,1.736,0.108,3.491,0.551,5.166c0.022,0.084,0.047,0.167,0.07,0.251c-0.017,0-0.034,0-0.051,0
					c-0.004-0.016-0.019-0.027-0.039-0.019c-0.001,0.001-0.002,0.003-0.003,0.004c-0.096-0.033-0.2-0.033-0.224,0.088
					c-0.008,0.043,0.026,0.084,0.071,0.073c0.053-0.015,0.097-0.047,0.14-0.081c-0.001,0.304,0.183,1.335,0.191,1.438
					c0.023,0.306,0.008,0.612-0.018,0.917c-0.057,0.654-0.263,1.286-0.458,1.908c-0.403,1.275-0.7,2.464-0.495,3.809
					c0.215,1.4,0.896,2.683,1.074,4.094c0.21,1.658-0.34,3.26-0.321,4.903c0,0.062,0.096,0.077,0.111,0.014
					c0.395-1.702,0.717-3.598,0.444-5.337c-0.277-1.772-1.204-3.319-1.087-5.163c0.099-1.574,0.977-2.992,1.045-4.58
					c0.007-0.184,0.017-0.493,0-0.819c0.384,1.154,0.854,2.278,1.413,3.357c0.883,1.702,1.929,3.345,2.404,5.222
					c0.16,0.632,0.354,1.354,0.187,2.003c-0.196,0.768-1.3,0.067-1.604-0.274c-0.341-0.386-0.627-0.828-0.903-1.262
					c-0.119-0.188-0.23-0.379-0.336-0.577c-0.04-0.073-0.274-0.472-0.09-0.362c0.097,0.059,0.184-0.091,0.088-0.152
					c-0.527-0.333-0.277,0.384-0.166,0.612c0.349,0.713,0.835,1.552,1.437,2.085c0.505,0.449,1.49,0.81,1.789-0.012
					c0.158-0.434,0.049-0.971-0.028-1.41c-0.138-0.792-0.379-1.572-0.697-2.311c-0.716-1.667-1.697-3.202-2.457-4.848
					c-0.779-1.69-1.323-3.563-1.654-5.393c-0.321-1.771-0.306-3.569,0.335-5.266c0.537-1.422,1.375-2.707,1.858-4.154
					c0.246-0.738,0.338-1.487,0.41-2.257c0.102-1.09,0.274-2.171,0.467-3.249c0.34-1.905,0.774-3.792,1.111-5.699
					c0.328-1.852,0.528-3.727,0.506-5.608c-0.012-0.947-0.019-1.866,0.09-2.812c0.122-1.065,0.339-2.117,0.522-3.173
					c0.325-1.867,0.347-3.712,0.395-5.602c0.025-0.993,0.114-1.978,0.318-2.95c0.208-0.996,0.542-1.961,0.75-2.959
					c0.788-3.77,0.791-7.645,1.268-11.455c0.165-1.312,0.353-2.553,0.392-3.874c0.041-1.444,0.056-2.89,0.081-4.334
					c0.026-1.46,0.058-2.923,0.156-4.381c0.036-0.531,0.082-1.063,0.167-1.588c0.031-0.194,0.055-0.702,0.25-0.82
					C257.504,196.458,257.376,196.238,257.234,196.324z M248.494,268.803c0.012,0,0.023,0,0.036,0
					c0.001,0.008,0.004,0.017,0.006,0.024C248.523,268.819,248.509,268.811,248.494,268.803z"/>
				<path d="M272.938,272.637c-0.516-1.292-1.138-2.491-1.423-3.863c-0.008-0.038-0.036-0.057-0.068-0.062
					c0.199-0.767,0.38-1.539,0.527-2.317c0.347-1.837,0.359-3.726,0.289-5.588c-0.153-4.061-0.882-8.077-1.182-12.126
					c-0.307-4.149-0.457-8.308-0.643-12.462c-0.084-1.892-0.216-3.78-0.161-5.674c0.056-1.953,0.25-3.9,0.38-5.85
					c0.126-1.887,0.136-3.771,0.183-5.66c0.049-1.942,0.121-3.881,0.122-5.825c0.064-0.029,0.118-0.084,0.134-0.156
					c0.397-1.83,0.677-3.682,0.836-5.547c0.144-1.688,0.058-3.388,0.209-5.072c0.176-1.959,0.96-5.27-1.167-6.483
					c-0.255-0.145-0.481,0.245-0.229,0.392c1.016,0.588,1.17,1.818,1.189,2.891c0.022,1.161-0.165,2.315-0.267,3.47
					c-0.14,1.594-0.072,3.207-0.198,4.804c-0.141,1.769-0.417,3.516-0.81,5.244c-0.108,0.025-0.19,0.124-0.19,0.239
					c-0.011,2.1-0.076,4.199-0.108,6.298c-0.032,2.05-0.014,4.09-0.149,6.138c-0.134,2.029-0.303,4.055-0.314,6.09
					c-0.012,2.069,0.178,4.147,0.275,6.213c0.194,4.141,0.341,8.289,0.716,12.417c0.366,4.041,1.102,8.047,1.129,12.113
					c0.012,1.785-0.166,3.531-0.56,5.271c-0.382,1.688-0.894,3.345-1.38,5.004c-0.917,3.122-1.844,6.394-1.509,9.68
					c0.01,0.102,0.084,0.159,0.187,0.142c1.417-0.239,1.766-1.988,2.219-3.108c0.052-0.126-0.169-0.219-0.222-0.093
					c-0.416,0.974-0.746,2.556-1.903,2.878c-0.281-3.574,0.807-7.094,1.8-10.485c0.245-0.838,0.49-1.676,0.713-2.52
					c0.129,1.055,0.573,2.032,0.99,3.001c0.563,1.312,0.946,2.562,0.925,4.004c-0.02,1.364-0.321,2.718-0.852,3.973
					c-0.507,1.193-1.313,2.131-2.073,3.164c-0.05,0.069,0.051,0.171,0.119,0.119c1.958-1.5,2.896-4.283,3.095-6.65
					C273.686,275.235,273.458,273.938,272.938,272.637z"/>
			</g>
		</g>
	</g>
</g>
</svg>
