<?xml version="1.0" encoding="utf-8"?>
<!DOCTYPE svg PUBLIC "-//W3C//DTD SVG 1.1//EN" "http://www.w3.org/Graphics/SVG/1.1/DTD/svg11.dtd">
<svg version="1.1" id="Layer_3" xmlns="http://www.w3.org/2000/svg" xmlns:xlink="http://www.w3.org/1999/xlink" viewBox="0 0 1280 800">
<defs>
	<filter id="OpacityMaskFilter" filterUnits="userSpaceOnUse" x="242.752" y="201.84" width="80.136" height="91.32">
		<feColorMatrix  type="matrix" values="1 0 0 0 0  0 1 0 0 0  0 0 1 0 0  0 0 0 1 0"/>
	</filter>
</defs>
<mask maskUnits="userSpaceOnUse" x="242.752" y="201.84" width="80.136" height="91.32" id="SVGID_1_">
	<g filter="url(#OpacityMaskFilter)">
		<rect fill="#FFFFFF" width="1280" height="800"/>
	</g>
</mask>
<g mask="url(#SVGID_1_)">
	<g id="right_calf">
		<g>
			<g id="XMLID_14_">
				<g>
					<path fill="#7F5903" d="M262.36,230.672c0.162,1.729,0.475,3.57,0.33,5.308c-0.094,1.123-0.465,2.2-1.333,2.963
						c-0.509,0.447-1.105,0.81-1.736,1.106c-0.188,0.233-0.464,0.437-0.674,0.614c-0.283,0.237-0.573,0.467-0.851,0.709
						c-0.007,0.032-0.029,0.063-0.066,0.086c-3.365,2.085-8.36,1.056-10.12-2.67c-0.667-1.411-0.755-3.015-0.846-4.552
						c-0.119-2.025-0.105-4.054-0.183-6.081c-0.154-3.98-0.976-7.931-2.016-11.768c-0.477-1.755-1.278-3.403-1.734-5.163
						c-0.383-1.479-0.5-3.024-0.237-4.535c0.238-1.361,0.73-2.821,1.758-3.799c0.485-0.464,0.979-0.825,1.664-0.917
						c0.634-0.085,1.311,0.036,1.928-0.128c0.154-0.04,0.218,0.193,0.065,0.237c-0.092,0.027-0.186,0.046-0.279,0.06
						c-0.553,0.086-1.125-0.015-1.677,0.091c-0.933,0.178-1.659,0.858-2.15,1.649c-0.879,1.415-1.224,3.154-1.161,4.807
						c0.072,1.88,0.709,3.592,1.352,5.335c0.654,1.768,1.134,3.579,1.518,5.422c0.386,1.854,0.847,3.718,1.051,5.601
						c0.218,2.001,0.244,4.014,0.293,6.025c0.05,2.007,0.033,4.115,0.449,6.09c0.285,1.352,0.992,2.589,2.063,3.475
						c2.338,1.931,5.517,2.019,8.112,0.563c0.014-0.009,0.03-0.014,0.045-0.017c0.252-0.261,0.541-0.488,0.815-0.727
						c0.024-0.021,0.047-0.043,0.07-0.064c-0.415,0.156-0.837,0.29-1.25,0.404c-1.355,0.375-2.899,0.608-4.266,0.148
						c-1.212-0.409-2.208-1.293-2.907-2.354c-1.519-2.302-1.848-5.177-2.069-7.863c-0.275-3.369-0.584-6.732-1.018-10.086
						c-0.265-2.056-0.584-4.111-1.055-6.131c-0.429-1.85-1.096-3.66-1.319-5.551c-0.188-1.609-0.116-3.382,0.725-4.817
						c0.504-0.862,1.325-1.824,2.376-1.997c0.069-0.011,0.141-0.019,0.212-0.023c1.317-0.076,2.114,1.017,2.721,2.038
						c0.736,1.238,1.278,2.579,1.783,3.925c0.939,2.506,1.77,5.267,3.545,7.325c0.036-0.025,0.083-0.035,0.14-0.013
						c1.633,0.604,2.448,1.901,3.158,3.421c0.86,1.842,1.476,3.786,1.895,5.772C261.905,226.597,262.169,228.633,262.36,230.672z
						 M262.349,235.523c0.005-1.612-0.205-3.248-0.359-4.852c-0.186-1.93-0.419-3.861-0.82-5.762
						c-0.396-1.879-0.919-3.747-1.715-5.498c-0.637-1.401-1.31-2.729-2.663-3.465c0.065,0.064,0.131,0.127,0.198,0.188
						c0.111,0.103-0.053,0.264-0.164,0.164c-2.689-2.379-3.526-6.135-4.835-9.33c-0.309-0.754-0.637-1.501-1.036-2.212
						c-0.358-0.638-0.755-1.389-1.332-1.854c-1.41-1.137-2.982,0.072-3.702,1.396c-0.955,1.76-0.893,3.858-0.483,5.767
						c0.417,1.943,1.046,3.83,1.433,5.781c0.748,3.771,1.126,7.611,1.512,11.432c0.286,2.838,0.264,5.768,1.108,8.518
						c0.416,1.352,1.04,2.697,2.083,3.681c1.278,1.204,2.888,1.554,4.601,1.27c1.088-0.181,2.261-0.501,3.304-1
						c0.028-0.025,0.055-0.051,0.084-0.076c0.04-0.032,0.085-0.038,0.123-0.028c0.325-0.166,0.636-0.35,0.924-0.553
						C261.829,238.226,262.343,236.993,262.349,235.523z"/>
					<path fill="#7F5903" d="M261.99,230.672c0.154,1.604,0.364,3.239,0.359,4.852c-0.005,1.469-0.52,2.701-1.737,3.566
						c-0.289,0.203-0.6,0.387-0.924,0.553c-0.038-0.01-0.083-0.004-0.123,0.028c-0.029,0.024-0.056,0.05-0.084,0.076
						c-1.042,0.5-2.216,0.819-3.304,1c-1.713,0.285-3.321-0.066-4.601-1.27c-1.043-0.984-1.667-2.329-2.083-3.681
						c-0.845-2.749-0.823-5.68-1.107-8.518c-0.386-3.82-0.765-7.661-1.513-11.432c-0.387-1.951-1.015-3.837-1.432-5.78
						c-0.41-1.909-0.472-4.007,0.482-5.767c0.719-1.323,2.292-2.533,3.702-1.396c0.577,0.465,0.974,1.216,1.332,1.854
						c0.398,0.711,0.727,1.458,1.036,2.212c1.31,3.195,2.145,6.95,4.835,9.33c0.111,0.1,0.275-0.062,0.164-0.164
						c-0.067-0.062-0.132-0.125-0.198-0.188c1.354,0.736,2.025,2.063,2.663,3.465c0.796,1.752,1.319,3.62,1.715,5.498
						C261.571,226.811,261.804,228.742,261.99,230.672z"/>
					<path fill="#33250A" d="M258.81,240.393c-0.023,0.021-0.046,0.043-0.07,0.064c-0.275,0.238-0.563,0.465-0.815,0.727
						c-0.015,0.003-0.031,0.008-0.045,0.017c-2.596,1.458-5.774,1.369-8.112-0.563c-1.072-0.886-1.778-2.123-2.063-3.475
						c-0.416-1.975-0.397-4.082-0.449-6.09c-0.05-2.011-0.076-4.024-0.293-6.025c-0.205-1.883-0.667-3.748-1.051-5.601
						c-0.383-1.844-0.864-3.655-1.518-5.422c-0.643-1.743-1.279-3.456-1.352-5.335c-0.063-1.652,0.281-3.392,1.161-4.807
						c0.492-0.791,1.217-1.472,2.15-1.649c0.552-0.106,1.125-0.005,1.677-0.091v0.002c-1.051,0.173-1.873,1.135-2.376,1.997
						c-0.841,1.436-0.913,3.208-0.725,4.817c0.223,1.892,0.89,3.702,1.319,5.551c0.471,2.02,0.791,4.075,1.055,6.131
						c0.432,3.354,0.742,6.718,1.018,10.086c0.221,2.686,0.551,5.561,2.069,7.863c0.699,1.061,1.694,1.946,2.907,2.354
						c1.366,0.46,2.91,0.227,4.266-0.148C257.973,240.683,258.395,240.548,258.81,240.393z"/>
				</g>
			</g>
			<path d="M262.361,230.672c-0.191-2.04-0.457-4.074-0.878-6.081c-0.419-1.987-1.035-3.93-1.895-5.772
				c-0.708-1.52-1.524-2.818-3.158-3.422c-0.057-0.021-0.104-0.012-0.139,0.014c-1.776-2.06-2.607-4.819-3.546-7.325
				c-0.503-1.348-1.047-2.687-1.784-3.926c-0.606-1.021-1.403-2.113-2.721-2.038c-1.151,0.066-2.051,1.101-2.589,2.02
				c-0.841,1.436-0.914,3.208-0.724,4.818c0.223,1.892,0.889,3.703,1.319,5.55c0.47,2.021,0.79,4.076,1.056,6.132
				c0.432,3.353,0.741,6.717,1.018,10.086c0.22,2.686,0.551,5.56,2.068,7.863c0.7,1.062,1.694,1.945,2.907,2.354
				c1.368,0.46,2.911,0.226,4.266-0.149c0.413-0.114,0.833-0.248,1.25-0.405c-0.023,0.022-0.045,0.045-0.069,0.066
				c-0.276,0.237-0.563,0.464-0.817,0.726c-0.014,0.003-0.029,0.008-0.044,0.017c-2.595,1.457-5.773,1.37-8.111-0.563
				c-1.072-0.885-1.778-2.122-2.063-3.474c-0.415-1.974-0.396-4.083-0.447-6.09c-0.05-2.011-0.077-4.023-0.294-6.025
				c-0.205-1.884-0.666-3.748-1.052-5.602c-0.384-1.844-0.864-3.653-1.518-5.421c-0.644-1.744-1.281-3.456-1.352-5.334
				c-0.063-1.655,0.281-3.393,1.161-4.81c0.492-0.79,1.217-1.47,2.147-1.648c0.647-0.124,1.32,0.035,1.958-0.151
				c0.152-0.044,0.088-0.276-0.065-0.237c-0.62,0.164-1.294,0.043-1.928,0.128c-0.684,0.092-1.177,0.454-1.664,0.917
				c-1.026,0.979-1.519,2.438-1.757,3.799c-0.264,1.512-0.146,3.056,0.237,4.535c0.456,1.76,1.258,3.409,1.734,5.164
				c1.041,3.838,1.861,7.789,2.016,11.767c0.079,2.026,0.065,4.056,0.183,6.081c0.091,1.539,0.178,3.142,0.846,4.553
				c1.76,3.726,6.755,4.754,10.121,2.669c0.037-0.022,0.058-0.054,0.067-0.086c0.278-0.243,0.568-0.472,0.85-0.708
				c0.211-0.176,0.487-0.38,0.674-0.614c0.631-0.297,1.228-0.66,1.736-1.106c0.869-0.762,1.241-1.84,1.333-2.963
				C262.835,234.241,262.523,232.401,262.361,230.672z M260.611,239.088c-0.289,0.204-0.599,0.388-0.924,0.554
				c-0.038-0.01-0.083-0.004-0.124,0.028c-0.029,0.024-0.056,0.051-0.084,0.075c-1.042,0.5-2.216,0.821-3.305,1.002
				c-1.712,0.284-3.321-0.067-4.6-1.271c-1.044-0.984-1.668-2.328-2.083-3.68c-0.845-2.749-0.823-5.681-1.109-8.518
				c-0.385-3.819-0.765-7.662-1.511-11.433c-0.387-1.952-1.016-3.838-1.432-5.781c-0.41-1.907-0.472-4.005,0.481-5.766
				c0.719-1.324,2.292-2.534,3.702-1.396c0.576,0.465,0.974,1.217,1.332,1.855c0.398,0.71,0.727,1.459,1.036,2.211
				c1.309,3.196,2.146,6.95,4.835,9.331c0.111,0.099,0.274-0.062,0.164-0.164c-0.067-0.062-0.132-0.125-0.197-0.189
				c1.353,0.735,2.024,2.063,2.662,3.465c0.795,1.751,1.319,3.62,1.716,5.498c0.4,1.899,0.633,3.832,0.818,5.762
				c0.154,1.604,0.365,3.239,0.359,4.851C262.342,236.993,261.829,238.225,260.611,239.088z"/>
		</g>
		<g>
			<g id="XMLID_12_">
				<g>
					<path fill="#020202" d="M322.815,284.925v0.57c0,0.006-0.008,0.006-0.008,0v-0.57
						C322.809,284.921,322.815,284.921,322.815,284.925z"/>
					<path fill="#020202" d="M321.599,279.739c0.806,1.568,1.796,3.733,0.991,5.484c0.017-0.073,0.008-0.232-0.051-0.424
						c-0.024-0.086-0.159-0.095-0.181,0c-0.039,0.169-0.082,0.334-0.129,0.499c-0.029-0.05-0.039-0.114-0.008-0.181
						c0.76-1.681-0.254-3.83-1.042-5.308c-1.037-1.946-2.338-3.757-3.765-5.435c-1.824-2.15-3.999-3.933-6.308-5.546l0.213-0.305
						c2.138,1.49,4.204,3.071,5.926,5.038C318.899,275.449,320.448,277.502,321.599,279.739z"/>
					<path fill="#405268" d="M322.538,284.798c0.059,0.192,0.068,0.351,0.051,0.424c-0.001,0.001-0.001,0.002-0.001,0.002
						c-0.005,0.012-0.011,0.023-0.017,0.035c-0.021,0.021-0.052-0.008-0.086-0.104c-0.015,0.083-0.033,0.166-0.052,0.248
						c-0.077,0.014-0.164-0.032-0.205-0.106c0.047-0.164,0.091-0.33,0.129-0.499C322.378,284.704,322.514,284.713,322.538,284.798z"
						/>
					<path fill="#405268" d="M322.57,285.26c0.005-0.012,0.012-0.023,0.017-0.035C322.583,285.242,322.579,285.254,322.57,285.26z"
						/>
					<path fill="#020202" d="M322.57,285.26c-0.007,0.015-0.015,0.032-0.023,0.047c-0.028,0.056-0.07,0.087-0.115,0.096
						c0.019-0.082,0.037-0.164,0.052-0.248C322.519,285.252,322.55,285.28,322.57,285.26z"/>
					<path fill="#405268" d="M322.228,285.297c0.041,0.074,0.128,0.121,0.205,0.106c-0.841,3.693-4.361,6.153-7.715,7.25
						c-2.538,0.831-5.012,0.465-7.606,0.134c-1.445-0.183-2.824-0.597-4.238-0.847c0.009-0.025-0.002-0.059-0.032-0.069
						c-0.473-0.159-0.949-0.302-1.42-0.442c0.6-0.002,1.206,0.104,1.782,0.215c1.081,0.21,2.138,0.503,3.217,0.712
						c2.448,0.474,5.272,0.921,7.704,0.177C317.739,291.425,321.124,289.118,322.228,285.297z"/>
					<path fill="#405268" d="M321.178,279.808c0.788,1.478,1.801,3.626,1.042,5.308c-0.031,0.066-0.021,0.131,0.008,0.181
						c-1.104,3.821-4.488,6.128-8.103,7.237c-2.432,0.745-5.255,0.297-7.704-0.177c-1.079-0.209-2.137-0.502-3.217-0.712
						c-0.577-0.111-1.183-0.218-1.782-0.215c-1.352-0.401-2.688-0.788-3.937-1.517c-1.518-0.888-2.821-2.302-3.292-4.02
						c-0.388-1.416-0.577-2.879-1.009-4.285c-0.263-0.859-0.709-2.184-1.747-2.343c-0.061-0.009-0.125,0.026-0.123,0.095
						c0.009,0.381,0.012,0.76,0.032,1.142c0.005,0.084,0.126,0.084,0.13,0c0.014-0.251,0.021-0.5,0.024-0.75
						c0.005-0.256-0.094-0.323,0.178-0.203c0.267,0.118,0.464,0.362,0.624,0.595c0.416,0.607,0.614,1.364,0.794,2.066
						c0.274,1.059,0.424,2.152,0.674,3.219l-0.179,0.031c-0.006-0.031-0.023-0.061-0.055-0.087c-2.842-2.424-5.84-4.667-8.509-7.287
						c-2.794-2.746-5.081-5.962-7.208-9.235c-2.099-3.229-4.053-6.546-6.266-9.702c-2.16-3.08-4.785-5.689-7.273-8.495
						c-1.218-1.373-2.274-3.083-3.675-4.335c-1.313-1.35-2.731-2.579-3.809-4.143c-1.177-1.705-1.611-3.606-1.441-5.658
						c0.293-3.529,1.496-7.662,4.248-10.081c0.361,2.178,2.562,3.879,4.095,5.247c0.974,0.87,1.862,1.761,2.694,2.77
						c0.978,1.184,1.878,2.432,2.933,3.546c0.15,0.159,0.304,0.315,0.461,0.469c0.023,0.024,0.049,0.031,0.074,0.031
						c1.65,2.683,4.127,4.899,6.529,6.868c2.75,2.253,5.639,4.369,8.496,6.485c6.373,4.724,13.214,8.795,19.955,12.967
						c2.092,1.296,4.231,2.588,6.267,4.01c2.309,1.614,4.483,3.396,6.308,5.546C318.84,276.051,320.143,277.862,321.178,279.808z
						 M291.124,278.788c0.184,0,0.185-0.272,0.012-0.283c0-0.001,0-0.001,0-0.003c0-0.013-0.019-0.013-0.019,0
						c0,0.001-0.001,0.001-0.001,0.003C290.943,278.516,290.946,278.788,291.124,278.788z"/>
					<path fill="#020202" d="M311.32,268.522l-0.213,0.305c-2.035-1.422-4.175-2.714-6.268-4.01
						c-6.74-4.171-13.582-8.243-19.955-12.967c-2.856-2.116-5.745-4.231-8.496-6.485c-2.401-1.969-4.878-4.186-6.528-6.869
						c-0.025,0-0.051-0.006-0.074-0.031c-0.158-0.154-0.312-0.311-0.461-0.469l0.158-0.164c-0.005-0.077,0.093-0.142,0.156-0.074
						c0.098,0.132,0.224,0.229,0.379,0.29c0.076,0.028,0.046,0.141-0.033,0.121c-0.021-0.003-0.04-0.009-0.059-0.014
						c1.802,2.467,3.835,4.621,6.205,6.578c2.448,2.022,5.038,3.875,7.573,5.79c5.663,4.279,11.731,7.908,17.719,11.699
						c3.19,2.02,6.458,3.922,9.565,6.069C311.098,268.367,311.209,268.444,311.32,268.522z"/>
					<path fill="#020202" d="M302.842,291.871c0.029,0.01,0.041,0.044,0.032,0.069c-0.45-0.079-0.905-0.144-1.365-0.175
						c-0.326-0.065-0.656-0.144-0.986-0.235c0.294-0.07,0.596-0.1,0.897-0.101C301.895,291.569,302.37,291.712,302.842,291.871z"/>
					<path fill="#020202" d="M302.875,291.94c-0.005,0.018-0.021,0.032-0.045,0.03c-0.425-0.046-0.868-0.114-1.319-0.205
						C301.97,291.797,302.424,291.861,302.875,291.94z"/>
					<path fill="#405268" d="M301.51,291.765c-0.318-0.024-0.64-0.034-0.964-0.024c-0.119,0.002-0.144-0.181-0.028-0.209
						c0.002,0,0.003-0.001,0.006-0.001C300.854,291.622,301.185,291.7,301.51,291.765z"/>
					<path fill="#020202" d="M301.422,291.429c-0.303,0.001-0.604,0.031-0.897,0.101c-2.757-0.752-5.577-2.367-6.459-5.049
						c-0.114-0.347-0.208-0.699-0.293-1.055c-0.25-1.066-0.4-2.16-0.674-3.219c-0.181-0.704-0.379-1.459-0.794-2.066
						c-0.16-0.233-0.357-0.477-0.624-0.595c-0.272-0.12-0.173-0.054-0.178,0.203c-0.004,0.251-0.01,0.5-0.024,0.75
						c-0.004,0.084-0.125,0.084-0.13,0c-0.021-0.382-0.023-0.761-0.032-1.142c-0.002-0.069,0.063-0.104,0.123-0.095
						c1.038,0.16,1.484,1.484,1.747,2.343c0.432,1.406,0.621,2.87,1.009,4.285c0.472,1.716,1.774,3.131,3.292,4.02
						C298.734,290.642,300.07,291.028,301.422,291.429z"/>
					<path fill="#020202" d="M293.591,285.458c0.032,0.14-0.166,0.287-0.309,0.165c-2.167-1.837-4.422-3.567-6.549-5.455
						c-2.832-2.511-5.268-5.353-7.427-8.458c-2.194-3.156-4.138-6.475-6.233-9.693c-1.083-1.665-2.182-3.347-3.425-4.897
						c-1.179-1.474-2.472-2.847-3.757-4.228c-1.181-1.271-2.314-2.565-3.375-3.938c-0.606-0.786-1.225-1.568-1.927-2.26
						c-0.042,0.004-0.086-0.009-0.125-0.044c-0.356-0.311-0.716-0.632-1.07-0.962c-0.183-0.128-0.373-0.25-0.569-0.364
						c-0.063-0.037-0.049-0.146,0.019-0.16c-0.965-0.945-1.869-1.969-2.566-3.094c-1.056-1.704-1.479-3.557-1.291-5.551
						c0.356-3.747,1.605-8.033,4.622-10.511c0.113-0.091,0.264-0.032,0.277,0.115c0.1,1.209,0.917,2.264,1.71,3.125
						c0.839,0.911,1.77,1.729,2.688,2.559c1.983,1.797,3.426,4.044,5.198,6.028L269.325,238c-1.055-1.114-1.955-2.362-2.933-3.546
						c-0.832-1.008-1.721-1.899-2.694-2.77c-1.533-1.368-3.734-3.069-4.095-5.247c-2.752,2.42-3.955,6.554-4.248,10.081
						c-0.17,2.051,0.265,3.953,1.441,5.658c1.078,1.563,2.496,2.793,3.809,4.143c1.401,1.251,2.457,2.963,3.675,4.335
						c2.488,2.805,5.113,5.415,7.273,8.495c2.211,3.156,4.167,6.474,6.266,9.702c2.127,3.273,4.415,6.491,7.208,9.235
						c2.669,2.62,5.667,4.863,8.509,7.287C293.569,285.397,293.585,285.428,293.591,285.458z"/>
					<path fill="#020202" d="M291.135,278.505c0.173,0.01,0.172,0.283-0.012,0.283c-0.178,0-0.181-0.272-0.009-0.283
						c0-0.001,0.001-0.001,0.001-0.003c0-0.013,0.019-0.013,0.019,0C291.135,278.504,291.135,278.504,291.135,278.505z"/>
				</g>
			</g>
			<g>
				<path fill="#020202" d="M302.843,291.871c-1.825-0.613-3.672-0.975-5.358-1.958c-1.52-0.888-2.822-2.301-3.292-4.02
					c-0.388-1.417-0.576-2.877-1.009-4.285c-0.263-0.858-0.708-2.184-1.747-2.343c-0.06-0.009-0.125,0.025-0.124,0.094
					c0.01,0.381,0.011,0.762,0.032,1.143c0.006,0.084,0.126,0.084,0.131,0c0.014-0.251,0.021-0.5,0.024-0.751
					c0.005-0.256-0.094-0.322,0.179-0.202c0.266,0.118,0.463,0.361,0.623,0.594c0.416,0.608,0.611,1.363,0.793,2.066
					c0.366,1.412,0.51,2.886,0.968,4.273c1.136,3.447,5.477,5.134,8.765,5.487C302.889,291.977,302.895,291.888,302.843,291.871z"/>
				<path fill="#020202" d="M321.599,279.739c-1.15-2.237-2.699-4.29-4.352-6.178c-1.812-2.07-4.001-3.711-6.258-5.27
					c-3.108-2.147-6.375-4.05-9.565-6.069c-5.989-3.792-12.056-7.421-17.721-11.7c-2.533-1.914-5.123-3.767-7.571-5.79
					c-2.368-1.957-4.401-4.11-6.204-6.579c0.018,0.006,0.038,0.012,0.058,0.016c0.08,0.02,0.11-0.094,0.033-0.122
					c-0.155-0.061-0.281-0.158-0.379-0.29c-0.063-0.068-0.162-0.003-0.157,0.074c-1.771-1.983-3.213-4.231-5.198-6.027
					c-0.917-0.831-1.848-1.647-2.687-2.559c-0.794-0.861-1.61-1.917-1.711-3.125c-0.011-0.147-0.164-0.207-0.275-0.115
					c-3.018,2.478-4.267,6.765-4.623,10.511c-0.19,1.994,0.235,3.847,1.291,5.55c0.697,1.125,1.602,2.149,2.566,3.094
					c-0.068,0.015-0.082,0.124-0.019,0.161c0.197,0.113,0.386,0.235,0.569,0.365c0.354,0.33,0.713,0.651,1.07,0.962
					c0.04,0.035,0.084,0.048,0.125,0.044c0.703,0.692,1.321,1.475,1.927,2.259c1.061,1.375,2.194,2.667,3.375,3.938
					c1.284,1.381,2.577,2.755,3.756,4.228c1.243,1.552,2.341,3.233,3.425,4.897c2.095,3.22,4.041,6.537,6.233,9.693
					c2.159,3.106,4.596,5.947,7.427,8.458c2.125,1.886,4.381,3.618,6.55,5.455c0.174,0.148,0.429-0.104,0.252-0.254
					c-2.843-2.422-5.84-4.666-8.509-7.288c-2.794-2.745-5.08-5.96-7.209-9.235c-2.098-3.228-4.052-6.546-6.264-9.701
					c-2.16-3.08-4.786-5.69-7.274-8.495c-1.218-1.373-2.273-3.084-3.675-4.333c-1.313-1.351-2.729-2.582-3.808-4.144
					c-1.178-1.706-1.612-3.605-1.441-5.657c0.292-3.53,1.496-7.662,4.248-10.082c0.361,2.177,2.563,3.879,4.095,5.247
					c0.974,0.869,1.862,1.761,2.694,2.77c1.116,1.353,2.134,2.789,3.394,4.017c0.023,0.022,0.049,0.031,0.074,0.03
					c1.65,2.682,4.127,4.898,6.529,6.868c2.751,2.255,5.638,4.369,8.496,6.486c6.373,4.723,13.214,8.794,19.955,12.966
					c4.463,2.764,9.141,5.511,12.575,9.556c1.424,1.679,2.728,3.49,3.765,5.435c0.788,1.479,1.8,3.628,1.041,5.308
					c-0.1,0.22,0.217,0.414,0.328,0.192C323.428,283.541,322.417,281.332,321.599,279.739z"/>
			</g>
		</g>
	</g>
</g>
</svg>
