<?xml version="1.0" encoding="utf-8"?>
<!DOCTYPE svg PUBLIC "-//W3C//DTD SVG 1.1//EN" "http://www.w3.org/Graphics/SVG/1.1/DTD/svg11.dtd">
<svg version="1.1" id="Layer_3" xmlns="http://www.w3.org/2000/svg" xmlns:xlink="http://www.w3.org/1999/xlink" viewBox="0 0 1280 800">
<defs>
	<filter id="OpacityMaskFilter" filterUnits="userSpaceOnUse" x="-617.665" y="-817.415" width="1789.259" height="1556.28">
		<feColorMatrix  type="matrix" values="1 0 0 0 0  0 1 0 0 0  0 0 1 0 0  0 0 0 1 0"/>
	</filter>
</defs>
<mask maskUnits="userSpaceOnUse" x="-617.665" y="-817.415" width="1789.259" height="1556.28" id="SVGID_1_">
	<g filter="url(#OpacityMaskFilter)">
		<rect fill="#FFFFFF" width="1280" height="800"/>
	</g>
</mask>
<g mask="url(#SVGID_1_)">
	<g id="tree">
		<g transform="matrix(.81605,0,0,.93157,62.07737,49.82947)">
			<path fill="#A07024" stroke="#E8C07A" stroke-width="0.6381" d="M197.844,174.736"/>
			<path fill="#8F6746" d="M17.02-268.841c14.566,18.789,125.261,99.355,97.365-42.203
				C86.49-452.59,167.476-444.981,167.476-444.981l34.093-7.145c0,0-111.971-20.217-110.832,72.331
				c1.13,92.538,37.008,169.68-85.263,72.422L17.02-268.841z"/>
			<path fill="#84B719" stroke="#059036" stroke-width="0.6381" d="M-744.09-762.72c0,0-36.832,122.912,14.862,121.703
				c51.64-1.227,52.004-12.726,51.64-1.227l-0.371,11.484C-677.958-630.76-612.971-740.084-744.09-762.72L-744.09-762.72z"/>
			<path fill="none" stroke="#059036" stroke-width="0.6381" d="M-677.347-631.472c0,0,15.918-77.37-66.125-131.978"/>
			<path fill="#327C6E" d="M-816.687-653.685c0,0,32.883,121.534,77.158,93.299c44.229-28.225,38.482-37.957,44.229-28.225
				l5.74,9.749C-689.561-578.862-690.8-703.919-816.687-653.685z"/>
			<path fill="#327C6E" d="M-689.402-579.798c0,0-27.007-72.66-127.136-74.816"/>
			<path fill="#225500" d="M-734.674-527.576c0,0-84.767,97.806-38.169,118.472c46.602,20.665,51.734,10.189,46.554,20.641
				l-5.203,10.434C-731.492-378.029-627.354-451.415-734.674-527.576L-734.674-527.576z"/>
			<path fill="#225500" d="M-730.619-378.443c0,0,46.864-64.61-3.184-149.538"/>
			<path fill="#C2D468" stroke="#059036" stroke-width="0.6381" d="M-747.41-458.579c0,0,95.532,80.474,117.584,33.011
				c22.056-47.469,11.699-52.144,21.993-47.435l10.309,4.736C-597.523-468.269-668.05-569.146-747.41-458.579z"/>
			<path fill="#C2D468" stroke="#059036" stroke-width="0.6381" d="M-597.893-469.096c0,0-63.385-44.038-149.897,9.707"/>
			<path fill="#84B719" stroke="#059036" stroke-width="0.6381" d="M-649.363-683.068c0,0-36.836,122.92,14.861,121.712
				c51.63-1.225,51.993-12.717,51.63-1.225l-0.361,11.491c0,0,64.996-109.332-66.125-131.977h-0.006L-649.363-683.068
				L-649.363-683.068z"/>
			<path fill="none" stroke="#059036" stroke-width="0.6381" d="M-582.604-551.827c0,0,15.892-77.369-66.131-131.967"/>
			<path fill="#225500" d="M-561.046-626.695c0,0-84.76,97.79-38.173,118.455c46.593,20.659,51.736,10.2,46.556,20.65l-5.187,10.426
				C-557.85-477.163-453.717-550.551-561.046-626.695L-561.046-626.695z"/>
			<path fill="#225500" d="M-556.992-477.56c0,0,46.883-64.62-3.18-149.548"/>
			<path fill="#327C6E" d="M-721.952-574.032c0,0,32.893,121.543,77.149,93.308c44.263-28.225,38.487-37.965,44.254-28.225
				l5.725,9.75C-594.823-499.199-596.052-624.258-721.952-574.032L-721.952-574.032z"/>
			<path fill="#327C6E" d="M-594.674-500.138c0,0-27.02-72.642-127.127-74.816"/>
			<path fill="#C2D468" stroke="#059036" stroke-width="0.6381" d="M-796.145-373.86c0,0,95.551,80.456,117.597,33.003
				c22.044-47.463,11.704-52.154,22.013-47.444l10.305,4.743C-646.23-383.559-716.787-484.444-796.145-373.86z"/>
			<path fill="#C2D468" stroke="#059036" stroke-width="0.6381" d="M-646.63-384.396c0,0-63.394-44.037-149.916,9.691"/>
			<path fill="#225500" d="M-687.322-395.845c0,0-84.775,97.791-38.172,118.456c46.602,20.666,51.744,10.199,46.556,20.64
				l-5.184,10.443C-684.122-246.307-580.002-319.71-687.322-395.845L-687.322-395.845z"/>
			<path fill="#225500" d="M-683.278-246.721c0,0,46.884-64.618-3.186-149.549"/>
			<path fill="#C2D468" stroke="#059036" stroke-width="0.6381" d="M-611.746-377.633c0,0,95.552,80.466,117.599,33.003
				c22.043-47.462,11.685-52.139,22.011-47.427l10.305,4.735C-461.831-387.322-532.377-488.199-611.746-377.633L-611.746-377.633z"
				/>
			<path fill="#C2D468" stroke="#059036" stroke-width="0.6381" d="M-462.22-388.169c0,0-63.395-44.036-149.908,9.692"/>
			<path fill="#84B719" stroke="#059036" stroke-width="0.6381" d="M-513.693-602.124c0,0-36.836,122.913,14.855,121.713
				c51.665-1.235,52.018-12.727,51.665-1.235l-0.379,11.491C-447.551-470.154-382.578-579.468-513.693-602.124L-513.693-602.124z"/>
			<path fill="none" stroke="#059036" stroke-width="0.6381" d="M-446.95-470.874c0,0,15.911-77.369-66.133-131.968"/>
			<path fill="#225500" d="M-425.372-545.764c0,0-84.769,97.789-38.186,118.464c46.578,20.674,51.753,10.182,46.56,20.649
				l-5.18,10.434C-422.178-396.218-318.049-469.621-425.372-545.764z"/>
			<path fill="#225500" d="M-421.331-396.631c0,0,46.872-64.63-3.176-149.555"/>
			<path fill="#C2D468" stroke="#059036" stroke-width="0.6381" d="M-610.116-236.904c0,0,95.552,80.457,117.596,33.003
				c22.046-47.462,11.703-52.146,22.012-47.42l10.31,4.728C-460.199-246.593-530.747-347.488-610.116-236.904L-610.116-236.904z"/>
			<path fill="#C2D468" stroke="#059036" stroke-width="0.6381" d="M-460.601-247.438c0,0-63.384-44.038-149.905,9.689"/>
			<path fill="#84B719" stroke="#059036" stroke-width="0.6381" d="M-512.062-461.403c0,0-36.835,122.913,14.865,121.694
				c51.641-1.227,52.002-12.726,51.641-1.227l-0.372,11.5C-445.928-329.435-380.94-438.766-512.062-461.403z"/>
			<path fill="none" stroke="#059036" stroke-width="0.6381" d="M-445.311-330.162c0,0,15.912-77.377-66.121-131.975"/>
			<path fill="#225500" d="M-449.731-402.601c0,0-84.788,97.791-38.195,118.456c46.59,20.666,51.744,10.206,46.559,20.649
				l-5.189,10.443C-446.556-253.054-342.425-326.466-449.731-402.601z"/>
			<path fill="#225500" d="M-445.691-253.476c0,0,46.873-64.619-3.186-149.539"/>
			<path fill="#C2D468" stroke="#059036" stroke-width="0.6381" d="M-710.256-279.123c0,0,95.563,80.481,117.604,33.029
				c22.047-47.463,11.681-52.146,22.005-47.429l10.308,4.718C-560.341-288.805-630.887-389.682-710.256-279.123z"/>
			<path fill="#C2D468" stroke="#059036" stroke-width="0.6381" d="M-560.731-289.633c0,0-63.394-44.03-149.917,9.689"/>
			<path fill="#84B719" stroke="#059036" stroke-width="0.6381" d="M-612.199-503.605c0,0-36.829,122.912,14.859,121.709
				c51.651-1.242,52.004-12.742,51.651-1.242l-0.371,11.5C-546.06-371.637-481.082-480.951-612.199-503.605z"/>
			<path fill="none" stroke="#059036" stroke-width="0.6381" d="M-545.45-372.365c0,0,15.9-77.369-66.133-131.975"/>
			<path fill="#C2D468" stroke="#059036" stroke-width="0.6381" d="M-753.437-180.158c0,0,95.533,80.481,117.584,33.011
				s11.705-52.146,22.013-47.41l10.32,4.717C-603.521-189.84-674.059-290.715-753.437-180.158z"/>
			<path fill="#C2D468" stroke="#059036" stroke-width="0.6381" d="M-603.917-190.685c0,0-63.395-44.037-149.906,9.699"/>
			<path fill="#84B719" stroke="#059036" stroke-width="0.6381" d="M-655.391-404.639c0,0-36.834,122.903,14.856,121.703
				c51.639-1.244,51.998-12.726,51.639-1.244l-0.367,11.509C-589.265-272.67-524.273-382.004-655.391-404.639L-655.391-404.639z"/>
			<path fill="none" stroke="#059036" stroke-width="0.6381" d="M-588.646-273.398c0,0,15.908-77.361-66.117-131.978"/>
			<path fill="#225500" d="M-567.064-348.28c0,0-84.774,97.798-38.19,118.463c46.58,20.666,51.753,10.182,46.559,20.64
				l-5.186,10.426C-563.883-198.751-459.754-272.139-567.064-348.28L-567.064-348.28z"/>
			<path fill="#225500" d="M-563.028-199.158c0,0,46.875-64.61-3.186-149.547"/>
			<path fill="#327C6E" d="M-727.989-295.601c0,0,32.892,121.532,77.17,93.307c44.216-28.224,38.48-37.959,44.216-28.224l5.75,9.748
				C-600.853-220.77-602.093-345.837-727.989-295.601z"/>
			<path fill="#327C6E" d="M-600.694-221.718c0,0-27.018-72.643-127.134-74.824"/>
			<path fill="#C2D468" stroke="#059036" stroke-width="0.6381" d="M-625.617-134.227c0,0,95.553,80.465,117.608,33.019
				c22.052-47.454,11.694-52.147,22.014-47.443l10.308,4.734C-475.688-143.918-546.252-244.793-625.617-134.227z"/>
			<path fill="#C2D468" stroke="#059036" stroke-width="0.6381" d="M-476.102-144.747c0,0-63.383-44.027-149.906,9.699"/>
			<path fill="#225500" d="M-439.234-302.359c0,0-84.788,97.806-38.194,118.48c46.589,20.675,51.743,10.172,46.559,20.633
				l-5.178,10.443C-436.049-152.803-331.91-226.198-439.234-302.359L-439.234-302.359z"/>
			<path fill="#225500" d="M-435.194-153.218c0,0,46.865-64.636-3.195-149.546"/>
			<path fill="#327C6E" d="M-600.154-249.68c0,0,32.877,121.532,77.169,93.308c44.218-28.217,38.471-37.959,44.218-28.217
				l5.738,9.74C-473.028-174.848-474.258-299.907-600.154-249.68z"/>
			<path fill="#327C6E" d="M-472.868-175.77c0,0-27.018-72.65-127.135-74.831"/>
			<path fill="#C2D468" stroke="#059036" stroke-width="0.6381" d="M-360.279-784.148c0,0,37.579,119.74,81.078,90.509
				c43.493-29.222,37.339-38.726,43.485-29.214l6.147,9.512c0,0-5.858-124.112-130.716-70.808h0.004v0.001H-360.279z"/>
			<path fill="#C2D468" stroke="#059036" stroke-width="0.6381" d="M-229.472-714.287c0,0-29.859-71.367-130.687-70.782"/>
			<path fill="#84B719" stroke="#059036" stroke-width="0.6381" d="M-159.625-925.696c0,0-95.75,86.409-51.815,112.656
				c43.91,26.204,50.272,16.505,43.91,26.204l-6.379,9.705C-173.909-777.13-61.756-836.953-159.625-925.696z"/>
			<path fill="none" stroke="#059036" stroke-width="0.6381" d="M-173.002-777.434c0,0,54.161-58.217,14.266-148.551"/>
			<path fill="#225500" d="M-115.406-830.526c0,0-122.64,39.445-94.527,81.851c28.119,42.345,37.963,36.107,28.119,42.345
				l-9.845,6.266C-191.661-700.063-65.704-708.299-115.406-830.526z"/>
			<path fill="#225500" d="M-190.734-699.979c0,0,73.37-30.88,76.256-130.456"/>
			<path fill="#327C6E" d="M-277.991-870.125c0,0-36.616,122.007,15.373,121.085c51.929-0.948,52.288-12.37,51.929-0.948
				l-0.327,11.425C-211.016-738.563-146.023-846.914-277.991-870.125L-277.991-870.125z"/>
			<path fill="#327C6E" d="M-210.398-739.282c0,0,15.734-76.819-66.974-131.561"/>
			<path fill="#C2D468" stroke="#059036" stroke-width="0.6381" d="M-162.51-777.84c0,0,37.567,119.734,81.081,90.502
				c43.466-29.223,37.339-38.729,43.466-29.223l6.13,9.53C-31.832-707.031-37.653-831.151-162.51-777.84z"/>
			<path fill="#C2D468" stroke="#059036" stroke-width="0.6381" d="M-31.697-707.962c0,0-29.867-71.375-130.689-70.799"/>
			<path fill="#84B719" stroke="#059036" stroke-width="0.6381" d="M38.122-919.38c0,0-95.727,86.376-51.798,112.639
				c43.929,26.256,50.271,16.513,43.912,26.213l-6.371,9.681C23.864-770.847,135.997-830.645,38.122-919.38L38.122-919.38z"/>
			<path fill="none" stroke="#059036" stroke-width="0.6381" d="M24.761-771.125c0,0,54.162-58.21,14.284-148.559"/>
			<path fill="#225500" d="M82.369-824.203c0,0-122.637,39.454-94.54,81.834c28.119,42.355,37.955,36.115,28.119,42.355
				l-9.845,6.257C6.102-693.756,132.059-701.976,82.369-824.203z"/>
			<path fill="#225500" d="M7.028-693.663c0,0,73.372-30.881,76.277-130.446"/>
			<path fill="#327C6E" d="M-80.231-863.817c0,0-36.622,122,15.378,121.095c51.941-0.939,52.27-12.371,51.941-0.939l-0.328,11.414
				C-13.242-732.248,51.74-840.596-80.231-863.817L-80.231-863.817z"/>
			<path fill="#327C6E" d="M-12.623-732.983c0,0,15.722-76.81-66.99-131.552"/>
			<path fill="#C2D468" stroke="#059036" stroke-width="0.6381" d="M-248.04-730.639c0,0,37.562,119.723,81.089,90.509
				c43.465-29.214,37.327-38.728,43.465-29.214l6.149,9.512C-117.337-659.832-123.195-783.953-248.04-730.639z"/>
			<path fill="#C2D468" stroke="#059036" stroke-width="0.6381" d="M-117.239-660.761c0,0-29.847-71.374-130.67-70.8"/>
			<path fill="#225500" d="M-145.29-692.116c0,0-122.618,39.455-94.513,81.852c28.115,42.354,37.96,36.105,28.115,42.354
				l-9.866,6.247C-221.556-561.662-95.578-569.871-145.29-692.116L-145.29-692.116z"/>
			<path fill="#225500" d="M-220.628-561.551c0,0,73.388-30.889,76.284-130.455"/>
			<path fill="#327C6E" d="M-307.87-731.715c0,0-36.618,122.008,15.372,121.095c51.988-0.914,52.276-12.37,51.95-0.93l-0.332,11.414
				C-240.879-600.135-175.918-708.495-307.87-731.715z"/>
			<path fill="#327C6E" d="M-240.253-600.871c0,0,15.716-76.819-66.989-131.561"/>
			<path fill="#C2D468" stroke="#059036" stroke-width="0.6381" d="M-91.601-636.511c0,0,37.567,119.732,81.101,90.51
				c43.466-29.213,37.318-38.729,43.466-29.213l6.131,9.512C39.096-565.703,33.267-689.806-91.601-636.511L-91.601-636.511z"/>
			<path fill="#C2D468" stroke="#059036" stroke-width="0.6381" d="M39.221-566.641c0,0-29.856-71.383-130.678-70.791"/>
			<path fill="#84B719" stroke="#059036" stroke-width="0.6381" d="M109.038-778.05c0,0-95.726,86.4-51.806,112.636
				c43.919,26.247,50.29,16.516,43.91,26.213l-6.371,9.698C94.772-629.501,206.945-689.318,109.038-778.05L109.038-778.05z"/>
			<path fill="none" stroke="#059036" stroke-width="0.6381" d="M95.678-629.797c0,0,54.162-58.217,14.268-148.55"/>
			<path fill="#225500" d="M153.275-682.891c0,0-122.615,39.453-94.517,81.835c28.12,42.364,37.985,36.107,28.12,42.364L77-552.437
				C77-552.436,202.979-560.647,153.275-682.891z"/>
			<path fill="#225500" d="M77.946-552.343c0,0,73.361-30.881,76.268-130.464"/>
			<path fill="#C2D468" stroke="#059036" stroke-width="0.6381" d="M-164.501-514.47c0,0,37.56,119.733,81.084,90.502
				c43.475-29.215,37.317-38.736,43.475-29.215l6.12,9.529C-33.821-443.655-39.661-567.801-164.501-514.47L-164.501-514.47z"/>
			<path fill="#C2D468" stroke="#059036" stroke-width="0.6381" d="M-33.686-444.61c0,0-29.875-71.374-130.697-70.79"/>
			<path fill="#84B719" stroke="#059036" stroke-width="0.6381" d="M36.142-656.019c0,0-95.748,86.392-51.807,112.647
				c43.91,26.203,50.28,16.504,43.91,26.203l-6.371,9.692C21.875-507.477,134.01-567.283,36.142-656.019L36.142-656.019z"/>
			<path fill="none" stroke="#059036" stroke-width="0.6381" d="M22.754-507.756c0,0,54.161-58.228,14.275-148.567"/>
			<path fill="#225500" d="M57.311-572.476c0,0-122.639,39.455-94.53,81.843C-9.11-448.287,0.736-454.535-9.11-448.287l-9.865,6.257
				C-18.975-442.029,107.011-450.25,57.311-572.476z"/>
			<path fill="#225500" d="M-18.028-441.92c0,0,73.368-30.896,76.255-130.463"/>
			<path fill="#C2D468" stroke="#059036" stroke-width="0.6381" d="M-226.113-603.687c0,0,37.568,119.741,81.085,90.518
				c43.503-29.23,37.335-38.735,43.484-29.23l6.138,9.521C-95.404-532.878-101.265-656.993-226.113-603.687z"/>
			<path fill="#C2D468" stroke="#059036" stroke-width="0.6381" d="M-95.309-533.817c0,0-29.865-71.374-130.684-70.8"/>
			<path fill="#84B719" stroke="#059036" stroke-width="0.6381" d="M-25.472-745.234c0,0-95.743,86.4-51.806,112.647
				c43.91,26.212,50.29,16.505,43.91,26.212l-6.38,9.691C-39.748-596.685,72.396-656.501-25.472-745.234L-25.472-745.234z"/>
			<path fill="none" stroke="#059036" stroke-width="0.6381" d="M-38.84-596.981c0,0,54.16-58.209,14.277-148.557"/>
			<path fill="#C2D468" stroke="#059036" stroke-width="0.6381" d="M-314.526-541.284c0,0,37.568,119.741,81.079,90.511
				c43.465-29.197,37.326-38.736,43.465-29.197l6.149,9.512C-183.834-470.458-189.674-594.579-314.526-541.284z"/>
			<path fill="#C2D468" stroke="#059036" stroke-width="0.6381" d="M-183.717-471.396c0,0-29.856-71.402-130.689-70.808"/>
			<path fill="#84B719" stroke="#059036" stroke-width="0.6381" d="M-113.899-682.813c0,0-95.717,86.399-51.789,112.636
				c43.913,26.204,50.281,16.505,43.913,26.204l-6.393,9.717C-128.167-534.255-16.014-594.098-113.899-682.813z"/>
			<path fill="none" stroke="#059036" stroke-width="0.6381" d="M-127.248-534.559c0,0,54.161-58.219,14.286-148.568"/>
			<path fill="#225500" d="M-69.651-587.637c0,0-122.627,39.446-94.529,81.825c28.119,42.354,37.982,36.097,28.119,42.354
				l-9.875,6.25C-145.937-457.208-19.961-465.428-69.651-587.637z"/>
			<path fill="#225500" d="M-144.991-457.108c0,0,73.361-30.879,76.265-130.454"/>
			<path fill="#327C6E" d="M-232.251-627.26c0,0-36.61,122.007,15.376,121.084c51.932-0.939,52.279-12.379,51.932-0.939
				l-0.32,11.425C-165.263-495.69-100.279-604.042-232.251-627.26L-232.251-627.26z"/>
			<path fill="#327C6E" d="M-164.635-496.425c0,0,15.716-76.821-66.993-131.545"/>
			<path fill="#C2D468" stroke="#059036" stroke-width="0.6381" d="M-231.707-434.234c0,0,37.574,119.74,81.079,90.501
				c43.514-29.241,37.325-38.726,43.503-29.224l6.11,9.539C-101.014-363.417-106.844-487.547-231.707-434.234z"/>
			<path fill="#C2D468" stroke="#059036" stroke-width="0.6381" d="M-100.89-364.365c0,0-29.865-71.364-130.696-70.783"/>
			<path fill="#225500" d="M13.168-480.614c0,0-122.637,39.454-94.528,81.852c28.118,42.355,37.964,36.114,28.118,42.355
				l-9.845,6.256C-63.087-350.152,62.87-358.361,13.168-480.614z"/>
			<path fill="#225500" d="M-62.163-350.059c0,0,73.36-30.898,76.258-130.446"/>
			<path fill="#327C6E" d="M-149.413-520.213c0,0-36.611,122.007,15.368,121.086c51.943-0.938,52.27-12.377,51.943-0.938
				l-0.34,11.423C-82.444-388.642-17.452-497-149.413-520.213z"/>
			<path fill="#327C6E" d="M-81.806-389.377c0,0,15.716-76.82-66.989-131.562"/>
			<path fill="#C2D468" stroke="#059036" stroke-width="0.6381" d="M-685.301-655.975c0,0,95.523,80.473,117.593,33.01
				c22.059-47.454,11.692-52.138,22.01-47.427l10.303,4.726C-535.395-665.666-605.941-766.535-685.301-655.975L-685.301-655.975z"/>
			<path fill="#C2D468" stroke="#059036" stroke-width="0.6381" d="M-535.785-666.511c0,0-63.385-44.03-149.895,9.698"/>
			<path fill="#84B719" stroke="#059036" stroke-width="0.6381" d="M-582.769-890.435c0,0-36.834,122.928,14.85,121.71
				c51.682-1.217,52.004-12.717,51.661-1.226l-0.382,11.492c0,0,64.987-109.332-66.123-131.977L-582.769-890.435L-582.769-890.435z"
				/>
			<path fill="none" stroke="#059036" stroke-width="0.6381" d="M-520.515-749.218c0,0,15.903-77.376-66.129-131.975"/>
			<path fill="#327C6E" d="M-659.846-771.437c0,0,32.877,121.523,77.169,93.3c44.219-28.216,38.478-37.958,44.219-28.216l5.749,9.74
				C-532.709-696.615-533.95-821.665-659.846-771.437z"/>
			<path fill="#327C6E" d="M-532.56-697.536c0,0-27.023-72.634-127.125-74.833"/>
			<path fill="#84B719" stroke="#059036" stroke-width="0.6381" d="M-446.376-900.226c0,0-36.835,122.904,14.87,121.694
				c51.698-1.218,52.013-12.726,51.65-1.234l-0.361,11.499C-380.217-768.267-315.25-877.592-446.376-900.226z"/>
			<path fill="none" stroke="#059036" stroke-width="0.6381" d="M-379.625-768.986c0,0,15.919-77.37-66.123-131.97"/>
			<path fill="#327C6E" d="M-518.946-791.207c0,0,32.873,121.541,77.149,93.308c44.23-28.208,38.49-37.958,44.23-28.208l5.738,9.732
				C-391.829-716.375-393.07-841.427-518.946-791.207z"/>
			<path fill="#327C6E" d="M-391.689-717.305c0,0-26.999-72.651-127.127-74.823"/>
			<path fill="#C2D468" stroke="#059036" stroke-width="0.6381" d="M-623.315-496.924c0,0,95.57,80.464,117.593,33.002
				c22.023-47.462,11.694-52.162,22.023-47.436l10.318,4.71C-473.38-506.648-543.936-607.508-623.315-496.924z"/>
			<path fill="#C2D468" stroke="#059036" stroke-width="0.6381" d="M-473.791-507.477c0,0-63.409-44.03-149.906,9.706"/>
			<path fill="#84B719" stroke="#059036" stroke-width="0.6381" d="M-525.257-721.432c0,0-36.844,122.929,14.859,121.711
				c51.633-1.234,51.995-12.717,51.633-1.234l-0.372,11.501C-459.137-589.454-394.14-698.78-525.257-721.432L-525.257-721.432z"/>
			<path fill="none" stroke="#059036" stroke-width="0.6381" d="M-458.514-590.2c0,0,15.915-77.361-66.126-131.959"/>
			<path fill="#225500" d="M-436.94-665.074c0,0-84.786,97.797-38.193,118.472c46.594,20.674,51.743,10.189,46.575,20.632
				l-5.202,10.434C-433.761-515.537-329.622-588.922-436.94-665.074L-436.94-665.074z"/>
			<path fill="#225500" d="M-432.887-515.942c0,0,46.863-64.62-3.183-149.539"/>
			<path fill="#327C6E" d="M-597.856-612.403c0,0,32.892,121.524,77.16,93.309c44.218-28.226,38.489-37.976,44.218-28.226
				l5.748,9.749C-470.73-537.572-471.962-662.64-597.856-612.403L-597.856-612.403z"/>
			<path fill="#327C6E" d="M-470.571-538.492c0,0-27.007-72.66-127.116-74.843"/>
			<path fill="#C2D468" stroke="#059036" stroke-width="0.6381" d="M-449.689-596.076c0,0,95.543,80.463,117.585,33.012
				c22.046-47.447,11.709-52.156,22.002-47.438l10.311,4.726C-299.79-605.776-370.337-706.643-449.689-596.076L-449.689-596.076z"/>
			<path fill="#C2D468" stroke="#059036" stroke-width="0.6381" d="M-300.174-606.604c0,0-63.383-44.029-149.894,9.715"/>
			<path fill="#84B719" stroke="#059036" stroke-width="0.6381" d="M-351.625-820.574c0,0-36.834,122.919,14.855,121.702
				c51.641-1.218,52.003-12.708,51.641-1.218l-0.382,11.492C-285.511-688.598-220.513-797.923-351.625-820.574z"/>
			<path fill="none" stroke="#059036" stroke-width="0.6381" d="M-284.883-689.326c0,0,15.912-77.361-66.12-131.968"/>
			<path fill="#225500" d="M-263.313-764.209c0,0-84.77,97.789-38.176,118.464c46.589,20.673,51.738,10.189,46.559,20.638
				l-5.188,10.427C-260.12-614.679-155.984-688.065-263.313-764.209L-263.313-764.209z"/>
			<path fill="#225500" d="M-259.269-615.077c0,0,46.884-64.616-3.191-149.563"/>
			<path fill="#327C6E" d="M-424.228-711.53c0,0,32.891,121.534,77.168,93.308c44.233-28.225,38.485-37.965,44.233-28.225
				l5.735,9.741C-297.092-636.704-298.328-761.766-424.228-711.53z"/>
			<path fill="#327C6E" d="M-296.944-637.636c0,0-27.018-72.651-127.125-74.823"/>
			<path fill="#C2D468" stroke="#059036" stroke-width="0.6381" d="M-498.425-511.368c0,0,95.552,80.466,117.599,33.004
				c22.041-47.454,11.695-52.145,22.002-47.427l10.314,4.726C-348.508-521.066-419.049-621.943-498.425-511.368L-498.425-511.368z"
				/>
			<path fill="#C2D468" stroke="#059036" stroke-width="0.6381" d="M-348.9-521.91c0,0-63.394-44.022-149.925,9.699"/>
			<path fill="#225500" d="M-389.6-533.359c0,0-84.768,97.789-38.179,118.48c46.591,20.683,51.743,10.19,46.563,20.64l-5.183,10.436
				C-386.399-383.804-282.282-457.208-389.6-533.359z"/>
			<path fill="#225500" d="M-385.555-384.219c0,0,46.865-64.636-3.175-149.548"/>
			<path fill="#327C6E" d="M-550.506-480.682c0,0,32.882,121.523,77.159,93.298c44.227-28.215,38.486-37.955,44.227-28.215
				l5.739,9.731C-423.379-405.867-424.609-530.908-550.506-480.682z"/>
			<path fill="#327C6E" d="M-423.218-406.787c0,0-27.011-72.644-127.127-74.825"/>
			<path fill="#C2D468" stroke="#059036" stroke-width="0.6381" d="M-314.015-515.137c0,0,95.558,80.472,117.595,33.019
				c22.047-47.463,11.699-52.148,22.008-47.429l10.31,4.727C-164.103-524.819-234.655-625.697-314.015-515.137z"/>
			<path fill="#C2D468" stroke="#059036" stroke-width="0.6381" d="M-164.501-525.675c0,0-63.384-44.026-149.895,9.708"/>
			<path fill="#84B719" stroke="#059036" stroke-width="0.6381" d="M-215.967-739.653c0,0-36.84,122.929,14.846,121.727
				c51.652-1.243,52.008-12.734,51.652-1.243l-0.369,11.499C-149.838-607.67-84.845-716.983-215.967-739.653L-215.967-739.653z"/>
			<path fill="none" stroke="#059036" stroke-width="0.6381" d="M-149.229-608.38c0,0,15.917-77.368-66.131-131.975"/>
			<path fill="#225500" d="M-127.636-683.27c0,0-84.78,97.798-38.195,118.463c46.594,20.674,51.758,10.19,46.565,20.649
				l-5.174,10.444C-124.441-533.715-20.327-607.119-127.636-683.27z"/>
			<path fill="#225500" d="M-123.611-534.146c0,0,46.873-64.603-3.186-149.531"/>
			<path fill="#C2D468" stroke="#059036" stroke-width="0.6381" d="M-312.393-374.41c0,0,95.555,80.464,117.604,32.994
				c22.056-47.47,11.697-52.147,22.017-47.419l10.299,4.726C-162.472-384.109-233.024-484.985-312.393-374.41L-312.393-374.41z"/>
			<path fill="#C2D468" stroke="#059036" stroke-width="0.6381" d="M-162.858-384.954c0,0-63.394-44.02-149.915,9.697"/>
			<path fill="#84B719" stroke="#059036" stroke-width="0.6381" d="M-214.326-598.918c0,0-36.84,122.921,14.864,121.703
				c51.642-1.224,52.009-12.709,51.642-1.224l-0.377,11.491C-148.197-466.948-83.204-576.265-214.326-598.918L-214.326-598.918z"/>
			<path fill="none" stroke="#059036" stroke-width="0.6381" d="M-147.587-467.66c0,0,15.918-77.369-66.12-131.993"/>
			<path fill="#225500" d="M-152.009-540.116c0,0-84.779,97.789-38.177,118.456c46.603,20.665,51.721,10.198,46.556,20.658
				l-5.194,10.434C-148.824-390.569-44.69-463.964-152.009-540.116z"/>
			<path fill="#225500" d="M-147.964-390.992c0,0,46.885-64.618-3.175-149.53"/>
			<path fill="#C2D468" stroke="#059036" stroke-width="0.6381" d="M-412.516-416.612c0,0,95.543,80.473,117.584,33.003
				c22.047-47.47,11.69-52.147,22.004-47.427l10.318,4.734C-262.609-426.303-333.176-527.179-412.516-416.612z"/>
			<path fill="#C2D468" stroke="#059036" stroke-width="0.6381" d="M-263.001-427.148c0,0-63.393-44.03-149.915,9.707"/>
			<path fill="#84B719" stroke="#059036" stroke-width="0.6381" d="M-314.483-641.11c0,0-36.825,122.919,14.856,121.71
				c51.652-1.233,52.028-12.727,51.652-1.233l-0.363,11.506C-248.337-509.127-183.361-618.458-314.483-641.11L-314.483-641.11z"/>
			<path fill="none" stroke="#059036" stroke-width="0.6381" d="M-247.73-509.87c0,0,15.903-77.353-66.131-131.959"/>
			<path fill="#C2D468" stroke="#059036" stroke-width="0.6381" d="M-455.713-317.665c0,0,95.543,80.482,117.592,33.028
				c22.044-47.46,11.693-52.154,22.014-47.435l10.308,4.727c0,0-70.545-100.877-149.919,9.681H-455.713L-455.713-317.665z"/>
			<path fill="#C2D468" stroke="#059036" stroke-width="0.6381" d="M-306.199-328.191c0,0-63.39-44.027-149.902,9.707"/>
			<path fill="#84B719" stroke="#059036" stroke-width="0.6381" d="M-357.659-542.137c0,0-36.834,122.902,14.847,121.702
				c51.637-1.252,51.999-12.735,51.637-1.252l-0.353,11.509C-291.529-410.178-226.542-519.5-357.659-542.137L-357.659-542.137z"/>
			<path fill="none" stroke="#059036" stroke-width="0.6381" d="M-290.926-410.905c0,0,15.903-77.361-66.116-131.967"/>
			<path fill="#225500" d="M-269.332-485.798c0,0-84.784,97.815-38.182,118.472c46.604,20.668,51.743,10.19,46.556,20.65
				l-5.194,10.434C-266.152-336.241-162.029-409.645-269.332-485.798z"/>
			<path fill="#225500" d="M-265.307-336.665c0,0,46.878-64.618-3.185-149.537"/>
			<path fill="#327C6E" d="M-430.247-433.118c0,0,32.894,121.533,77.159,93.309c44.218-28.217,38.479-37.966,44.218-28.217
				l5.747,9.733C-303.122-358.293-304.371-483.346-430.247-433.118z"/>
			<path fill="#327C6E" d="M-302.97-359.215c0,0-27.009-72.644-127.125-74.824"/>
			<path fill="#C2D468" stroke="#059036" stroke-width="0.6381" d="M-327.88-271.725c0,0,95.55,80.464,117.608,33.004
				c22.046-47.463,11.691-52.138,21.998-47.429l10.308,4.737C-177.965-281.413-248.521-382.291-327.88-271.725z"/>
			<path fill="#C2D468" stroke="#059036" stroke-width="0.6381" d="M-178.37-282.253c0,0-63.384-44.027-149.906,9.691"/>
			<path fill="#225500" d="M-141.507-439.857c0,0-84.795,97.797-38.186,118.464c46.612,20.667,51.738,10.198,46.556,20.64
				l-5.174,10.444C-138.311-290.31-34.207-363.696-141.507-439.857L-141.507-439.857z"/>
			<path fill="#225500" d="M-137.463-290.724c0,0,46.866-64.628-3.204-149.557"/>
			<path fill="#327C6E" d="M-302.421-387.169c0,0,32.882,121.525,77.158,93.299c44.227-28.224,38.484-37.95,44.227-28.224
				l5.745,9.75C-175.29-312.345-176.527-437.413-302.421-387.169z"/>
			<path fill="#327C6E" d="M-175.156-313.284c0,0-27.009-72.65-127.125-74.834"/>
			<path fill="#C2D468" stroke="#059036" stroke-width="0.6381" d="M-565.876-577.438c0,0,61.091,109.162,98.027,71.882
				c36.888-37.264,28.926-45.289,36.888-37.264l7.963,8.049C-422.998-534.772-453.79-654.608-565.876-577.438z"/>
			<path fill="#C2D468" stroke="#059036" stroke-width="0.6381" d="M-423.075-535.702c0,0-43.762-63.57-142.869-42.651"/>
			<path fill="#84B719" stroke="#059036" stroke-width="0.6381" d="M-397.001-755.905c0,0-76.788,103.549-28.265,120.282
				c48.481,16.692,52.803,5.953,48.481,16.692l-4.316,10.738C-381.101-608.193-282.811-689.148-397.001-755.905L-397.001-755.905z"
				/>
			<path fill="none" stroke="#059036" stroke-width="0.6381" d="M-380.274-608.682c0,0,41.564-67.663-15.912-147.714"/>
			<path fill="#327C6E" d="M-502.261-677.859c0,0-11.403,126.327,39.538,114.938c50.942-11.39,48.939-22.603,50.912-11.39
				l1.989,11.214C-409.821-563.098-367.735-681.851-502.261-677.859z"/>
			<path fill="#327C6E" d="M-409.359-563.936c0,0-0.028-78.07-92.448-114.752"/>
			<path fill="#84B719" stroke="#059036" stroke-width="0.6381" d="M-259.051-725.888c0,0-76.782,103.538-28.254,120.282
				c48.481,16.692,52.796,5.962,48.481,16.692l-4.316,10.748C-243.14-578.166-144.846-659.122-259.051-725.888z"/>
			<path fill="none" stroke="#059036" stroke-width="0.6381" d="M-242.315-578.666c0,0,41.549-67.662-15.911-147.712"/>
			<path fill="#327C6E" d="M-364.309-647.833c0,0-11.41,126.338,39.547,114.938c50.951-11.398,48.94-22.601,50.912-11.389
				l1.99,11.204C-271.86-533.081-229.786-651.833-364.309-647.833z"/>
			<path fill="#327C6E" d="M-271.412-533.91c0,0-0.005-78.087-92.429-114.751"/>
			<path fill="#C2D468" stroke="#059036" stroke-width="0.6381" d="M-563.169-405.561c0,0,61.116,109.172,98.022,71.889
				c36.905-37.288,28.91-45.296,36.898-37.254l7.952,8.033C-420.296-362.894-451.082-482.71-563.169-405.561z"/>
			<path fill="#C2D468" stroke="#059036" stroke-width="0.6381" d="M-420.373-363.815c0,0-43.786-63.561-142.876-42.66"/>
			<path fill="#84B719" stroke="#059036" stroke-width="0.6381" d="M-394.291-584.018c0,0-76.781,103.548-28.262,120.272
				c48.491,16.701,52.805,5.971,48.491,16.701l-4.315,10.739C-378.378-436.304-280.1-517.252-394.291-584.018L-394.291-584.018z"/>
			<path fill="none" stroke="#059036" stroke-width="0.6381" d="M-377.552-436.787c0,0,41.549-67.663-15.908-147.713"/>
			<path fill="#225500" d="M-331.597-500.145c0,0-112.714,63.196-76.493,98.862c36.227,35.658,44.615,27.532,36.199,35.618
				l-8.438,8.073C-380.329-357.592-258.048-390.992-331.597-500.145z"/>
			<path fill="#225500" d="M-379.377-357.686c0,0,65.962-44.898,48.735-142.571"/>
			<path fill="#327C6E" d="M-499.552-505.982c0,0-11.406,126.347,39.536,114.955c50.946-11.389,48.95-22.603,50.918-11.407
				l1.989,11.213C-407.109-391.22-365.015-509.955-499.552-505.982z"/>
			<path fill="#327C6E" d="M-406.65-392.056c0,0-0.019-78.063-92.438-114.761"/>
			<path fill="#C2D468" stroke="#059036" stroke-width="0.6381" d="M-367.312-439.291c0,0,61.107,109.164,98.023,71.882
				c36.917-37.289,28.934-45.281,36.878-37.255l7.963,8.034C-224.448-396.631-255.212-516.457-367.312-439.291z"/>
			<path fill="#C2D468" stroke="#059036" stroke-width="0.6381" d="M-224.515-397.553c0,0-43.769-63.579-142.875-42.66"/>
			<path fill="#84B719" stroke="#059036" stroke-width="0.6381" d="M-198.428-617.764c0,0-76.785,103.539-28.256,120.264
				c48.526,16.725,52.793,5.979,48.47,16.718l-4.325,10.739C-182.54-470.044-84.248-550.99-198.428-617.764L-198.428-617.764z"/>
			<path fill="none" stroke="#059036" stroke-width="0.6381" d="M-181.692-470.535c0,0,41.556-67.671-15.917-147.713"/>
			<path fill="#225500" d="M-135.735-533.91c0,0-112.695,63.223-76.487,98.872c36.198,35.658,44.614,27.549,36.189,35.633
				l-8.437,8.091C-184.471-391.313-62.182-424.756-135.735-533.91L-135.735-533.91z"/>
			<path fill="#225500" d="M-183.515-391.422c0,0,65.976-44.926,48.747-142.581"/>
			<path fill="#327C6E" d="M-303.702-539.703c0,0-11.407,126.337,39.557,114.947c50.965-11.392,48.948-22.61,50.928-11.407
				l1.978,11.22C-211.237-424.942-169.152-543.693-303.702-539.703z"/>
			<path fill="#327C6E" d="M-210.785-425.795c0,0-0.019-78.073-92.433-114.753"/>
			<path fill="#C2D468" stroke="#059036" stroke-width="0.6381" d="M-441.941-376.008c0,0,61.092,109.155,98.028,71.882
				c36.888-37.264,28.915-45.289,36.888-37.264l7.944,8.049C-299.081-333.341-329.854-453.184-441.941-376.008z"/>
			<path fill="#C2D468" stroke="#059036" stroke-width="0.6381" d="M-299.145-334.278c0,0-43.783-63.573-142.873-42.669"/>
			<path fill="#225500" d="M-333.059-359.181c0,0-112.715,63.196-76.502,98.872c36.217,35.666,44.633,27.541,36.187,35.632
				c-8.416,8.076-8.416,8.076-8.416,8.076S-259.524-250.036-333.059-359.181L-333.059-359.181z"/>
			<path fill="#225500" d="M-380.87-216.704c0,0,65.972-44.907,48.743-142.571"/>
			<path fill="#327C6E" d="M-501.036-365c0,0-11.428,126.336,39.55,114.947c50.971-11.388,48.938-22.593,50.912-11.406l1.978,11.219
				C-408.597-250.24-366.509-368.981-501.036-365z"/>
			<path fill="#327C6E" d="M-408.123-251.068c0,0-0.029-78.088-92.439-114.767"/>
			<path fill="#C2D468" stroke="#059036" stroke-width="0.6381" d="M-269.026-315.794c0,0,61.101,109.152,98.012,71.873
				c36.882-37.248,28.928-45.273,36.882-37.248l7.965,8.033C-126.168-273.136-156.931-392.97-269.026-315.794z"/>
			<path fill="#C2D468" stroke="#059036" stroke-width="0.6381" d="M-126.226-274.065c0,0-43.776-63.589-142.87-42.678"/>
			<path fill="#84B719" stroke="#059036" stroke-width="0.6381" d="M-100.155-494.276c0,0-76.787,103.53-28.272,120.291
				c48.495,16.682,52.811,5.943,48.495,16.682l-4.316,10.739C-84.248-346.566,14.037-427.494-100.155-494.276z"/>
			<path fill="none" stroke="#059036" stroke-width="0.6381" d="M-83.425-347.032c0,0,41.553-67.687-15.91-147.72"/>
			<path fill="#225500" d="M-37.432-410.406c0,0-112.724,63.198-76.497,98.864c36.227,35.658,44.625,27.53,36.187,35.624
				l-8.437,8.091C-86.178-267.827,36.112-301.26-37.432-410.406z"/>
			<path fill="#225500" d="M-85.25-267.936c0,0,65.975-44.909,48.756-142.572"/>
			<path fill="#C2D468" stroke="#059036" stroke-width="0.6381" d="M-316.162-182.111c0,0,61.106,109.171,98.032,71.89
				c36.883-37.265,28.919-45.305,36.883-37.265l7.954,8.043C-173.292-139.443-204.075-259.278-316.162-182.111L-316.162-182.111z"/>
			<path fill="#C2D468" stroke="#059036" stroke-width="0.6381" d="M-173.359-140.382c0,0-43.776-63.579-142.875-42.668"/>
			<path fill="#84B719" stroke="#059036" stroke-width="0.6381" d="M-147.298-360.576c0,0-76.778,103.521-28.235,120.265
				c48.534,16.743,52.791,5.962,48.476,16.709l-4.313,10.741C-131.371-212.862-33.088-293.819-147.298-360.576L-147.298-360.576z"/>
			<path fill="none" stroke="#059036" stroke-width="0.6381" d="M-130.559-213.347c0,0,41.563-67.67-15.889-147.721"/>
			<path fill="#225500" d="M-109.614-283.419c0,0-112.713,63.215-76.496,98.855c36.217,35.641,44.624,27.548,36.196,35.641
				l-8.444,8.085C-158.359-140.838-36.07-174.255-109.614-283.419L-109.614-283.419z"/>
			<path fill="#225500" d="M-157.415-140.923c0,0,65.968-44.917,48.747-142.571"/>
			<path fill="#C2D468" stroke="#059036" stroke-width="0.6381" d="M-394.778-256.665c0,0,61.116,109.163,98.042,71.891
				c36.879-37.273,28.923-45.306,36.879-37.273l7.965,8.033C-251.893-214.015-282.688-333.815-394.778-256.665L-394.778-256.665z"/>
			<path fill="#C2D468" stroke="#059036" stroke-width="0.6381" d="M-251.992-214.934c0,0-43.759-63.571-142.859-42.652"/>
			<path fill="#84B719" stroke="#059036" stroke-width="0.6381" d="M-225.9-435.148c0,0-76.781,103.54-28.262,120.291
				c48.495,16.684,52.809,5.953,48.495,16.684l-4.306,10.746C-209.973-287.427-111.699-368.373-225.9-435.148L-225.9-435.148z"/>
			<path fill="none" stroke="#059036" stroke-width="0.6381" d="M-209.161-287.918c0,0,41.544-67.66-15.912-147.694"/>
			<path fill="#C2D468" stroke="#059036" stroke-width="0.6381" d="M-469.181-178c0,0,61.107,109.18,98.022,71.889
				c36.879-37.239,28.923-45.289,36.879-37.239l7.972,8.024C-326.308-135.326-357.089-255.143-469.181-178z"/>
			<path fill="#C2D468" stroke="#059036" stroke-width="0.6381" d="M-326.383-136.246c0,0-43.78-63.587-142.861-42.66"/>
			<path fill="#84B719" stroke="#059036" stroke-width="0.6381" d="M-300.311-356.459c0,0-76.782,103.541-28.253,120.283
				c48.491,16.674,52.805,5.942,48.491,16.674l-4.315,10.773C-284.39-208.729-186.11-289.7-300.311-356.459L-300.311-356.459z"/>
			<path fill="none" stroke="#059036" stroke-width="0.6381" d="M-283.565-209.22c0,0,41.546-67.67-15.912-147.72"/>
			<path fill="#225500" d="M-237.594-272.595c0,0-112.709,63.213-76.503,98.863c36.208,35.649,44.635,27.55,36.199,35.633
				l-8.441,8.075C-286.341-130.024-164.046-163.432-237.594-272.595L-237.594-272.595z"/>
			<path fill="#225500" d="M-285.393-130.107c0,0,65.952-44.917,48.731-142.581"/>
			<path fill="#327C6E" d="M-405.57-278.421c0,0-11.41,126.363,39.556,114.965c50.962-11.4,48.939-22.604,50.915-11.4l1.976,11.213
				C-313.123-163.644-271.046-282.395-405.57-278.421z"/>
			<path fill="#327C6E" d="M-312.647-164.481c0,0-0.031-78.071-92.453-114.751"/>
			<path fill="#C2D468" stroke="#059036" stroke-width="0.6381" d="M-366.094-90.316c0,0,61.097,109.154,98.022,71.874
				c36.888-37.257,28.934-45.282,36.888-37.257l7.954,8.05C-223.23-47.649-253.994-167.493-366.094-90.316L-366.094-90.316z"/>
			<path fill="#C2D468" stroke="#059036" stroke-width="0.6381" d="M-223.317-48.596c0,0-43.76-63.571-142.864-42.659"/>
			<path fill="#225500" d="M-134.519-184.926c0,0-112.694,63.197-76.497,98.863c36.209,35.658,44.625,27.54,36.199,35.616
				l-8.428,8.091C-183.245-42.355-60.956-75.78-134.519-184.926z"/>
			<path fill="#225500" d="M-182.299-42.459c0,0,65.957-44.932,48.746-142.579"/>
			<path fill="#327C6E" d="M-302.474-190.753c0,0-11.41,126.344,39.555,114.964c50.968-11.374,48.94-22.603,50.92-11.398
				l1.978,11.194C-210.021-75.993-167.944-194.745-302.474-190.753z"/>
			<path fill="#327C6E" d="M-209.578-76.836c0,0-0.017-78.065-92.446-114.745"/>
			<path fill="#C2D468" stroke="#059036" stroke-width="0.6381" d="M185.623-929.805c0,0-7.326,126.243,43.35,113.989
				c50.666-12.251,48.302-23.395,50.649-12.234l2.334,11.137C281.955-816.912,320.268-936.078,185.623-929.805z"/>
			<path fill="#C2D468" stroke="#059036" stroke-width="0.6381" d="M282.39-817.743c0,0-2.567-77.894-96.342-112.891"/>
			<path fill="#225500" d="M429.207-887.239c0,0-127.703-6.013-116.565,43.919c11.157,49.88,22.5,47.435,11.157,49.88l-11.351,2.409
				C312.449-791.031,432.267-754.374,429.207-887.239L429.207-887.239z"/>
			<path fill="#225500" d="M313.289-790.608c0,0,78.978-3.281,116.768-96.21"/>
			<path fill="#C2D468" stroke="#059036" stroke-width="0.6381" d="M366.94-854.126c0,0-7.357,126.235,43.339,114
				c50.627-12.269,48.29-23.414,50.627-12.269l2.347,11.162C463.253-741.235,501.571-860.418,366.94-854.126L366.94-854.126z"/>
			<path fill="#C2D468" stroke="#059036" stroke-width="0.6381" d="M463.706-742.071c0,0-2.568-77.886-96.354-112.878"/>
			<path fill="#84B719" stroke="#059036" stroke-width="0.6381" d="M603.022-916.952c0,0-119.296,47.783-87.792,88.016
				c31.508,40.24,40.853,33.331,31.519,40.24l-9.353,6.891C537.397-781.806,662.581-798.717,603.022-916.952L603.022-916.952z"/>
			<path fill="none" stroke="#059036" stroke-width="0.6381" d="M538.358-781.78c0,0,70.775-35.835,65.621-135.138"/>
			<path fill="#225500" d="M610.535-811.562c0,0-127.727-5.994-116.588,43.921c11.159,49.871,22.5,47.443,11.159,49.871
				l-11.341,2.435C493.765-715.336,613.567-678.688,610.535-811.562z"/>
			<path fill="#225500" d="M494.596-714.922c0,0,78.985-3.281,116.767-96.216"/>
			<path fill="#327C6E" d="M473.592-906.256c0,0-76.98,102.238-28.407,119.69c48.532,17.418,52.865,6.756,48.532,17.418
				l-4.322,10.681C489.393-758.468,587.889-837.823,473.592-906.256z"/>
			<path fill="#327C6E" d="M490.232-758.949c0,0,41.663-66.944-15.811-147.756"/>
			<path fill="#C2D468" stroke="#059036" stroke-width="0.6381" d="M270.924-839.744c0,0-7.336,126.245,43.341,113.992
				c50.686-12.253,48.293-23.397,50.647-12.253l2.336,11.144C367.247-726.861,405.568-846.018,270.924-839.744L270.924-839.744z"/>
			<path fill="#C2D468" stroke="#059036" stroke-width="0.6381" d="M367.682-727.672c0,0-2.549-77.894-96.334-112.884"/>
			<path fill="#225500" d="M352.7-767.151c0,0-127.704-6.014-116.565,43.908c11.136,49.915,22.51,47.455,11.159,49.891
				l-11.352,2.417C235.942-670.934,355.742-634.28,352.7-767.151z"/>
			<path fill="#225500" d="M236.772-670.52c0,0,78.967-3.29,116.758-96.209"/>
			<path fill="#327C6E" d="M215.786-861.856c0,0-76.979,102.238-28.426,119.691c48.562,17.452,52.876,6.755,48.553,17.419
				l-4.343,10.663C231.57-714.083,330.075-793.415,215.786-861.856z"/>
			<path fill="#327C6E" d="M232.408-714.539c0,0,41.683-66.961-15.801-147.754"/>
			<path fill="#C2D468" stroke="#059036" stroke-width="0.6381" d="M382.943-695.751c0,0-7.345,126.235,43.331,113.981
				c50.667-12.251,48.291-23.387,50.638-12.242l2.347,11.146C479.258-582.868,517.589-702.044,382.943-695.751L382.943-695.751z"/>
			<path fill="#C2D468" stroke="#059036" stroke-width="0.6381" d="M479.709-583.697c0,0-2.548-77.894-96.331-112.884"/>
			<path fill="#84B719" stroke="#059036" stroke-width="0.6381" d="M619.026-758.594c0,0-119.285,47.782-87.788,88.032
				c31.497,40.258,40.86,33.305,31.514,40.224l-9.341,6.891C553.409-623.447,678.583-640.35,619.026-758.594L619.026-758.594z"/>
			<path fill="none" stroke="#059036" stroke-width="0.6381" d="M554.354-623.397c0,0,70.782-35.844,65.591-135.172"/>
			<path fill="#225500" d="M626.527-653.194c0,0-127.711-6.013-116.564,43.911c11.139,49.879,22.512,47.444,11.139,49.879
				l-11.351,2.435C509.75-556.968,629.558-520.332,626.527-653.194z"/>
			<path fill="#225500" d="M510.58-556.571c0,0,79.018-3.273,116.788-96.201"/>
			<path fill="#C2D468" stroke="#059036" stroke-width="0.6381" d="M272.254-606.299c0,0-7.345,126.227,43.36,113.99
				c50.697-12.235,48.293-23.403,50.638-12.252l2.354,11.144C368.609-493.417,406.911-612.599,272.254-606.299z"/>
			<path fill="#C2D468" stroke="#059036" stroke-width="0.6381" d="M369.021-494.261c0,0-2.547-77.878-96.323-112.893"/>
			<path fill="#84B719" stroke="#059036" stroke-width="0.6381" d="M508.342-669.125c0,0-119.298,47.774-87.775,88.024
				c31.505,40.213,40.832,33.315,31.505,40.213l-9.351,6.909C442.723-533.977,567.897-550.891,508.342-669.125z"/>
			<path fill="none" stroke="#059036" stroke-width="0.6381" d="M443.677-533.952c0,0,70.793-35.835,65.609-135.139"/>
			<path fill="#225500" d="M498.543-582.843c0,0-127.712-6.004-116.554,43.911c11.156,49.871,22.509,47.445,11.156,49.871
				l-11.351,2.428C381.793-486.633,501.583-449.97,498.543-582.843L498.543-582.843z"/>
			<path fill="#225500" d="M382.613-486.202c0,0,78.969-3.29,116.761-96.218"/>
			<path fill="#C2D468" stroke="#059036" stroke-width="0.6381" d="M246.521-712.223c0,0-7.345,126.242,43.36,113.99
				c50.628-12.235,48.292-23.406,50.628-12.235l2.346,11.144C342.854-599.323,381.176-718.506,246.521-712.223z"/>
			<path fill="#C2D468" stroke="#059036" stroke-width="0.6381" d="M343.291-600.16c0,0-2.558-77.885-96.335-112.883"/>
			<path fill="#84B719" stroke="#059036" stroke-width="0.6381" d="M482.616-775.04c0,0-119.308,47.775-87.792,88.032
				c31.519,40.207,40.87,33.317,31.519,40.207l-9.336,6.908C417.006-639.893,542.174-656.804,482.616-775.04z"/>
			<path fill="none" stroke="#059036" stroke-width="0.6381" d="M417.962-639.86c0,0,70.773-35.827,65.58-135.147"/>
			<path fill="#C2D468" stroke="#059036" stroke-width="0.6381" d="M142.485-684.488c0,0-7.345,126.235,43.339,113.991
				c50.678-12.235,48.275-23.396,50.639-12.235l2.345,11.154C238.807-571.579,277.129-690.765,142.485-684.488z"/>
			<path fill="#C2D468" stroke="#059036" stroke-width="0.6381" d="M239.243-572.434c0,0-2.55-77.886-96.325-112.883"/>
			<path fill="#84B719" stroke="#059036" stroke-width="0.6381" d="M378.562-747.312c0,0-119.301,47.766-87.784,88.039
				c31.517,40.189,40.86,33.29,31.517,40.189l-9.353,6.917C312.941-612.167,438.128-629.087,378.562-747.312z"/>
			<path fill="none" stroke="#059036" stroke-width="0.6381" d="M313.897-612.125c0,0,70.784-35.842,65.6-135.172"/>
			<path fill="#225500" d="M386.07-641.915c0,0-127.712-6.002-116.556,43.92c11.141,49.871,22.491,47.443,11.141,49.871
				l-11.354,2.426C269.3-545.697,389.111-509.042,386.07-641.915z"/>
			<path fill="#225500" d="M270.133-545.283c0,0,78.988-3.289,116.757-96.217"/>
			<path fill="#327C6E" d="M249.147-736.62c0,0-76.98,102.238-28.419,119.691c48.525,17.419,52.869,6.755,48.525,17.419
				l-4.332,10.661C264.921-588.847,363.415-668.186,249.147-736.62L249.147-736.62z"/>
			<path fill="#327C6E" d="M265.769-589.302c0,0,41.661-66.952-15.812-147.764"/>
			<path fill="#C2D468" stroke="#059036" stroke-width="0.6381" d="M181.617-554.28c0,0-7.345,126.237,43.36,113.992
				c50.697-12.243,48.282-23.397,50.638-12.252l2.337,11.153C277.951-441.388,316.271-560.562,181.617-554.28z"/>
			<path fill="#C2D468" stroke="#059036" stroke-width="0.6381" d="M278.386-442.215c0,0-2.559-77.878-96.343-112.901"/>
			<path fill="#225500" d="M425.212-511.706c0,0-127.715-6.003-116.577,43.911c11.16,49.872,22.511,47.446,11.16,49.872
				l-11.352,2.437C308.444-415.487,428.243-378.832,425.212-511.706z"/>
			<path fill="#225500" d="M309.273-415.066c0,0,78.988-3.306,116.778-96.216"/>
			<path fill="#327C6E" d="M288.27-606.41c0,0-76.962,102.236-28.399,119.683c48.534,17.427,52.85,6.764,48.534,17.427
				l-4.335,10.672C304.07-458.628,402.546-537.969,288.27-606.41L288.27-606.41z"/>
			<path fill="#327C6E" d="M304.91-459.109c0,0,41.661-66.953-15.811-147.748"/>
			<path fill="#C2D468" stroke="#059036" stroke-width="0.6381" d="M-176.796-718.693c0,0,61.1,109.155,98.023,71.882
				c36.911-37.272,28.918-45.288,36.883-37.265l7.972,8.051C-33.918-676.024-64.709-795.842-176.796-718.693L-176.796-718.693z"/>
			<path fill="#C2D468" stroke="#059036" stroke-width="0.6381" d="M-34.013-676.947c0,0-43.768-63.577-142.863-42.665"/>
			<path fill="#84B719" stroke="#059036" stroke-width="0.6381" d="M-7.933-897.166c0,0-76.787,103.54-28.264,120.29
				c48.495,16.674,52.821,5.953,48.495,16.674l-4.334,10.748C7.964-749.453,106.267-830.399-7.933-897.166L-7.933-897.166z"/>
			<path fill="none" stroke="#059036" stroke-width="0.6381" d="M8.805-749.918c0,0,41.565-67.679-15.908-147.72"/>
			<path fill="#327C6E" d="M-113.185-819.112c0,0-11.42,126.328,39.538,114.947c50.966-11.373,48.929-22.611,50.907-11.399
				l1.988,11.204C-20.753-704.36,21.352-823.093-113.185-819.112L-113.185-819.112z"/>
			<path fill="#327C6E" d="M-20.278-705.188c0,0-0.02-78.064-92.445-114.751"/>
			<path fill="#84B719" stroke="#059036" stroke-width="0.6381" d="M130.013-867.148c0,0-76.778,103.54-28.234,120.273
				c48.534,16.742,52.79,5.962,48.466,16.709l-4.295,10.739C145.95-719.427,244.224-800.375,130.013-867.148L130.013-867.148z"/>
			<path fill="none" stroke="#059036" stroke-width="0.6381" d="M146.761-719.899c0,0,41.565-67.672-15.899-147.723"/>
			<path fill="#327C6E" d="M24.771-789.094c0,0-11.419,126.336,39.538,114.937c50.955-11.398,48.948-22.6,50.916-11.398l1.99,11.212
				C117.215-674.342,159.291-793.076,24.771-789.094L24.771-789.094z"/>
			<path fill="#327C6E" d="M117.667-675.171c0,0-0.01-78.08-92.434-114.759"/>
			<path fill="#C2D468" stroke="#059036" stroke-width="0.6381" d="M-174.095-546.804c0,0,61.112,109.171,98.024,71.891
				c36.92-37.282,28.929-45.29,36.902-37.258l7.954,8.025C-31.215-504.146-61.997-623.972-174.095-546.804L-174.095-546.804z"/>
			<path fill="#C2D468" stroke="#059036" stroke-width="0.6381" d="M-31.292-505.068c0,0-43.774-63.56-142.88-42.66"/>
			<path fill="#84B719" stroke="#059036" stroke-width="0.6381" d="M-5.221-725.278c0,0-76.786,103.549-28.253,120.29
				c48.476,16.682,52.809,5.962,48.476,16.682l-4.304,10.748C10.698-577.557,108.989-658.505-5.221-725.278L-5.221-725.278z"/>
			<path fill="none" stroke="#059036" stroke-width="0.6381" d="M11.517-578.039c0,0,41.554-67.671-15.918-147.731"/>
			<path fill="#225500" d="M57.492-641.425c0,0-112.713,63.207-76.497,98.89c36.209,35.675,44.625,27.523,36.19,35.617l-8.418,8.067
				C8.766-498.853,131.026-532.268,57.492-641.425L57.492-641.425z"/>
			<path fill="#225500" d="M9.694-498.938c0,0,65.965-44.925,48.736-142.571"/>
			<path fill="#327C6E" d="M-110.473-647.234c0,0-11.419,126.354,39.538,114.965c50.954-11.391,48.948-22.604,50.917-11.408
				l1.99,11.21C-18.028-532.464,24.056-651.215-110.473-647.234z"/>
			<path fill="#327C6E" d="M-17.567-533.31c0,0-0.02-78.063-92.442-114.752"/>
			<path fill="#C2D468" stroke="#059036" stroke-width="0.6381" d="M21.769-580.551c0,0,61.11,109.162,98.031,71.89
				c36.875-37.265,28.911-45.305,36.875-37.265l7.952,8.042C164.628-537.883,133.857-657.709,21.769-580.551z"/>
			<path fill="#C2D468" stroke="#059036" stroke-width="0.6381" d="M164.57-538.805c0,0-43.776-63.562-142.879-42.66"/>
			<path fill="#84B719" stroke="#059036" stroke-width="0.6381" d="M190.632-759.01c0,0-76.788,103.54-28.244,120.266
				c48.533,16.727,52.8,5.977,48.485,16.709l-4.335,10.746c0,0,98.294-80.944-15.899-147.721L190.632-759.01L190.632-759.01z"/>
			<path fill="none" stroke="#059036" stroke-width="0.6381" d="M207.38-611.786c0,0,41.556-67.663-15.908-147.715"/>
			<path fill="#225500" d="M253.355-675.154c0,0-112.695,63.207-76.497,98.864c36.207,35.667,44.615,27.549,36.197,35.633
				c-8.446,8.083-8.446,8.083-8.446,8.083s122.29-33.424,48.744-142.571v-0.009L253.355-675.154L253.355-675.154z"/>
			<path fill="#225500" d="M205.565-532.667c0,0,65.976-44.917,48.746-142.586"/>
			<path fill="#327C6E" d="M85.38-680.963c0,0-11.41,126.337,39.566,114.946c50.976-11.389,48.948-22.602,50.928-11.406l1.969,11.22
				C177.843-566.202,219.929-684.963,85.38-680.963z"/>
			<path fill="#327C6E" d="M178.298-567.04c0,0-0.031-78.08-92.464-114.76"/>
			<path fill="#C2D468" stroke="#059036" stroke-width="0.6381" d="M-52.876-517.269c0,0,61.122,109.162,98.042,71.882
				c36.895-37.264,28.91-45.297,36.895-37.264l7.953,8.033C90.013-474.619,59.221-594.445-52.876-517.269L-52.876-517.269z"/>
			<path fill="#C2D468" stroke="#059036" stroke-width="0.6381" d="M89.935-475.54c0,0-43.774-63.57-142.888-42.669"/>
			<path fill="#225500" d="M56.006-500.433c0,0-112.723,63.196-76.507,98.864c36.216,35.657,44.653,27.556,36.198,35.633
				c-8.455,8.073-8.418,8.073-8.418,8.073S129.569-391.297,56.006-500.433L56.006-500.433z"/>
			<path fill="#225500" d="M8.207-357.963c0,0,65.976-44.917,48.746-142.572"/>
			<path fill="#327C6E" d="M-111.95-506.252c0,0-11.418,126.346,39.538,114.946c50.966-11.4,48.93-22.601,50.928-11.405
				l1.979,11.211C-19.505-391.5,22.569-510.242-111.95-506.252z"/>
			<path fill="#327C6E" d="M-19.044-392.328c0,0-0.028-78.079-92.462-114.769"/>
			<path fill="#C2D468" stroke="#059036" stroke-width="0.6381" d="M120.053-457.065c0,0,61.102,109.163,98.023,71.883
				c36.911-37.282,28.919-45.282,36.883-37.258l7.954,8.043C262.913-414.396,232.139-534.206,120.053-457.065z"/>
			<path fill="#C2D468" stroke="#059036" stroke-width="0.6381" d="M262.834-415.311c0,0-43.755-63.597-142.859-42.668"/>
			<path fill="#84B719" stroke="#059036" stroke-width="0.6381" d="M288.925-635.539c0,0-76.778,103.549-28.253,120.299
				c48.476,16.691,52.79,5.943,48.476,16.691l-4.325,10.73C304.823-487.818,403.127-568.756,288.925-635.539z"/>
			<path fill="none" stroke="#059036" stroke-width="0.6381" d="M305.664-488.284c0,0,41.574-67.679-15.908-147.737"/>
			<path fill="#225500" d="M351.639-551.666c0,0-112.715,63.215-76.508,98.863c36.208,35.651,44.634,27.532,36.198,35.633
				l-8.436,8.084C302.893-409.086,425.192-442.513,351.639-551.666z"/>
			<path fill="#225500" d="M303.82-409.196c0,0,65.976-44.908,48.745-142.572"/>
			<path fill="#C2D468" stroke="#059036" stroke-width="0.6381" d="M72.929-323.371c0,0,61.092,109.17,98.012,71.889
				c36.923-37.29,28.92-45.289,36.893-37.258l7.943,8.034C215.777-280.705,185.005-400.529,72.929-323.371z"/>
			<path fill="#C2D468" stroke="#059036" stroke-width="0.6381" d="M215.71-281.635c0,0-43.765-63.588-142.879-42.66"/>
			<path fill="#84B719" stroke="#059036" stroke-width="0.6381" d="M241.781-501.838c0,0-76.785,103.531-28.243,120.266
				c48.533,16.733,52.811,5.96,48.476,16.708l-4.315,10.739C257.699-354.125,355.994-435.063,241.781-501.838L241.781-501.838z"/>
			<path fill="none" stroke="#059036" stroke-width="0.6381" d="M258.511-354.606c0,0,41.585-67.673-15.889-147.721"/>
			<path fill="#225500" d="M279.467-424.654c0,0-112.725,63.206-76.509,98.855c36.217,35.649,44.625,27.541,36.21,35.633
				c-8.447,8.076-8.447,8.076-8.447,8.076S353.019-315.508,279.467-424.654z"/>
			<path fill="#225500" d="M231.664-282.193c0,0,65.968-44.917,48.747-142.554"/>
			<path fill="#C2D468" stroke="#059036" stroke-width="0.6381" d="M-5.692-397.918c0,0,61.119,109.156,98.031,71.882
				c36.921-37.272,28.921-45.305,36.875-37.264l7.952,8.026C137.165-355.274,106.394-475.075-5.692-397.918L-5.692-397.918z"/>
			<path fill="#C2D468" stroke="#059036" stroke-width="0.6381" d="M137.098-356.18c0,0-43.783-63.578-142.87-42.659"/>
			<path fill="#84B719" stroke="#059036" stroke-width="0.6381" d="M163.179-576.389c0,0-76.776,103.531-28.263,120.272
				c48.496,16.693,52.821,5.953,48.496,16.693l-4.315,10.746C179.097-428.68,277.381-509.607,163.179-576.389z"/>
			<path fill="none" stroke="#059036" stroke-width="0.6381" d="M179.909-429.152c0,0,41.544-67.687-15.908-147.721"/>
			<path fill="#C2D468" stroke="#059036" stroke-width="0.6381" d="M-80.106-319.245c0,0,61.113,109.172,98.024,71.889
				c36.873-37.262,28.919-45.305,36.873-37.262l7.983,8.041C62.774-276.578,31.999-396.403-80.106-319.245z"/>
			<path fill="#C2D468" stroke="#059036" stroke-width="0.6381" d="M62.686-277.492c0,0-43.764-63.569-142.85-42.666"/>
			<path fill="#84B719" stroke="#059036" stroke-width="0.6381" d="M88.777-497.704c0,0-76.787,103.54-28.273,120.284
				C109-360.754,113.303-371.477,109-360.754l-4.306,10.781C104.694-349.973,202.968-430.951,88.777-497.704z"/>
			<path fill="none" stroke="#059036" stroke-width="0.6381" d="M105.525-350.471c0,0,41.554-67.687-15.927-147.738"/>
			<path fill="#225500" d="M151.48-413.832c0,0-112.703,63.198-76.496,98.848c36.207,35.657,44.643,27.549,36.196,35.633
				l-8.428,8.075C102.754-271.276,225.035-304.694,151.48-413.832z"/>
			<path fill="#225500" d="M103.672-271.36c0,0,65.966-44.925,48.744-142.573"/>
			<path fill="#327C6E" d="M-16.494-419.655c0,0-11.4,126.335,39.536,114.945c50.946-11.389,48.95-22.601,50.927-11.406l1.98,11.221
				C75.949-304.895,118.036-423.647-16.494-419.655z"/>
			<path fill="#327C6E" d="M76.431-305.734c0,0-0.029-78.069-92.454-114.75"/>
			<path fill="#C2D468" stroke="#059036" stroke-width="0.6381" d="M22.985-231.594c0,0,61.101,109.18,98.043,71.9
				c36.855-37.274,28.9-45.297,36.855-37.274l7.972,8.043C165.854-188.926,135.072-308.751,22.985-231.594z"/>
			<path fill="#C2D468" stroke="#059036" stroke-width="0.6381" d="M165.789-189.84c0,0-43.788-63.57-142.881-42.66"/>
			<path fill="#225500" d="M254.561-326.178c0,0-112.704,63.197-76.506,98.862c36.207,35.658,44.625,27.541,36.207,35.634
				l-8.436,8.083C205.826-183.599,328.114-217.025,254.561-326.178z"/>
			<path fill="#225500" d="M206.772-183.71c0,0,65.965-44.925,48.744-142.572"/>
			<path fill="#327C6E" d="M86.606-332.005c0,0-11.412,126.337,39.556,114.946c50.966-11.388,48.921-22.601,50.91-11.398
				l1.969,11.212C179.04-217.245,221.136-335.988,86.606-332.005z"/>
			<path fill="#327C6E" d="M179.502-218.072c0,0,0-78.081-92.452-114.753"/>
			<path fill="#C2D468" stroke="#059036" stroke-width="0.6381" d="M431.178-645.83c0,0-51.97,116.24-0.656,122.853
				c51.321,6.613,53.07-4.744,51.275,6.588l-1.837,11.339C479.96-505.05,558.1-603.56,431.178-645.83z"/>
			<path fill="#C2D468" stroke="#059036" stroke-width="0.6381" d="M480.677-505.684c0,0,25.512-74.25-48.795-140.786"/>
			<path fill="#84B719" stroke="#059036" stroke-width="0.6381" d="M672.243-620.505c0,0-127.56,2.291-112.772,51.478
				c14.798,49.187,25.887,45.999,14.788,49.17l-11.109,3.145C563.15-516.711,685.07-487.843,672.243-620.505z"/>
			<path fill="none" stroke="#059036" stroke-width="0.6381" d="M564.009-516.347c0,0,78.36-8.43,109.1-103.811"/>
			<path fill="#327C6E" d="M548.591-656.761c0,0-107.858,68.709-69.131,102.565c38.699,33.766,46.535,25.259,38.699,33.766
				l-7.82,8.497C510.337-511.933,629.906-551.405,548.591-656.761L548.591-656.761z"/>
			<path fill="#327C6E" d="M511.265-512.093c0,0,62.539-48.131,38.263-144.805"/>
			<path fill="#84B719" stroke="#059036" stroke-width="0.6381" d="M728.304-491.462c0,0-127.54,2.291-112.773,51.503
				c14.78,49.202,25.893,45.966,14.78,49.135l-11.092,3.172C619.221-387.651,741.144-358.801,728.304-491.462L728.304-491.462z"/>
			<path fill="none" stroke="#059036" stroke-width="0.6381" d="M620.062-387.288c0,0,78.367-8.423,109.121-103.801"/>
			<path fill="#327C6E" d="M604.655-527.703c0,0-107.859,68.72-69.151,102.534c38.706,33.814,46.543,25.291,38.718,33.78
				l-7.807,8.49C566.413-382.899,685.969-422.344,604.655-527.703z"/>
			<path fill="#327C6E" d="M567.326-383.043c0,0,62.549-48.139,38.263-144.797"/>
			<path fill="#C2D468" stroke="#059036" stroke-width="0.6381" d="M295.035-537.741c0,0-51.97,116.267-0.665,122.87
				c51.314,6.612,53.089-4.743,51.293,6.595l-1.823,11.329C343.841-396.946,421.949-495.445,295.035-537.741z"/>
			<path fill="#C2D468" stroke="#059036" stroke-width="0.6381" d="M344.535-397.562c0,0,25.503-74.266-48.804-140.796"/>
			<path fill="#84B719" stroke="#059036" stroke-width="0.6381" d="M536.112-512.399c0,0-127.56,2.283-112.772,51.486
				c14.777,49.212,25.895,45.991,14.768,49.154l-11.102,3.163C427.007-408.596,548.947-379.729,536.112-512.399z"/>
			<path fill="none" stroke="#059036" stroke-width="0.6381" d="M427.847-408.225c0,0,78.391-8.429,109.116-103.809"/>
			<path fill="#225500" d="M505.339-410.457c0,0-116.093-51.375-123.63-0.373c-7.531,51.004,3.85,52.739-7.521,50.971l-11.362-1.791
				C362.826-361.649,460.588-284.237,505.339-410.457z"/>
			<path fill="#225500" d="M363.425-360.949c0,0,74.297,25.189,142.531-48.805"/>
			<path fill="#327C6E" d="M412.45-548.632c0,0-107.858,68.72-69.131,102.543c38.727,33.823,46.535,25.273,38.698,33.764
				l-7.829,8.507C374.188-403.819,493.776-443.281,412.45-548.632L412.45-548.632z"/>
			<path fill="#327C6E" d="M375.124-403.971c0,0,62.539-48.146,38.253-144.819"/>
			<path fill="#C2D468" stroke="#059036" stroke-width="0.6381" d="M435.819-401.561c0,0-51.969,116.249-0.656,122.853
				c51.302,6.594,53.081-4.726,51.276,6.588l-1.836,11.33C484.604-260.791,562.743-359.31,435.819-401.561z"/>
			<path fill="#C2D468" stroke="#059036" stroke-width="0.6381" d="M485.311-261.4c0,0,25.529-74.249-48.796-140.795"/>
			<path fill="#84B719" stroke="#059036" stroke-width="0.6381" d="M676.896-376.228c0,0-127.569,2.274-112.772,51.494
				c14.777,49.128,25.886,45.991,14.777,49.128l-11.119,3.171C567.782-272.436,689.723-243.567,676.896-376.228L676.896-376.228z"/>
			<path fill="none" stroke="#059036" stroke-width="0.6381" d="M568.65-272.072c0,0,78.363-8.422,109.094-103.801"/>
			<path fill="#225500" d="M646.112-274.286c0,0-116.1-51.377-123.629-0.389c-7.539,50.995,3.844,52.747-7.52,50.979l-11.382-1.792
				C503.581-225.488,601.393-148.076,646.112-274.286z"/>
			<path fill="#225500" d="M504.21-224.787c0,0,74.316,25.182,142.538-48.815"/>
			<path fill="#327C6E" d="M553.226-412.486c0,0-107.849,68.719-69.121,102.541c38.737,33.824,46.554,25.284,38.714,33.782
				l-7.838,8.489C514.98-267.675,634.56-307.12,553.226-412.486L553.226-412.486z"/>
			<path fill="#327C6E" d="M515.919-267.811c0,0,62.538-48.146,38.232-144.801"/>
			<path fill="#C2D468" stroke="#059036" stroke-width="0.6381" d="M341.783-422.379c0,0-51.961,116.231-0.658,122.86
				c51.277,6.579,53.09-4.752,51.277,6.579l-1.814,11.34C390.588-281.599,468.697-380.119,341.783-422.379L341.783-422.379z"/>
			<path fill="#C2D468" stroke="#059036" stroke-width="0.6381" d="M391.273-282.219c0,0,25.512-74.258-48.795-140.795"/>
			<path fill="#225500" d="M391.525-324.75c0,0-116.085-51.378-123.642-0.371c-7.511,50.978,3.862,52.745-7.511,50.978l-11.37-1.793
				C249.001-275.935,346.784-198.533,391.525-324.75z"/>
			<path fill="#225500" d="M249.601-275.243c0,0,74.315,25.183,142.549-48.822"/>
			<path fill="#327C6E" d="M298.635-462.933c0,0-107.867,68.711-69.141,102.525c38.737,33.806,46.536,25.291,38.717,33.78
				l-7.819,8.49C260.392-318.138,379.95-357.584,298.635-462.933z"/>
			<path fill="#327C6E" d="M261.311-318.273c0,0,62.557-48.138,38.263-144.803"/>
			<path fill="#C2D468" stroke="#059036" stroke-width="0.6381" d="M393.975-246.696c0,0-51.989,116.249-0.658,122.854
				c51.324,6.613,53.07-4.735,51.254,6.604l-1.801,11.332C442.772-105.908,520.89-204.418,393.975-246.696z"/>
			<path fill="#C2D468" stroke="#059036" stroke-width="0.6381" d="M443.464-106.535c0,0,25.516-74.267-48.775-140.795"/>
			<path fill="#84B719" stroke="#059036" stroke-width="0.6381" d="M635.04-221.363c0,0-127.568,2.284-112.791,51.487
				c14.778,49.213,25.91,45.983,14.791,49.153l-11.133,3.155C525.907-117.569,647.859-88.702,635.04-221.363z"/>
			<path fill="none" stroke="#059036" stroke-width="0.6381" d="M526.788-117.213c0,0,78.368-8.406,109.111-103.786"/>
			<path fill="#225500" d="M604.268-119.42c0,0-116.112-51.378-123.632-0.381c-7.55,50.961,3.862,52.738-7.55,50.961l-11.378-1.766
				C461.708-70.606,559.538,6.789,604.268-119.42z"/>
			<path fill="#225500" d="M462.345-69.92c0,0,74.306,25.18,142.561-48.816"/>
			<path fill="#C2D468" stroke="#059036" stroke-width="0.6381" d="M259.504-202.075c0,0-51.988,116.247-0.676,122.861
				c51.275,6.597,53.08-4.743,51.275,6.597l-1.845,11.33C308.259-61.287,386.408-159.796,259.504-202.075z"/>
			<path fill="#C2D468" stroke="#059036" stroke-width="0.6381" d="M308.993-61.906c0,0,25.503-74.266-48.793-140.804"/>
			<path fill="#84B719" stroke="#059036" stroke-width="0.6381" d="M500.551-176.734c0,0-127.54,2.283-112.772,51.487
				c14.778,49.213,25.907,45.983,14.789,49.145l-11.109,3.171C391.458-72.931,513.368-44.08,500.551-176.734z"/>
			<path fill="none" stroke="#059036" stroke-width="0.6381" d="M392.295-72.567c0,0,78.361-8.422,109.124-103.802"/>
			<path fill="#225500" d="M460.609-98.991c0,0-116.103-51.361-123.65-0.354c-7.53,50.951,3.859,52.728-7.53,50.951l-11.361-1.792
				C318.067-50.185,415.886,27.227,460.609-98.991L460.609-98.991z"/>
			<path fill="#225500" d="M318.706-49.459c0,0,74.276,25.173,142.53-48.813"/>
			<path fill="#C2D468" stroke="#059036" stroke-width="0.6381" d="M273.55-311.017c0,0-51.971,116.257-0.658,122.879
				c51.275,6.579,53.101-4.761,51.275,6.579c-1.813,11.328-1.823,11.328-1.823,11.328S400.482-268.748,273.55-311.017z"/>
			<path fill="#C2D468" stroke="#059036" stroke-width="0.6381" d="M323.039-170.856c0,0,25.511-74.258-48.775-140.787"/>
			<path fill="#84B719" stroke="#059036" stroke-width="0.6381" d="M514.636-285.676c0,0-127.562,2.291-112.783,51.477
				c14.779,49.189,25.907,45.998,14.779,49.161l-11.111,3.163C405.521-181.874,527.452-153.024,514.636-285.676L514.636-285.676z"/>
			<path fill="none" stroke="#059036" stroke-width="0.6381" d="M406.379-181.526c0,0,78.36-8.424,109.115-103.812"/>
			<path fill="#C2D468" stroke="#059036" stroke-width="0.6381" d="M167.321-322.154c0,0-51.969,116.257-0.668,122.853
				c51.314,6.602,53.081-4.745,51.269,6.602l-1.817,11.332c0,0,78.12-98.508-48.784-140.778V-322.154z"/>
			<path fill="#C2D468" stroke="#059036" stroke-width="0.6381" d="M216.799-181.993c0,0,25.503-74.266-48.793-140.789"/>
			<path fill="#84B719" stroke="#059036" stroke-width="0.6381" d="M408.367-296.82c0,0-127.531,2.282-112.791,51.486
				c14.817,49.145,25.908,45.992,14.817,49.145l-11.129,3.154C299.264-193.035,421.196-164.161,408.367-296.82L408.367-296.82z"/>
			<path fill="none" stroke="#059036" stroke-width="0.6381" d="M300.122-192.648c0,0,78.351-8.423,109.104-103.81"/>
			<path fill="#225500" d="M377.586-194.862c0,0-116.081-51.378-123.612-0.373c-7.529,51.004,3.861,52.739-7.518,50.954
				l-11.382-1.784C235.073-146.065,332.873-68.662,377.586-194.862z"/>
			<path fill="#225500" d="M235.701-145.363c0,0,74.287,25.172,142.513-48.831"/>
			<path fill="#327C6E" d="M284.716-333.052c0,0-107.858,68.711-69.132,102.54c38.727,33.834,46.527,25.275,38.717,33.783
				l-7.829,8.489C246.473-188.241,366.03-227.713,284.716-333.052L284.716-333.052z"/>
			<path fill="#327C6E" d="M247.401-188.402c0,0,62.537-48.129,38.243-144.795"/>
			<path fill="#C2D468" stroke="#059036" stroke-width="0.6381" d="M156.944-185.501c0,0-51.969,116.232-0.655,122.861
				c51.266,6.58,53.061-4.752,51.266,6.58l-1.814,11.331C205.74-44.73,283.847-143.24,156.944-185.501L156.944-185.501z"/>
			<path fill="#C2D468" stroke="#059036" stroke-width="0.6381" d="M206.452-45.366c0,0,25.514-74.249-48.793-140.787"/>
			<path fill="#225500" d="M367.247-58.242c0,0-116.122-51.369-123.642-0.382c-7.519,50.995,3.841,52.756-7.527,50.971L224.697-9.42
				C224.697-9.42,322.517,67.975,367.247-58.242z"/>
			<path fill="#225500" d="M225.335-8.702c0,0,74.296,25.147,142.539-48.84"/>
			<path fill="#327C6E" d="M274.35-196.427c0,0-107.859,68.71-69.131,102.543c38.714,33.831,46.535,25.272,38.714,33.779
				l-7.828,8.49C236.106-51.615,355.673-91.078,274.35-196.427L274.35-196.427z"/>
			<path fill="#327C6E" d="M237.033-51.75c0,0,62.54-48.147,38.243-144.811"/>
			<path fill="#C2D468" stroke="#059036" stroke-width="0.6381" d="M785.885-904.159c0,0-67.831,108.023-18.148,121.915
				c49.663,13.84,53.06,2.84,49.663,13.84l-3.407,11.002C813.991-757.402,905.094-844.115,785.885-904.159L785.885-904.159z"/>
			<path fill="#C2D468" stroke="#059036" stroke-width="0.6381" d="M814.772-757.935c0,0,35.737-70.106-28.119-146.747"/>
			<path fill="#84B719" stroke="#059036" stroke-width="0.6381" d="M1020.142-844.681c0,0-126.188-15.898-118.61,35.066
				c7.609,50.911,18.999,49.348,7.609,50.911l-11.431,1.557C897.708-757.146,1013.91-711.124,1020.142-844.681L1020.142-844.681z"/>
			<path fill="none" stroke="#059036" stroke-width="0.6381" d="M898.51-756.667c0,0,78.516,2.792,122.416-87.524"/>
			<path fill="#327C6E" d="M903.28-898.283c0,0-116.189,52.873-82.802,91.989c33.378,39.117,42.318,31.728,33.378,39.042
				l-8.939,7.321C844.919-759.93,968.522-782.085,903.28-898.283z"/>
			<path fill="#327C6E" d="M845.854-759.939c0,0,68.561-38.898,58.371-138.345"/>
			<path fill="#84B719" stroke="#059036" stroke-width="0.6381" d="M1057.076-708.536c0,0-126.17-15.907-118.583,35.056
				c7.576,50.887,18.993,49.35,7.576,50.887l-11.43,1.572C934.641-621.021,1050.859-574.988,1057.076-708.536L1057.076-708.536z"/>
			<path fill="none" stroke="#059036" stroke-width="0.6381" d="M935.461-620.53c0,0,78.497,2.791,122.418-87.523"/>
			<path fill="#327C6E" d="M940.231-762.155c0,0-116.209,52.882-82.811,91.981c33.4,39.099,42.339,31.737,33.378,39.056
				l-8.925,7.323C881.871-623.794,1005.474-645.956,940.231-762.155L940.231-762.155z"/>
			<path fill="#327C6E" d="M882.814-623.812c0,0,68.562-38.888,58.351-138.352"/>
			<path fill="#C2D468" stroke="#059036" stroke-width="0.6381" d="M636.173-816.202c0,0-67.824,108.046-18.131,121.923
				c49.644,13.841,53.051,2.831,49.644,13.841l-3.408,10.985C664.278-669.454,755.38-756.142,636.173-816.202L636.173-816.202z"/>
			<path fill="#C2D468" stroke="#059036" stroke-width="0.6381" d="M665.061-669.953c0,0,35.742-70.106-28.098-146.749"/>
			<path fill="#84B719" stroke="#059036" stroke-width="0.6381" d="M870.439-756.71c0,0-126.195-15.896-118.619,35.066
				c7.587,50.905,19.013,49.349,7.587,50.905l-11.422,1.563C747.985-669.176,864.205-623.151,870.439-756.71L870.439-756.71z"/>
			<path fill="none" stroke="#059036" stroke-width="0.6381" d="M748.788-668.685c0,0,78.507,2.791,122.424-87.542"/>
			<path fill="#225500" d="M825.547-659.865c0,0-107.223-67.544-121.931-17.977c-14.67,49.543-3.698,52.916-14.67,49.543
				l-10.946-3.4C677.997-631.699,763.443-540.911,825.547-659.865L825.547-659.865z"/>
			<path fill="#225500" d="M678.479-630.897c0,0,69.711,35.566,147.57-28.181"/>
			<path fill="#327C6E" d="M753.568-810.318c0,0-116.189,52.89-82.811,91.982c33.378,39.081,42.316,31.734,33.388,39.065
				l-8.931,7.314C695.212-671.958,818.807-694.12,753.568-810.318z"/>
			<path fill="#327C6E" d="M696.164-671.958c0,0,68.542-38.904,58.352-138.351"/>
			<path fill="#C2D468" stroke="#059036" stroke-width="0.6381" d="M755.7-660.932c0,0-67.83,108.013-18.136,121.905
				c49.632,13.834,53.046,2.85,49.632,13.834l-3.396,10.999c0,0,91.125-86.703-28.089-146.739H755.7V-660.932z"/>
			<path fill="#C2D468" stroke="#059036" stroke-width="0.6381" d="M784.59-514.716c0,0,35.744-70.113-28.09-146.757"/>
			<path fill="#84B719" stroke="#059036" stroke-width="0.6381" d="M989.942-601.462c0,0-126.19-15.889-118.595,35.065
				c7.577,50.895,18.997,49.346,7.577,50.895l-11.419,1.581C867.507-513.921,983.715-467.896,989.942-601.462z"/>
			<path fill="none" stroke="#059036" stroke-width="0.6381" d="M868.327-513.447c0,0,78.513,2.806,122.416-87.517"/>
			<path fill="#225500" d="M945.068-504.612c0,0-107.226-67.536-121.924-17.975c-14.663,49.54-3.711,52.915-14.663,49.54
				l-10.982-3.409C797.498-476.454,882.96-385.649,945.068-504.612L945.068-504.612z"/>
			<path fill="#225500" d="M797.994-475.65c0,0,69.723,35.565,147.572-28.176"/>
			<path fill="#327C6E" d="M873.097-655.054c0,0-116.2,52.865-82.803,91.99c33.4,39.116,42.327,31.725,33.378,39.048l-8.925,7.305
				C814.748-516.711,938.349-538.865,873.097-655.054L873.097-655.054z"/>
			<path fill="#327C6E" d="M815.693-516.728c0,0,68.539-38.896,58.348-138.335"/>
			<path fill="#C2D468" stroke="#059036" stroke-width="0.6381" d="M665.882-694.99c0,0-67.824,108.029-18.148,121.914
				c49.652,13.841,53.049,2.84,49.652,13.841l-3.397,11.001C693.99-548.234,785.084-634.964,665.882-694.99L665.882-694.99z"/>
			<path fill="#C2D468" stroke="#059036" stroke-width="0.6381" d="M694.771-548.775c0,0,35.725-70.107-28.12-146.749"/>
			<path fill="#225500" d="M701.046-590.978c0,0-107.223-67.535-121.913-17.959c-14.689,49.524-3.705,52.906-14.689,49.524
				l-10.949-3.381c0,0,85.464,90.787,147.551-28.175V-590.978z"/>
			<path fill="#225500" d="M553.997-562.017c0,0,69.711,35.582,147.581-28.175"/>
			<path fill="#327C6E" d="M629.085-741.414c0,0-116.209,52.875-82.811,91.984c33.399,39.106,42.308,31.724,33.381,39.048
				l-8.937,7.321C570.718-603.061,694.33-625.231,629.085-741.414z"/>
			<path fill="#327C6E" d="M571.68-603.069c0,0,68.556-38.897,58.348-138.353"/>
			<path fill="#C2D468" stroke="#059036" stroke-width="0.6381" d="M692.368-513.118c0,0-67.83,108.038-18.155,121.898
				c49.67,13.868,53.041,2.866,49.645,13.857l-3.4,11.002C720.458-366.36,811.563-453.074,692.368-513.118z"/>
			<path fill="#C2D468" stroke="#059036" stroke-width="0.6381" d="M721.242-366.893c0,0,35.769-70.098-28.108-146.757"/>
			<path fill="#84B719" stroke="#059036" stroke-width="0.6381" d="M926.598-453.649c0,0-126.175-15.88-118.609,35.083
				c7.598,50.895,19.025,49.34,7.598,50.895l-11.438,1.555C804.148-366.116,920.385-320.082,926.598-453.649L926.598-453.649z"/>
			<path fill="none" stroke="#059036" stroke-width="0.6381" d="M804.975-365.626c0,0,78.507,2.801,122.415-87.54"/>
			<path fill="#225500" d="M881.733-356.796c0,0-107.237-67.529-121.919-17.969c-14.682,49.533-3.707,52.924-14.682,49.533
				l-10.965-3.382C734.165-328.614,819.64-237.834,881.733-356.796L881.733-356.796z"/>
			<path fill="#225500" d="M734.65-327.837c0,0,69.716,35.575,147.587-28.165"/>
			<path fill="#C2D468" stroke="#059036" stroke-width="0.6381" d="M553.331-487.946c0,0-67.848,108.023-18.159,121.914
				c49.664,13.842,53.066,2.841,49.664,13.842l-3.436,11.002C581.402-341.187,672.522-427.909,553.331-487.946z"/>
			<path fill="#C2D468" stroke="#059036" stroke-width="0.6381" d="M582.193-341.728c0,0,35.752-70.098-28.08-146.742"/>
			<path fill="#84B719" stroke="#059036" stroke-width="0.6381" d="M787.563-428.466c0,0-126.19-15.899-118.602,35.073
				c7.594,50.904,19.016,49.338,7.594,50.904l-11.421,1.547C665.136-340.942,781.348-294.919,787.563-428.466L787.563-428.466z"/>
			<path fill="none" stroke="#059036" stroke-width="0.6381" d="M665.93-340.452c0,0,78.525,2.797,122.423-87.526"/>
			<path fill="#225500" d="M737.062-356.95c0,0-107.232-67.543-121.925-17.968c-14.68,49.525-3.697,52.909-14.68,49.525
				l-10.965-3.391C589.491-328.783,674.987-237.986,737.062-356.95L737.062-356.95z"/>
			<path fill="#225500" d="M590.011-327.989c0,0,69.715,35.565,147.592-28.166"/>
			<path fill="#C2D468" stroke="#059036" stroke-width="0.6381" d="M582.713-594.122c0,0-67.838,108.03-18.145,121.922
				c49.644,13.843,53.049,2.834,49.644,13.843l-3.395,10.984C610.815-447.374,701.915-534.08,582.713-594.122L582.713-594.122z"/>
			<path fill="#C2D468" stroke="#059036" stroke-width="0.6381" d="M611.586-447.899c0,0,35.751-70.114-28.092-146.747"/>
			<path fill="#84B719" stroke="#059036" stroke-width="0.6381" d="M816.957-534.654c0,0-126.2-15.88-118.603,35.067
				c7.597,50.953,19.026,49.354,7.597,50.91l-11.427,1.555C694.522-447.121,810.722-401.087,816.957-534.654z"/>
			<path fill="none" stroke="#059036" stroke-width="0.6381" d="M695.332-446.63c0,0,78.486,2.791,122.415-87.534"/>
			<path fill="#C2D468" stroke="#059036" stroke-width="0.6381" d="M479.48-620.31c0,0-67.85,108.021-18.175,121.905
				c49.652,13.851,53.06,2.842,49.652,13.851l-3.417,10.985C507.539-473.57,598.662-560.258,479.48-620.31L479.48-620.31z"/>
			<path fill="#C2D468" stroke="#059036" stroke-width="0.6381" d="M508.342-474.086c0,0,35.743-70.106-28.09-146.739"/>
			<path fill="#84B719" stroke="#059036" stroke-width="0.6381" d="M713.7-560.825c0,0-126.158-15.905-118.61,35.057
				c7.617,50.913,19.027,49.348,7.617,50.913l-11.42,1.548C591.285-473.307,707.495-427.285,713.7-560.825L713.7-560.825z"/>
			<path fill="none" stroke="#059036" stroke-width="0.6381" d="M592.075-472.809c0,0,78.507,2.79,122.427-87.533"/>
			<path fill="#225500" d="M668.835-463.973c0,0-107.25-67.544-121.931-17.977c-14.693,49.525-3.699,52.908-14.693,49.525
				l-10.945-3.389C521.265-435.814,606.732-345.037,668.835-463.973z"/>
			<path fill="#225500" d="M521.769-435.029c0,0,69.71,35.582,147.587-28.181"/>
			<path fill="#327C6E" d="M596.846-614.442c0,0-116.18,52.891-82.803,91.989c33.381,39.1,42.309,31.734,33.389,39.05l-8.93,7.322
				C538.504-476.082,662.09-498.244,596.846-614.442z"/>
			<path fill="#327C6E" d="M539.452-476.089c0,0,68.542-38.897,58.352-138.344"/>
			<path fill="#C2D468" stroke="#059036" stroke-width="0.6381" d="M449.787-486.11c0,0-67.829,108.029-18.137,121.912
				c49.634,13.851,53.052,2.851,49.634,13.851l-3.407,11.002C477.877-339.345,568.998-426.075,449.787-486.11z"/>
			<path fill="#C2D468" stroke="#059036" stroke-width="0.6381" d="M478.678-339.886c0,0,35.726-70.106-28.108-146.747"/>
			<path fill="#225500" d="M639.163-329.797c0,0-107.249-67.529-121.941-17.969c-14.673,49.542-3.687,52.923-14.673,49.542
				l-10.955-3.382C491.593-301.606,577.059-210.827,639.163-329.797z"/>
			<path fill="#225500" d="M492.084-300.82c0,0,69.73,35.564,147.591-28.183"/>
			<path fill="#327C6E" d="M567.181-480.216c0,0-116.18,52.865-82.799,91.981c33.371,39.116,42.308,31.735,33.379,39.04
				l-8.938,7.314C508.823-341.881,632.425-364.035,567.181-480.216L567.181-480.216z"/>
			<path fill="#327C6E" d="M509.75-341.89c0,0,68.572-38.896,58.37-138.351"/>
			<path fill="#C2D468" stroke="#059036" stroke-width="0.6381" d="M864.96-560.02c0,0-66.837,108.647-17.012,122.049
				c49.8,13.385,53.101,2.359,49.8,13.385l-3.303,11.028C894.445-413.56,984.767-501.068,864.96-560.02z"/>
			<path fill="#C2D468" stroke="#059036" stroke-width="0.6381" d="M895.212-414.092c0,0,35.107-70.43-29.471-146.454"/>
			<path fill="#225500" d="M1055.834-405.484c0,0-107.877-66.536-122.126-16.828c-14.242,49.721-3.208,52.934-14.201,49.66
				l-11.035-3.291C908.47-375.941,994.817-285.989,1055.834-405.484z"/>
			<path fill="#225500" d="M909.002-375.172c0,0,70.071,34.929,147.362-29.543"/>
			<path fill="#327C6E" d="M982.452-555.218c0,0-115.738,53.947-81.993,92.733c33.766,38.72,42.626,31.338,33.766,38.72
				l-8.871,7.399C925.354-416.367,1048.774-439.663,982.452-555.218z"/>
			<path fill="#327C6E" d="M926.301-416.394c0,0,68.215-39.514,57.087-138.841"/>
			<path fill="#C2D468" stroke="#059036" stroke-width="0.6381" d="M985.956-405.908c0,0-66.839,108.647-17.018,122.049
				c49.779,13.369,53.089,2.36,49.779,13.369l-3.321,11.017C1015.396-259.473,1105.754-346.98,985.956-405.908z"/>
			<path fill="#C2D468" stroke="#059036" stroke-width="0.6381" d="M1016.194-259.989c0,0,35.1-70.418-29.467-146.452"/>
			<path fill="#C2D468" stroke="#059036" stroke-width="0.6381" d="M895.799-439.113c0,0-66.837,108.63-17.009,122.05
				c49.78,13.377,53.06,2.342,49.78,13.377l-3.323,11.026C925.247-292.661,1015.589-380.195,895.799-439.113z"/>
			<path fill="#C2D468" stroke="#059036" stroke-width="0.6381" d="M926.041-293.195c0,0,35.097-70.435-29.47-146.46"/>
			<path fill="#225500" d="M931.958-335.439c0,0-107.866-66.536-122.125-16.834c-14.219,49.643-3.217,52.932-14.219,49.643
				l-11.006-3.273C784.608-305.903,870.934-215.941,931.958-335.439z"/>
			<path fill="#225500" d="M785.129-305.141c0,0,70.07,34.939,147.349-29.536"/>
			<path fill="#327C6E" d="M858.569-485.188c0,0-115.738,53.947-81.96,92.726c33.732,38.734,42.594,31.337,33.732,38.734l-8.86,7.4
				C801.481-346.328,924.9-369.632,858.569-485.188z"/>
			<path fill="#327C6E" d="M802.438-346.346c0,0,68.215-39.529,57.075-138.851"/>
			<path fill="#C2D468" stroke="#059036" stroke-width="0.6381" d="M923.975-257.544c0,0-66.833,108.646-17.017,122.049
				c49.768,13.368,53.089,2.35,49.768,13.368l-3.29,11.034C953.435-111.093,1043.763-198.599,923.975-257.544z"/>
			<path fill="#C2D468" stroke="#059036" stroke-width="0.6381" d="M954.207-111.624c0,0,35.11-70.428-29.441-146.454"/>
			<path fill="#225500" d="M1114.838-103.016c0,0-107.875-66.522-122.126-16.818c-14.256,49.694-3.213,52.941-14.237,49.66
				l-11.006-3.289C967.469-73.464,1053.821,16.495,1114.838-103.016z"/>
			<path fill="#225500" d="M967.992-72.702c0,0,70.081,34.938,147.35-29.536"/>
			<path fill="#C2D468" stroke="#059036" stroke-width="0.6381" d="M785.159-231.086c0,0-66.844,108.629-17.007,122.031
				c49.769,13.395,53.069,2.376,49.769,13.395l-3.315,11.018C814.608-84.643,904.932-172.168,785.159-231.086z"/>
			<path fill="#C2D468" stroke="#059036" stroke-width="0.6381" d="M815.393-85.175c0,0,35.086-70.419-29.452-146.463"/>
			<path fill="#84B719" stroke="#059036" stroke-width="0.6381" d="M1019.971-173.791c0,0-126.315-14.712-118.286,36.155
				c8.063,50.845,19.482,49.163,8.063,50.845l-11.402,1.648C898.346-85.141,1014.979-40.201,1019.971-173.791L1019.971-173.791z"/>
			<path fill="none" stroke="#059036" stroke-width="0.6381" d="M899.141-84.668c0,0,78.561,2.064,121.651-88.649"/>
			<path fill="#225500" d="M970.146-101.832c0,0-107.889-66.522-122.119-16.827C833.791-68.957,844.823-65.735,833.807-69
				l-11.012-3.296C822.795-72.296,909.15,17.671,970.146-101.832z"/>
			<path fill="#225500" d="M823.327-71.502c0,0,70.069,34.93,147.339-29.544"/>
			<path fill="#C2D468" stroke="#059036" stroke-width="0.6381" d="M813.566-337.518c0,0-66.845,108.656-17.035,122.058
				c49.816,13.403,53.089,2.349,49.785,13.375l-3.299,11.02C843.017-191.065,933.358-278.589,813.566-337.518L813.566-337.518z"/>
			<path fill="#C2D468" stroke="#059036" stroke-width="0.6381" d="M843.799-191.59c0,0,35.099-70.428-29.459-146.444"/>
			<path fill="#84B719" stroke="#059036" stroke-width="0.6381" d="M1048.399-280.222c0,0-126.346-14.712-118.297,36.147
				c8.044,50.871,19.469,49.17,8.073,50.846l-11.428,1.656C926.746-191.574,1043.399-146.639,1048.399-280.222L1048.399-280.222z"/>
			<path fill="none" stroke="#059036" stroke-width="0.6381" d="M927.566-191.092c0,0,78.546,2.071,121.633-88.649"/>
			<path fill="#C2D468" stroke="#059036" stroke-width="0.6381" d="M710.051-362.724c0,0-66.844,108.629-17.027,122.042
				c49.79,13.375,53.099,2.358,49.79,13.375l-3.303,11.027C739.513-216.281,829.84-303.797,710.051-362.724L710.051-362.724z"/>
			<path fill="#C2D468" stroke="#059036" stroke-width="0.6381" d="M740.293-216.813c0,0,35.11-70.428-29.478-146.445"/>
			<path fill="#84B719" stroke="#059036" stroke-width="0.6381" d="M944.882-305.43c0,0-126.335-14.722-118.302,36.157
				c8.074,50.828,19.458,49.145,8.074,50.828l-11.416,1.656C823.238-216.789,939.901-171.855,944.882-305.43z"/>
			<path fill="none" stroke="#059036" stroke-width="0.6381" d="M824.041-216.306c0,0,78.553,2.055,121.652-88.658"/>
			<path fill="#225500" d="M900.906-208.187c0,0-107.893-66.538-122.138-16.836c-14.236,49.693-3.22,52.932-14.214,49.643
				l-11.024-3.273C753.529-178.654,839.89-88.692,900.906-208.187L900.906-208.187z"/>
			<path fill="#225500" d="M754.079-177.881c0,0,70.068,34.912,147.336-29.546"/>
			<path fill="#327C6E" d="M827.526-357.938c0,0-115.747,53.947-81.99,92.734c33.773,38.719,42.614,31.329,33.773,38.719
				l-8.871,7.407C770.439-219.079,893.849-242.381,827.526-357.938L827.526-357.938z"/>
			<path fill="#327C6E" d="M771.376-219.097c0,0,68.197-39.512,57.075-138.851"/>
			<path fill="#C2D468" stroke="#059036" stroke-width="0.6381" d="M681.612-228.279c0,0-66.839,108.63-17.024,122.041
				c49.798,13.385,53.1,2.35,49.798,13.385l-3.322,11.026C711.064-81.827,801.413-169.36,681.612-228.279L681.612-228.279z"/>
			<path fill="#C2D468" stroke="#059036" stroke-width="0.6381" d="M711.849-82.366c0,0,35.113-70.43-29.47-146.463"/>
			<path fill="#327C6E" d="M799.078-223.493c0,0-115.707,53.947-81.962,92.716c33.754,38.745,42.607,31.337,33.754,38.745
				l-8.877,7.39C741.995-84.643,865.406-107.93,799.078-223.493L799.078-223.493z"/>
			<path fill="#327C6E" d="M742.947-84.651c0,0,68.198-39.52,57.088-138.857"/>
			<path fill="#84B719" stroke="#059036" stroke-width="0.6381" d="M1358.983-51.674c0,0-96.998-80.651-117.702-32.842
				c-20.699,47.767-10.331,52.493-20.699,47.767l-10.375-4.71C1210.205-41.458,1282.881,59.781,1358.983-51.674z"/>
			<path fill="none" stroke="#059036" stroke-width="0.6381" d="M1210.609-40.63c0,0,64.114,44.097,148.779-10.188"/>
			<path fill="#225500" d="M1270.063,7.711c0,0-53.735-114.955-92.358-80.193c-38.614,34.769-31.169,43.505-38.553,34.769
				l-7.359-8.734C1131.795-46.448,1155.011,76.962,1270.063,7.711L1270.063,7.711z"/>
			<path fill="#225500" d="M1131.795-45.501c0,0,39.384,67.604,138.306,54.161"/>
			<path fill="#C2D468" stroke="#059036" stroke-width="0.6381" d="M1063.41-133.788c0,0-114.056,56.806-79.9,95.111
				c34.163,38.304,42.82,30.618,34.135,38.262l-8.677,7.652C1008.966,7.237,1131.13-18.884,1063.41-133.788z"/>
			<path fill="#C2D468" stroke="#059036" stroke-width="0.6381" d="M1009.92,7.195c0,0,67.07-41.264,54.415-141.017"/>
			<path fill="#C2D468" stroke="#059036" stroke-width="0.6381" d="M933.84-186.009c0,0-114.038,56.823-79.879,95.127
				c34.166,38.303,42.832,30.609,34.144,38.261l-8.698,7.637C879.407-44.984,1001.583-71.113,933.84-186.009z"/>
			<path fill="#C2D468" stroke="#059036" stroke-width="0.6381" d="M880.356-45.018c0,0,67.071-41.263,54.422-141.033"/>
			<path fill="#C2D468" stroke="#059036" stroke-width="0.6381" d="M1014.785-261.628c0,0-114.062,56.814-79.902,95.117
				c34.162,38.304,42.819,30.627,34.143,38.27l-8.677,7.628C960.347-120.612,1082.51-146.732,1014.785-261.628L1014.785-261.628z"/>
			<path fill="#C2D468" stroke="#059036" stroke-width="0.6381" d="M961.276-120.646c0,0,67.1-41.273,54.429-141.006"/>
			<path fill="#84B719" stroke="#059036" stroke-width="0.6381" d="M1178.952-86.138c0,0-97.003-80.652-117.727-32.834
				c-20.684,47.774-10.307,52.485-20.684,47.774l-10.369-4.718C1030.172-75.916,1102.829,25.315,1178.952-86.138z"/>
			<path fill="none" stroke="#059036" stroke-width="0.6381" d="M1030.591-75.087c0,0,64.109,44.079,148.774-10.206"/>
			<path fill="#C2D468" stroke="#059036" stroke-width="0.6381" d="M942.393-338.947c0,0-114.046,56.821-79.887,95.118
				c34.112,38.263,42.819,30.618,34.112,38.263l-8.657,7.634C887.961-197.933,1010.115-224.059,942.393-338.947z"/>
			<path fill="#C2D468" stroke="#059036" stroke-width="0.6381" d="M888.886-197.983c0,0,67.108-41.255,54.422-141.006"/>
			<path fill="#225500" d="M1017.653-104.073c0,0-53.764-114.973-92.354-80.195c-38.593,34.778-31.174,43.513-38.572,34.77
				l-7.367-8.743C879.362-158.24,902.595-34.83,1017.653-104.073L1017.653-104.073z"/>
			<path fill="#225500" d="M879.37-157.278c0,0,39.375,67.587,138.303,54.142"/>
			<path fill="#327C6E" d="M1037.373-271.573c0,0-125.178-16.251-118.023,35.076c7.154,51.324,18.505,49.719,7.154,51.282
				l-11.352,1.548C915.153-183.667,1030.203-137.084,1037.373-271.573z"/>
			<path fill="#327C6E" d="M915.953-183.185c0,0,77.936,2.986,122.196-87.879"/>
			<path fill="#C2D468" stroke="#059036" stroke-width="0.6381" d="M846.33-239.39c0,0-114.037,56.804-79.888,95.126
				c34.151,38.313,42.819,30.61,34.144,38.263l-8.693,7.634C791.893-98.367,914.08-124.501,846.33-239.39z"/>
			<path fill="#C2D468" stroke="#059036" stroke-width="0.6381" d="M792.847-98.407c0,0,67.091-41.281,54.428-141.033"/>
			<path fill="#327C6E" d="M941.329-171.998c0,0-125.183-16.271-118.031,35.057c7.144,51.327,18.505,49.719,7.144,51.283
				l-11.354,1.548C819.088-84.108,934.161-37.518,941.329-171.998z"/>
			<path fill="#327C6E" d="M819.901-83.637c0,0,77.943,2.994,122.203-87.88"/>
			<path fill="#225500" d="M-777.202-531.263c0,0-88.356,94.569-42.631,117.018c45.724,22.458,51.26,12.158,45.705,22.408
				l-5.579,10.239C-779.708-381.598-672.949-451.026-777.202-531.263L-777.202-531.263z"/>
			<path fill="#225500" d="M-778.832-381.952c0,0,49.268-62.843,2.514-149.691"/>
			<path fill="#84B719" stroke="#059036" stroke-width="0.6381" d="M-730.874-504.898c0,0-41.449,121.534,10.198,122.302
				c51.642,0.779,52.409-10.747,51.627,0.737l-0.817,11.481C-669.866-370.378-600.8-477.23-730.874-504.898z"/>
			<path fill="none" stroke="#059036" stroke-width="0.6381" d="M-669.219-371.079c0,0,18.834-76.777-61.009-134.521"/>
			<path fill="#225500" d="M-644.815-445.158c0,0-88.371,94.584-42.638,117.027c45.739,22.431,51.274,12.15,45.701,22.39
				l-5.559,10.274C-647.31-295.467-540.583-364.898-644.815-445.158z"/>
			<path fill="#225500" d="M-646.477-295.848c0,0,49.276-62.843,2.524-149.682"/>
			<path fill="#84B719" stroke="#059036" stroke-width="0.6381" d="M-734.586-364.095c0,0-41.457,121.533,10.193,122.295
				c51.656,0.771,52.41-10.747,51.619,0.728l-0.801,11.474C-673.575-229.599-604.54-336.469-734.586-364.095L-734.586-364.095z"/>
			<path fill="none" stroke="#059036" stroke-width="0.6381" d="M-672.944-230.284c0,0,18.834-76.777-61.01-134.522"/>
			<path fill="#225500" d="M-674.597-302.901c0,0-88.379,94.567-42.638,117.003c45.733,22.442,51.259,12.174,45.695,22.415
				l-5.57,10.248C-677.11-153.236-570.35-222.675-674.597-302.901z"/>
			<path fill="#225500" d="M-676.244-153.624c0,0,49.252-62.825,2.513-149.69"/>
			<path fill="#225500" d="M-667.948-202.253c0,0-88.36,94.603-42.621,117.035c45.735,22.442,51.26,12.159,45.705,22.401
				l-5.579,10.248C-670.443-52.569-563.686-121.991-667.948-202.253L-667.948-202.253z"/>
			<path fill="#225500" d="M-669.58-52.942c0,0,49.263-62.834,2.524-149.673"/>
			<path fill="#327C6E" d="M-830.604-155.696c0,0,28.199,122.81,73.481,96.269c45.275-26.552,39.854-36.504,45.235-26.543
				l5.349,9.97C-706.54-76-703.002-201.127-830.604-155.696z"/>
			<path fill="#327C6E" d="M-706.342-76.921c0,0-24.194-73.709-124.076-79.687"/>
			<g>
				<path fill="#7C6932" d="M324.254-668.594l11.127-15.211C335.382-683.805,331.113-678.333,324.254-668.594z"/>
				<path fill="#7A6F32" d="M954.79-699.255c-41.656,27.247-70.61,133.593-70.61,133.593s-11.877,113.625-22.936,166.712
					c-11.025,53.127-238.646,95.211-238.646,95.211s45.689-72.669,119.936-217.674c74.189-144.974,22.626-147.798-41.731-222.174
					c-36.865-42.615-29.643-88.533-16.755-119.987l-12.827,22.289c-35.223,61.117,32.481,139.206,63.108,165.091
					c30.584,25.838,15.271,143.289-26.561,181.915c-41.797,38.549-143.923,214.301-143.923,214.301s-53.391,129.49-164.918,237.411
					C287.39,65.352,295.664-36.869,295.664-36.869c-38.333-218.445,90.155-307.769,90.155-307.769l13.968-15.374
					c166.634-112.723,97.318-326.853,97.318-326.853s11.207,188.755-68.632,243.193c-79.885,54.379-156.788,142.733-156.788,142.733
					l-13.59-11.051c-91.859-113.729,27.775-302.103,66.159-356.604l-86.99,118.906c-98.177,134.089,13.186,294.511,16.41,309.577
					c3.271,15.044-8.882,147.52-8.882,147.52c64.878,289.794-69.721,69.353-69.721,69.353
					C108.548-192.065-53.861,117.124-53.861,117.124S-121.1,1.216-31.911-234.767C57.271-470.755,22.917-473.909,3.929-594.47
					c-18.996-120.562,37.433-223.663,37.433-223.663s-87.655,118.81-54.855,239.128c32.81,120.308-20.144,219.552-20.144,219.552
					l-71.595,139.866c5.104-13.129,10.084-50.588-63.06-103.304c-92.014-66.301-28.109-211.104-28.109-211.104
					c73.938-126.081,9.066-162.679,9.066-162.679l-47.981-10.41l40.857,29.443c40.868,29.46,9.15,86.739-40.301,182.153
					c-49.45,95.405,38.629,195.783,38.629,195.783c167.677,64.897-37.601,235.041-37.601,235.041s-23.581-37.305-33.702-52.272
					c-10.121-14.958,0,0-20.377-18.56c-20.382-18.476,0.038,0.015-60.601-97.087c-60.638-97.106-143.157-99.356-211.572-124.537
					c-68.49-25.164-31.462-218.604-31.196-237.494c0.264-18.889,0.908-68.034,0.908-68.034
					c11.049-53.128,65.705-23.923,65.705-23.923l-3.108-26.372c-116.208-54.508-84.61,152.742-84.61,152.742
					c-47.009,167.16,13.92,241.604,13.92,241.604l-98.449-96.394c-92.163-54.964-88.106-100.386-88.106-100.386l-24.057,0.431
					c0,0-24.018-3.306-0.667,49.16c23.355,52.467,102.085,81.234,169.936,151.755c67.848,70.521,174.853,42.016,171.531,34.549
					c-3.32-7.475,20.18,33.636,60.997,66.901c56.058,45.603,121.61,163.974,121.61,163.974
					c56.202,168.994,141.245,239.22,141.245,239.22c142.931,172.335-86.899,413.04-248.016,549.034h315.026
					c7.571-53.313,32.906-124.474,80.659-275.975C82.387,212.787,28.93,96.656,28.93,96.656
					c74.086-137.44,205.699,52.786,271.607,10.01c65.987-42.81,240.353-216.144,240.353-216.144s115.524-149.598,198.43-173.789
					c82.875-24.236,165.773-48.46,160.426-161.74c-5.359-113.282,50.958-208.813,50.958-208.813
					c100.494-54.802,16.224,71.493,16.224,71.493s34.557-11.99,52.243-46.321C1036.853-662.986,996.438-726.481,954.79-699.255z"/>
				<path fill="#7C6932" d="M684.048-863.572l22.358-38.854C706.406-902.427,693.653-887.016,684.048-863.572z"/>
			</g>
			<path fill="#CCA731" d="M-303.37,739.65h177.679c10.032-61.549,30.518-115.359,30.518-115.359
				C19.094,316.047,6.229,248.241-54.777,181.357c-60.985-66.86-78.698-285.718-78.698-285.718S-183.64,47.723-55.212,215.39
				C34.398,332.375-171.009,592.864-303.37,739.65z"/>
		</g>
		<path fill="#CCA731" stroke="#CCA731" stroke-miterlimit="10" d="M598.848-191.706c0,0-87.587,115.907-114.432,132.715
			c-48.906,30.621-84.76,111.293-84.76,111.293s38.469-65.439,77.684-92.624C528.492-75.78,598.848-191.706,598.848-191.706z"/>
		<path fill="#CCA731" d="M289.659-105.174c0,0-1.248,74.443,2.071,95.206c3.319,20.763,10.741,74.632,10.741,74.632
			s-13.594-41.083-18.589-89.293C279.347-68.429,289.659-105.174,289.659-105.174z"/>
		<g id="XMLID_25_">
			<g>
				<path fill="#6D622E" d="M268.544,100.389c0.939,7.397,2.709,15.314,2.149,22.811c-0.57,7.547-0.39,16.313-2.639,23.541
					c-0.06,0.19-0.22,0.33-0.41,0.39c0.19,3.758-0.53,6.927-3.458,7.367c0.04,0.38,0.06,0.75,0.08,1.109
					c0.02,0.33-0.24,0.59-0.53,0.7c-0.05,0.01-0.1,0.03-0.15,0.05c0.1,0.08,0.17,0.2,0.18,0.37c0.4,9.136,1.299,18.212,1.899,27.329
					c0.56,8.616,0.45,17.203,1.889,25.75c0.14,0.82-1.089,1.189-1.27,0.35c-0.06-0.271-0.11-0.54-0.16-0.81
					c-1.629-8.316-1.38-16.853-1.89-25.29c-0.56-9.086-1.739-18.213-1.489-27.329c0-0.04,0.02-0.08,0.03-0.11
					c-0.16,0.04-0.32,0.09-0.49,0.14c0.07,0.25,0,0.49-0.21,0.69c-0.189,0.18-0.49,0.29-0.739,0.2c-0.38-0.14-0.71-0.33-1.02-0.55
					c-0.32,0.02-0.64,0.02-0.959-0.01c0.959,8.986,1.75,17.993,2.549,26.999c0.71,7.977,2.179,16.733,1.39,24.75
					c0.55,0.16,1.1,0.28,1.719,0.32c0.07,0,0.13,0.02,0.18,0.04c0.1-0.02,0.21-0.03,0.32-0.03c0.13,0.01,0.25,0.11,0.24,0.25
					c-0.02,0.649-0.62,1.029-1.229,1.06c-0.31,0.02-0.7,0-0.97-0.16c-0.12-0.07-0.26-0.13-0.36-0.23c-0.04-0.04-0.07-0.08-0.09-0.13
					c-0.24,0.34-0.81,0.39-0.919-0.12c-0.04-0.17-0.06-0.35-0.1-0.53c-0.08-0.06-0.17-0.1-0.24-0.17c-0.2-0.18-0.11-0.51,0.09-0.64
					c-1.52-7.867-1.27-16.453-1.819-24.41c-0.63-9.096-1.43-18.173-1.929-27.279c-1.209-0.49-2.229-1.529-1.989-2.929h-0.01
					c-2.559-1.789-1.629-5.627-0.85-8.167c1.839-5.998,3.009-10.696,2.069-17.093c-0.04-0.28,0.33-0.39,0.43-0.12
					c0.22,0.59,0.43,1.2,0.6,1.819c0.969,3.329,1.239,6.987,0.2,10.296c-1.049,3.329-3.129,7.477-2.179,11.026
					c0.33-0.29,0.69-0.55,1.07-0.77c0-0.02-0.01-0.04-0.01-0.05c0.31-2.549,0.82-5.078,1.39-7.567
					c0.39-1.689,0.58-3.849,1.889-5.038c0.01-0.01,0.02,0,0.02-0.01c-0.709-2.639-1.489-5.268-2.199-7.937
					c-0.19-0.74-0.38-1.47-0.56-2.219c-1.26-5.228-1.819-10.536-2.229-15.894c-0.22-2.959-1.28-9.057,1.669-11.206
					c2.129-1.56,4.568-1.679,6.078,0.45c0.05-0.35,0.11-0.68,0.2-0.95c0.61-1.709,2.169-2.289,3.858-1.729
					c0.49,0.17,0.51,0.859,0.1,1.049c-0.07,0.03-0.15,0.04-0.25,0.04c-1.3-0.05-2.339,0.17-2.379,1.669
					c-0.01,0.65,0.05,1.279,0.2,1.909c0.07,0.29,0.18,0.59,0.24,0.9c1.879,2.199,1.779,6.417,1.729,8.926
					c-0.06,3.289-0.47,6.517-0.7,9.796c-0.34,4.908-0.07,9.866-0.48,14.744c0.2,0.86,0.41,1.799,0.61,2.769
					c0.33-5.768,1.799-11.695,2.079-17.323c0.38-7.647-1.879-15.214-1.239-22.811c0.02-0.24,0.15-0.39,0.3-0.44v-0.01
					C268.114,99.819,268.494,99.979,268.544,100.389z M265.415,117.143c0.3-2.899,1.239-8.336-0.41-11.465
					c-0.22,0.07-0.45,0.03-0.64-0.2c-0.27-0.32-0.47-0.77-0.609-1.28c-0.14-0.11-0.29-0.22-0.45-0.31c-0.1-0.06-0.16-0.14-0.2-0.23
					c-3.229,1.719-0.45,17.493,1.2,25.76C264.516,125.31,264.995,121.201,265.415,117.143z M263.926,152.749
					c3.458-0.88,0.89-10.306,0.5-12.765c-1.009-6.507-2.249-12.984-3.229-19.502c-0.38-2.519-3.619-18.263,1.959-18.203
					c-5.788-4.398-6.367,3.688-6.287,5.857c0.06,1.779,0.19,3.549,0.39,5.328c0.47,4.198,0.75,8.437,1.819,12.545
					c2.069,7.907,5.378,15.943,5.178,24.24c-0.01,0.56-0.52,0.78-0.93,0.66C263.596,151.489,263.796,152.109,263.926,152.749z
					 M262.626,149.75c0.07,0.08,0.12,0.18,0.18,0.26c-0.04-1.229-0.14-2.449-0.3-3.649c-0.18,1.07-0.41,2.139-0.67,3.159
					c0.05,0.07,0.1,0.13,0.13,0.21c0.04,0.08,0.05,0.16,0.05,0.23c0,0.24-0.17,0.42-0.42,0.45c-0.15,0.53-0.91,0.55-1.14,0.16
					c-0.78,1.279-0.87,3.059-0.08,4.328c0.11,0.18,0.23,0.36,0.37,0.52c0.689-0.05,1.369-0.18,2.039-0.36
					c-0.13-1.719-0.75-3.379-0.68-5.088C262.116,149.729,262.446,149.53,262.626,149.75z M261.946,142.933
					c-0.27-1.3-0.57-2.599-0.91-3.889c-0.58,1.479-0.759,3.648-1.049,5.108c-0.4,2.009-0.78,4.028-1.05,6.068
					c0.25-0.49,0.59-0.939,1-1.32c0.2-0.18,0.43-0.23,0.669-0.17C260.887,146.781,261.317,144.792,261.946,142.933z
					 M258.838,155.288c-0.42-0.91-0.58-1.949-0.49-2.969c-0.28,0.13-0.569,0.25-0.85,0.4c-0.16,0.09-0.33,0.189-0.5,0.29
					c0.01,0.01,0.01,0.02,0.02,0.04c0.15,0.27,0.04,0.59-0.17,0.78C257.488,154.448,258.048,155.018,258.838,155.288z"/>
				<path fill="#D6BD7F" d="M267.544,100.389c-0.64,7.597,1.619,15.164,1.239,22.811c-0.28,5.628-1.75,11.556-2.079,17.323
					c-0.2-0.97-0.41-1.909-0.61-2.769c0.41-4.878,0.14-9.836,0.48-14.744c0.23-3.279,0.64-6.507,0.7-9.796
					c0.05-2.509,0.15-6.728-1.729-8.927c-0.06-0.31-0.17-0.609-0.24-0.899c-0.15-0.63-0.21-1.259-0.2-1.909
					c0.04-1.5,1.079-1.719,2.379-1.669c0.1,0,0.18-0.01,0.25-0.04l0.11,0.17v0.01C267.694,100,267.564,100.149,267.544,100.389z"/>
				<path fill="#D6BD7F" d="M266.125,209.346l-0.37,0.07c0.01-0.14-0.11-0.24-0.24-0.25c-0.11,0-0.22,0.01-0.32,0.03
					c-0.05-0.02-0.11-0.04-0.18-0.04c-0.62-0.04-1.169-0.16-1.719-0.32c0.79-8.017-0.68-16.773-1.39-24.75
					c-0.799-9.006-1.589-18.013-2.549-26.999c0.32,0.03,0.64,0.03,0.959,0.01c0.31,0.22,0.64,0.41,1.02,0.55
					c0.25,0.09,0.549-0.02,0.739-0.2c0.21-0.2,0.28-0.44,0.21-0.69c0.17-0.05,0.33-0.1,0.49-0.14c-0.01,0.03-0.03,0.07-0.03,0.11
					c-0.25,9.116,0.93,18.243,1.489,27.329C264.745,192.493,264.496,201.029,266.125,209.346z"/>
				<path fill="#D6BD7F" d="M265.005,105.677c1.649,3.129,0.709,8.566,0.41,11.465c-0.42,4.059-0.899,8.167-1.109,12.275
					c-1.649-8.267-4.428-24.041-1.2-25.76c0.04,0.09,0.1,0.17,0.2,0.229c0.16,0.09,0.31,0.2,0.45,0.31
					c0.14,0.51,0.34,0.959,0.609,1.28C264.555,105.707,264.785,105.747,265.005,105.677z"/>
				<path fill="#D6BD7F" d="M264.425,139.983c0.39,2.459,2.959,11.885-0.5,12.765c-0.13-0.64-0.33-1.259-0.6-1.839
					c0.41,0.12,0.92-0.1,0.93-0.66c0.2-8.297-3.108-16.333-5.178-24.24c-1.07-4.108-1.35-8.347-1.819-12.545
					c-0.2-1.779-0.33-3.549-0.39-5.328c-0.08-2.169,0.5-10.256,6.287-5.857c-5.578-0.06-2.339,15.684-1.959,18.203
					C262.176,126.999,263.416,133.476,264.425,139.983z"/>
				<path fill="#D6BD7F" d="M262.806,150.01c-0.06-0.08-0.11-0.18-0.18-0.26c-0.18-0.22-0.51-0.02-0.52,0.22
					c-0.07,1.709,0.55,3.369,0.68,5.088c-0.67,0.18-1.35,0.31-2.039,0.36c-0.14-0.16-0.26-0.34-0.37-0.52
					c-0.79-1.27-0.7-3.049,0.08-4.328c0.23,0.39,0.99,0.37,1.14-0.16c0.25-0.03,0.42-0.209,0.42-0.45c0-0.07-0.01-0.15-0.05-0.23
					c-0.03-0.08-0.08-0.14-0.13-0.21c0.26-1.02,0.49-2.089,0.67-3.159C262.666,147.561,262.766,148.78,262.806,150.01z"/>
				<path fill="#D6BD7F" d="M261.037,139.044c0.34,1.29,0.64,2.589,0.91,3.889c-0.629,1.859-1.06,3.848-1.339,5.797
					c-0.24-0.06-0.47-0.01-0.67,0.17c-0.41,0.38-0.75,0.83-1,1.32c0.27-2.04,0.65-4.059,1.05-6.068
					C260.277,142.692,260.457,140.523,261.037,139.044z"/>
				<path fill="#D6BD7F" d="M260.817,138.204c0,0.01-0.01,0-0.02,0.01c-1.31,1.189-1.5,3.349-1.889,5.038
					c-0.57,2.489-1.08,5.018-1.39,7.567c0,0.01,0.01,0.03,0.01,0.05c-0.38,0.22-0.74,0.48-1.07,0.77
					c-0.95-3.549,1.13-7.697,2.179-11.026c1.04-3.309,0.77-6.967-0.2-10.296l0.18-0.05
					C259.328,132.937,260.107,135.565,260.817,138.204z"/>
				<path fill="#D6BD7F" d="M258.348,152.319c-0.09,1.02,0.07,2.059,0.49,2.969c-0.79-0.27-1.35-0.84-1.989-1.459
					c0.21-0.19,0.32-0.51,0.17-0.78c-0.01-0.02-0.01-0.03-0.02-0.04c0.17-0.1,0.34-0.2,0.5-0.29
					C257.778,152.568,258.068,152.449,258.348,152.319z"/>
			</g>
		</g>
	</g>
</g>
</svg>
