<?xml version="1.0" encoding="UTF-8" standalone="no"?>
<svg
   xmlns:dc="http://purl.org/dc/elements/1.1/"
   xmlns:cc="http://creativecommons.org/ns#"
   xmlns:rdf="http://www.w3.org/1999/02/22-rdf-syntax-ns#"
   xmlns:svg="http://www.w3.org/2000/svg"
   xmlns="http://www.w3.org/2000/svg"
   xmlns:xlink="http://www.w3.org/1999/xlink"
   xmlns:sodipodi="http://sodipodi.sourceforge.net/DTD/sodipodi-0.dtd"
   xmlns:inkscape="http://www.inkscape.org/namespaces/inkscape"
   version="1.1"
   viewBox="0 0 1280 200"
   id="svg3534"
   sodipodi:docname="grass.svg"
   width="1280"
   height="200"
   inkscape:version="0.92.3 (unknown)">
  <metadata
     id="metadata3538">
    <rdf:RDF>
      <cc:Work
         rdf:about="">
        <dc:format>image/svg+xml</dc:format>
        <dc:type
           rdf:resource="http://purl.org/dc/dcmitype/StillImage" />
        <dc:title></dc:title>
      </cc:Work>
    </rdf:RDF>
  </metadata>
  <sodipodi:namedview
     pagecolor="#ffffff"
     bordercolor="#666666"
     borderopacity="1"
     objecttolerance="10"
     gridtolerance="10"
     guidetolerance="10"
     inkscape:pageopacity="0"
     inkscape:pageshadow="2"
     inkscape:window-width="1680"
     inkscape:window-height="997"
     id="namedview3536"
     showgrid="false"
     inkscape:snap-page="false"
     inkscape:zoom="0.55021746"
     inkscape:cx="574.17308"
     inkscape:cy="380.81745"
     inkscape:window-x="1440"
     inkscape:window-y="0"
     inkscape:window-maximized="1"
     inkscape:current-layer="svg3534" />
  <defs
     id="defs373">
    <filter
       id="OpacityMaskFilter"
       filterUnits="userSpaceOnUse"
       x="-1883.902"
       y="-817.41498"
       width="3670.822"
       height="1620.915">
      <feColorMatrix
         type="matrix"
         values="1 0 0 0 0  0 1 0 0 0  0 0 1 0 0  0 0 0 1 0"
         id="feColorMatrix2" />
    </filter>
    <g
       id="grass">
      <g
         transform="matrix(0.4946,0,0,0.4946,-121.74196,233.11923)"
         id="g53">
        <path
           d="m 323.306,-226.501 34.159,0.067 c -5.244,-68.3 -36.059,-132.03 -89.026,-192.271 -6.416,-7.302 -13.161,-14.506 -20.213,-21.608 5.952,7.41 11.557,14.893 16.827,22.438 43.446,62.27 63.184,125.637 58.253,191.382 z"
           id="path5"
           inkscape:connector-curvature="0"
           style="fill:#225500" />
        <path
           d="m 451.371,-226.248 34.16,0.059 c -5.242,-68.3 -36.061,-132.021 -89.024,-192.269 -6.423,-7.302 -22.943,-7.643 -29.996,-14.739 5.951,7.404 21.342,8.022 26.61,15.567 43.448,62.27 63.181,125.637 58.25,191.382 z"
           id="path7"
           inkscape:connector-curvature="0"
           style="fill:#355571" />
        <path
           d="m 380.262,-226.394 34.126,0.071 c -7.307,-53.231 -0.227,-107.45 21.245,-160.263 11.045,-27.159 25.881,-53.95 44.368,-80.046 -22.031,25.251 -40.646,51.504 -55.579,78.445 -29.038,52.388 -44.073,106.496 -44.16,161.793 z"
           id="path9"
           inkscape:connector-curvature="0"
           style="fill:#225500" />
        <path
           d="m 784.46,-225.609 -34.159,-0.063 c 8.099,-68.28 41.579,-131.882 97.057,-191.917 6.729,-7.278 13.766,-14.455 21.119,-21.527 -6.259,7.379 -12.182,14.848 -17.762,22.371 -46.048,62.095 -68.435,125.383 -66.255,191.136 z"
           id="path11"
           inkscape:connector-curvature="0"
           style="fill:#225500" />
        <path
           d="m 788.725,-225.605 -34.155,-0.063 c 8.099,-68.276 41.583,-131.878 97.061,-191.915 6.721,-7.27 23.259,-7.544 30.608,-14.619 -6.259,7.388 -21.676,7.943 -27.259,15.464 -46.045,62.102 -68.431,125.384 -66.255,191.133 z"
           id="path13"
           inkscape:connector-curvature="0"
           style="fill:#225500" />
        <path
           d="m 590.888,-225.984 -34.122,-0.063 c 9.525,-53.2 4.717,-107.442 -14.544,-160.332 -9.906,-27.202 -23.616,-54.047 -41.011,-80.214 20.969,25.338 38.482,51.656 52.287,78.66 26.846,52.49 39.615,106.649 37.39,161.949 z"
           id="path15"
           inkscape:connector-curvature="0"
           style="fill:#225500" />
        <path
           d="m 766.224,-225.644 34.158,0.063 c -5.24,-68.3 -36.057,-132.021 -89.025,-192.269 -6.421,-7.302 -13.16,-14.51 -20.212,-21.604 5.947,7.404 11.558,14.885 16.822,22.432 43.444,62.272 63.181,125.637 58.257,191.378 z"
           id="path17"
           inkscape:connector-curvature="0"
           style="fill:#225500" />
        <path
           d="m 664.539,-225.842 34.164,0.067 c -5.242,-68.304 -36.061,-132.024 -89.026,-192.275 -6.421,-7.302 -22.947,-7.631 -29.998,-14.735 5.949,7.41 21.344,8.018 26.606,15.565 43.445,62.276 63.184,125.637 58.254,191.378 z"
           id="path19"
           inkscape:connector-curvature="0"
           style="fill:#225500" />
        <path
           d="m 900.735,-225.383 34.118,0.063 c -7.305,-53.223 -0.221,-107.45 21.249,-160.255 11.045,-27.161 25.877,-53.952 44.366,-80.054 -22.035,25.261 -40.642,51.505 -55.581,78.445 -29.035,52.384 -44.065,106.492 -44.152,161.801 z"
           id="path21"
           inkscape:connector-curvature="0"
           style="fill:#355571" />
        <path
           d="m 602.673,-225.96 -34.166,-0.067 c 8.099,-68.269 41.582,-131.874 97.062,-191.91 6.723,-7.28 13.77,-14.453 21.119,-21.527 -6.259,7.382 -12.182,14.842 -17.764,22.372 -46.046,62.093 -68.432,125.375 -66.251,191.132 z"
           id="path23"
           inkscape:connector-curvature="0"
           style="fill:#355571" />
        <path
           d="m 552.404,-226.051 -34.158,-0.071 c 8.099,-68.28 41.578,-131.874 97.06,-191.91 6.725,-7.278 23.261,-7.554 30.61,-14.627 -6.259,7.386 -21.677,7.939 -27.259,15.46 -46.048,62.107 -68.433,125.387 -66.253,191.148 z"
           id="path25"
           inkscape:connector-curvature="0"
           style="fill:#225500" />
        <path
           d="m 731.161,-225.715 -34.126,-0.059 c 9.533,-53.196 4.725,-107.446 -14.54,-160.33 -9.906,-27.2 -23.614,-54.045 -41.011,-80.21 20.973,25.326 38.482,51.644 52.291,78.646 26.84,52.501 39.615,106.66 37.386,161.953 z"
           id="path27"
           inkscape:connector-curvature="0"
           style="fill:#225500" />
        <path
           d="m 1184.112,-224.835 34.162,0.059 c -5.24,-68.3 -36.061,-132.023 -89.024,-192.269 -6.421,-7.303 -13.162,-14.508 -20.214,-21.604 5.955,7.404 11.558,14.885 16.83,22.44 43.442,62.268 63.182,125.629 58.246,191.374 z"
           id="path29"
           inkscape:connector-curvature="0"
           style="fill:#225500" />
        <path
           d="m 1073.18,-225.052 34.162,0.063 c -5.24,-68.3 -36.057,-132.021 -89.024,-192.269 -6.421,-7.303 -22.947,-7.633 -30,-14.741 5.955,7.406 21.344,8.024 26.616,15.569 43.441,62.278 63.178,125.637 58.246,191.378 z"
           id="path31"
           inkscape:connector-curvature="0"
           style="fill:#225500" />
        <path
           d="m 1426.626,-224.369 34.122,0.067 c -7.302,-53.231 -0.229,-107.45 21.249,-160.265 11.045,-27.161 25.877,-53.948 44.366,-80.044 -22.035,25.249 -40.646,51.494 -55.581,78.443 -29.04,52.391 -44.073,106.495 -44.156,161.799 z"
           id="path33"
           inkscape:connector-curvature="0"
           style="fill:#225500" />
        <path
           d="m 1289.204,-224.633 -34.162,-0.071 c 8.103,-68.276 41.586,-131.872 97.064,-191.908 6.725,-7.278 13.766,-14.459 21.119,-21.525 -6.263,7.379 -12.186,14.84 -17.766,22.371 -46.048,62.094 -68.435,125.372 -66.255,191.133 z"
           id="path35"
           inkscape:connector-curvature="0"
           style="fill:#225500" />
        <path
           d="m 1342.262,-224.527 -34.162,-0.075 c 8.099,-68.276 41.582,-131.87 97.064,-191.908 6.721,-7.278 23.263,-7.554 30.612,-14.619 -6.263,7.38 -21.679,7.935 -27.263,15.464 -46.045,62.095 -68.427,125.377 -66.251,191.138 z"
           id="path37"
           inkscape:connector-curvature="0"
           style="fill:#225500" />
        <path
           d="m 1289.773,-224.633 -34.126,-0.063 c 9.536,-53.2 4.723,-107.442 -14.54,-160.334 -9.908,-27.202 -23.618,-54.045 -41.013,-80.21 20.976,25.336 38.486,51.652 52.291,78.654 26.848,52.489 39.611,106.652 37.388,161.953 z"
           id="path39"
           inkscape:connector-curvature="0"
           style="fill:#225500" />
        <path
           d="m 1566.093,-224.104 34.166,0.071 c -5.244,-68.296 -36.061,-132.03 -89.024,-192.273 -6.425,-7.3 -13.166,-14.506 -20.214,-21.61 5.947,7.41 11.558,14.895 16.826,22.442 43.445,62.268 63.178,125.629 58.246,191.37 z"
           id="path41"
           inkscape:connector-curvature="0"
           style="fill:#225500" />
        <path
           d="m 1375.14,-224.467 34.166,0.063 c -5.244,-68.3 -36.061,-132.021 -89.024,-192.271 -6.421,-7.3 -22.947,-7.639 -30,-14.737 5.951,7.404 21.34,8.018 26.612,15.567 43.442,62.267 63.174,125.632 58.246,191.378 z"
           id="path43"
           inkscape:connector-curvature="0"
           style="fill:#355571" />
        <path
           d="m 1241.422,-224.728 34.122,0.063 c -7.302,-53.223 -0.225,-107.45 21.245,-160.257 11.049,-27.159 25.877,-53.948 44.374,-80.046 -22.035,25.253 -40.65,51.498 -55.585,78.447 -29.039,52.385 -44.069,106.493 -44.156,161.793 z"
           id="path45"
           inkscape:connector-curvature="0"
           style="fill:#225500" />
        <path
           d="m 1069.278,-225.06 -34.162,-0.063 c 8.095,-68.276 41.582,-131.878 97.06,-191.915 6.721,-7.276 13.766,-14.453 21.119,-21.523 -6.263,7.379 -12.182,14.84 -17.766,22.367 -46.044,62.097 -68.431,125.377 -66.251,191.134 z"
           id="path47"
           inkscape:connector-curvature="0"
           style="fill:#225500" />
        <path
           d="m 1372.384,-224.475 -34.158,-0.063 c 8.095,-68.276 41.578,-131.88 97.056,-191.915 6.729,-7.278 23.263,-7.544 30.612,-14.617 -6.259,7.379 -21.672,7.931 -27.259,15.46 -46.045,62.098 -68.431,125.374 -66.251,191.135 z"
           id="path49"
           inkscape:connector-curvature="0"
           style="fill:#225500" />
        <path
           d="m 1544.425,-224.144 -34.122,-0.063 c 9.533,-53.192 4.723,-107.442 -14.54,-160.328 -9.908,-27.206 -23.618,-54.045 -41.013,-80.212 20.973,25.33 38.482,51.648 52.291,78.65 26.845,52.498 39.612,106.653 37.384,161.953 z"
           id="path51"
           inkscape:connector-curvature="0"
           style="fill:#225500" />
      </g>
      <g
         transform="matrix(0.4946,0,0,0.4946,-121.74196,233.11923)"
         id="g103">
        <path
           d="m 333.681,-226.481 26.348,0.047 c -6.685,-46.182 3.789,-111.3 47.58,-150.442 21.136,-18.899 65.127,-19.656 95.358,-32.877 -32.093,11.13 -79.092,10.23 -103.923,28.264 -51.495,37.424 -64.638,102.851 -65.363,155.008 z"
           id="path55"
           inkscape:connector-curvature="0"
           style="fill:#abe35d" />
        <path
           d="m 428.596,-226.3 19.419,0.039 -12.795,-161.927 z"
           id="path57"
           inkscape:connector-curvature="0"
           style="fill:#abe35d" />
        <path
           d="m 380.339,-226.394 21.897,0.047 c -10.267,-45.432 -29.757,-87.01 -75.975,-119.005 -21.415,-14.824 -45.875,-27.5 -72.332,-37.603 24.446,12.094 46.045,26.379 64.039,42.237 38.821,34.2 60.544,73.034 62.371,114.324 z"
           id="path59"
           inkscape:connector-curvature="0"
           style="fill:#abe35d" />
        <path
           d="m 789.89,-225.593 -26.352,-0.055 c 8.617,-46.163 0.874,-111.315 -41.278,-150.622 -20.345,-18.984 -64.304,-19.9 -93.978,-33.238 31.631,11.246 78.658,10.532 102.734,28.659 49.926,37.62 60.327,103.095 58.874,155.256 z"
           id="path61"
           inkscape:connector-curvature="0"
           style="fill:#abe35d" />
        <path
           d="m 844.128,-225.494 -19.413,-0.039 19.563,-161.867 z"
           id="path63"
           inkscape:connector-curvature="0"
           style="fill:#abe35d" />
        <path
           d="m 707.815,-225.751 -21.899,-0.051 c 12.167,-45.385 33.394,-86.888 80.948,-118.705 22.035,-14.737 47.019,-27.311 73.9,-37.311 -24.949,11.989 -47.146,26.199 -65.804,41.983 -40.247,34.044 -63.595,72.795 -67.145,114.084 z"
           id="path65"
           inkscape:connector-curvature="0"
           style="fill:#abe35d" />
        <path
           d="m 606.271,-225.948 26.347,0.043 c -6.685,-46.182 3.791,-111.308 47.58,-150.452 21.136,-18.897 65.127,-19.648 95.361,-32.867 -32.096,11.118 -79.095,10.226 -103.928,28.266 -51.49,37.415 -64.634,102.841 -65.36,155.01 z"
           id="path67"
           inkscape:connector-curvature="0"
           style="fill:#abe35d" />
        <path
           d="m 579.296,-226.007 19.421,0.039 -12.794,-161.928 z"
           id="path69"
           inkscape:connector-curvature="0"
           style="fill:#abe35d" />
        <path
           d="m 806.507,-225.565 21.897,0.043 c -10.259,-45.436 -29.751,-87.018 -75.974,-119.009 -21.413,-14.824 -45.876,-27.502 -72.332,-37.597 24.446,12.088 46.044,26.373 64.043,42.232 38.818,34.2 60.541,73.037 62.366,114.331 z"
           id="path71"
           inkscape:connector-curvature="0"
           style="fill:#abe35d" />
        <path
           d="m 780.799,-225.62 -26.348,-0.047 c 8.613,-46.159 0.869,-111.319 -41.282,-150.626 -20.345,-18.976 -64.302,-19.898 -93.98,-33.23 31.631,11.246 78.662,10.526 102.737,28.661 49.921,37.611 60.33,103.085 58.873,155.242 z"
           id="path73"
           inkscape:connector-curvature="0"
           style="fill:#abe35d" />
        <path
           d="m 616.895,-225.936 -19.417,-0.032 19.563,-161.874 z"
           id="path75"
           inkscape:connector-curvature="0"
           style="fill:#abe35d" />
        <path
           d="m 626.007,-225.913 -21.895,-0.047 c 12.163,-45.385 33.39,-86.888 80.945,-118.705 22.033,-14.737 47.02,-27.311 73.9,-37.311 -24.951,11.989 -47.142,26.199 -65.802,41.985 -40.245,34.042 -63.591,72.793 -67.147,114.071 v 0.007 z"
           id="path77"
           inkscape:connector-curvature="0"
           style="fill:#abe35d" />
        <path
           d="m 997.677,-225.202 26.343,0.055 c -6.682,-46.19 3.795,-111.312 47.584,-150.452 21.135,-18.897 65.129,-19.646 95.362,-32.867 -32.101,11.12 -79.096,10.222 -103.927,28.264 -51.494,37.415 -64.64,102.843 -65.362,155 z"
           id="path79"
           inkscape:connector-curvature="0"
           style="fill:#abe35d" />
        <path
           d="m 1001.235,-225.194 19.417,0.039 -12.79,-161.93 z"
           id="path81"
           inkscape:connector-curvature="0"
           style="fill:#abe35d" />
        <path
           d="m 1481.539,-224.262 21.897,0.039 c -10.259,-45.424 -29.751,-87.006 -75.973,-119.007 -21.411,-14.822 -45.87,-27.5 -72.332,-37.594 24.444,12.082 46.048,26.371 64.043,42.229 38.822,34.202 60.549,73.035 62.365,114.333 z"
           id="path83"
           inkscape:connector-curvature="0"
           style="fill:#abe35d" />
        <path
           d="m 1359.897,-224.495 -26.351,-0.051 c 8.613,-46.159 0.869,-111.319 -41.282,-150.626 -20.345,-18.974 -64.304,-19.898 -93.98,-33.238 31.631,11.244 78.662,10.538 102.734,28.665 49.923,37.615 60.329,103.089 58.879,155.25 z"
           id="path85"
           inkscape:connector-curvature="0"
           style="fill:#abe35d" />
        <path
           d="m 985.925,-225.218 -19.417,-0.036 19.563,-161.87 z"
           id="path87"
           inkscape:connector-curvature="0"
           style="fill:#abe35d" />
        <path
           d="m 1292.731,-224.625 -21.897,-0.047 c 12.163,-45.385 33.396,-86.888 80.948,-118.705 22.035,-14.737 47.02,-27.311 73.896,-37.313 -24.945,11.991 -47.138,26.199 -65.797,41.986 -40.251,34.042 -63.596,72.789 -67.15,114.079 z"
           id="path89"
           inkscape:connector-curvature="0"
           style="fill:#abe35d" />
        <path
           d="m 1402.806,-224.42 26.351,0.055 c -6.689,-46.19 3.787,-111.308 47.58,-150.452 21.131,-18.897 65.129,-19.646 95.362,-32.869 -32.101,11.122 -79.1,10.224 -103.931,28.268 -51.493,37.413 -64.631,102.841 -65.362,154.998 z"
           id="path91"
           inkscape:connector-curvature="0"
           style="fill:#abe35d" />
        <path
           d="m 978.082,-225.233 19.421,0.032 -12.794,-161.93 z"
           id="path93"
           inkscape:connector-curvature="0"
           style="fill:#abe35d" />
        <path
           d="m 1608.871,-224.017 21.893,0.039 c -10.263,-45.424 -29.751,-87.006 -75.969,-119.007 -21.419,-14.822 -45.874,-27.49 -72.336,-37.595 24.448,12.086 46.044,26.373 64.039,42.238 38.822,34.194 60.545,73.027 62.373,114.325 z"
           id="path95"
           inkscape:connector-curvature="0"
           style="fill:#abe35d" />
        <path
           d="m 1105.237,-224.989 -26.347,-0.055 c 8.617,-46.159 0.865,-111.312 -41.282,-150.62 -20.341,-18.982 -64.3,-19.897 -93.98,-33.238 31.631,11.25 78.666,10.534 102.742,28.661 49.919,37.62 60.328,103.095 58.867,155.252 z"
           id="path97"
           inkscape:connector-curvature="0"
           style="fill:#abe35d" />
        <path
           d="m 1159.554,-224.886 -19.417,-0.039 19.567,-161.866 z"
           id="path99"
           inkscape:connector-curvature="0"
           style="fill:#abe35d" />
        <path
           d="m 1211.707,-224.783 -21.897,-0.047 c 12.163,-45.385 33.392,-86.888 80.944,-118.697 22.035,-14.745 47.02,-27.318 73.9,-37.321 -24.945,11.991 -47.142,26.199 -65.804,41.986 -40.243,34.05 -63.589,72.789 -67.143,114.079 z"
           id="path101"
           inkscape:connector-curvature="0"
           style="fill:#abe35d" />
      </g>
      <g
         transform="matrix(0.4946,0,0,0.4946,-121.74196,233.11923)"
         id="g185">
        <path
           d="m 284.294,-226.576 19.09,0.043 c -3.644,-7.744 -0.158,-16.033 1.279,-26.623 1.545,-11.574 16.547,-28.795 25.475,-38.257 -11.664,3.412 -23.282,11.811 -31.916,24.621 -7.88,11.725 -13.033,23.674 -13.928,40.216 z"
           id="path105"
           inkscape:connector-curvature="0"
           style="fill:#225500" />
        <path
           d="m 337.533,-226.473 18.171,0.036 c 1.005,-27.765 -12.822,-41.989 -30.831,-55.142 -4.037,-3.838 -6.826,-10.879 -6.452,-18.268 0.34,-7.392 3.945,-15.444 10.103,-20.562 -7.202,2.598 -13.893,9.355 -17.183,18.678 -3.258,9.327 -2.954,20.665 1.738,30.442 3.543,6.993 7.62,7.428 11.976,11.681 11.082,5.437 14.868,20.372 12.478,33.135 z"
           id="path107"
           inkscape:connector-curvature="0"
           style="fill:#327c6e" />
        <path
           d="m 421.581,-226.304 18.747,0.032 c -0.087,-11.756 1.183,-22.655 3.959,-34.762 3.7,-16.151 10.064,-32.235 19.006,-47.039 -13.335,9.355 -16.232,20.795 -26.732,35.86 -7.862,11.293 -9.635,32.029 -14.98,45.909 z"
           id="path109"
           inkscape:connector-curvature="0"
           style="fill:#225500" />
        <path
           d="m 369.963,-226.406 14.263,0.024 c -0.991,-36.887 -8.545,-69.09 -11.827,-105.44 -5.799,20.862 -3.742,54.242 -2.636,76.06 0.713,14.026 3.558,14.705 0.2,29.356 z"
           id="path111"
           inkscape:connector-curvature="0"
           style="fill:#327c6e" />
        <path
           d="m 393.204,-226.359 18.603,0.032 c -3.846,-23.666 1.998,-25.818 -5.969,-50.416 -4.097,-12.652 -17.563,-31.982 -26.469,-39.568 5.684,10.994 9.872,22.667 12.53,34.494 4.36,19.401 4.62,37.424 1.305,55.458 z"
           id="path113"
           inkscape:connector-curvature="0"
           style="fill:#327c6e" />
        <path
           d="m 857.665,-225.466 -19.097,-0.036 c 3.973,-7.732 0.829,-16.021 -0.162,-26.623 -1.054,-11.578 -15.338,-28.855 -23.871,-38.352 11.519,3.455 22.789,11.894 30.884,24.744 7.388,11.756 12.04,23.721 12.246,40.267 z"
           id="path115"
           inkscape:connector-curvature="0"
           style="fill:#327c6e" />
        <path
           d="m 602.442,-225.96 -18.169,-0.036 c 0.154,-27.765 14.573,-41.933 33.131,-55.02 4.2,-3.819 7.28,-10.852 7.217,-18.24 -0.026,-7.396 -3.299,-15.456 -9.24,-20.601 7.096,2.63 13.501,9.41 16.402,18.741 2.865,9.343 2.087,20.672 -3.015,30.434 -3.832,6.978 -7.927,7.404 -12.465,11.641 -11.308,5.387 -15.713,20.314 -13.861,33.081 z"
           id="path117"
           inkscape:connector-curvature="0"
           style="fill:#327c6e" />
        <path
           d="m 791.793,-225.593 -18.745,-0.043 c 0.577,-11.744 -0.237,-22.655 -2.508,-34.778 -3.021,-16.155 -8.712,-32.259 -17.037,-47.099 12.945,9.402 15.362,20.854 25.227,35.963 7.396,11.317 8.301,32.061 13.063,45.957 z"
           id="path119"
           inkscape:connector-curvature="0"
           style="fill:#327c6e" />
        <path
           d="m 804.734,-225.569 -14.267,-0.024 c 2.531,-36.883 11.436,-69.062 16.238,-105.392 4.924,20.882 1.473,54.25 -0.549,76.068 -1.3,14.014 -4.171,14.69 -1.422,29.348 z"
           id="path121"
           inkscape:connector-curvature="0"
           style="fill:#327c6e" />
        <path
           d="m 618.718,-225.928 -18.607,-0.039 c 4.837,-23.646 -0.916,-25.826 8.083,-50.388 4.624,-12.629 18.899,-31.903 28.12,-39.457 -6.144,10.97 -10.818,22.627 -13.973,34.438 -5.171,19.384 -6.182,37.403 -3.623,55.446 z"
           id="path123"
           inkscape:connector-curvature="0"
           style="fill:#225500" />
        <path
           d="m 629.798,-225.913 19.089,0.039 c -3.643,-7.744 -0.156,-16.021 1.279,-26.616 1.542,-11.578 16.546,-28.795 25.476,-38.257 -11.665,3.416 -23.281,11.807 -31.919,24.625 -7.875,11.722 -13.03,23.675 -13.925,40.209 z"
           id="path125"
           inkscape:connector-curvature="0"
           style="fill:#327c6e" />
        <path
           d="m 832.068,-225.518 18.177,0.032 c 0.999,-27.761 -12.83,-41.985 -30.833,-55.138 -4.04,-3.838 -6.824,-10.879 -6.456,-18.268 0.34,-7.396 3.949,-15.444 10.109,-20.562 -7.207,2.598 -13.896,9.351 -17.19,18.674 -3.25,9.335 -2.95,20.665 1.742,30.446 3.538,6.993 7.617,7.424 11.981,11.685 11.08,5.438 14.859,20.368 12.47,33.131 z"
           id="path127"
           inkscape:connector-curvature="0"
           style="fill:#327c6e" />
        <path
           d="m 899.748,-225.387 18.745,0.036 c -0.087,-11.752 1.185,-22.651 3.961,-34.766 3.7,-16.147 10.062,-32.231 19.006,-47.027 -13.335,9.351 -16.23,20.787 -26.726,35.856 -7.874,11.292 -9.643,32.032 -14.986,45.901 z"
           id="path129"
           inkscape:connector-curvature="0"
           style="fill:#327c6e" />
        <path
           d="m 757.038,-225.66 14.26,0.024 c -0.987,-36.883 -8.546,-69.098 -11.83,-105.436 -5.795,20.858 -3.74,54.234 -2.632,76.06 0.711,14.022 3.558,14.702 0.202,29.352 z"
           id="path131"
           inkscape:connector-curvature="0"
           style="fill:#327c6e" />
        <path
           d="m 543.114,-226.078 18.609,0.039 c -3.852,-23.67 1.99,-25.818 -5.977,-50.412 -4.097,-12.656 -17.563,-31.986 -26.469,-39.568 5.684,10.994 9.872,22.667 12.528,34.49 4.362,19.397 4.624,37.424 1.309,55.451 z"
           id="path133"
           inkscape:connector-curvature="0"
           style="fill:#327c6e" />
        <path
           d="m 875.841,-225.431 -19.089,-0.036 c 3.965,-7.732 0.825,-16.025 -0.166,-26.627 -1.058,-11.578 -15.341,-28.851 -23.875,-38.348 11.519,3.459 22.789,11.898 30.888,24.74 7.385,11.756 12.037,23.729 12.242,40.271 z"
           id="path135"
           inkscape:connector-curvature="0"
           style="fill:#327c6e" />
        <path
           d="m 502.46,-226.157 -18.171,-0.032 c 0.158,-27.769 14.577,-41.933 33.131,-55.02 4.198,-3.823 7.286,-10.856 7.219,-18.236 -0.03,-7.396 -3.299,-15.464 -9.242,-20.601 7.094,2.63 13.501,9.402 16.4,18.741 2.867,9.335 2.087,20.669 -3.011,30.422 -3.83,6.99 -7.925,7.408 -12.461,11.649 -11.314,5.387 -15.721,20.314 -13.865,33.077 z"
           id="path137"
           inkscape:connector-curvature="0"
           style="fill:#327c6e" />
        <path
           d="m 519.111,-226.122 -18.743,-0.036 c 0.577,-11.752 -0.243,-22.659 -2.504,-34.778 -3.025,-16.163 -8.715,-32.262 -17.041,-47.106 12.943,9.41 15.361,20.854 25.228,35.963 7.397,11.321 8.299,32.061 13.06,45.957 z"
           id="path139"
           inkscape:connector-curvature="0"
           style="fill:#225500" />
        <path
           d="m 750.192,-225.672 -14.265,-0.036 c 2.537,-36.875 11.436,-69.05 16.242,-105.38 4.922,20.874 1.469,54.25 -0.551,76.068 -1.299,14.019 -4.168,14.678 -1.426,29.348 z"
           id="path141"
           inkscape:connector-curvature="0"
           style="fill:#327c6e" />
        <path
           d="m 873.223,-225.435 -18.607,-0.043 c 4.833,-23.646 -0.916,-25.818 8.076,-50.38 4.632,-12.636 18.903,-31.915 28.128,-39.465 -6.148,10.97 -10.82,22.627 -13.975,34.446 -5.17,19.373 -6.185,37.396 -3.622,55.442 z"
           id="path143"
           inkscape:connector-curvature="0"
           style="fill:#225500" />
        <path
           d="m 985.581,-225.226 19.089,0.039 c -3.645,-7.744 -0.158,-16.021 1.275,-26.616 1.544,-11.578 16.55,-28.791 25.478,-38.257 -11.661,3.42 -23.283,11.807 -31.915,24.617 -7.881,11.734 -13.03,23.683 -13.927,40.217 z"
           id="path145"
           inkscape:connector-curvature="0"
           style="fill:#327c6e" />
        <path
           d="m 1198.771,-224.807 18.169,0.032 c 1.003,-27.761 -12.822,-41.981 -30.829,-55.142 -4.04,-3.834 -6.832,-10.875 -6.452,-18.264 0.336,-7.396 3.941,-15.448 10.101,-20.57 -7.207,2.602 -13.892,9.363 -17.186,18.682 -3.254,9.331 -2.954,20.657 1.741,30.434 3.538,7.005 7.613,7.436 11.977,11.693 11.081,5.43 14.864,20.372 12.474,33.135 v 0 z"
           id="path147"
           inkscape:connector-curvature="0"
           style="fill:#327c6e" />
        <path
           d="m 918.367,-225.352 18.749,0.043 c -0.087,-11.756 1.185,-22.663 3.965,-34.774 3.696,-16.147 10.054,-32.223 19.002,-47.031 -13.335,9.347 -16.23,20.799 -26.73,35.864 -7.866,11.286 -9.639,32.022 -14.986,45.898 z"
           id="path149"
           inkscape:connector-curvature="0"
           style="fill:#225500" />
        <path
           d="m 1476.741,-224.27 14.263,0.024 c -0.991,-36.887 -8.553,-69.098 -11.835,-105.436 -5.793,20.862 -3.74,54.23 -2.626,76.056 0.708,14.03 3.555,14.706 0.198,29.356 z"
           id="path151"
           inkscape:connector-curvature="0"
           style="fill:#327c6e" />
        <path
           d="m 1423.084,-224.38 18.607,0.039 c -3.846,-23.662 1.99,-25.818 -5.967,-50.412 -4.103,-12.656 -17.569,-31.986 -26.469,-39.572 5.686,10.998 9.868,22.671 12.53,34.494 4.355,19.393 4.62,37.424 1.299,55.451 z"
           id="path153"
           inkscape:connector-curvature="0"
           style="fill:#327c6e" />
        <path
           d="m 1296.296,-224.625 -19.093,-0.032 c 3.973,-7.728 0.829,-16.021 -0.162,-26.623 -1.058,-11.578 -15.341,-28.859 -23.875,-38.356 11.519,3.467 22.785,11.906 30.888,24.748 7.381,11.756 12.037,23.717 12.242,40.263 z"
           id="path155"
           inkscape:connector-curvature="0"
           style="fill:#327c6e" />
        <path
           d="m 1152.56,-224.902 -18.173,-0.032 c 0.158,-27.769 14.579,-41.933 33.135,-55.024 4.198,-3.819 7.286,-10.852 7.219,-18.232 -0.028,-7.4 -3.301,-15.464 -9.244,-20.609 7.096,2.638 13.501,9.41 16.404,18.749 2.863,9.335 2.085,20.672 -3.013,30.426 -3.83,6.986 -7.929,7.4 -12.467,11.641 -11.31,5.392 -15.717,20.318 -13.861,33.081 z"
           id="path157"
           inkscape:connector-curvature="0"
           style="fill:#225500" />
        <path
           d="m 1571.858,-224.088 -18.741,-0.039 c 0.573,-11.744 -0.241,-22.651 -2.511,-34.778 -3.021,-16.159 -8.711,-32.266 -17.036,-47.106 12.945,9.41 15.361,20.862 25.23,35.971 7.392,11.316 8.296,32.06 13.058,45.952 z"
           id="path159"
           inkscape:connector-curvature="0"
           style="fill:#327c6e" />
        <path
           d="m 1337.594,-224.538 -14.26,-0.032 c 2.531,-36.875 11.436,-69.058 16.238,-105.388 4.924,20.886 1.469,54.258 -0.549,76.068 -1.299,14.026 -4.17,14.685 -1.429,29.352 z"
           id="path161"
           inkscape:connector-curvature="0"
           style="fill:#327c6e" />
        <path
           d="m 1032.419,-225.131 -18.607,-0.036 c 4.841,-23.65 -0.916,-25.822 8.083,-50.384 4.624,-12.64 18.896,-31.915 28.12,-39.469 -6.148,10.974 -10.824,22.635 -13.971,34.45 -5.173,19.378 -6.184,37.397 -3.625,55.439 z"
           id="path163"
           inkscape:connector-curvature="0"
           style="fill:#327c6e" />
        <path
           d="m 1483.316,-224.262 19.089,0.039 c -3.649,-7.744 -0.158,-16.021 1.276,-26.616 1.54,-11.578 16.55,-28.791 25.478,-38.257 -11.661,3.408 -23.287,11.803 -31.919,24.617 -7.878,11.722 -13.027,23.671 -13.924,40.217 z"
           id="path165"
           inkscape:connector-curvature="0"
           style="fill:#327c6e" />
        <path
           d="m 1441.845,-224.341 18.173,0.032 c 1.003,-27.761 -12.822,-41.985 -30.829,-55.142 -4.04,-3.834 -6.828,-10.875 -6.452,-18.264 0.336,-7.396 3.945,-15.448 10.101,-20.562 -7.203,2.594 -13.892,9.355 -17.182,18.678 -3.258,9.327 -2.958,20.661 1.738,30.438 3.542,6.997 7.617,7.432 11.977,11.685 11.084,5.437 14.863,20.38 12.474,33.135 z"
           id="path167"
           inkscape:connector-curvature="0"
           style="fill:#225500" />
        <path
           d="m 1473.981,-224.274 18.749,0.028 c -0.091,-11.744 1.181,-22.655 3.961,-34.762 3.7,-16.147 10.054,-32.227 19.002,-47.035 -13.332,9.355 -16.23,20.799 -26.726,35.86 -7.87,11.293 -9.643,32.029 -14.986,45.909 z"
           id="path169"
           inkscape:connector-curvature="0"
           style="fill:#327c6e" />
        <path
           d="m 1557.761,-224.12 14.267,0.032 c -0.987,-36.887 -8.545,-69.098 -11.827,-105.447 -5.801,20.87 -3.74,54.246 -2.634,76.072 0.711,14.021 3.554,14.701 0.194,29.343 z"
           id="path171"
           inkscape:connector-curvature="0"
           style="fill:#225500" />
        <path
           d="m 1573.56,-224.088 18.611,0.039 c -3.846,-23.666 1.998,-25.818 -5.975,-50.416 -4.099,-12.652 -17.557,-31.982 -26.466,-39.568 5.682,10.998 9.876,22.671 12.526,34.494 4.365,19.393 4.625,37.424 1.304,55.451 z"
           id="path173"
           inkscape:connector-curvature="0"
           style="fill:#327c6e" />
        <path
           d="m 1435.199,-224.357 -19.093,-0.032 c 3.969,-7.728 0.829,-16.021 -0.162,-26.623 -1.058,-11.578 -15.345,-28.859 -23.875,-38.352 11.523,3.463 22.793,11.902 30.884,24.744 7.393,11.752 12.041,23.717 12.246,40.263 z"
           id="path175"
           inkscape:connector-curvature="0"
           style="fill:#327c6e" />
        <path
           d="m 1534.541,-224.159 -18.169,-0.036 c 0.154,-27.765 14.579,-41.933 33.131,-55.02 4.198,-3.819 7.286,-10.852 7.219,-18.24 -0.028,-7.396 -3.301,-15.464 -9.244,-20.601 7.096,2.63 13.501,9.41 16.4,18.738 2.867,9.347 2.093,20.672 -3.009,30.438 -3.83,6.978 -7.926,7.404 -12.463,11.641 -11.314,5.382 -15.717,20.309 -13.865,33.08 z"
           id="path177"
           inkscape:connector-curvature="0"
           style="fill:#327c6e" />
        <path
           d="m 1111.255,-224.981 -18.741,-0.032 c 0.573,-11.752 -0.245,-22.659 -2.512,-34.786 -3.017,-16.155 -8.715,-32.259 -17.036,-47.099 12.941,9.402 15.361,20.854 25.229,35.963 7.389,11.319 8.298,32.062 13.06,45.954 z"
           id="path179"
           inkscape:connector-curvature="0"
           style="fill:#327c6e" />
        <path
           d="m 1395.473,-224.428 -14.263,-0.032 c 2.527,-36.879 11.432,-69.058 16.242,-105.38 4.924,20.874 1.469,54.246 -0.553,76.068 -1.296,14.015 -4.175,14.682 -1.426,29.344 z"
           id="path181"
           inkscape:connector-curvature="0"
           style="fill:#327c6e" />
        <path
           d="m 1229.201,-224.752 -18.611,-0.039 c 4.841,-23.646 -0.916,-25.818 8.083,-50.384 4.624,-12.633 18.896,-31.911 28.12,-39.461 -6.148,10.97 -10.824,22.627 -13.971,34.442 -5.169,19.377 -6.184,37.4 -3.621,55.442 z"
           id="path183"
           inkscape:connector-curvature="0"
           style="fill:#327c6e" />
      </g>
    </g>
    <g
       id="bluegrass">
      <g
         id="g370">
        <g
           transform="matrix(0.4946,0,0,0.4946,-121.74196,233.11923)"
           id="g236">
          <path
             d="m 1782.949,716.273 29.931,0.061 c -4.593,-59.846 -31.597,-115.689 -78.005,-168.476 -5.623,-6.395 -11.535,-12.71 -17.713,-18.935 5.214,6.494 10.129,13.053 14.743,19.662 38.069,54.564 55.364,110.087 51.043,167.694 v -0.006 z"
             id="path188"
             inkscape:connector-curvature="0"
             style="fill:#355571" />
          <path
             d="m 1895.163,716.494 29.933,0.053 c -4.591,-59.846 -31.597,-115.681 -78.003,-168.474 -5.629,-6.395 -20.108,-6.693 -26.288,-12.913 5.217,6.488 18.7,7.025 23.318,13.64 38.07,54.564 55.362,110.087 51.04,167.694 z"
             id="path190"
             inkscape:connector-curvature="0"
             style="fill:#355571" />
          <path
             d="m 1832.859,716.369 29.899,0.063 c -6.401,-46.644 -0.197,-94.154 18.617,-140.431 9.675,-23.798 22.675,-47.272 38.877,-70.138 -19.306,22.128 -35.615,45.13 -48.702,68.733 -25.445,45.906 -38.616,93.316 -38.691,141.773 z"
             id="path192"
             inkscape:connector-curvature="0"
             style="fill:#355571" />
          <path
             d="M 2187.028,717.055 2157.097,717 c 7.092,-59.826 36.433,-115.559 85.045,-168.162 5.894,-6.377 12.062,-12.666 18.505,-18.864 -5.487,6.466 -10.676,13.012 -15.567,19.6 -40.35,54.414 -59.964,109.866 -58.052,167.481 z"
             id="path194"
             inkscape:connector-curvature="0"
             style="fill:#355571" />
          <path
             d="m 2190.767,717.06 -29.933,-0.055 c 7.096,-59.826 36.437,-115.557 85.048,-168.162 5.892,-6.372 20.382,-6.614 26.823,-12.81 -5.483,6.474 -18.994,6.96 -23.889,13.551 -40.346,54.414 -59.96,109.862 -58.049,167.476 z"
             id="path196"
             inkscape:connector-curvature="0"
             style="fill:#355571" />
          <path
             d="m 2017.411,716.729 -29.897,-0.055 c 8.348,-46.617 4.134,-94.144 -12.745,-140.49 -8.682,-23.836 -20.692,-47.355 -35.937,-70.284 18.376,22.201 33.722,45.26 45.821,68.922 23.517,45.99 34.708,93.45 32.758,141.907 z"
             id="path198"
             inkscape:connector-curvature="0"
             style="fill:#355571" />
          <path
             d="m 2171.046,717.025 29.933,0.055 c -4.591,-59.848 -31.599,-115.681 -78.006,-168.476 -5.625,-6.395 -11.533,-12.71 -17.713,-18.929 5.211,6.49 10.129,13.045 14.743,19.658 38.067,54.562 55.362,110.087 51.043,167.692 z"
             id="path200"
             inkscape:connector-curvature="0"
             style="fill:#355571" />
          <path
             d="m 2081.948,716.851 29.937,0.055 c -4.594,-59.846 -31.599,-115.681 -78.006,-168.474 -5.625,-6.399 -20.104,-6.685 -26.286,-12.911 5.211,6.492 18.702,7.025 23.314,13.638 38.066,54.57 55.363,110.088 51.041,167.692 z"
             id="path202"
             inkscape:connector-curvature="0"
             style="fill:#355571" />
          <path
             d="m 2288.909,717.254 29.899,0.055 c -6.401,-46.636 -0.196,-94.152 18.617,-140.421 9.679,-23.8 22.675,-47.274 38.873,-70.146 -19.302,22.132 -35.611,45.13 -48.698,68.735 -25.444,45.904 -38.616,93.314 -38.691,141.777 z"
             id="path204"
             inkscape:connector-curvature="0"
             style="fill:#355571" />
          <path
             d="m 2027.739,716.75 -29.933,-0.063 c 7.094,-59.82 36.433,-115.551 85.046,-168.156 5.894,-6.377 12.066,-12.664 18.504,-18.862 -5.485,6.468 -10.674,13.004 -15.564,19.6 -40.346,54.413 -59.96,109.861 -58.053,167.481 z"
             id="path206"
             inkscape:connector-curvature="0"
             style="fill:#355571" />
          <path
             d="m 1983.691,716.668 -29.931,-0.063 c 7.098,-59.826 36.435,-115.551 85.047,-168.156 5.892,-6.377 20.382,-6.618 26.821,-12.816 -5.483,6.472 -18.99,6.958 -23.887,13.549 -40.343,54.419 -59.957,109.863 -58.05,167.486 z"
             id="path208"
             inkscape:connector-curvature="0"
             style="fill:#355571" />
          <path
             d="m 2140.326,716.966 -29.903,-0.057 c 8.352,-46.609 4.141,-94.144 -12.741,-140.484 -8.678,-23.834 -20.694,-47.353 -35.937,-70.284 18.378,22.195 33.72,45.254 45.821,68.916 23.522,45.998 34.711,93.456 32.76,141.909 z"
             id="path210"
             inkscape:connector-curvature="0"
             style="fill:#355571" />
          <path
             d="m 2537.216,717.73 29.931,0.057 c -4.591,-59.849 -31.597,-115.681 -78.004,-168.476 -5.627,-6.395 -11.533,-12.711 -17.713,-18.929 5.217,6.488 10.129,13.043 14.747,19.662 38.067,54.562 55.361,110.081 51.039,167.686 z"
             id="path212"
             inkscape:connector-curvature="0"
             style="fill:#355571" />
          <path
             d="m 2440.012,717.546 29.935,0.055 c -4.593,-59.848 -31.595,-115.683 -78.005,-168.476 -5.627,-6.397 -20.108,-6.687 -26.286,-12.913 5.217,6.488 18.702,7.027 23.318,13.64 38.068,54.568 55.36,110.088 51.038,167.694 z"
             id="path214"
             inkscape:connector-curvature="0"
             style="fill:#355571" />
          <path
             d="m 2749.712,718.139 29.901,0.061 c -6.399,-46.642 -0.201,-94.15 18.615,-140.427 9.683,-23.8 22.673,-47.272 38.877,-70.138 -19.306,22.128 -35.617,45.122 -48.7,68.735 -25.442,45.903 -38.618,93.312 -38.693,141.769 z"
             id="path216"
             inkscape:connector-curvature="0"
             style="fill:#355571" />
          <path
             d="m 2629.298,717.911 -29.933,-0.061 c 7.096,-59.826 36.437,-115.551 85.049,-168.156 5.894,-6.378 12.058,-12.672 18.505,-18.862 -5.487,6.466 -10.678,13.002 -15.565,19.598 -40.351,54.413 -59.965,109.861 -58.056,167.481 z"
             id="path218"
             inkscape:connector-curvature="0"
             style="fill:#355571" />
          <path
             d="m 2675.791,718.002 -29.933,-0.061 c 7.096,-59.83 36.433,-115.553 85.05,-168.158 5.89,-6.376 20.378,-6.618 26.819,-12.81 -5.485,6.468 -18.992,6.954 -23.883,13.553 -40.35,54.406 -59.965,109.856 -58.053,167.476 z"
             id="path220"
             inkscape:connector-curvature="0"
             style="fill:#355571" />
          <path
             d="m 2629.796,717.911 -29.901,-0.053 c 8.354,-46.619 4.138,-94.146 -12.737,-140.492 -8.686,-23.834 -20.696,-47.355 -35.941,-70.284 18.378,22.201 33.726,45.26 45.821,68.922 23.523,45.991 34.707,93.451 32.758,141.907 z"
             id="path222"
             inkscape:connector-curvature="0"
             style="fill:#355571" />
          <path
             d="m 2871.917,718.373 29.937,0.061 c -4.597,-59.844 -31.599,-115.687 -78.003,-168.472 -5.629,-6.397 -11.535,-12.711 -17.717,-18.937 5.215,6.494 10.129,13.051 14.747,19.664 38.066,54.562 55.358,110.08 51.036,167.684 z"
             id="path224"
             inkscape:connector-curvature="0"
             style="fill:#355571" />
          <path
             d="m 2704.598,718.056 29.937,0.055 c -4.594,-59.848 -31.599,-115.681 -78.007,-168.474 -5.625,-6.397 -20.108,-6.693 -26.288,-12.913 5.219,6.486 18.704,7.025 23.318,13.638 38.068,54.564 55.362,110.089 51.04,167.694 z"
             id="path226"
             inkscape:connector-curvature="0"
             style="fill:#355571" />
          <path
             d="m 2587.43,717.829 29.901,0.053 c -6.399,-46.635 -0.199,-94.152 18.619,-140.419 9.679,-23.802 22.675,-47.276 38.875,-70.138 -19.308,22.126 -35.617,45.12 -48.7,68.733 -25.448,45.903 -38.616,93.314 -38.695,141.771 z"
             id="path228"
             inkscape:connector-curvature="0"
             style="fill:#355571" />
          <path
             d="m 2436.592,717.538 -29.935,-0.055 c 7.096,-59.826 36.437,-115.557 85.047,-168.162 5.894,-6.378 12.064,-12.666 18.507,-18.864 -5.487,6.468 -10.678,13.004 -15.569,19.602 -40.345,54.41 -59.961,109.859 -58.05,167.479 z"
             id="path230"
             inkscape:connector-curvature="0"
             style="fill:#355571" />
          <path
             d="m 2702.181,718.048 -29.929,-0.055 c 7.096,-59.824 36.431,-115.555 85.045,-168.162 5.894,-6.375 20.384,-6.61 26.823,-12.808 -5.487,6.466 -18.994,6.952 -23.885,13.551 -40.345,54.407 -59.961,109.855 -58.054,167.474 z"
             id="path232"
             inkscape:connector-curvature="0"
             style="fill:#355571" />
          <path
             d="m 2852.934,718.34 -29.897,-0.057 c 8.348,-46.607 4.136,-94.144 -12.745,-140.482 -8.682,-23.839 -20.696,-47.357 -35.937,-70.284 18.378,22.197 33.721,45.254 45.821,68.914 23.518,46.002 34.709,93.454 32.758,141.909 z"
             id="path234"
             inkscape:connector-curvature="0"
             style="fill:#355571" />
        </g>
        <g
           transform="matrix(0.4946,0,0,0.4946,-121.74196,233.11923)"
           id="g286">
          <path
             d="m 1792.039,716.294 23.087,0.039 c -5.856,-40.466 3.321,-97.528 41.693,-131.824 18.516,-16.558 57.065,-17.221 83.557,-28.807 -28.122,9.754 -69.307,8.964 -91.066,24.768 -45.116,32.792 -56.631,90.12 -57.271,135.824 z"
             id="path238"
             inkscape:connector-curvature="0"
             style="fill:#b8ede8" />
          <path
             d="m 1875.205,716.452 17.02,0.034 -11.213,-141.888 z"
             id="path240"
             inkscape:connector-curvature="0"
             style="fill:#b8ede8" />
          <path
             d="m 1832.924,716.369 19.186,0.041 c -8.996,-39.811 -26.073,-76.245 -66.571,-104.277 -18.765,-12.988 -40.196,-24.096 -63.378,-32.95 21.419,10.597 40.346,23.115 56.116,37.009 34.012,29.97 53.046,63.998 54.647,100.177 z"
             id="path242"
             inkscape:connector-curvature="0"
             style="fill:#b8ede8" />
          <path
             d="m 2191.782,717.068 -23.085,-0.049 c 7.546,-40.447 0.762,-97.532 -36.174,-131.974 -17.825,-16.637 -56.343,-17.438 -82.344,-29.127 27.713,9.854 68.924,9.227 90.019,25.115 43.744,32.961 52.862,90.331 51.584,136.035 z"
             id="path244"
             inkscape:connector-curvature="0"
             style="fill:#b8ede8" />
          <path
             d="m 2239.311,717.157 -17.014,-0.034 17.144,-141.835 z"
             id="path246"
             inkscape:connector-curvature="0"
             style="fill:#b8ede8" />
          <path
             d="m 2119.869,716.93 -19.188,-0.042 c 10.656,-39.769 29.261,-76.135 70.926,-104.014 19.308,-12.913 41.201,-23.93 64.754,-32.693 -21.861,10.504 -41.312,22.953 -57.66,36.786 -35.263,29.829 -55.722,63.783 -58.832,99.963 z"
             id="path248"
             inkscape:connector-curvature="0"
             style="fill:#b8ede8" />
          <path
             d="m 2030.892,716.756 23.087,0.039 c -5.858,-40.464 3.319,-97.532 41.692,-131.83 18.516,-16.56 57.065,-17.213 83.553,-28.799 -28.122,9.744 -69.305,8.962 -91.062,24.768 -45.115,32.784 -56.634,90.114 -57.27,135.822 z"
             id="path250"
             inkscape:connector-curvature="0"
             style="fill:#b8ede8" />
          <path
             d="m 2007.256,716.707 17.018,0.036 -11.211,-141.888 z"
             id="path252"
             inkscape:connector-curvature="0"
             style="fill:#b8ede8" />
          <path
             d="m 2206.346,717.094 19.184,0.037 c -8.991,-39.813 -26.073,-76.247 -66.566,-104.279 -18.765,-12.99 -40.2,-24.098 -63.382,-32.944 21.419,10.589 40.346,23.107 56.116,37.003 34.013,29.97 53.05,63.999 54.648,100.183 z"
             id="path254"
             inkscape:connector-curvature="0"
             style="fill:#b8ede8" />
          <path
             d="m 2183.819,717.049 -23.087,-0.043 c 7.548,-40.445 0.76,-97.54 -36.172,-131.984 -17.829,-16.627 -56.345,-17.436 -82.348,-29.117 27.715,9.856 68.926,9.227 90.021,25.113 43.744,32.955 52.862,90.326 51.586,136.031 z"
             id="path256"
             inkscape:connector-curvature="0"
             style="fill:#b8ede8" />
          <path
             d="m 2040.202,716.77 -17.016,-0.028 17.144,-141.841 z"
             id="path258"
             inkscape:connector-curvature="0"
             style="fill:#b8ede8" />
          <path
             d="M 2048.186,716.788 2029,716.75 c 10.658,-39.769 29.257,-76.137 70.926,-104.014 19.308,-12.915 41.203,-23.93 64.754,-32.695 -21.863,10.506 -41.308,22.955 -57.658,36.788 -35.266,29.83 -55.719,63.783 -58.837,99.955 v 0.004 z"
             id="path260"
             inkscape:connector-curvature="0"
             style="fill:#b8ede8" />
          <path
             d="m 2373.852,717.412 23.087,0.049 c -5.856,-40.476 3.321,-97.534 41.69,-131.832 18.516,-16.558 57.07,-17.215 83.557,-28.797 -28.124,9.742 -69.303,8.956 -91.062,24.766 -45.117,32.783 -56.636,90.111 -57.272,135.814 z"
             id="path262"
             inkscape:connector-curvature="0"
             style="fill:#b8ede8" />
          <path
             d="m 2376.97,717.418 17.016,0.038 -11.209,-141.89 z"
             id="path264"
             inkscape:connector-curvature="0"
             style="fill:#b8ede8" />
          <path
             d="m 2797.833,718.237 19.184,0.036 c -8.992,-39.803 -26.073,-76.239 -66.567,-104.277 -18.765,-12.992 -40.2,-24.098 -63.384,-32.944 21.421,10.587 40.348,23.107 56.118,37.001 34.012,29.971 53.05,63.997 54.649,100.184 z"
             id="path266"
             inkscape:connector-curvature="0"
             style="fill:#b8ede8" />
          <path
             d="m 2691.239,718.028 -23.087,-0.041 c 7.548,-40.445 0.762,-97.54 -36.174,-131.984 -17.825,-16.627 -56.343,-17.432 -82.344,-29.123 27.715,9.856 68.924,9.233 90.019,25.119 43.743,32.955 52.861,90.328 51.586,136.029 z"
             id="path268"
             inkscape:connector-curvature="0"
             style="fill:#b8ede8" />
          <path
             d="m 2363.561,717.398 -17.02,-0.034 17.144,-141.835 z"
             id="path270"
             inkscape:connector-curvature="0"
             style="fill:#b8ede8" />
          <path
             d="m 2632.388,717.919 -19.184,-0.042 c 10.656,-39.769 29.259,-76.137 70.926,-104.016 19.306,-12.913 41.203,-23.928 64.756,-32.693 -21.863,10.506 -41.307,22.957 -57.658,36.788 -35.267,29.833 -55.722,63.784 -58.84,99.963 z"
             id="path272"
             inkscape:connector-curvature="0"
             style="fill:#b8ede8" />
          <path
             d="m 2728.842,718.097 23.087,0.049 c -5.858,-40.476 3.319,-97.534 41.688,-131.832 18.52,-16.558 57.069,-17.215 83.561,-28.799 -28.13,9.746 -69.309,8.958 -91.065,24.766 -45.122,32.783 -56.635,90.115 -57.271,135.816 z"
             id="path274"
             inkscape:connector-curvature="0"
             style="fill:#b8ede8" />
          <path
             d="m 2356.684,717.386 17.018,0.028 -11.211,-141.888 z"
             id="path276"
             inkscape:connector-curvature="0"
             style="fill:#b8ede8" />
          <path
             d="m 2909.402,718.451 19.182,0.036 c -8.992,-39.805 -26.071,-76.239 -66.566,-104.277 -18.765,-12.99 -40.196,-24.09 -63.382,-32.944 21.423,10.589 40.346,23.107 56.114,37.011 34.015,29.96 53.052,63.986 54.652,100.174 z"
             id="path278"
             inkscape:connector-curvature="0"
             style="fill:#b8ede8" />
          <path
             d="m 2468.104,717.602 -23.087,-0.049 c 7.548,-40.447 0.756,-97.534 -36.176,-131.976 -17.823,-16.635 -56.341,-17.436 -82.346,-29.125 27.715,9.854 68.928,9.229 90.023,25.113 43.742,32.96 52.862,90.332 51.586,136.037 z"
             id="path280"
             inkscape:connector-curvature="0"
             style="fill:#b8ede8" />
          <path
             d="m 2515.698,717.69 -17.016,-0.037 17.144,-141.831 z"
             id="path282"
             inkscape:connector-curvature="0"
             style="fill:#b8ede8" />
          <path
             d="m 2561.393,717.781 -19.186,-0.041 c 10.658,-39.769 29.253,-76.135 70.924,-104.006 19.308,-12.923 41.203,-23.938 64.754,-32.703 -21.859,10.506 -41.307,22.957 -57.658,36.788 -35.263,29.836 -55.72,63.782 -58.834,99.962 z"
             id="path284"
             inkscape:connector-curvature="0"
             style="fill:#b8ede8" />
        </g>
        <g
           transform="matrix(0.4946,0,0,0.4946,-121.74196,233.11923)"
           id="g368">
          <path
             d="m 1748.765,716.211 16.728,0.034 c -3.193,-6.786 -0.138,-14.046 1.12,-23.328 1.352,-10.141 14.5,-25.232 22.323,-33.518 -10.22,2.989 -20.398,10.346 -27.966,21.571 -6.903,10.273 -11.421,20.743 -12.205,35.241 z"
             id="path288"
             inkscape:connector-curvature="0"
             style="fill:#6cb3aa" />
          <path
             d="m 1795.415,716.3 15.922,0.028 c 0.879,-24.325 -11.235,-36.79 -27.014,-48.317 -3.538,-3.361 -5.983,-9.531 -5.655,-16.005 0.296,-6.48 3.459,-13.535 8.854,-18.017 -6.31,2.275 -12.172,8.196 -15.057,16.364 -2.855,8.176 -2.589,18.108 1.524,26.675 3.102,6.129 6.674,6.512 10.49,10.238 9.712,4.764 13.029,17.849 10.936,29.034 z"
             id="path290"
             inkscape:connector-curvature="0"
             style="fill:#6cb3aa" />
          <path
             d="m 1869.062,716.446 16.425,0.028 c -0.077,-10.299 1.037,-19.849 3.467,-30.46 3.244,-14.153 8.82,-28.246 16.656,-41.217 -11.687,8.198 -14.228,18.22 -23.425,31.421 -6.889,9.899 -8.443,28.068 -13.123,40.228 z"
             id="path292"
             inkscape:connector-curvature="0"
             style="fill:#6cb3aa" />
          <path
             d="m 1823.832,716.356 12.498,0.02 c -0.871,-32.32 -7.487,-60.539 -10.364,-92.388 -5.08,18.281 -3.28,47.531 -2.306,66.648 0.622,12.287 3.116,12.882 0.172,25.72 z"
             id="path294"
             inkscape:connector-curvature="0"
             style="fill:#6cb3aa" />
          <path
             d="m 1844.198,716.395 16.299,0.03 c -3.37,-20.736 1.751,-22.623 -5.23,-44.174 -3.589,-11.087 -15.391,-28.025 -23.194,-34.673 4.982,9.635 8.652,19.865 10.98,30.227 3.821,16.997 4.048,32.789 1.145,48.59 z"
             id="path296"
             inkscape:connector-curvature="0"
             style="fill:#6cb3aa" />
          <path
             d="m 2251.17,717.177 -16.729,-0.028 c 3.477,-6.776 0.727,-14.04 -0.142,-23.328 -0.928,-10.147 -13.44,-25.285 -20.917,-33.605 10.089,3.027 19.966,10.421 27.062,21.679 6.469,10.303 10.548,20.786 10.726,35.282 z"
             id="path298"
             inkscape:connector-curvature="0"
             style="fill:#6cb3aa" />
          <path
             d="m 2027.538,716.75 -15.92,-0.038 c 0.136,-24.323 12.769,-36.737 29.028,-48.206 3.682,-3.347 6.381,-9.509 6.326,-15.983 -0.024,-6.48 -2.891,-13.543 -8.099,-18.052 6.216,2.304 11.831,8.243 14.372,16.422 2.51,8.188 1.83,18.114 -2.64,26.667 -3.36,6.115 -6.946,6.488 -10.923,10.202 -9.907,4.717 -13.769,17.797 -12.144,28.988 z"
             id="path300"
             inkscape:connector-curvature="0"
             style="fill:#6cb3aa" />
          <path
             d="m 2193.452,717.068 -16.425,-0.037 c 0.503,-10.291 -0.205,-19.849 -2.196,-30.472 -2.65,-14.157 -7.633,-28.264 -14.929,-41.268 11.341,8.237 13.46,18.272 22.104,31.51 6.483,9.918 7.273,28.093 11.446,40.267 z"
             id="path302"
             inkscape:connector-curvature="0"
             style="fill:#6cb3aa" />
          <path
             d="m 2204.79,717.088 -12.498,-0.02 c 2.217,-32.314 10.018,-60.513 14.228,-92.345 4.316,18.299 1.287,47.533 -0.48,66.649 -1.14,12.284 -3.657,12.872 -1.25,25.716 z"
             id="path304"
             inkscape:connector-curvature="0"
             style="fill:#6cb3aa" />
          <path
             d="m 2041.799,716.778 -16.305,-0.036 c 4.239,-20.72 -0.804,-22.629 7.084,-44.153 4.05,-11.067 16.558,-27.956 24.639,-34.575 -5.384,9.614 -9.481,19.829 -12.246,30.175 -4.526,16.988 -5.417,32.778 -3.172,48.589 z"
             id="path306"
             inkscape:connector-curvature="0"
             style="fill:#6cb3aa" />
          <path
             d="m 2051.505,716.788 16.728,0.037 c -3.193,-6.786 -0.134,-14.038 1.122,-23.322 1.35,-10.147 14.498,-25.229 22.323,-33.524 -10.22,2.993 -20.4,10.348 -27.968,21.581 -6.901,10.269 -11.419,20.741 -12.205,35.228 z"
             id="path308"
             inkscape:connector-curvature="0"
             style="fill:#6cb3aa" />
          <path
             d="m 2228.744,717.137 15.924,0.028 c 0.875,-24.325 -11.239,-36.79 -27.014,-48.317 -3.54,-3.365 -5.983,-9.531 -5.659,-16.005 0.298,-6.482 3.457,-13.533 8.857,-18.019 -6.316,2.277 -12.176,8.198 -15.061,16.364 -2.849,8.176 -2.588,18.108 1.526,26.677 3.102,6.129 6.674,6.51 10.496,10.236 9.711,4.765 13.022,17.851 10.931,29.036 z"
             id="path310"
             inkscape:connector-curvature="0"
             style="fill:#6cb3aa" />
          <path
             d="m 2288.048,717.246 16.419,0.037 c -0.073,-10.301 1.041,-19.851 3.475,-30.47 3.24,-14.143 8.814,-28.239 16.649,-41.205 -11.681,8.194 -14.218,18.216 -23.419,31.417 -6.892,9.901 -8.446,28.07 -13.124,40.221 z"
             id="path312"
             inkscape:connector-curvature="0"
             style="fill:#6cb3aa" />
          <path
             d="m 2162.997,717.013 12.496,0.02 c -0.867,-32.32 -7.489,-60.544 -10.364,-92.386 -5.076,18.279 -3.278,47.521 -2.308,66.644 0.626,12.288 3.119,12.884 0.176,25.722 z"
             id="path314"
             inkscape:connector-curvature="0"
             style="fill:#6cb3aa" />
          <path
             d="m 1975.55,716.646 16.307,0.036 c -3.376,-20.744 1.743,-22.625 -5.236,-44.174 -3.592,-11.089 -15.389,-28.023 -23.196,-34.671 4.984,9.633 8.656,19.863 10.98,30.223 3.825,16.991 4.05,32.788 1.145,48.586 z"
             id="path316"
             inkscape:connector-curvature="0"
             style="fill:#6cb3aa" />
          <path
             d="m 2267.099,717.213 -16.728,-0.036 c 3.475,-6.77 0.723,-14.04 -0.146,-23.328 -0.926,-10.147 -13.442,-25.279 -20.917,-33.599 10.089,3.029 19.966,10.423 27.064,21.676 6.469,10.296 10.546,20.79 10.727,35.287 z"
             id="path318"
             inkscape:connector-curvature="0"
             style="fill:#6cb3aa" />
          <path
             d="m 1939.929,716.577 -15.922,-0.03 c 0.138,-24.331 12.777,-36.745 29.03,-48.214 3.678,-3.345 6.383,-9.507 6.326,-15.975 -0.026,-6.48 -2.893,-13.551 -8.097,-18.052 6.216,2.306 11.829,8.237 14.37,16.421 2.51,8.18 1.828,18.112 -2.64,26.661 -3.359,6.121 -6.948,6.488 -10.923,10.202 -9.907,4.723 -13.769,17.803 -12.144,28.987 z"
             id="path320"
             inkscape:connector-curvature="0"
             style="fill:#6cb3aa" />
          <path
             d="m 1954.518,716.604 -16.421,-0.028 c 0.505,-10.299 -0.211,-19.857 -2.198,-30.474 -2.648,-14.165 -7.633,-28.274 -14.929,-41.276 11.341,8.243 13.46,18.272 22.106,31.51 6.481,9.919 7.273,28.096 11.442,40.268 z"
             id="path322"
             inkscape:connector-curvature="0"
             style="fill:#6cb3aa" />
          <path
             d="m 2157,716.999 -12.496,-0.028 c 2.217,-32.314 10.018,-60.505 14.23,-92.341 4.31,18.293 1.287,47.537 -0.486,66.651 -1.137,12.288 -3.651,12.867 -1.248,25.718 z"
             id="path324"
             inkscape:connector-curvature="0"
             style="fill:#6cb3aa" />
          <path
             d="m 2264.803,717.207 -16.303,-0.038 c 4.235,-20.72 -0.802,-22.621 7.076,-44.147 4.059,-11.073 16.563,-27.96 24.643,-34.578 -5.386,9.614 -9.481,19.825 -12.244,30.181 -4.528,16.981 -5.419,32.77 -3.172,48.582 z"
             id="path326"
             inkscape:connector-curvature="0"
             style="fill:#6cb3aa" />
          <path
             d="m 2363.257,717.392 16.724,0.036 c -3.193,-6.786 -0.138,-14.038 1.119,-23.32 1.353,-10.147 14.5,-25.231 22.325,-33.526 -10.218,2.997 -20.404,10.348 -27.97,21.575 -6.901,10.276 -11.412,20.745 -12.198,35.235 z"
             id="path328"
             inkscape:connector-curvature="0"
             style="fill:#6cb3aa" />
          <path
             d="m 2550.058,717.761 15.922,0.028 c 0.877,-24.327 -11.235,-36.79 -27.014,-48.317 -3.538,-3.362 -5.983,-9.533 -5.653,-16.005 0.29,-6.482 3.453,-13.537 8.849,-18.027 -6.31,2.282 -12.172,8.204 -15.059,16.372 -2.849,8.174 -2.584,18.1 1.526,26.669 3.1,6.135 6.674,6.518 10.494,10.242 9.71,4.758 13.025,17.853 10.932,29.038 v 0 z"
             id="path330"
             inkscape:connector-curvature="0"
             style="fill:#6cb3aa" />
          <path
             d="m 2304.363,717.284 16.425,0.034 c -0.075,-10.297 1.039,-19.855 3.473,-30.466 3.24,-14.153 8.814,-28.239 16.651,-41.217 -11.683,8.198 -14.22,18.224 -23.419,31.429 -6.892,9.89 -8.446,28.059 -13.13,40.22 z"
             id="path332"
             inkscape:connector-curvature="0"
             style="fill:#6cb3aa" />
          <path
             d="m 2793.622,718.229 12.502,0.022 c -0.869,-32.32 -7.493,-60.546 -10.37,-92.388 -5.076,18.277 -3.278,47.523 -2.302,66.646 0.62,12.288 3.116,12.884 0.17,25.72 z"
             id="path334"
             inkscape:connector-curvature="0"
             style="fill:#6cb3aa" />
          <path
             d="m 2746.608,718.131 16.307,0.038 c -3.371,-20.736 1.745,-22.623 -5.23,-44.174 -3.595,-11.086 -15.395,-28.027 -23.198,-34.671 4.983,9.635 8.652,19.863 10.982,30.225 3.817,16.99 4.05,32.788 1.139,48.582 z"
             id="path336"
             inkscape:connector-curvature="0"
             style="fill:#6cb3aa" />
          <path
             d="m 2635.512,717.919 -16.724,-0.03 c 3.477,-6.77 0.723,-14.04 -0.142,-23.328 -0.928,-10.147 -13.446,-25.287 -20.921,-33.605 10.094,3.035 19.966,10.429 27.064,21.681 6.468,10.298 10.545,20.784 10.723,35.282 z"
             id="path338"
             inkscape:connector-curvature="0"
             style="fill:#6cb3aa" />
          <path
             d="m 2509.566,717.677 -15.922,-0.03 c 0.138,-24.331 12.775,-36.745 29.032,-48.212 3.68,-3.349 6.384,-9.511 6.324,-15.977 -0.024,-6.48 -2.891,-13.549 -8.097,-18.058 6.216,2.312 11.829,8.243 14.37,16.427 2.51,8.18 1.83,18.114 -2.638,26.661 -3.359,6.121 -6.946,6.488 -10.923,10.202 -9.907,4.722 -13.769,17.803 -12.146,28.987 z"
             id="path340"
             inkscape:connector-curvature="0"
             style="fill:#6cb3aa" />
          <path
             d="m 2876.965,718.387 -16.42,-0.034 c 0.506,-10.291 -0.209,-19.849 -2.199,-30.472 -2.648,-14.161 -7.629,-28.274 -14.925,-41.278 11.337,8.243 13.458,18.279 22.106,31.516 6.476,9.921 7.27,28.096 11.438,40.268 z"
             id="path342"
             inkscape:connector-curvature="0"
             style="fill:#6cb3aa" />
          <path
             d="m 2671.704,717.992 -12.5,-0.028 c 2.221,-32.312 10.022,-60.511 14.23,-92.345 4.314,18.299 1.287,47.545 -0.482,66.653 -1.138,12.29 -3.655,12.871 -1.248,25.72 z"
             id="path344"
             inkscape:connector-curvature="0"
             style="fill:#6cb3aa" />
          <path
             d="m 2404.296,717.473 -16.305,-0.034 c 4.239,-20.722 -0.802,-22.621 7.082,-44.145 4.054,-11.077 16.558,-27.964 24.639,-34.583 -5.386,9.616 -9.481,19.827 -12.243,30.181 -4.527,16.984 -5.418,32.774 -3.173,48.581 z"
             id="path346"
             inkscape:connector-curvature="0"
             style="fill:#6cb3aa" />
          <path
             d="m 2799.385,718.237 16.724,0.036 c -3.193,-6.786 -0.138,-14.04 1.117,-23.324 1.353,-10.147 14.502,-25.229 22.325,-33.522 -10.22,2.987 -20.4,10.346 -27.962,21.573 -6.902,10.268 -11.418,20.739 -12.204,35.237 z"
             id="path348"
             inkscape:connector-curvature="0"
             style="fill:#6cb3aa" />
          <path
             d="m 2763.05,718.168 15.924,0.028 c 0.875,-24.325 -11.239,-36.788 -27.016,-48.317 -3.536,-3.362 -5.981,-9.533 -5.657,-16.007 0.3,-6.478 3.457,-13.535 8.853,-18.015 -6.31,2.275 -12.172,8.194 -15.055,16.362 -2.853,8.176 -2.588,18.108 1.524,26.677 3.102,6.129 6.672,6.508 10.492,10.237 9.714,4.765 13.027,17.856 10.935,29.035 z"
             id="path350"
             inkscape:connector-curvature="0"
             style="fill:#6cb3aa" />
          <path
             d="m 2791.205,718.221 16.426,0.03 c -0.075,-10.291 1.041,-19.849 3.473,-30.46 3.242,-14.153 8.814,-28.239 16.651,-41.215 -11.681,8.198 -14.22,18.222 -23.421,31.421 -6.892,9.897 -8.448,28.066 -13.129,40.224 z"
             id="path352"
             inkscape:connector-curvature="0"
             style="fill:#6cb3aa" />
          <path
             d="m 2864.619,718.36 12.496,0.028 c -0.861,-32.32 -7.483,-60.543 -10.362,-92.394 -5.084,18.287 -3.276,47.531 -2.308,66.655 0.624,12.286 3.114,12.881 0.174,25.711 z"
             id="path354"
             inkscape:connector-curvature="0"
             style="fill:#6cb3aa" />
          <path
             d="m 2878.458,718.387 16.309,0.037 c -3.37,-20.736 1.75,-22.625 -5.234,-44.174 -3.592,-11.089 -15.385,-28.025 -23.194,-34.671 4.981,9.633 8.656,19.863 10.982,30.225 3.82,16.992 4.049,32.788 1.137,48.583 z"
             id="path356"
             inkscape:connector-curvature="0"
             style="fill:#6cb3aa" />
          <path
             d="m 2757.223,718.154 -16.728,-0.03 c 3.477,-6.77 0.727,-14.038 -0.138,-23.328 -0.928,-10.147 -13.448,-25.287 -20.925,-33.605 10.097,3.035 19.969,10.429 27.064,21.681 6.472,10.3 10.549,20.784 10.727,35.282 z"
             id="path358"
             inkscape:connector-curvature="0"
             style="fill:#6cb3aa" />
          <path
             d="m 2844.27,718.326 -15.92,-0.036 c 0.134,-24.323 12.773,-36.741 29.028,-48.206 3.682,-3.349 6.385,-9.511 6.324,-15.983 -0.026,-6.482 -2.891,-13.551 -8.097,-18.05 6.218,2.3 11.831,8.241 14.372,16.418 2.511,8.188 1.832,18.114 -2.64,26.669 -3.354,6.115 -6.944,6.486 -10.919,10.202 -9.911,4.716 -13.771,17.795 -12.148,28.986 z"
             id="path360"
             inkscape:connector-curvature="0"
             style="fill:#6cb3aa" />
          <path
             d="m 2473.374,717.607 -16.423,-0.03 c 0.503,-10.297 -0.209,-19.855 -2.2,-30.478 -2.646,-14.161 -7.633,-28.268 -14.925,-41.27 11.337,8.235 13.456,18.272 22.104,31.508 6.48,9.921 7.274,28.098 11.444,40.27 z"
             id="path362"
             inkscape:connector-curvature="0"
             style="fill:#6cb3aa" />
          <path
             d="m 2722.415,718.093 -12.496,-0.03 c 2.219,-32.312 10.018,-60.513 14.23,-92.341 4.316,18.293 1.287,47.537 -0.486,66.651 -1.137,12.286 -3.654,12.868 -1.248,25.72 z"
             id="path364"
             inkscape:connector-curvature="0"
             style="fill:#6cb3aa" />
          <path
             d="m 2576.721,717.805 -16.305,-0.034 c 4.241,-20.722 -0.802,-22.621 7.082,-44.145 4.052,-11.075 16.556,-27.964 24.637,-34.582 -5.384,9.616 -9.483,19.827 -12.24,30.181 -4.529,16.983 -5.421,32.772 -3.174,48.58 z"
             id="path366"
             inkscape:connector-curvature="0"
             style="fill:#6cb3aa" />
        </g>
      </g>
    </g>
  </defs>
  <mask
     maskUnits="userSpaceOnUse"
     x="-1883.902"
     y="-817.415"
     width="3670.822"
     height="1620.915"
     id="SVGID_1_">
    <g
       id="g376"
       style="filter:url(#OpacityMaskFilter)">
      <rect
         id="filter"
         width="1280"
         height="800"
         x="0"
         y="0"
         style="fill:#ffffff" />
    </g>
  </mask>
  <g
     mask="url(#SVGID_1_)"
     id="g3532"
     transform="translate(0,-600)">
    <g
       id="grass-goup-1"
       transform="translate(0,603)">
      <use
         xlink:href="#grass"
         id="use1827"
         x="0"
         y="0"
         width="100%"
         height="100%" />
      <use
         xlink:href="#grass"
         transform="translate(650)"
         id="use1829"
         x="0"
         y="0"
         width="100%"
         height="100%" />
    </g>
    <g
       id="grass-goup-2"
       transform="translate(0,603)">
      <use
         xlink:href="#grass"
         transform="translate(-75,40)"
         id="use3523"
         x="0"
         y="0"
         width="100%"
         height="100%" />
      <use
         xlink:href="#grass"
         transform="translate(575,40)"
         id="use3525"
         x="0"
         y="0"
         width="100%"
         height="100%" />
      <use
         xlink:href="#grass"
         transform="translate(-20,80)"
         id="use3527"
         x="0"
         y="0"
         width="100%"
         height="100%" />
      <use
         xlink:href="#grass"
         transform="translate(630,80)"
         id="use3529"
         x="0"
         y="0"
         width="100%"
         height="100%" />
    </g>
  </g>
</svg>
