<?xml version="1.0" encoding="utf-8"?>
<!DOCTYPE svg PUBLIC "-//W3C//DTD SVG 1.1//EN" "http://www.w3.org/Graphics/SVG/1.1/DTD/svg11.dtd">
<svg version="1.1" id="Layer_4" xmlns="http://www.w3.org/2000/svg" xmlns:xlink="http://www.w3.org/1999/xlink" viewBox="0 0 685.034 122.32">
<g>
	<g>
		<g transform="matrix(.4946,0,0,.4946,-121.74196,233.11923)">
			<path fill="#225500" d="M323.306-226.501l34.159,0.067c-5.244-68.3-36.059-132.03-89.026-192.271
				c-6.416-7.302-13.161-14.506-20.213-21.608c5.952,7.41,11.557,14.893,16.827,22.438c43.446,62.27,63.184,125.637,58.253,191.382
				V-226.501z"/>
			<path fill="#355571" d="M451.371-226.248l34.16,0.059c-5.242-68.3-36.061-132.021-89.024-192.269
				c-6.423-7.302-22.943-7.643-29.996-14.739c5.951,7.404,21.342,8.022,26.61,15.567
				C436.569-355.36,456.302-291.993,451.371-226.248L451.371-226.248z"/>
			<path fill="#225500" d="M380.262-226.394l34.126,0.071c-7.307-53.231-0.227-107.45,21.245-160.263
				c11.045-27.159,25.881-53.95,44.368-80.046c-22.031,25.251-40.646,51.504-55.579,78.445
				C395.384-335.799,380.349-281.691,380.262-226.394z"/>
			<path fill="#225500" d="M784.46-225.609l-34.159-0.063c8.099-68.28,41.579-131.882,97.057-191.917
				c6.729-7.278,13.766-14.455,21.119-21.527c-6.259,7.379-12.182,14.848-17.762,22.371
				C804.667-354.65,782.28-291.362,784.46-225.609L784.46-225.609z"/>
			<path fill="#225500" d="M788.725-225.605l-34.155-0.063c8.099-68.276,41.583-131.878,97.061-191.915
				c6.721-7.27,23.259-7.544,30.608-14.619c-6.259,7.388-21.676,7.943-27.259,15.464
				C808.935-354.636,786.549-291.354,788.725-225.605L788.725-225.605z"/>
			<path fill="#225500" d="M590.888-225.984l-34.122-0.063c9.525-53.2,4.717-107.442-14.544-160.332
				c-9.906-27.202-23.616-54.047-41.011-80.214c20.969,25.338,38.482,51.656,52.287,78.66
				C580.344-335.443,593.113-281.284,590.888-225.984z"/>
			<path fill="#225500" d="M766.224-225.644l34.158,0.063c-5.24-68.3-36.057-132.021-89.025-192.269
				c-6.421-7.302-13.16-14.51-20.212-21.604c5.947,7.404,11.558,14.885,16.822,22.432
				C751.411-354.75,771.148-291.385,766.224-225.644L766.224-225.644z"/>
			<path fill="#225500" d="M664.539-225.842l34.164,0.067c-5.242-68.304-36.061-132.024-89.026-192.275
				c-6.421-7.302-22.947-7.631-29.998-14.735c5.949,7.41,21.344,8.018,26.606,15.565
				C649.73-354.944,669.469-291.583,664.539-225.842L664.539-225.842z"/>
			<path fill="#355571" d="M900.735-225.383l34.118,0.063c-7.305-53.223-0.221-107.45,21.249-160.255
				c11.045-27.161,25.877-53.952,44.366-80.054c-22.035,25.261-40.642,51.505-55.581,78.445
				C915.852-334.8,900.822-280.692,900.735-225.383z"/>
			<path fill="#355571" d="M602.673-225.96l-34.166-0.067c8.099-68.269,41.582-131.874,97.062-191.91
				c6.723-7.28,13.77-14.453,21.119-21.527c-6.259,7.382-12.182,14.842-17.764,22.372
				C622.878-354.999,600.492-291.717,602.673-225.96L602.673-225.96z"/>
			<path fill="#225500" d="M552.404-226.051l-34.158-0.071c8.099-68.28,41.578-131.874,97.06-191.91
				c6.725-7.278,23.261-7.554,30.61-14.627c-6.259,7.386-21.677,7.939-27.259,15.46
				C572.609-355.092,550.224-291.812,552.404-226.051L552.404-226.051z"/>
			<path fill="#225500" d="M731.161-225.715l-34.126-0.059c9.533-53.196,4.725-107.446-14.54-160.33
				c-9.906-27.2-23.614-54.045-41.011-80.21c20.973,25.326,38.482,51.644,52.291,78.646
				C720.615-335.167,733.39-281.008,731.161-225.715z"/>
			<path fill="#225500" d="M1184.112-224.835l34.162,0.059c-5.24-68.3-36.061-132.023-89.024-192.269
				c-6.421-7.303-13.162-14.508-20.214-21.604c5.955,7.404,11.558,14.885,16.83,22.44
				C1169.308-353.941,1189.048-290.58,1184.112-224.835L1184.112-224.835z"/>
			<path fill="#225500" d="M1073.18-225.052l34.162,0.063c-5.24-68.3-36.057-132.021-89.024-192.269
				c-6.421-7.303-22.947-7.633-30-14.741c5.955,7.406,21.344,8.024,26.616,15.569
				C1058.375-354.152,1078.112-290.793,1073.18-225.052L1073.18-225.052z"/>
			<path fill="#225500" d="M1426.626-224.369l34.122,0.067c-7.302-53.231-0.229-107.45,21.249-160.265
				c11.045-27.161,25.877-53.948,44.366-80.044c-22.035,25.249-40.646,51.494-55.581,78.443
				C1441.742-333.777,1426.709-279.673,1426.626-224.369z"/>
			<path fill="#225500" d="M1289.204-224.633l-34.162-0.071c8.103-68.276,41.586-131.872,97.064-191.908
				c6.725-7.278,13.766-14.459,21.119-21.525c-6.263,7.379-12.186,14.84-17.766,22.371
				C1309.411-353.672,1287.024-290.394,1289.204-224.633L1289.204-224.633z"/>
			<path fill="#225500" d="M1342.262-224.527l-34.162-0.075c8.099-68.276,41.582-131.87,97.064-191.908
				c6.721-7.278,23.263-7.554,30.612-14.619c-6.263,7.38-21.679,7.935-27.263,15.464
				C1362.468-353.57,1340.086-290.288,1342.262-224.527L1342.262-224.527z"/>
			<path fill="#225500" d="M1289.773-224.633l-34.126-0.063c9.536-53.2,4.723-107.442-14.54-160.334
				c-9.908-27.202-23.618-54.045-41.013-80.21c20.976,25.336,38.486,51.652,52.291,78.654
				C1279.233-334.097,1291.996-279.934,1289.773-224.633z"/>
			<path fill="#225500" d="M1566.093-224.104l34.166,0.071c-5.244-68.296-36.061-132.03-89.024-192.273
				c-6.425-7.3-13.166-14.506-20.214-21.61c5.947,7.41,11.558,14.895,16.826,22.442
				C1551.292-353.206,1571.025-289.845,1566.093-224.104L1566.093-224.104z"/>
			<path fill="#355571" d="M1375.14-224.467l34.166,0.063c-5.244-68.3-36.061-132.021-89.024-192.271
				c-6.421-7.3-22.947-7.639-30-14.737c5.951,7.404,21.34,8.018,26.612,15.567C1360.336-353.578,1380.068-290.213,1375.14-224.467
				L1375.14-224.467z"/>
			<path fill="#225500" d="M1241.422-224.728l34.122,0.063c-7.302-53.223-0.225-107.45,21.245-160.257
				c11.049-27.159,25.877-53.948,44.374-80.046c-22.035,25.253-40.65,51.498-55.585,78.447
				C1256.539-334.136,1241.509-280.028,1241.422-224.728z"/>
			<path fill="#225500" d="M1069.278-225.06l-34.162-0.063c8.095-68.276,41.582-131.878,97.06-191.915
				c6.721-7.276,13.766-14.453,21.119-21.523c-6.263,7.379-12.182,14.84-17.766,22.367
				C1089.485-354.097,1067.098-290.817,1069.278-225.06L1069.278-225.06z"/>
			<path fill="#225500" d="M1372.384-224.475l-34.158-0.063c8.095-68.276,41.578-131.88,97.056-191.915
				c6.729-7.278,23.263-7.544,30.612-14.617c-6.259,7.379-21.672,7.931-27.259,15.46
				C1392.59-353.512,1370.204-290.236,1372.384-224.475L1372.384-224.475z"/>
			<path fill="#225500" d="M1544.425-224.144l-34.122-0.063c9.533-53.192,4.723-107.442-14.54-160.328
				c-9.908-27.206-23.618-54.045-41.013-80.212c20.973,25.33,38.482,51.648,52.291,78.65
				C1533.886-333.599,1546.653-279.444,1544.425-224.144z"/>
		</g>
		<g transform="matrix(.4946,0,0,.4946,-121.74196,233.11923)">
			<path fill="#ABE35D" d="M333.681-226.481l26.348,0.047c-6.685-46.182,3.789-111.3,47.58-150.442
				c21.136-18.899,65.127-19.656,95.358-32.877c-32.093,11.13-79.092,10.23-103.923,28.264
				C347.549-344.065,334.406-278.638,333.681-226.481z"/>
			<path fill="#ABE35D" d="M428.596-226.3l19.419,0.039L435.22-388.188L428.596-226.3z"/>
			<path fill="#ABE35D" d="M380.339-226.394l21.897,0.047c-10.267-45.432-29.757-87.01-75.975-119.005
				c-21.415-14.824-45.875-27.5-72.332-37.603c24.446,12.094,46.045,26.379,64.039,42.237
				C356.789-306.518,378.512-267.684,380.339-226.394L380.339-226.394z"/>
			<path fill="#ABE35D" d="M789.89-225.593l-26.352-0.055c8.617-46.163,0.874-111.315-41.278-150.622
				c-20.345-18.984-64.304-19.9-93.978-33.238c31.631,11.246,78.658,10.532,102.734,28.659
				C780.942-343.229,791.343-277.754,789.89-225.593L789.89-225.593z"/>
			<path fill="#ABE35D" d="M844.128-225.494l-19.413-0.039L844.278-387.4L844.128-225.494z"/>
			<path fill="#ABE35D" d="M707.815-225.751l-21.899-0.051c12.167-45.385,33.394-86.888,80.948-118.705
				c22.035-14.737,47.019-27.311,73.9-37.311c-24.949,11.989-47.146,26.199-65.804,41.983
				C734.713-305.791,711.365-267.04,707.815-225.751L707.815-225.751z"/>
			<path fill="#ABE35D" d="M606.271-225.948l26.347,0.043c-6.685-46.182,3.791-111.308,47.58-150.452
				c21.136-18.897,65.127-19.648,95.361-32.867c-32.096,11.118-79.095,10.226-103.928,28.266
				C620.141-343.543,606.997-278.117,606.271-225.948z"/>
			<path fill="#ABE35D" d="M579.296-226.007l19.421,0.039l-12.794-161.928L579.296-226.007z"/>
			<path fill="#ABE35D" d="M806.507-225.565l21.897,0.043c-10.259-45.436-29.751-87.018-75.974-119.009
				c-21.413-14.824-45.876-27.502-72.332-37.597c24.446,12.088,46.044,26.373,64.043,42.232
				C782.959-305.696,804.682-266.859,806.507-225.565L806.507-225.565z"/>
			<path fill="#ABE35D" d="M780.799-225.62l-26.348-0.047c8.613-46.159,0.869-111.319-41.282-150.626
				c-20.345-18.976-64.302-19.898-93.98-33.23c31.631,11.246,78.662,10.526,102.737,28.661
				C771.847-343.251,782.256-277.777,780.799-225.62z"/>
			<path fill="#ABE35D" d="M616.895-225.936l-19.417-0.032l19.563-161.874L616.895-225.936z"/>
			<path fill="#ABE35D" d="M626.007-225.913l-21.895-0.047c12.163-45.385,33.39-86.888,80.945-118.705
				c22.033-14.737,47.02-27.311,73.9-37.311c-24.951,11.989-47.142,26.199-65.802,41.985
				c-40.245,34.042-63.591,72.793-67.147,114.071V-225.913z"/>
			<path fill="#ABE35D" d="M997.677-225.202l26.343,0.055c-6.682-46.19,3.795-111.312,47.584-150.452
				c21.135-18.897,65.129-19.646,95.362-32.867c-32.101,11.12-79.096,10.222-103.927,28.264
				C1011.545-342.787,998.399-277.359,997.677-225.202z"/>
			<path fill="#ABE35D" d="M1001.235-225.194l19.417,0.039l-12.79-161.93L1001.235-225.194z"/>
			<path fill="#ABE35D" d="M1481.539-224.262l21.897,0.039c-10.259-45.424-29.751-87.006-75.973-119.007
				c-21.411-14.822-45.87-27.5-72.332-37.594c24.444,12.082,46.048,26.371,64.043,42.229
				C1457.996-304.393,1479.723-265.56,1481.539-224.262L1481.539-224.262z"/>
			<path fill="#ABE35D" d="M1359.897-224.495l-26.351-0.051c8.613-46.159,0.869-111.319-41.282-150.626
				c-20.345-18.974-64.304-19.898-93.98-33.238c31.631,11.244,78.662,10.538,102.734,28.665
				C1350.941-342.13,1361.347-276.656,1359.897-224.495z"/>
			<path fill="#ABE35D" d="M985.925-225.218l-19.417-0.036l19.563-161.87L985.925-225.218L985.925-225.218z"/>
			<path fill="#ABE35D" d="M1292.731-224.625l-21.897-0.047c12.163-45.385,33.396-86.888,80.948-118.705
				c22.035-14.737,47.02-27.311,73.896-37.313c-24.945,11.991-47.138,26.199-65.797,41.986
				C1319.63-304.662,1296.285-265.915,1292.731-224.625L1292.731-224.625z"/>
			<path fill="#ABE35D" d="M1402.806-224.42l26.351,0.055c-6.689-46.19,3.787-111.308,47.58-150.452
				c21.131-18.897,65.129-19.646,95.362-32.869c-32.101,11.122-79.1,10.224-103.931,28.268
				C1416.675-342.005,1403.537-276.577,1402.806-224.42L1402.806-224.42z"/>
			<path fill="#ABE35D" d="M978.082-225.233l19.421,0.032l-12.794-161.93L978.082-225.233z"/>
			<path fill="#ABE35D" d="M1608.871-224.017l21.893,0.039c-10.263-45.424-29.751-87.006-75.969-119.007
				c-21.419-14.822-45.874-27.49-72.336-37.595c24.448,12.086,46.044,26.373,64.039,42.238
				C1585.32-304.148,1607.043-265.315,1608.871-224.017L1608.871-224.017z"/>
			<path fill="#ABE35D" d="M1105.237-224.989l-26.347-0.055c8.617-46.159,0.865-111.312-41.282-150.62
				c-20.341-18.982-64.3-19.897-93.98-33.238c31.631,11.25,78.666,10.534,102.742,28.661
				C1096.289-342.621,1106.698-277.146,1105.237-224.989z"/>
			<path fill="#ABE35D" d="M1159.554-224.886l-19.417-0.039l19.567-161.866L1159.554-224.886z"/>
			<path fill="#ABE35D" d="M1211.707-224.783l-21.897-0.047c12.163-45.385,33.392-86.888,80.944-118.697
				c22.035-14.745,47.02-27.318,73.9-37.321c-24.945,11.991-47.142,26.199-65.804,41.986
				C1238.607-304.812,1215.261-266.073,1211.707-224.783L1211.707-224.783z"/>
		</g>
		<g transform="matrix(.4946,0,0,.4946,-121.74196,233.11923)">
			<path fill="#225500" d="M284.294-226.576l19.09,0.043c-3.644-7.744-0.158-16.033,1.279-26.623
				c1.545-11.574,16.547-28.795,25.475-38.257c-11.664,3.412-23.282,11.811-31.916,24.621
				C290.342-255.067,285.189-243.118,284.294-226.576L284.294-226.576z"/>
			<path fill="#327C6E" d="M337.533-226.473l18.171,0.036c1.005-27.765-12.822-41.989-30.831-55.142
				c-4.037-3.838-6.826-10.879-6.452-18.268c0.34-7.392,3.945-15.444,10.103-20.562c-7.202,2.598-13.893,9.355-17.183,18.678
				c-3.258,9.327-2.954,20.665,1.738,30.442c3.543,6.993,7.62,7.428,11.976,11.681C336.137-254.171,339.923-239.236,337.533-226.473
				L337.533-226.473z"/>
			<path fill="#225500" d="M421.581-226.304l18.747,0.032c-0.087-11.756,1.183-22.655,3.959-34.762
				c3.7-16.151,10.064-32.235,19.006-47.039c-13.335,9.355-16.232,20.795-26.732,35.86
				C428.699-260.92,426.926-240.184,421.581-226.304z"/>
			<path fill="#327C6E" d="M369.963-226.406l14.263,0.024c-0.991-36.887-8.545-69.09-11.827-105.44
				c-5.799,20.862-3.742,54.242-2.636,76.06C370.476-241.736,373.321-241.057,369.963-226.406z"/>
			<path fill="#327C6E" d="M393.204-226.359l18.603,0.032c-3.846-23.666,1.998-25.818-5.969-50.416
				c-4.097-12.652-17.563-31.982-26.469-39.568c5.684,10.994,9.872,22.667,12.53,34.494
				C396.259-262.416,396.519-244.393,393.204-226.359L393.204-226.359z"/>
			<path fill="#327C6E" d="M857.665-225.466l-19.097-0.036c3.973-7.732,0.829-16.021-0.162-26.623
				c-1.054-11.578-15.338-28.855-23.871-38.352c11.519,3.455,22.789,11.894,30.884,24.744
				C852.807-253.977,857.459-242.012,857.665-225.466z"/>
			<path fill="#327C6E" d="M602.442-225.96l-18.169-0.036c0.154-27.765,14.573-41.933,33.131-55.02
				c4.2-3.819,7.28-10.852,7.217-18.24c-0.026-7.396-3.299-15.456-9.24-20.601c7.096,2.63,13.501,9.41,16.402,18.741
				c2.865,9.343,2.087,20.672-3.015,30.434c-3.832,6.978-7.927,7.404-12.465,11.641C604.995-253.654,600.59-238.727,602.442-225.96z
				"/>
			<path fill="#327C6E" d="M791.793-225.593l-18.745-0.043c0.577-11.744-0.237-22.655-2.508-34.778
				c-3.021-16.155-8.712-32.259-17.037-47.099c12.945,9.402,15.362,20.854,25.227,35.963
				C786.126-260.233,787.031-239.489,791.793-225.593L791.793-225.593z"/>
			<path fill="#327C6E" d="M804.734-225.569l-14.267-0.024c2.531-36.883,11.436-69.062,16.238-105.392
				c4.924,20.882,1.473,54.25-0.549,76.068C804.856-240.903,801.985-240.227,804.734-225.569z"/>
			<path fill="#225500" d="M618.718-225.928l-18.607-0.039c4.837-23.646-0.916-25.826,8.083-50.388
				c4.624-12.629,18.899-31.903,28.12-39.457c-6.144,10.97-10.818,22.627-13.973,34.438
				C617.17-261.99,616.159-243.971,618.718-225.928L618.718-225.928z"/>
			<path fill="#327C6E" d="M629.798-225.913l19.089,0.039c-3.643-7.744-0.156-16.021,1.279-26.616
				c1.542-11.578,16.546-28.795,25.476-38.257c-11.665,3.416-23.281,11.807-31.919,24.625
				C635.848-254.4,630.693-242.447,629.798-225.913z"/>
			<path fill="#327C6E" d="M832.068-225.518l18.177,0.032c0.999-27.761-12.83-41.985-30.833-55.138
				c-4.04-3.838-6.824-10.879-6.456-18.268c0.34-7.396,3.949-15.444,10.109-20.562c-7.207,2.598-13.896,9.351-17.19,18.674
				c-3.25,9.335-2.95,20.665,1.742,30.446c3.538,6.993,7.617,7.424,11.981,11.685C830.678-253.211,834.457-238.281,832.068-225.518z
				"/>
			<path fill="#327C6E" d="M899.748-225.387l18.745,0.036c-0.087-11.752,1.185-22.651,3.961-34.766
				c3.7-16.147,10.062-32.231,19.006-47.027c-13.335,9.351-16.23,20.787-26.726,35.856
				C906.86-259.996,905.091-239.256,899.748-225.387z"/>
			<path fill="#327C6E" d="M757.038-225.66l14.26,0.024c-0.987-36.883-8.546-69.098-11.83-105.436
				c-5.795,20.858-3.74,54.234-2.632,76.06C757.547-240.99,760.394-240.31,757.038-225.66z"/>
			<path fill="#327C6E" d="M543.114-226.078l18.609,0.039c-3.852-23.67,1.99-25.818-5.977-50.412
				c-4.097-12.656-17.563-31.986-26.469-39.568c5.684,10.994,9.872,22.667,12.528,34.49
				C546.167-262.132,546.429-244.105,543.114-226.078L543.114-226.078z"/>
			<path fill="#327C6E" d="M875.841-225.431l-19.089-0.036c3.965-7.732,0.825-16.025-0.166-26.627
				c-1.058-11.578-15.341-28.851-23.875-38.348c11.519,3.459,22.789,11.898,30.888,24.74
				C870.984-253.946,875.636-241.973,875.841-225.431z"/>
			<path fill="#327C6E" d="M502.46-226.157l-18.171-0.032c0.158-27.769,14.577-41.933,33.131-55.02
				c4.198-3.823,7.286-10.856,7.219-18.236c-0.03-7.396-3.299-15.464-9.242-20.601c7.094,2.63,13.501,9.402,16.4,18.741
				c2.867,9.335,2.087,20.669-3.011,30.422c-3.83,6.99-7.925,7.408-12.461,11.649C505.011-253.847,500.604-238.92,502.46-226.157
				L502.46-226.157z"/>
			<path fill="#225500" d="M519.111-226.122l-18.743-0.036c0.577-11.752-0.243-22.659-2.504-34.778
				c-3.025-16.163-8.715-32.262-17.041-47.106c12.943,9.41,15.361,20.854,25.228,35.963
				C513.448-260.758,514.35-240.018,519.111-226.122L519.111-226.122z"/>
			<path fill="#327C6E" d="M750.192-225.672l-14.265-0.036c2.537-36.875,11.436-69.05,16.242-105.38
				c4.922,20.874,1.469,54.25-0.551,76.068C750.319-241.001,747.45-240.342,750.192-225.672z"/>
			<path fill="#225500" d="M873.223-225.435l-18.607-0.043c4.833-23.646-0.916-25.818,8.076-50.38
				c4.632-12.636,18.903-31.915,28.128-39.465c-6.148,10.97-10.82,22.627-13.975,34.446
				C871.675-261.504,870.66-243.481,873.223-225.435L873.223-225.435z"/>
			<path fill="#327C6E" d="M985.581-225.226l19.089,0.039c-3.645-7.744-0.158-16.021,1.275-26.616
				c1.544-11.578,16.55-28.791,25.478-38.257c-11.661,3.42-23.283,11.807-31.915,24.617
				C991.627-253.709,986.478-241.76,985.581-225.226z"/>
			<path fill="#327C6E" d="M1198.771-224.807l18.169,0.032c1.003-27.761-12.822-41.981-30.829-55.142
				c-4.04-3.834-6.832-10.875-6.452-18.264c0.336-7.396,3.941-15.448,10.101-20.57c-7.207,2.602-13.892,9.363-17.186,18.682
				c-3.254,9.331-2.954,20.657,1.741,30.434c3.538,7.005,7.613,7.436,11.977,11.693c11.081,5.43,14.864,20.372,12.474,33.135
				H1198.771z"/>
			<path fill="#225500" d="M918.367-225.352l18.749,0.043c-0.087-11.756,1.185-22.663,3.965-34.774
				c3.696-16.147,10.054-32.223,19.002-47.031c-13.335,9.347-16.23,20.799-26.73,35.864
				C925.487-259.964,923.714-239.228,918.367-225.352z"/>
			<path fill="#327C6E" d="M1476.741-224.27l14.263,0.024c-0.991-36.887-8.553-69.098-11.835-105.436
				c-5.793,20.862-3.74,54.23-2.626,76.056C1477.251-239.596,1480.098-238.92,1476.741-224.27z"/>
			<path fill="#327C6E" d="M1423.084-224.38l18.607,0.039c-3.846-23.662,1.99-25.818-5.967-50.412
				c-4.103-12.656-17.569-31.986-26.469-39.572c5.686,10.998,9.868,22.671,12.53,34.494
				C1426.14-260.438,1426.405-242.407,1423.084-224.38L1423.084-224.38z"/>
			<path fill="#327C6E" d="M1296.296-224.625l-19.093-0.032c3.973-7.728,0.829-16.021-0.162-26.623
				c-1.058-11.578-15.341-28.859-23.875-38.356c11.519,3.467,22.785,11.906,30.888,24.748
				C1291.435-253.132,1296.091-241.171,1296.296-224.625z"/>
			<path fill="#225500" d="M1152.56-224.902l-18.173-0.032c0.158-27.769,14.579-41.933,33.135-55.024
				c4.198-3.819,7.286-10.852,7.219-18.232c-0.028-7.4-3.301-15.464-9.244-20.609c7.096,2.638,13.501,9.41,16.404,18.749
				c2.863,9.335,2.085,20.672-3.013,30.426c-3.83,6.986-7.929,7.4-12.467,11.641C1155.111-252.591,1150.704-237.665,1152.56-224.902
				L1152.56-224.902z"/>
			<path fill="#327C6E" d="M1571.858-224.088l-18.741-0.039c0.573-11.744-0.241-22.651-2.511-34.778
				c-3.021-16.159-8.711-32.266-17.036-47.106c12.945,9.41,15.361,20.862,25.23,35.971
				C1566.192-258.724,1567.096-237.98,1571.858-224.088z"/>
			<path fill="#327C6E" d="M1337.594-224.538l-14.26-0.032c2.531-36.875,11.436-69.058,16.238-105.388
				c4.924,20.886,1.469,54.258-0.549,76.068C1337.724-239.864,1334.853-239.205,1337.594-224.538z"/>
			<path fill="#327C6E" d="M1032.419-225.131l-18.607-0.036c4.841-23.65-0.916-25.822,8.083-50.384
				c4.624-12.64,18.896-31.915,28.12-39.469c-6.148,10.974-10.824,22.635-13.971,34.45
				C1030.871-261.192,1029.86-243.173,1032.419-225.131L1032.419-225.131z"/>
			<path fill="#327C6E" d="M1483.316-224.262l19.089,0.039c-3.649-7.744-0.158-16.021,1.276-26.616
				c1.54-11.578,16.55-28.791,25.478-38.257c-11.661,3.408-23.287,11.803-31.919,24.617
				C1489.362-252.757,1484.213-240.808,1483.316-224.262z"/>
			<path fill="#225500" d="M1441.845-224.341l18.173,0.032c1.003-27.761-12.822-41.985-30.829-55.142
				c-4.04-3.834-6.828-10.875-6.452-18.264c0.336-7.396,3.945-15.448,10.101-20.562c-7.203,2.594-13.892,9.355-17.182,18.678
				c-3.258,9.327-2.958,20.661,1.738,30.438c3.542,6.997,7.617,7.432,11.977,11.685
				C1440.455-252.039,1444.234-237.096,1441.845-224.341L1441.845-224.341z"/>
			<path fill="#327C6E" d="M1473.981-224.274l18.749,0.028c-0.091-11.744,1.181-22.655,3.961-34.762
				c3.7-16.147,10.054-32.227,19.002-47.035c-13.332,9.355-16.23,20.799-26.726,35.86
				C1481.097-258.89,1479.324-238.154,1473.981-224.274z"/>
			<path fill="#225500" d="M1557.761-224.12l14.267,0.032c-0.987-36.887-8.545-69.098-11.827-105.447
				c-5.801,20.87-3.74,54.246-2.634,76.072C1558.278-239.442,1561.121-238.762,1557.761-224.12z"/>
			<path fill="#327C6E" d="M1573.56-224.088l18.611,0.039c-3.846-23.666,1.998-25.818-5.975-50.416
				c-4.099-12.652-17.557-31.982-26.466-39.568c5.682,10.998,9.876,22.671,12.526,34.494
				C1576.621-260.146,1576.881-242.115,1573.56-224.088L1573.56-224.088z"/>
			<path fill="#327C6E" d="M1435.199-224.357l-19.093-0.032c3.969-7.728,0.829-16.021-0.162-26.623
				c-1.058-11.578-15.345-28.859-23.875-38.352c11.523,3.463,22.793,11.902,30.884,24.744
				C1430.346-252.868,1434.994-240.903,1435.199-224.357z"/>
			<path fill="#327C6E" d="M1534.541-224.159l-18.169-0.036c0.154-27.765,14.579-41.933,33.131-55.02
				c4.198-3.819,7.286-10.852,7.219-18.24c-0.028-7.396-3.301-15.464-9.244-20.601c7.096,2.63,13.501,9.41,16.4,18.738
				c2.867,9.347,2.093,20.672-3.009,30.438c-3.83,6.978-7.926,7.404-12.463,11.641
				C1537.092-251.857,1532.689-236.93,1534.541-224.159L1534.541-224.159z"/>
			<path fill="#327C6E" d="M1111.255-224.981l-18.741-0.032c0.573-11.752-0.245-22.659-2.512-34.786
				c-3.017-16.155-8.715-32.259-17.036-47.099c12.941,9.402,15.361,20.854,25.229,35.963
				C1105.584-259.616,1106.493-238.873,1111.255-224.981z"/>
			<path fill="#327C6E" d="M1395.473-224.428l-14.263-0.032c2.527-36.879,11.432-69.058,16.242-105.38
				c4.924,20.874,1.469,54.246-0.553,76.068C1395.603-239.757,1392.724-239.09,1395.473-224.428L1395.473-224.428z"/>
			<path fill="#327C6E" d="M1229.201-224.752l-18.611-0.039c4.841-23.646-0.916-25.818,8.083-50.384
				c4.624-12.633,18.896-31.911,28.12-39.461c-6.148,10.97-10.824,22.627-13.971,34.442
				C1227.653-260.817,1226.638-242.794,1229.201-224.752L1229.201-224.752z"/>
		</g>
	</g>
</g>
</svg>
