<?xml version="1.0" encoding="utf-8"?>
<!DOCTYPE svg PUBLIC "-//W3C//DTD SVG 1.1//EN" "http://www.w3.org/Graphics/SVG/1.1/DTD/svg11.dtd">
<svg version="1.1" id="Layer_3" xmlns="http://www.w3.org/2000/svg" xmlns:xlink="http://www.w3.org/1999/xlink" viewBox="0 0 1280 800">
<defs>
	<filter id="OpacityMaskFilter" filterUnits="userSpaceOnUse" x="232.548" y="372.427" width="79.782" height="126.402">
		<feColorMatrix  type="matrix" values="1 0 0 0 0  0 1 0 0 0  0 0 1 0 0  0 0 0 1 0"/>
	</filter>
</defs>
<mask maskUnits="userSpaceOnUse" x="232.548" y="372.427" width="79.782" height="126.402" id="SVGID_1_">
	<g filter="url(#OpacityMaskFilter)">
		<rect fill="#FFFFFF" width="1280" height="800"/>
	</g>
</mask>
<g mask="url(#SVGID_1_)">
	<g id="corpse">
		<path d="M270.549,472.883c-0.016-0.021-0.042-0.021-0.057,0c-0.03,0.042-0.023,0.104-0.026,0.154c-0.004,0.054,0,0.107,0,0.162
			c0,0.068,0.108,0.068,0.108,0c0-0.056,0.002-0.108,0-0.162C270.573,472.988,270.578,472.925,270.549,472.883z"/>
		<g id="XMLID_15_">
			<g>
				<path fill="#96BBD6" d="M311.951,456.116c0.101,2.75,0.388,5.492,0.379,8.243c-0.01,3.171-0.619,6.347-1.374,9.415
					c-0.763,3.108-1.793,6.177-3.302,9.007c-1.587,2.985-3.741,5.586-6.322,7.767c-0.062,0.052-0.131,0.061-0.192,0.041
					c0.012-0.11,0.026-0.221,0.04-0.332c0.004-0.032-0.006-0.06-0.026-0.083v-0.001c2.57-2.172,4.744-4.771,6.302-7.765
					c1.468-2.82,2.502-5.848,3.236-8.938c0.746-3.129,1.364-6.336,1.316-9.561c-0.021-1.561-0.129-3.115-0.224-4.672
					c-0.062-1.037-0.15-2.09-0.132-3.137C311.715,456.211,311.869,456.201,311.951,456.116z"/>
				<path fill="#AF712C" d="M312.009,463.91c0.047,3.227-0.571,6.433-1.316,9.561c-0.734,3.092-1.769,6.116-3.236,8.938
					c-1.559,2.991-3.731,5.593-6.302,7.765c-0.028-0.032-0.073-0.052-0.114-0.056c-0.278-0.025-0.468,0.158-0.714,0.273
					c-0.083,0.041-0.169,0.075-0.255,0.104c-0.347-0.217-0.695-0.43-1.023-0.679c-0.794-0.598-1.525-1.279-2.219-1.991
					c-0.521-0.539-1.005-1.108-1.445-1.713c0.035,0.04,0.069,0.08,0.103,0.122c0.017,0.021,0.055-0.003,0.046-0.028
					c-0.05-0.15-0.169-0.267-0.274-0.382c-0.184-0.203-0.367-0.406-0.467-0.668c-0.007-0.021-0.031-0.025-0.048-0.021
					c-0.109-0.191-0.212-0.388-0.311-0.585c-0.142-0.283-0.199-0.646-0.386-0.899c-0.021-0.028-0.072-0.032-0.081,0.009
					c-0.127,0.558,0.379,1.337,0.646,1.794c0.491,0.837,1.117,1.594,1.766,2.311c0.721,0.794,1.518,1.52,2.356,2.184
					c0.273,0.214,0.565,0.449,0.875,0.662c-0.23,0.038-0.462,0.052-0.691,0.052c-1.021,0.011-2.046-0.357-2.969-0.761
					c-1.089-0.476-2.065-1.121-3.049-1.756c-0.794-1.324-1.874-2.438-2.369-3.957c-0.506-1.557-0.336-3.244-0.868-4.799
					c-0.441-1.295-1.215-2.521-1.862-3.721c-0.576-1.063-1.038-2.146-1.519-3.249c-0.027-0.062-0.109-0.021-0.117,0.03
					c-0.041,0.394,0.143,0.792,0.292,1.146c0.279,0.648,0.6,1.277,0.926,1.908c0.705,1.354,1.557,2.699,2.047,4.15
					c0.55,1.621,0.345,3.391,0.928,5.009c0.375,1.043,1.023,2.039,1.721,2.966c-0.277-0.172-0.558-0.333-0.842-0.486
					c-0.091-0.051-0.193,0.021-0.214,0.104c-0.046-0.175-0.098-0.35-0.162-0.518c0.237,0.2,0.474,0.405,0.743,0.549
					c0.017,0.013,0.04-0.007,0.027-0.024c-0.25-0.386-0.706-0.604-0.993-0.959c-0.076-0.095-0.209,0.024-0.159,0.123
					c0.159,0.313,0.242,0.604,0.313,0.942c0.087,0.41-0.318,0.601-0.608,0.809c-0.308,0.219-0.632,0.364-0.964,0.499
					c-0.168-0.309-0.346-0.591-0.496-0.826c-0.749-1.188-1.714-2.235-2.629-3.296c-1.041-1.201-1.962-2.441-2.794-3.795
					c-1.671-2.727-2.988-5.646-4.487-8.468c0.011,0.016,0.021,0.031,0.032,0.049c0.042,0.063,0.136,0.008,0.102-0.059
					c-0.149-0.284-0.145-0.485-0.5-0.525c-0.062-0.009-0.1,0.052-0.105,0.104c-0.071,0.65-0.036,1.313-0.117,1.967
					c-0.103,0.83-0.285,1.65-0.57,2.44c-0.245,0.678-0.603,1.338-1.156,1.812c-0.488,0.413-0.982,0.394-1.517,0.335
					c0.061-0.064,0.08-0.165,0.001-0.246c-1.128-1.168-2.237-2.265-3.053-3.688c-0.694-1.211-1.107-2.553-1.378-3.915
					c-0.282-1.414-0.397-2.86-0.545-4.295c-0.181-1.751-0.479-3.481-0.687-5.229c-0.482-4.086-0.47-8.217-0.148-12.313
					c0.31-3.939,0.917-7.847,1.063-11.801c0.01-0.286,0.018-0.575,0.024-0.86c3.646-0.505,7.296-0.967,10.976-1.203
					c1.161-0.074,2.332-0.181,3.496-0.208c0.058-0.005,0.058-0.092,0-0.092c-1.993-0.004-4.012,0.159-5.999,0.313
					c-2.078,0.162-4.149,0.39-6.215,0.651c-0.752,0.097-1.502,0.202-2.253,0.314c0.025-1.604-0.028-3.211-0.195-4.81
					c-0.188-1.815-0.557-3.609-0.722-5.431c-0.174-1.914,0.069-3.775,0.104-5.686c0.019-1.025-0.045-2.05-0.151-3.073
					c1.309,0.06,2.617,0.119,3.929,0.116c1.604-0.003,3.206,0.021,4.806-0.118c0.714-0.063,1.421-0.165,2.12-0.323
					c0.501-0.113,1.167-0.262,1.582-0.583c0.527-0.408,3.205-2.637,2.04-3.396c-0.537-0.353-0.76-0.092-1.014,0.357
					c-0.018,0.03,0.028,0.06,0.049,0.03c0.217-0.312,0.42-0.476,0.805-0.28c0.243,0.126,0.247,0.388,0.186,0.615
					c-0.122,0.468-0.51,0.884-0.823,1.231c-0.639,0.711-1.284,1.303-2.202,1.592c-1.455,0.46-3.027,0.528-4.54,0.563
					c-1.58,0.035-3.16-0.003-4.736-0.082c-0.746-0.033-1.495-0.072-2.242-0.104c-0.091-0.807-0.205-1.606-0.326-2.406
					c-0.306-2.032-0.55-4.029-0.578-6.089c-0.03-2.002,0.086-4.003,0.214-6.002c0.123-1.934,0.215-3.868,0.318-5.804
					c0.077-1.437,0.01-2.875,0.07-4.313c0.054-1.31,0.173-2.784,0.831-3.959c0.005,0.063,0.01,0.123,0.017,0.187
					c0.017,0.149,0.214,0.148,0.232,0c0.123-1.007,0.188-2.025,0.249-3.04c0.115-0.141,0.238-0.271,0.37-0.396
					c0.221-0.211,0.464-0.402,0.733-0.577c1.013-0.651,2.222-0.954,3.389-1.188c1.155-0.233,2.324-0.377,3.478-0.61
					c1.365-0.274,2.51-0.883,3.798-1.376c1.773-0.675,3.414,0.108,5.167,0.396c1.502,0.246,2.925-0.104,4.161-0.973
					c0.929-0.65,1.542-1.478,2.193-2.392c0.352-0.492,0.703-0.992,1.11-1.44c0.269-0.294,0.502-0.379,0.627-0.688
					c1.495,0.964,3.009,1.906,4.661,2.582c1.533,0.626,3.388,1.021,4.896,0.132c0.032-0.019,0.052-0.042,0.066-0.068
					c0.229,0.771,0.499,1.458,0.582,2.283c0.106,1.047,0.054,2.111-0.041,3.155c-0.203,2.241-0.775,4.393-1.278,6.577
					c-0.494,2.149-0.992,4.599-2.481,6.308c-0.729,0.833-1.863,1.244-2.942,1.328c-1.214,0.094-2.27-0.345-3.167-1.138
					c-0.146-0.125-0.33,0.063-0.209,0.209c0.477,0.584,1.123,0.945,1.831,1.13v0.002c0.028,0.045,0.056,0.09,0.083,0.135
					c0.951,1.551,1.36,3.187,1.397,5.01c0.035,1.69-0.215,3.378-0.291,5.066c-0.041,0.845-0.024,1.689,0.055,2.533
					c0.088,0.931,0.345,1.83,0.499,2.75c0.349,2.086,0.295,4.218,0.371,6.324c0.054,1.481,0.229,2.866,0.975,4.176
					c0.646,1.136,1.594,2.076,2.342,3.143c1.043,1.488,1.595,3.059,1.697,4.867c0.1,1.74,0.111,3.399,0.642,5.08
					c0.991,3.128,2.895,5.938,4.317,8.876c0.729,1.5,1.458,3.077,1.778,4.726c0.327,1.676,0.169,3.401,0.532,5.077
					c0.005,0.021,0.012,0.041,0.023,0.059c-0.018,1.046,0.07,2.099,0.132,3.136C311.88,460.794,311.989,462.351,312.009,463.91z"/>
				<path d="M311.998,455.942c0.015,0.071-0.008,0.133-0.047,0.174c-0.007-0.168-0.012-0.333-0.017-0.501
					C311.953,455.725,311.975,455.833,311.998,455.942z"/>
				<path fill="#96BBD6" d="M311.934,455.615c0.005,0.168,0.01,0.333,0.017,0.501c-0.082,0.085-0.236,0.096-0.297-0.015
					c0.005-0.336,0.021-0.673,0.052-1.007c0.008-0.077,0.077-0.111,0.135-0.104c0.025,0.208,0.056,0.414,0.093,0.62V455.615z"/>
				<path fill="#96BBD6" d="M311.922,455.096c0.002,0.172,0.006,0.347,0.011,0.519c-0.037-0.206-0.068-0.412-0.093-0.62
					C311.884,455.001,311.921,455.035,311.922,455.096z"/>
				<path d="M311.84,454.993c-0.058-0.01-0.127,0.024-0.135,0.104c-0.031,0.334-0.047,0.671-0.052,1.007
					c-0.012-0.017-0.018-0.035-0.023-0.058c-0.362-1.676-0.205-3.403-0.532-5.077c-0.32-1.646-1.05-3.226-1.778-4.727
					c-1.423-2.938-3.328-5.747-4.317-8.875c-0.531-1.682-0.542-3.34-0.642-5.08c-0.103-1.813-0.654-3.379-1.697-4.867
					c-0.749-1.064-1.697-2.007-2.342-3.143c-0.746-1.31-0.92-2.693-0.975-4.178c-0.076-2.104-0.021-4.237-0.371-6.322
					c-0.154-0.921-0.41-1.819-0.499-2.75c-0.08-0.846-0.096-1.689-0.055-2.534c0.076-1.688,0.326-3.375,0.291-5.065
					c-0.037-1.824-0.447-3.458-1.397-5.01l0.143-0.088c1.683,2.406,1.604,5.288,1.398,8.104c-0.112,1.522-0.236,3.067-0.057,4.595
					c0.105,0.897,0.353,1.769,0.49,2.664c0.128,0.825,0.214,1.657,0.256,2.49c0.058,1.062,0.074,2.122,0.105,3.184
					c0.028,0.934,0.014,1.9,0.217,2.814c0.312,1.406,1.065,2.504,1.958,3.604c0.886,1.096,1.785,2.247,2.301,3.574
					c0.595,1.524,0.555,3.111,0.65,4.721c0.241,4.031,2.565,7.406,4.341,10.91c0.838,1.651,1.733,3.391,2.195,5.192
					C311.718,451.761,311.64,453.392,311.84,454.993z"/>
				<path d="M305.781,380.556c0.139,1.222,0.105,2.467-0.024,3.686c-0.26,2.438-0.875,4.821-1.456,7.199
					c-0.511,2.089-1.151,4.949-3.117,6.189c-1.032,0.65-2.461,0.952-3.727,0.7l-0.143,0.088c-0.027-0.045-0.055-0.09-0.083-0.136
					v-0.002c-0.708-0.184-1.354-0.545-1.831-1.129c-0.121-0.146,0.063-0.334,0.209-0.209c0.896,0.792,1.952,1.23,3.167,1.138
					c1.079-0.083,2.212-0.495,2.942-1.328c1.489-1.709,1.988-4.157,2.481-6.309c0.502-2.185,1.075-4.335,1.278-6.576
					c0.095-1.043,0.147-2.109,0.041-3.155c-0.083-0.824-0.353-1.511-0.582-2.283l0.075-0.045
					C305.582,378.861,305.705,379.873,305.781,380.556z"/>
				<path d="M305.012,378.385l-0.075,0.045c-0.014,0.025-0.035,0.051-0.066,0.068c-1.509,0.889-3.363,0.494-4.896-0.133
					c-1.651-0.677-3.166-1.618-4.661-2.582c-0.125,0.312-0.358,0.396-0.627,0.689c-0.409,0.448-0.76,0.948-1.11,1.44
					c-0.652,0.914-1.265,1.739-2.193,2.392c-1.236,0.868-2.659,1.219-4.161,0.973c-1.753-0.287-3.394-1.07-5.167-0.396
					c-1.289,0.492-2.433,1.102-3.799,1.376c-1.153,0.233-2.323,0.377-3.478,0.61c-1.167,0.232-2.376,0.535-3.389,1.188
					c-0.271,0.174-0.514,0.366-0.733,0.577l-0.183-0.135c0.846-0.832,1.98-1.374,3.232-1.696c2.432-0.624,4.934-0.706,7.235-1.784
					c1.423-0.67,2.724-0.928,4.279-0.543c1.729,0.428,3.545,0.934,5.223,0.021c1.252-0.681,2.025-1.622,2.83-2.76
					c0.32-0.451,0.638-0.913,1.001-1.333c0.279-0.319,0.686-0.518,0.761-0.947c0.019-0.112,0.172-0.164,0.259-0.106
					c1.44,0.933,2.895,1.877,4.477,2.547c1.533,0.65,3.371,1.178,4.921,0.298c0.132-0.075,0.252,0.031,0.263,0.146
					C304.975,378.354,304.994,378.368,305.012,378.385z"/>
				<path d="M299.609,490.608c-0.309-0.214-0.601-0.447-0.875-0.661c-0.838-0.664-1.635-1.39-2.356-2.184
					c-0.649-0.717-1.275-1.474-1.766-2.311c-0.267-0.457-0.773-1.236-0.646-1.795c0.009-0.04,0.059-0.036,0.081-0.008
					c0.187,0.254,0.244,0.616,0.386,0.898c0.099,0.198,0.201,0.395,0.311,0.586c0.018-0.006,0.041,0,0.048,0.021
					c0.1,0.262,0.283,0.465,0.467,0.668c0.105,0.114,0.224,0.229,0.274,0.382c0.009,0.024-0.029,0.051-0.046,0.028
					c-0.033-0.042-0.068-0.082-0.104-0.122c0.439,0.604,0.924,1.174,1.445,1.713c0.693,0.712,1.424,1.396,2.219,1.991
					c0.328,0.248,0.677,0.462,1.023,0.679c0.086-0.029,0.172-0.063,0.255-0.104c0.246-0.115,0.436-0.301,0.714-0.273
					c0.041,0.004,0.085,0.021,0.114,0.056v0.001c-0.035,0.029-0.07,0.061-0.105,0.089c-0.137,0.115-0.043,0.285,0.091,0.326
					c-0.006,0.054-0.011,0.106-0.015,0.162c0.103-0.104,0.233-0.159,0.375-0.063c0.017,0.014,0.005,0.036-0.014,0.03
					c-0.123,0.097-0.248,0.19-0.369,0.283c-0.013,0.094-0.152,0.099-0.15,0c0.001-0.201-0.019-0.393-0.043-0.585
					c-0.173,0.052-0.354,0.175-0.532,0.278c0.186,0.118,0.371,0.239,0.548,0.371c0.086,0.063,0.039,0.211-0.074,0.18
					c-0.296-0.08-0.584-0.218-0.861-0.383c-0.401,0.109-0.817,0.164-1.232,0.141c-0.977-0.052-1.905-0.345-2.802-0.722
					c-0.938-0.396-1.889-0.887-2.794-1.439c-0.041,0.038-0.1,0.049-0.144-0.006c-0.044-0.056-0.089-0.109-0.136-0.167
					c-0.643-0.407-1.261-0.845-1.83-1.309c-0.008-0.007-0.01-0.014-0.016-0.021l-0.028-0.097c0.021-0.084,0.123-0.154,0.214-0.104
					c0.285,0.153,0.565,0.314,0.842,0.486c-0.697-0.927-1.345-1.923-1.721-2.966c-0.583-1.618-0.378-3.389-0.928-5.009
					c-0.491-1.451-1.342-2.798-2.047-4.15c-0.327-0.631-0.647-1.26-0.927-1.908c-0.15-0.354-0.333-0.753-0.292-1.146
					c0.008-0.053,0.09-0.093,0.117-0.03c0.48,1.104,0.942,2.186,1.518,3.249c0.647,1.199,1.421,2.426,1.862,3.721
					c0.532,1.554,0.361,3.242,0.868,4.798c0.496,1.521,1.574,2.634,2.369,3.957c0.983,0.636,1.96,1.28,3.049,1.756
					c0.922,0.402,1.947,0.771,2.969,0.762C299.147,490.66,299.379,490.647,299.609,490.608z"/>
				<path fill="#96BBD6" d="M301.154,490.173c0.02,0.023,0.03,0.051,0.026,0.083c-0.014,0.111-0.028,0.222-0.04,0.332
					c-0.134-0.041-0.228-0.211-0.091-0.326C301.084,490.232,301.119,490.202,301.154,490.173z"/>
				<path d="M270.501,475.472c-0.02,0.896-0.441,1.774-1.185,2.308c-0.769,0.545-1.966,0.804-2.76,0.144
					c-0.776-0.646-1.195-1.653-1.624-2.541c-0.354-0.732-0.704-1.691-1.478-2.065l-0.015-0.216c0.014-0.007,0.031-0.013,0.048-0.014
					c0.535-0.032,0.918,0.631,1.141,1.027c0.446,0.79,0.781,1.639,1.234,2.425c0.537,0.931,1.278,1.77,2.483,1.402
					c1.295-0.394,2.034-1.623,1.921-2.945c-0.004-0.047,0.028-0.079,0.067-0.092c-0.254-0.987-0.314-2.001,0.064-2.936
					c0.015-0.039,0.046-0.063,0.08-0.075c-0.582-2.119-0.699-4.349-0.949-6.531c-0.21-1.854-0.543-3.69-0.711-5.554
					c-0.185-2.039-0.271-4.086-0.246-6.134c0.069-5.866,1.182-11.707,1.309-17.563c-2.676,0.374-5.349,0.767-8.029,1.111
					c-2.37,0.307-4.753,0.622-7.083,1.155c-1.006,0.229-2.028,0.481-2.977,0.896c-0.575,0.252-1.295,0.575-1.565,1.188
					c-0.027,0.063-0.135,0.02-0.11-0.045c0.181-0.483,0.645-0.802,1.083-1.031c1.792-0.94,3.921-1.294,5.892-1.636
					c2.158-0.372,4.332-0.625,6.5-0.907c2.103-0.275,4.195-0.631,6.292-0.955c0.036-2.065-0.054-4.133-0.359-6.204
					c-0.251-1.702-0.55-3.407-0.614-5.126c-0.073-1.961,0.243-3.9,0.156-5.857c-0.028-0.629-0.082-1.256-0.147-1.879
					c-2.003-0.086-4.007-0.144-6.017,0.072c-1.729,0.186-3.444,0.531-5.089,1.105c-0.967,0.335-1.909,0.729-2.826,1.188
					c-0.659,0.325-1.236,0.791-1.946,0.997c-0.131,0.037-0.172-0.148-0.054-0.197c0.4-0.167,0.64-0.424,1-0.632
					c0.409-0.231,0.827-0.454,1.252-0.653c0.746-0.353,1.506-0.681,2.285-0.949c1.479-0.517,2.997-0.875,4.549-1.091
					c2.255-0.313,4.531-0.309,6.804-0.224c-0.152-1.316-0.361-2.632-0.548-3.949c-0.268-1.896-0.35-3.813-0.313-5.728
					c0.077-3.798,0.524-7.578,0.583-11.375c0.023-1.482-0.027-2.975,0.126-4.453c0.123-1.188,0.325-2.438,1.041-3.429
					c-0.021-0.619,0.029-1.25,0.092-1.879c-0.26,0.43-0.463,0.901-0.614,1.414c-0.027,0.092-0.163,0.053-0.143-0.04
					c0.155-0.708,0.433-1.319,0.805-1.843c0.046-0.433,0.092-0.86,0.12-1.282c0.099-1.496,0.231-3.081-0.058-4.565
					c-0.132-0.678-0.346-1.332-0.98-1.701c-0.7-0.412-1.497-0.572-2.252-0.848c-0.747-0.271-1.349-0.641-1.926-1.188
					c-0.174-0.165-0.352-0.337-0.522-0.518l0.155-0.149c0.396,0.443,0.85,0.837,1.33,1.114c0.729,0.425,1.542,0.602,2.331,0.873
					c0.592,0.205,1.25,0.458,1.636,0.98c0.318,0.431,0.465,0.96,0.548,1.483c0.236,1.487,0.16,3.02,0.067,4.518
					c-0.016,0.263-0.032,0.526-0.046,0.79c0.054-0.058,0.109-0.115,0.166-0.17l0.183,0.135c-0.132,0.125-0.255,0.257-0.37,0.396
					c-0.061,1.015-0.126,2.033-0.249,3.04c-0.018,0.148-0.215,0.149-0.232,0c-0.006-0.063-0.011-0.123-0.017-0.187
					c-0.657,1.175-0.776,2.649-0.831,3.958c-0.06,1.438,0.006,2.878-0.07,4.313c-0.103,1.937-0.195,3.87-0.318,5.804
					c-0.128,1.999-0.244,4-0.214,6.002c0.028,2.059,0.271,4.057,0.578,6.089c0.121,0.799,0.235,1.601,0.326,2.406
					c0.749,0.03,1.496,0.068,2.242,0.104c1.577,0.079,3.156,0.117,4.736,0.082c1.511-0.034,3.085-0.104,4.539-0.563
					c0.919-0.288,1.563-0.88,2.202-1.591c0.314-0.35,0.703-0.766,0.824-1.231c0.062-0.229,0.058-0.489-0.186-0.615
					c-0.385-0.193-0.587-0.029-0.805,0.28c-0.021,0.027-0.066,0-0.049-0.03c0.254-0.45,0.477-0.711,1.014-0.357
					c1.165,0.761-1.513,2.986-2.04,3.396c-0.415,0.321-1.081,0.469-1.582,0.583c-0.699,0.157-1.406,0.261-2.12,0.323
					c-1.601,0.139-3.203,0.115-4.806,0.118c-1.313,0.003-2.621-0.06-3.929-0.116c0.106,1.023,0.17,2.048,0.151,3.073
					c-0.035,1.909-0.278,3.771-0.104,5.686c0.165,1.819,0.533,3.613,0.722,5.431c0.167,1.599,0.22,3.204,0.195,4.81
					c0.75-0.112,1.501-0.22,2.253-0.315c2.066-0.263,4.139-0.488,6.216-0.65c1.986-0.152,4.005-0.316,5.999-0.313
					c0.058,0,0.058,0.087,0,0.091c-1.164,0.027-2.334,0.135-3.496,0.209c-3.68,0.236-7.329,0.698-10.976,1.203
					c-0.006,0.285-0.014,0.574-0.024,0.86c-0.147,3.954-0.754,7.859-1.063,11.801c-0.322,4.099-0.333,8.229,0.147,12.313
					c0.208,1.748,0.506,3.479,0.687,5.229c0.147,1.435,0.263,2.881,0.545,4.295c0.271,1.362,0.685,2.704,1.378,3.915
					c0.815,1.424,1.924,2.521,3.053,3.688c0.078,0.081,0.059,0.182-0.001,0.245c0.535,0.06,1.027,0.079,1.516-0.334
					c0.555-0.474,0.913-1.135,1.157-1.812c0.286-0.79,0.468-1.61,0.57-2.44c0.081-0.654,0.046-1.314,0.117-1.968
					c0.005-0.054,0.043-0.112,0.105-0.104c0.355,0.04,0.351,0.241,0.5,0.525c0.035,0.064-0.059,0.119-0.102,0.059
					c-0.01-0.019-0.021-0.033-0.032-0.049c1.499,2.817,2.816,5.739,4.487,8.468c0.832,1.353,1.754,2.594,2.794,3.795
					c0.915,1.06,1.88,2.106,2.629,3.296c0.15,0.235,0.328,0.52,0.496,0.826c0.332-0.136,0.656-0.28,0.963-0.499
					c0.291-0.208,0.696-0.398,0.609-0.809c-0.072-0.34-0.155-0.632-0.314-0.942c-0.05-0.099,0.083-0.219,0.159-0.123
					c0.287,0.355,0.744,0.573,0.993,0.959c0.013,0.02-0.01,0.037-0.027,0.024c-0.269-0.145-0.506-0.349-0.743-0.55
					c0.064,0.168,0.115,0.344,0.162,0.519l0.028,0.097c0.03,0.111,0.061,0.224,0.095,0.333c0.013,0.042,0,0.104-0.035,0.134
					c-0.495,0.402-1.083,0.913-1.724,1.173c0.257,0.524,0.446,1.094,0.374,1.581c-0.046,0.313-0.234,0.56-0.436,0.796
					c-0.443,0.521-0.87,1.039-1.219,1.636c-0.755,1.292-1.367,2.698-2.226,3.93c-0.534,0.766-1.298,1.772-2.346,1.684
					c-0.049-0.005-0.083-0.029-0.103-0.063c-0.04-0.074-0.008-0.188,0.103-0.182c1.339,0.08,2.259-1.773,2.798-2.767
					c0.636-1.169,1.197-2.483,2.024-3.536c0.315-0.396,0.737-0.777,0.991-1.223c0.196-0.341,0.106-0.686-0.015-1.038
					c-0.083-0.243-0.178-0.479-0.282-0.708c-0.191,0.045-0.383,0.067-0.579,0.056c-0.077-0.006-0.129-0.125-0.044-0.162
					c0.161-0.068,0.321-0.133,0.478-0.192c-0.432-0.863-1.001-1.645-1.628-2.4c-0.859-1.043-1.787-2.031-2.619-3.101
					c-0.837-1.077-1.554-2.245-2.231-3.429c-0.734-1.281-1.417-2.59-2.062-3.918c-0.56-1.157-1.187-2.275-1.742-3.435
					c0.017,0.587-0.073,1.203-0.153,1.744c-0.132,0.891-0.332,1.792-0.711,2.611c-0.541,1.164-2.043,2.724-3.414,1.632
					c-0.059-0.047-0.01-0.153,0.063-0.149c0.095,0.008,0.186,0.018,0.279,0.024c-1.518-1.473-2.881-2.963-3.695-4.943
					c-0.162-0.392-0.297-0.79-0.418-1.19c-0.269,0.896-0.173,1.858,0.096,2.8c0.026-0.121,0.054-0.24,0.088-0.355
					c0.021-0.067,0.113-0.053,0.118,0.015c0.023,0.313,0.019,0.635-0.004,0.963c0.312,0.856,0.733,1.676,1.119,2.382
					c1.032,1.89,2.274,3.649,3.576,5.359c1.89,2.481,3.71,5.043,5.46,7.625c0.709,1.05,1.558,2.268,1.929,3.491
					c0.191,0.631,0.289,1.242,0.249,1.9c-0.043,0.711-0.178,1.475,0.196,2.118c0.004,0.006,0.006,0.013,0.009,0.018
					c0.099,0.21-0.223,0.392-0.345,0.182c-0.308-0.53-0.328-1.104-0.288-1.707c0.056-0.824,0.082-1.611-0.191-2.409
					c-0.465-1.352-1.369-2.646-2.17-3.817c-1.742-2.543-3.535-5.061-5.377-7.532c-1.368-1.838-2.706-3.74-3.708-5.811
					c-0.178-0.369-0.357-0.761-0.528-1.168c-0.109,0.805-0.3,1.612-0.453,2.354c-0.261,1.269-0.575,2.526-0.961,3.764
					c-0.62,1.976-1.337,3.986-2.316,5.816c-0.848,1.582-1.821,3.115-2.466,4.796c-0.578,1.504-0.901,3.013,0.122,4.394
					c0.033,0.043-0.031,0.104-0.076,0.073c-0.017-0.012-0.033-0.024-0.049-0.037c-1.129-0.869-0.88-2.605-0.499-3.798
					c0.551-1.716,1.482-3.281,2.353-4.853c1.059-1.903,1.874-3.948,2.538-6.023c0.418-1.307,0.778-2.633,1.054-3.977
					c0.14-0.677,0.265-1.354,0.37-2.04c0.054-0.36,0.091-0.734,0.143-1.104C270.545,475.592,270.522,475.534,270.501,475.472z"/>
				<path fill="#BA8B5B" d="M289.335,489.799c0.122,0.354,0.211,0.697,0.015,1.038c-0.254,0.443-0.675,0.824-0.99,1.223
					c-0.827,1.053-1.389,2.367-2.024,3.536c-0.54,0.991-1.459,2.847-2.798,2.767c-0.11-0.007-0.142,0.105-0.103,0.182l-0.021,0.01
					c-0.002-0.005-0.005-0.012-0.009-0.018c-0.375-0.646-0.24-1.407-0.196-2.118c0.04-0.658-0.058-1.271-0.249-1.9
					c-0.372-1.226-1.22-2.441-1.929-3.491c-1.75-2.582-3.571-5.144-5.46-7.625c-1.302-1.71-2.544-3.472-3.576-5.359
					c-0.386-0.706-0.809-1.523-1.12-2.382c0.023-0.328,0.027-0.648,0.004-0.963c-0.005-0.065-0.098-0.082-0.118-0.015
					c-0.034,0.115-0.063,0.234-0.088,0.355c-0.269-0.939-0.365-1.903-0.096-2.8c0.121,0.4,0.256,0.801,0.418,1.19
					c0.813,1.98,2.178,3.473,3.694,4.943c-0.093-0.01-0.185-0.02-0.279-0.024c-0.073-0.004-0.122,0.104-0.063,0.149
					c1.37,1.092,2.873-0.468,3.414-1.632c0.38-0.819,0.581-1.725,0.712-2.612c0.08-0.54,0.169-1.156,0.153-1.743
					c0.556,1.157,1.183,2.275,1.742,3.435c0.645,1.328,1.328,2.637,2.063,3.918c0.678,1.184,1.395,2.352,2.231,3.429
					c0.832,1.067,1.759,2.058,2.619,3.101c0.626,0.758,1.196,1.537,1.628,2.4c-0.157,0.062-0.317,0.123-0.478,0.192
					c-0.085,0.036-0.033,0.156,0.044,0.161c0.196,0.015,0.388-0.01,0.579-0.055C289.156,489.319,289.251,489.556,289.335,489.799z"
					/>
				<path fill="#BA8B5B" d="M270.501,475.472c0.021,0.063,0.043,0.12,0.064,0.183c-0.051,0.368-0.088,0.742-0.143,1.104
					c-0.105,0.686-0.23,1.363-0.37,2.04c-0.275,1.343-0.636,2.67-1.053,3.977c-0.665,2.074-1.479,4.119-2.538,6.023
					c-0.871,1.57-1.801,3.137-2.353,4.853c-0.382,1.19-0.63,2.929,0.499,3.798l-0.018,0.021c-0.017-0.01-0.035-0.018-0.055-0.021
					c-2.12-0.237-3.831-1.758-5.284-3.22c-1.361-1.369-2.789-3.024-3.495-4.867c1.047-0.143,1.858-1.096,2.465-1.883
					c1.101-1.436,1.905-3.121,2.601-4.78c0.767-1.827,1.414-3.706,1.932-5.62c0.311-1.148,0.754-2.535,0.701-3.766
					c0.773,0.373,1.124,1.332,1.478,2.065c0.43,0.888,0.849,1.896,1.624,2.541c0.793,0.66,1.991,0.4,2.76-0.144
					C270.06,477.246,270.482,476.368,270.501,475.472z"/>
				<path fill="#AF712C" d="M270.477,471.894c-0.034,0.013-0.064,0.036-0.08,0.075c-0.378,0.935-0.318,1.945-0.064,2.936
					c-0.039,0.013-0.071,0.045-0.067,0.092c0.113,1.322-0.625,2.554-1.921,2.945c-1.205,0.365-1.946-0.474-2.483-1.402
					c-0.454-0.786-0.788-1.635-1.234-2.425c-0.223-0.396-0.605-1.062-1.14-1.027c-0.018,0.001-0.035,0.007-0.048,0.014
					c-0.003-0.017-0.003-0.029-0.004-0.047c-0.014-0.126-0.18-0.126-0.195,0c-0.375,3.056-1.318,6.015-2.474,8.86
					c-0.675,1.664-1.447,3.311-2.446,4.808c-0.282,0.424-0.628,0.918-1.041,1.343l-0.004-0.004c0.02-0.023,0.024-0.059,0.001-0.091
					c-0.442-0.604-1.192-0.98-1.812-1.382c-0.543-0.35-1.038-0.727-1.488-1.161c0.146-0.227,0.272-0.47,0.375-0.72
					c0.695-1.695,0.591-3.708,0.434-5.489c-0.36-4.061-1.543-7.959-2.293-11.947c-0.059-0.314-0.115-0.633-0.152-0.95
					c-0.01-0.092-0.153-0.101-0.149,0c0.068,1.539,0.498,3.071,0.826,4.567c0.474,2.163,0.939,4.33,1.247,6.522
					c0.301,2.15,0.776,5.679-0.528,7.724c-0.093-0.18-0.213-0.336-0.394-0.362c-0.084-0.017-0.175,0.065-0.12,0.151
					c0.105,0.164,0.219,0.317,0.341,0.461c-0.491,0.647-1.191,1.112-2.181,1.285c-0.064,0.016-0.128,0.025-0.192,0.04
					c-0.095,0.02-0.099,0.116-0.051,0.177l-0.255,0.27c-4.357-3.795-7.833-8.429-10.507-13.537
					c-1.416-2.701-2.421-5.693-4.177-8.211c-1.288-1.846-3.339-3.831-3.426-6.216c0.008-0.016,0.011-0.032,0.011-0.054
					c0.051-4.034,0.978-7.944,1.813-11.872c0.401-1.892,0.742-3.771,0.922-5.697c0.192-2.044,0.146-4.129,0.528-6.15
					c0.467-2.453,1.615-4.757,1.861-7.251c0.163-1.641,0.222-3.292,0.308-4.937c0.203-3.859,0.391-7.734,0.958-11.561
					c0.224-1.514,0.496-3.048,1.034-4.481c0.277-0.738,0.786-1.928,1.736-1.91c0.066,0.001,0.123-0.048,0.142-0.109
					c0.728-2.387-1.14-4.795-2.487-6.578c-0.833-1.104-1.759-2.176-2.17-3.521c-0.409-1.337-0.229-2.787-0.196-4.161
					c0.04-1.654-0.107-3.313-0.097-4.968c0.01-1.611-0.086-3.188-0.312-4.784c-0.201-1.429-0.363-2.868-0.459-4.313
					c-0.083-1.265-0.263-2.79,0.313-3.962c0.043-0.087-0.008-0.168-0.076-0.199c0.001-0.008,0.002-0.014,0.004-0.021
					c0.002-0.029-0.027-0.048-0.054-0.048c0.241-0.071,1.508,0.604,1.66,0.692c0.597,0.352,1.147,0.782,1.686,1.219
					c1.06,0.856,2.071,1.771,3.24,2.482c1.227,0.746,2.577,1.354,3.879,1.95c1.346,0.618,2.729,1.152,4.161,1.523
					c2.704,0.702,5.505,0.556,7.967-0.833c1.089-0.618,2.235-1.222,3.144-2.099c1.019-0.982,0.819-2.267,1.243-3.479
					c0.203,0.358,0.47,0.687,0.756,0.988c0.17,0.181,0.348,0.353,0.522,0.518c0.578,0.548,1.18,0.916,1.926,1.188
					c0.756,0.274,1.553,0.437,2.252,0.847c0.636,0.372,0.85,1.024,0.98,1.703c0.289,1.483,0.157,3.068,0.058,4.564
					c-0.028,0.421-0.074,0.852-0.12,1.282c-0.372,0.523-0.649,1.135-0.804,1.843c-0.021,0.092,0.116,0.132,0.143,0.04
					c0.151-0.513,0.354-0.984,0.614-1.414c-0.063,0.629-0.113,1.26-0.092,1.879c-0.715,0.988-0.917,2.238-1.041,3.43
					c-0.153,1.479-0.103,2.97-0.126,4.452c-0.059,3.799-0.506,7.578-0.583,11.375c-0.037,1.914,0.045,3.829,0.313,5.728
					c0.187,1.318,0.396,2.633,0.548,3.95c-2.271-0.085-4.548-0.089-6.803,0.223c-1.552,0.216-3.07,0.574-4.549,1.091
					c-0.779,0.271-1.541,0.6-2.285,0.949c-0.427,0.199-0.845,0.422-1.252,0.654c-0.36,0.208-0.599,0.464-1,0.631
					c-0.118,0.049-0.077,0.234,0.054,0.198c0.71-0.206,1.288-0.673,1.946-0.997c0.917-0.457,1.858-0.854,2.826-1.188
					c1.645-0.574,3.36-0.922,5.089-1.104c2.01-0.217,4.012-0.159,6.017-0.073c0.065,0.623,0.119,1.25,0.147,1.879
					c0.087,1.957-0.229,3.897-0.156,5.858c0.064,1.718,0.362,3.423,0.614,5.126c0.305,2.069,0.395,4.138,0.359,6.204
					c-2.097,0.323-4.189,0.679-6.293,0.954c-2.169,0.282-4.343,0.535-6.5,0.907c-1.97,0.342-4.102,0.693-5.892,1.636
					c-0.438,0.229-0.902,0.549-1.083,1.031c-0.024,0.063,0.083,0.105,0.11,0.045c0.27-0.611,0.99-0.938,1.565-1.188
					c0.947-0.413,1.97-0.666,2.977-0.896c2.33-0.532,4.713-0.851,7.083-1.154c2.68-0.348,5.353-0.738,8.029-1.112
					c-0.127,5.854-1.238,11.696-1.308,17.563c-0.024,2.049,0.062,4.096,0.246,6.135c0.168,1.859,0.501,3.697,0.712,5.553
					C269.778,467.545,269.896,469.773,270.477,471.894z"/>
				<path d="M264.591,497.469c0.097,0.062,0.122,0.228-0.018,0.249c-0.874,0.148-1.87-0.389-2.58-0.834
					c-1.04-0.647-1.977-1.461-2.833-2.333c-0.907-0.929-1.756-1.923-2.479-2.998c-0.445-0.663-0.924-1.391-1.136-2.175
					c-0.178-0.005-0.196-0.231-0.066-0.313c0-0.088,0.115-0.119,0.155-0.037c0.629-0.083,1.181-0.479,1.647-0.965
					c0.413-0.425,0.759-0.92,1.041-1.343c0.999-1.497,1.77-3.144,2.446-4.808c1.156-2.848,2.099-5.807,2.474-8.86
					c0.015-0.126,0.181-0.126,0.195,0c0.001,0.018,0.001,0.03,0.004,0.047l0.015,0.216c0.054,1.229-0.391,2.615-0.701,3.766
					c-0.518,1.914-1.166,3.793-1.932,5.62c-0.696,1.659-1.5,3.347-2.601,4.781c-0.606,0.786-1.418,1.739-2.465,1.882
					c0.706,1.843,2.133,3.498,3.495,4.868c1.453,1.461,3.164,2.979,5.284,3.219C264.556,497.451,264.574,497.459,264.591,497.469z"
					/>
				<path d="M264.442,374.907l-0.155,0.149c-0.287-0.303-0.555-0.628-0.756-0.988c-0.424,1.212-0.224,2.494-1.243,3.479
					c-0.909,0.876-2.054,1.479-3.144,2.098c-2.461,1.391-5.263,1.536-7.967,0.833c-1.432-0.371-2.815-0.904-4.161-1.522
					c-1.303-0.597-2.653-1.204-3.879-1.95c-1.168-0.711-2.18-1.625-3.24-2.483c-0.539-0.436-1.087-0.866-1.686-1.218
					c-0.152-0.091-1.419-0.765-1.66-0.692c-0.005,0-0.009,0.001-0.013,0.002l-0.155,0.009c-0.005-0.032,0.005-0.068,0.037-0.101
					c0.234-0.233,0.87,0.043,1.096,0.137c0.578,0.24,1.117,0.548,1.624,0.915c1.25,0.901,2.362,1.989,3.656,2.832
					c1.365,0.891,2.911,1.585,4.394,2.252c3.065,1.376,6.657,2.576,9.996,1.463c0.885-0.294,1.646-0.743,2.451-1.196
					c0.582-0.328,1.171-0.65,1.706-1.054c0.771-0.581,1.352-1.215,1.516-2.194c0.115-0.696,0.178-1.391,0.47-2.042
					c-0.025-0.066-0.048-0.136-0.068-0.207c-0.023-0.083,0.104-0.142,0.144-0.061c0.027,0.055,0.054,0.105,0.082,0.163
					c0.105,0.015,0.209,0.133,0.15,0.265c0,0.001,0,0.002-0.001,0.004C263.863,374.182,264.136,374.561,264.442,374.907z"/>
				<path d="M257.278,487.968c0.023,0.032,0.018,0.065-0.001,0.09c-0.027,0.031-0.077,0.049-0.117,0.025
					c-0.8-0.42-1.588-1.042-2.328-1.57c-0.365-0.257-0.711-0.54-1.019-0.854c-0.609,0.811-1.505,1.362-2.594,1.27
					c-0.035-0.005-0.062-0.021-0.081-0.043c-0.047-0.061-0.044-0.158,0.051-0.177c0.064-0.015,0.128-0.024,0.192-0.04
					c0.99-0.173,1.689-0.638,2.181-1.285c-0.122-0.144-0.236-0.297-0.341-0.461c-0.055-0.086,0.036-0.168,0.12-0.152
					c0.181,0.027,0.3,0.186,0.394,0.363c1.305-2.045,0.829-5.571,0.528-7.724c-0.308-2.192-0.772-4.359-1.247-6.522
					c-0.328-1.496-0.757-3.029-0.826-4.567c-0.004-0.101,0.139-0.093,0.149,0c0.037,0.317,0.093,0.636,0.152,0.949
					c0.75,3.989,1.934,7.89,2.293,11.948c0.157,1.781,0.261,3.794-0.434,5.489c-0.104,0.25-0.23,0.493-0.376,0.72
					c0.451,0.437,0.946,0.813,1.489,1.161C256.086,486.986,256.835,487.362,257.278,487.968z"/>
				<path fill="#96BBD6" d="M250.884,487.152c0.155,0.134-0.072,0.357-0.227,0.225c-4.404-3.841-8.255-8.696-10.735-14.009
					c-0.692-1.48-1.366-2.968-2.096-4.43c-0.645-1.296-1.277-2.63-2.133-3.803c-1.227-1.681-3.178-3.724-3.137-5.958
					c0.033,0.092,0.174,0.097,0.217,0.011c0.087,2.385,2.138,4.369,3.425,6.216c1.756,2.518,2.762,5.51,4.177,8.211
					C243.051,478.725,246.527,483.357,250.884,487.152z"/>
				<path d="M239.599,398.586c1.346,1.783,3.215,4.191,2.487,6.578c-0.019,0.063-0.076,0.109-0.142,0.108
					c-0.95-0.017-1.459,1.173-1.736,1.91c-0.538,1.437-0.81,2.971-1.034,4.482c-0.566,3.825-0.755,7.7-0.958,11.56
					c-0.086,1.646-0.145,3.298-0.308,4.938c-0.248,2.493-1.396,4.798-1.861,7.251c-0.382,2.021-0.335,4.105-0.528,6.15
					c-0.181,1.927-0.521,3.808-0.922,5.696c-0.834,3.929-1.76,7.837-1.813,11.873c0,0.021-0.003,0.038-0.011,0.053
					c-0.004-0.065-0.005-0.135-0.004-0.2c0.001-0.136-0.196-0.134-0.205,0c-0.005,0.063-0.008,0.127-0.008,0.19
					c-0.005-0.014-0.008-0.026-0.008-0.043c-0.013-3.339,0.629-6.607,1.34-9.854c0.372-1.701,0.791-3.404,1.057-5.127
					c0.27-1.739,0.405-3.494,0.504-5.25c0.094-1.664,0.219-3.265,0.651-4.88c0.42-1.574,1.009-3.109,1.376-4.695
					c0.225-0.979,0.245-2.023,0.305-3.021c0.254-4.184,0.371-8.38,0.833-12.547c0.209-1.885,0.454-3.798,0.976-5.626
					c0.282-0.988,0.677-2.422,1.651-2.972c0.173-0.102,0.361-0.167,0.562-0.183c0.263-0.018,0.125-1.396,0.06-1.677
					c-0.347-1.49-1.238-2.781-2.137-3.991c-0.82-1.104-1.851-2.192-2.383-3.474c-0.563-1.351-0.532-2.757-0.478-4.193
					c0.066-1.762-0.087-3.52-0.071-5.283c0.016-1.834-0.081-3.608-0.328-5.429c-0.2-1.484-0.366-2.979-0.428-4.478
					c-0.051-1.231-0.17-2.589,0.397-3.72c0.004-0.01,0.009-0.016,0.014-0.021c-0.032-0.022-0.06-0.056-0.066-0.095l0.155-0.01
					c0.004-0.001,0.008-0.002,0.013-0.002c0.027,0,0.057,0.02,0.054,0.049c-0.001,0.008-0.003,0.014-0.004,0.021
					c0.068,0.031,0.119,0.111,0.076,0.199c-0.576,1.171-0.396,2.696-0.313,3.962c0.096,1.442,0.258,2.882,0.459,4.313
					c0.226,1.598,0.322,3.172,0.312,4.783c-0.01,1.656,0.137,3.313,0.097,4.969c-0.033,1.374-0.213,2.823,0.196,4.159
					C237.84,396.41,238.765,397.482,239.599,398.586z"/>
				<path fill="#96BBD6" d="M232.771,458.987c-0.001,0.065,0,0.135,0.004,0.2c-0.042,0.087-0.184,0.082-0.217-0.01
					c0-0.063,0.002-0.127,0.008-0.19C232.574,458.854,232.772,458.853,232.771,458.987z"/>
			</g>
		</g>
		<path d="M251.591,392.785c-2.577-2.541-7.018-1.472-9.399-4.365c-0.091-0.11-0.267,0.009-0.231,0.135
			c0.346,1.235,1.113,2.412,2.021,3.313c0.066,0.064,0.186-0.021,0.131-0.102c-0.598-0.887-1.263-1.693-1.669-2.671
			c1.019,0.973,2.337,1.451,3.706,1.818c0.857,0.229,1.723,0.426,2.57,0.694c0.998,0.313,1.862,0.8,2.751,1.334
			C251.568,393.004,251.673,392.866,251.591,392.785z"/>
		<path d="M268.392,381.936c0.003-0.065-0.054-0.111-0.116-0.114c-0.397-0.023-0.714-0.129-1.124-0.078
			c-0.306,0.038-0.589,0.166-0.862,0.299c-0.842,0.41-1.675,0.845-2.51,1.271c-0.889,0.453-1.771,0.912-2.705,1.27
			c-0.896,0.344-1.832,0.507-2.767,0.69c-2.046-0.063-3.941-0.494-5.928-1.006c-1.94-0.5-4.135-1.004-6.123-0.475
			c-0.099,0.026-0.08,0.184,0.024,0.18c1.065-0.04,2.099-0.105,3.164,0.011c1.094,0.119,2.168,0.396,3.23,0.674
			c1.877,0.49,3.86,1.065,5.822,0.824c2.313,0.053,4.432-1.34,6.417-2.354c0.516-0.265,1.016-0.55,1.524-0.826
			c0.238-0.129,0.487-0.215,0.75-0.272c0.35-0.078,0.667,0.05,1.011,0.03c-0.109,0.007,0.039,0.346-0.114,0.505
			c-0.243,0.255-0.598,0.415-0.922,0.526c-0.606,0.208-1.254,0.12-1.86-0.029c-0.082-0.02-0.137,0.1-0.059,0.142
			c0.673,0.363,1.442,0.333,2.154,0.096c0.328-0.109,0.635-0.301,0.865-0.559C268.473,382.501,268.38,382.237,268.392,381.936z"/>
		<path d="M266.064,393.1c-0.651-0.326-1.273-0.337-1.861,0.135c-0.917,0.735-1.618,1.654-2.619,2.302
			c-1.068,0.687-2.32,1.053-3.576,1.178c-1.242,0.125-2.413-0.126-3.626-0.339c-0.079-0.014-0.144,0.102-0.059,0.14
			c1.881,0.833,4.283,0.62,6.153-0.117c1.001-0.396,1.868-1.031,2.634-1.776c0.863-0.84,1.539-1.954,2.904-1.401
			C266.082,393.246,266.128,393.133,266.064,393.1z"/>
		<path d="M289.594,385.401c-0.73-0.509-1.586-0.798-2.446-0.997c-0.081-0.021-0.142,0.104-0.059,0.14
			c0.686,0.303,1.409,0.529,2.055,0.909c-3.182,0.528-6.477-1.285-9.574-0.038c-0.546,0.22-1.399,0.768-1.145,1.479
			c0.292,0.813,1.674,0.661,2.289,0.503c0.085-0.022,0.067-0.154-0.021-0.153c-0.475,0.005-2.499,0.104-1.92-0.896
			c0.548-0.95,2.269-1.03,3.195-1.051c2.569-0.057,5.022,0.995,7.591,0.368C289.688,385.632,289.688,385.469,289.594,385.401z"/>
		<path d="M298.946,388.102c-2.559-0.063-5.103,0.123-7.611,0.638c-2.45,0.503-5.011,1.256-7.245,2.396
			c-0.091,0.046-0.027,0.192,0.068,0.163c2.363-0.747,4.621-1.691,7.048-2.244c2.467-0.562,4.993-0.767,7.518-0.721
			c-1.012,1.447-2.498,2.47-4.137,3.106c-0.086,0.032-0.051,0.173,0.04,0.141c1.796-0.646,3.358-1.689,4.419-3.304
			C299.1,388.201,299.032,388.104,298.946,388.102z"/>
		<path d="M300.357,395.294c-2.418-1.131-5.199-0.653-7.64,0.149c-1.346,0.443-2.644,1.034-3.901,1.686
			c-1.166,0.604-2.387,1.253-3.406,2.092c-0.09,0.073,0.025,0.209,0.122,0.156c1.052-0.575,2.041-1.258,3.098-1.831
			c1.223-0.664,2.491-1.241,3.798-1.714c2.371-0.857,5.175-1.429,7.584-0.419c-1.259,0.662-2.655,0.683-4.058,0.656
			c-0.086-0.001-0.109,0.141-0.021,0.153c1.479,0.241,3.119,0.056,4.423-0.715C300.432,395.464,300.444,395.334,300.357,395.294z"/>
		<path d="M240.672,427.913c-0.015-0.961-0.493-2.236-1.467-1.142c-0.057,0.063,0.032,0.153,0.094,0.095
			c0.26-0.254,0.648-0.597,0.933-0.179c0.162,0.239,0.2,0.584,0.231,0.86c0.07,0.646-0.04,1.255-0.211,1.874
			c-0.513,1.857-1.892,3.34-2.289,5.244c-0.468,2.248-0.35,4.639-0.327,6.917c0.026,2.57,0.007,5.137-0.527,7.663
			c-0.014,0.063,0.08,0.09,0.098,0.025c0.729-2.673,0.722-5.436,0.692-8.186c-0.028-2.681-0.232-5.688,0.944-8.165
			C239.608,431.307,240.701,429.773,240.672,427.913z"/>
		<path d="M286.091,473.2c0-0.016-0.019-0.016-0.021,0c-0.014,0.197-0.004,0.398-0.004,0.598c0,0.021,0.029,0.021,0.029,0
			C286.094,473.6,286.106,473.397,286.091,473.2z"/>
		<path d="M311.997,455.943c-0.405-1.901-0.197-3.871-0.682-5.762c-0.461-1.803-1.358-3.542-2.195-5.191
			c-1.776-3.505-4.101-6.88-4.34-10.911c-0.096-1.606-0.058-3.194-0.651-4.721c-0.516-1.326-1.417-2.479-2.301-3.573
			c-0.893-1.103-1.647-2.197-1.959-3.604c-0.204-0.913-0.188-1.882-0.216-2.813c-0.031-1.063-0.047-2.122-0.104-3.184
			c-0.044-0.835-0.131-1.665-0.257-2.49c-0.139-0.896-0.385-1.766-0.491-2.665c-0.177-1.525-0.055-3.069,0.057-4.595
			c0.206-2.814,0.285-5.696-1.398-8.103c1.266,0.251,2.695-0.051,3.727-0.702c1.965-1.239,2.607-4.1,3.118-6.188
			c0.581-2.378,1.195-4.761,1.456-7.197c0.13-1.22,0.162-2.465,0.024-3.687c-0.08-0.706-0.208-1.761-0.827-2.216
			c-0.009-0.115-0.132-0.224-0.263-0.147c-1.55,0.879-3.388,0.354-4.92-0.297c-1.583-0.672-3.038-1.616-4.476-2.548
			c-0.089-0.058-0.241-0.005-0.261,0.106c-0.075,0.431-0.479,0.626-0.76,0.948c-0.365,0.418-0.682,0.881-1.003,1.333
			c-0.803,1.137-1.575,2.079-2.83,2.76c-1.677,0.91-3.495,0.404-5.224-0.022c-1.555-0.385-2.855-0.126-4.279,0.543
			c-2.301,1.08-4.803,1.161-7.234,1.785c-1.334,0.343-2.537,0.938-3.398,1.865c0.015-0.264,0.03-0.527,0.047-0.791
			c0.093-1.497,0.168-3.028-0.067-4.516c-0.083-0.524-0.229-1.055-0.549-1.484c-0.386-0.524-1.043-0.776-1.636-0.979
			c-0.789-0.272-1.601-0.449-2.33-0.874c-0.854-0.496-1.622-1.35-2.134-2.227c0,0,0-0.001,0.001-0.003
			c0.058-0.131-0.044-0.25-0.15-0.266c-0.028-0.055-0.055-0.107-0.082-0.162c-0.04-0.082-0.168-0.023-0.145,0.061
			c0.02,0.071,0.043,0.141,0.069,0.208c-0.292,0.65-0.355,1.343-0.471,2.04c-0.164,0.98-0.745,1.614-1.516,2.195
			c-0.534,0.401-1.125,0.727-1.707,1.054c-0.806,0.453-1.566,0.902-2.451,1.196c-3.34,1.112-6.932-0.086-9.996-1.464
			c-1.484-0.666-3.03-1.362-4.395-2.252c-1.292-0.843-2.406-1.931-3.656-2.832c-0.507-0.366-1.046-0.675-1.624-0.915
			c-0.226-0.097-0.861-0.371-1.095-0.137c-0.072,0.071-0.032,0.152,0.029,0.193c-0.005,0.007-0.01,0.014-0.015,0.022
			c-0.569,1.13-0.449,2.485-0.398,3.719c0.062,1.499,0.228,2.993,0.428,4.478c0.247,1.819,0.344,3.595,0.327,5.429
			c-0.016,1.765,0.137,3.521,0.071,5.285c-0.054,1.437-0.084,2.842,0.479,4.191c0.533,1.28,1.563,2.37,2.382,3.476
			c0.899,1.209,1.791,2.498,2.138,3.988c0.066,0.28,0.201,1.66-0.061,1.68c-0.199,0.014-0.388,0.083-0.561,0.181
			c-0.976,0.549-1.37,1.98-1.652,2.972c-0.521,1.828-0.766,3.74-0.976,5.627c-0.461,4.167-0.579,8.362-0.833,12.545
			c-0.061,0.999-0.079,2.043-0.305,3.021c-0.367,1.587-0.957,3.122-1.375,4.695c-0.432,1.615-0.557,3.218-0.651,4.88
			c-0.099,1.757-0.234,3.512-0.504,5.252c-0.266,1.722-0.685,3.425-1.058,5.126c-0.709,3.247-1.353,6.519-1.339,9.854
			c0,0.152,0.235,0.152,0.236,0c0.051-4.036,0.978-7.944,1.812-11.873c0.401-1.89,0.743-3.771,0.922-5.694
			c0.191-2.047,0.146-4.13,0.528-6.152c0.465-2.454,1.613-4.758,1.86-7.25c0.163-1.642,0.222-3.293,0.309-4.938
			c0.202-3.858,0.391-7.734,0.957-11.562c0.224-1.513,0.497-3.048,1.034-4.481c0.276-0.738,0.786-1.929,1.735-1.91
			c0.066,0.002,0.124-0.047,0.143-0.108c0.728-2.388-1.141-4.796-2.488-6.579c-0.834-1.104-1.758-2.176-2.169-3.52
			c-0.409-1.337-0.23-2.788-0.197-4.161c0.04-1.652-0.108-3.313-0.097-4.968c0.01-1.612-0.086-3.187-0.311-4.782
			c-0.201-1.433-0.363-2.869-0.458-4.312c-0.083-1.266-0.263-2.791,0.313-3.964c0.043-0.087-0.008-0.168-0.077-0.199
			c0.001-0.007,0.003-0.013,0.003-0.021c0.003-0.035-0.038-0.057-0.066-0.045c0.205-0.102,1.518,0.6,1.672,0.688
			c0.599,0.354,1.146,0.782,1.685,1.22c1.06,0.856,2.073,1.771,3.242,2.482c1.226,0.747,2.576,1.354,3.878,1.95
			c1.344,0.616,2.729,1.151,4.161,1.522c2.703,0.701,5.505,0.556,7.965-0.834c1.092-0.617,2.237-1.22,3.145-2.098
			c1.019-0.983,0.817-2.267,1.243-3.479c0.321,0.572,0.813,1.063,1.278,1.506c0.578,0.549,1.18,0.916,1.927,1.188
			c0.755,0.274,1.553,0.436,2.252,0.848c0.635,0.373,0.85,1.024,0.98,1.704c0.289,1.481,0.157,3.067,0.058,4.563
			c-0.028,0.42-0.074,0.852-0.12,1.282c-0.373,0.521-0.649,1.134-0.806,1.842c-0.021,0.093,0.116,0.132,0.143,0.039
			c0.151-0.513,0.354-0.984,0.615-1.413c-0.064,0.629-0.114,1.26-0.092,1.879c-0.716,0.989-0.918,2.239-1.042,3.43
			c-0.153,1.479-0.104,2.97-0.126,4.453c-0.058,3.798-0.506,7.578-0.583,11.374c-0.039,1.916,0.043,3.83,0.313,5.728
			c0.187,1.317,0.396,2.632,0.548,3.95c-2.271-0.085-4.548-0.091-6.803,0.223c-1.552,0.216-3.069,0.574-4.548,1.091
			c-0.78,0.271-1.54,0.599-2.286,0.949c-0.427,0.2-0.845,0.42-1.252,0.655c-0.36,0.207-0.599,0.464-1,0.63
			c-0.118,0.049-0.076,0.232,0.054,0.197c0.71-0.206,1.287-0.672,1.945-0.996c0.917-0.457,1.859-0.854,2.827-1.188
			c1.645-0.574,3.359-0.92,5.088-1.104c2.01-0.218,4.013-0.159,6.017-0.074c0.067,0.624,0.119,1.251,0.147,1.88
			c0.087,1.959-0.229,3.896-0.155,5.857c0.063,1.72,0.361,3.426,0.613,5.127c0.306,2.07,0.395,4.14,0.359,6.206
			c-2.097,0.32-4.189,0.677-6.292,0.951c-2.169,0.282-4.343,0.537-6.501,0.91c-1.971,0.341-4.101,0.691-5.892,1.633
			c-0.438,0.229-0.902,0.551-1.083,1.031c-0.023,0.064,0.083,0.109,0.111,0.046c0.271-0.609,0.99-0.938,1.565-1.188
			c0.949-0.415,1.97-0.666,2.975-0.896c2.332-0.534,4.714-0.852,7.084-1.154c2.68-0.346,5.354-0.739,8.029-1.112
			c-0.126,5.854-1.237,11.697-1.308,17.563c-0.024,2.048,0.062,4.098,0.246,6.137c0.169,1.859,0.5,3.694,0.713,5.551
			c0.249,2.183,0.366,4.411,0.946,6.532c-0.033,0.012-0.063,0.035-0.079,0.074c-0.377,0.935-0.318,1.948-0.064,2.936
			c-0.039,0.012-0.07,0.044-0.066,0.092c0.112,1.322-0.625,2.553-1.922,2.945c-1.205,0.366-1.946-0.473-2.482-1.402
			c-0.454-0.787-0.788-1.634-1.233-2.424c-0.223-0.396-0.604-1.063-1.141-1.028c-0.018,0-0.034,0.007-0.049,0.017
			c-0.001-0.018-0.002-0.033-0.004-0.052c-0.013-0.126-0.178-0.125-0.193,0c-0.376,3.058-1.32,6.019-2.475,8.863
			c-0.675,1.664-1.447,3.312-2.447,4.807c-0.604,0.906-1.507,2.15-2.688,2.308c-0.039-0.082-0.155-0.05-0.155,0.037
			c-0.129,0.08-0.111,0.312,0.067,0.314c0.211,0.783,0.691,1.513,1.135,2.173c0.724,1.076,1.573,2.071,2.479,2.999
			c0.855,0.872,1.794,1.687,2.833,2.334c0.711,0.444,1.707,0.979,2.579,0.834c0.165-0.026,0.104-0.252-0.036-0.269
			c-2.121-0.236-3.831-1.759-5.284-3.221c-1.362-1.37-2.79-3.024-3.496-4.868c1.048-0.145,1.86-1.094,2.465-1.882
			c1.102-1.437,1.905-3.122,2.601-4.781c0.767-1.827,1.415-3.706,1.932-5.62c0.311-1.146,0.754-2.534,0.701-3.767
			c0.774,0.375,1.124,1.337,1.477,2.067c0.43,0.888,0.849,1.896,1.625,2.54c0.792,0.66,1.991,0.403,2.759-0.146
			c0.744-0.529,1.167-1.407,1.187-2.306c0.021,0.063,0.043,0.121,0.064,0.182c-0.052,0.37-0.088,0.742-0.143,1.104
			c-0.104,0.686-0.231,1.363-0.371,2.04c-0.275,1.344-0.636,2.669-1.054,3.976c-0.665,2.075-1.479,4.121-2.537,6.026
			c-0.871,1.568-1.803,3.137-2.354,4.853c-0.027,0.088-0.054,0.178-0.08,0.271c-0.071,0.125-0.112,0.398-0.113,0.444
			c0,0.003,0,0.006,0,0.011c-0.237,1.111-0.223,2.413,0.741,3.108c0.044,0.032,0.108-0.031,0.076-0.074
			c-0.244-0.328-0.411-0.665-0.517-1.006c0.004-0.016,0.008-0.026,0.01-0.041c0.047-0.426-0.018-0.876-0.039-1.302
			c-0.009-0.195-0.017-0.394-0.021-0.589c0.097-0.479,0.257-0.97,0.443-1.455c0.646-1.683,1.618-3.214,2.466-4.796
			c0.981-1.83,1.697-3.843,2.316-5.816c0.388-1.235,0.703-2.493,0.961-3.762c0.153-0.742,0.345-1.553,0.453-2.355
			c0.167,0.407,0.35,0.8,0.527,1.168c1.001,2.068,2.34,3.972,3.708,5.812c1.841,2.474,3.634,4.989,5.377,7.532
			c0.802,1.171,1.706,2.468,2.169,3.817c0.076,0.224,0.126,0.445,0.162,0.666c-0.15,0.033-0.14,0.28,0.031,0.28
			c0.002,0,0.003-0.001,0.004-0.001c0.048,0.479,0.028,0.964-0.006,1.463c-0.041,0.603-0.019,1.177,0.288,1.706
			c0.125,0.221,0.462,0.022,0.336-0.195c-0.374-0.646-0.24-1.409-0.196-2.118c0.04-0.659-0.058-1.271-0.249-1.899
			c-0.372-1.228-1.218-2.443-1.93-3.493c-1.75-2.583-3.57-5.145-5.459-7.622c-1.302-1.711-2.545-3.475-3.575-5.362
			c-0.386-0.706-0.81-1.523-1.121-2.382c0.022-0.326,0.027-0.648,0.004-0.961c-0.006-0.065-0.098-0.084-0.118-0.017
			c-0.035,0.115-0.063,0.234-0.089,0.355c-0.27-0.94-0.365-1.905-0.097-2.801c0.121,0.4,0.257,0.8,0.417,1.19
			c0.814,1.982,2.18,3.479,3.695,4.944c-0.092-0.009-0.185-0.019-0.278-0.024c-0.073-0.004-0.123,0.104-0.063,0.149
			c1.369,1.093,2.872-0.468,3.413-1.633c0.38-0.819,0.581-1.722,0.711-2.61c0.081-0.541,0.169-1.159,0.154-1.745
			c0.555,1.156,1.181,2.276,1.741,3.434c0.645,1.33,1.326,2.639,2.061,3.921c0.679,1.183,1.394,2.351,2.232,3.428
			c0.831,1.067,1.757,2.059,2.618,3.102c0.627,0.758,1.196,1.536,1.629,2.398c-0.159,0.063-0.319,0.125-0.479,0.193
			c-0.085,0.037-0.033,0.156,0.045,0.162c0.197,0.014,0.389-0.008,0.579-0.056c0.104,0.229,0.198,0.466,0.282,0.707
			c0.121,0.354,0.211,0.699,0.015,1.04c-0.254,0.442-0.676,0.822-0.991,1.224c-0.827,1.051-1.388,2.365-2.024,3.534
			c-0.539,0.991-1.458,2.847-2.798,2.768c-0.159-0.011-0.156,0.231,0,0.245c1.047,0.09,1.813-0.92,2.345-1.686
			c0.859-1.229,1.47-2.638,2.226-3.931c0.349-0.595,0.776-1.11,1.218-1.635c0.202-0.236,0.391-0.48,0.437-0.796
			c0.071-0.487-0.117-1.055-0.375-1.581c0.643-0.26,1.23-0.771,1.725-1.175c0.034-0.027,0.047-0.089,0.034-0.131
			c-0.034-0.11-0.065-0.223-0.094-0.333c0.004,0.008,0.008,0.015,0.014,0.021c0.57,0.461,1.188,0.898,1.831,1.309
			c0.045,0.058,0.09,0.112,0.135,0.167c0.043,0.055,0.102,0.044,0.143,0.008c0.904,0.555,1.855,1.044,2.794,1.438
			c0.897,0.379,1.826,0.668,2.802,0.722c0.416,0.022,0.833-0.031,1.231-0.141c0.278,0.165,0.566,0.302,0.863,0.383
			c0.113,0.03,0.16-0.117,0.074-0.181c-0.178-0.132-0.362-0.252-0.549-0.37c0.179-0.104,0.358-0.229,0.531-0.28
			c0.024,0.195,0.046,0.389,0.044,0.586c-0.003,0.102,0.138,0.094,0.15,0c0.122-0.094,0.246-0.188,0.368-0.281
			c0.02,0.002,0.032-0.021,0.015-0.032c-0.142-0.1-0.272-0.042-0.375,0.063c0.012-0.164,0.034-0.329,0.055-0.495
			c0.01-0.079-0.071-0.134-0.138-0.14c-0.281-0.024-0.469,0.158-0.716,0.275c-0.082,0.04-0.168,0.072-0.255,0.104
			c-0.347-0.216-0.695-0.431-1.022-0.678c-0.794-0.599-1.526-1.28-2.219-1.993c-0.523-0.54-1.012-1.112-1.453-1.723
			c0.038,0.044,0.074,0.087,0.108,0.132c0.019,0.021,0.057-0.001,0.048-0.026c-0.051-0.15-0.171-0.269-0.275-0.383
			c-0.184-0.203-0.366-0.408-0.465-0.666c-0.008-0.021-0.031-0.027-0.049-0.021c-0.11-0.191-0.213-0.388-0.311-0.584
			c-0.141-0.287-0.199-0.646-0.386-0.901c-0.021-0.028-0.072-0.029-0.081,0.01c-0.126,0.558,0.379,1.338,0.646,1.793
			c0.491,0.838,1.117,1.598,1.768,2.312c0.719,0.793,1.515,1.52,2.357,2.183c0.272,0.214,0.565,0.448,0.874,0.664
			c-0.23,0.035-0.465,0.05-0.691,0.053c-1.023,0.008-2.045-0.36-2.97-0.763c-1.089-0.478-2.063-1.122-3.049-1.755
			c-0.794-1.325-1.874-2.439-2.369-3.958c-0.507-1.558-0.336-3.244-0.868-4.801c-0.442-1.294-1.216-2.521-1.863-3.718
			c-0.576-1.064-1.038-2.146-1.518-3.251c-0.027-0.063-0.109-0.021-0.116,0.031c-0.042,0.393,0.141,0.791,0.292,1.145
			c0.278,0.65,0.599,1.28,0.924,1.908c0.705,1.354,1.558,2.701,2.048,4.153c0.55,1.62,0.345,3.389,0.928,5.006
			c0.375,1.044,1.023,2.04,1.719,2.967c-0.276-0.171-0.556-0.333-0.842-0.486c-0.09-0.052-0.192,0.021-0.212,0.104
			c-0.046-0.174-0.099-0.349-0.163-0.517c0.237,0.199,0.474,0.405,0.743,0.552c0.018,0.009,0.04-0.01,0.028-0.027
			c-0.25-0.384-0.707-0.603-0.994-0.958c-0.075-0.096-0.209,0.023-0.16,0.122c0.161,0.313,0.242,0.604,0.313,0.942
			c0.088,0.41-0.317,0.602-0.61,0.81c-0.306,0.218-0.629,0.364-0.961,0.497c-0.168-0.308-0.347-0.59-0.496-0.825
			c-0.748-1.188-1.714-2.235-2.629-3.296c-1.041-1.202-1.962-2.438-2.793-3.796c-1.672-2.724-2.989-5.646-4.488-8.467
			c0.01,0.018,0.021,0.032,0.031,0.048c0.043,0.063,0.136,0.01,0.101-0.058c-0.149-0.286-0.145-0.486-0.5-0.525
			c-0.062-0.008-0.1,0.054-0.106,0.104c-0.069,0.649-0.036,1.313-0.117,1.967c-0.102,0.831-0.283,1.651-0.569,2.44
			c-0.246,0.679-0.602,1.339-1.157,1.811c-0.489,0.416-0.98,0.394-1.515,0.337c0.06-0.063,0.079-0.165,0-0.247
			c-1.128-1.169-2.236-2.264-3.053-3.686c-0.694-1.214-1.109-2.556-1.379-3.919c-0.281-1.413-0.396-2.857-0.544-4.293
			c-0.181-1.751-0.479-3.483-0.686-5.23c-0.483-4.086-0.47-8.217-0.149-12.313c0.309-3.938,0.917-7.845,1.063-11.8
			c0.011-0.286,0.018-0.572,0.024-0.859c3.646-0.507,7.296-0.968,10.975-1.204c1.162-0.074,2.332-0.182,3.496-0.209
			c0.058-0.002,0.058-0.09,0-0.09c-1.993-0.006-4.014,0.158-6,0.313c-2.077,0.16-4.148,0.389-6.215,0.65
			c-0.752,0.096-1.503,0.201-2.253,0.314c0.025-1.604-0.029-3.212-0.195-4.809c-0.188-1.816-0.556-3.61-0.721-5.432
			c-0.175-1.911,0.068-3.776,0.104-5.686c0.019-1.025-0.045-2.052-0.151-3.073c1.307,0.059,2.616,0.118,3.928,0.115
			c1.604-0.002,3.207,0.021,4.806-0.117c0.714-0.063,1.422-0.167,2.121-0.323c0.501-0.113,1.166-0.263,1.582-0.583
			c0.525-0.406,3.205-2.637,2.039-3.396c-0.537-0.353-0.759-0.092-1.014,0.359c-0.018,0.031,0.028,0.059,0.049,0.028
			c0.217-0.312,0.421-0.476,0.804-0.278c0.245,0.126,0.248,0.386,0.187,0.616c-0.124,0.468-0.511,0.881-0.825,1.229
			c-0.639,0.711-1.283,1.303-2.202,1.592c-1.453,0.46-3.026,0.528-4.539,0.563c-1.579,0.033-3.158-0.003-4.735-0.08
			c-0.746-0.036-1.493-0.074-2.242-0.105c-0.092-0.806-0.206-1.606-0.327-2.405c-0.307-2.031-0.549-4.029-0.578-6.089
			c-0.028-2.002,0.086-4.004,0.214-6.001c0.124-1.937,0.216-3.87,0.319-5.805c0.076-1.438,0.01-2.877,0.069-4.313
			c0.055-1.31,0.174-2.782,0.831-3.958c0.005,0.063,0.01,0.124,0.017,0.187c0.017,0.149,0.214,0.148,0.233,0
			c0.124-1.006,0.188-2.023,0.249-3.04c0.307-0.369,0.672-0.695,1.104-0.975c1.012-0.653,2.222-0.955,3.389-1.188
			c1.154-0.232,2.323-0.376,3.478-0.609c1.365-0.274,2.509-0.885,3.798-1.375c1.773-0.677,3.413,0.107,5.167,0.396
			c1.502,0.246,2.925-0.104,4.162-0.972c0.929-0.651,1.541-1.479,2.193-2.391c0.352-0.495,0.702-0.994,1.112-1.44
			c0.269-0.296,0.501-0.38,0.625-0.691c1.497,0.966,3.009,1.907,4.662,2.583c1.534,0.626,3.387,1.021,4.895,0.132
			c0.032-0.018,0.052-0.042,0.066-0.065c0.229,0.771,0.498,1.459,0.583,2.282c0.107,1.046,0.053,2.11-0.041,3.155
			c-0.203,2.241-0.775,4.392-1.277,6.575c-0.495,2.149-0.993,4.599-2.483,6.307c-0.727,0.836-1.86,1.247-2.939,1.33
			c-1.215,0.093-2.271-0.347-3.168-1.14c-0.146-0.126-0.329,0.063-0.208,0.209c0.478,0.583,1.122,0.946,1.83,1.128
			c0,0.001,0,0.002,0.001,0.005c1.009,1.593,1.442,3.27,1.479,5.144c0.036,1.692-0.214,3.38-0.29,5.065
			c-0.039,0.846-0.023,1.691,0.057,2.534c0.087,0.932,0.343,1.83,0.498,2.751c0.35,2.084,0.294,4.218,0.37,6.322
			c0.054,1.483,0.229,2.868,0.976,4.178c0.646,1.136,1.594,2.077,2.342,3.145c1.044,1.485,1.596,3.055,1.698,4.865
			c0.099,1.739,0.11,3.398,0.641,5.079c0.991,3.128,2.894,5.938,4.318,8.877c0.729,1.5,1.458,3.078,1.777,4.726
			c0.327,1.676,0.167,3.401,0.531,5.076C311.684,456.284,312.049,456.183,311.997,455.943z"/>
		<path d="M257.278,487.968c-0.444-0.604-1.192-0.981-1.812-1.382c-0.543-0.35-1.039-0.727-1.49-1.16
			c0.147-0.229,0.274-0.471,0.377-0.722c0.695-1.694,0.591-3.706,0.433-5.488c-0.36-4.061-1.543-7.959-2.292-11.948
			c-0.059-0.313-0.116-0.632-0.152-0.95c-0.011-0.092-0.153-0.098-0.149,0c0.068,1.539,0.498,3.073,0.826,4.569
			c0.473,2.162,0.938,4.329,1.247,6.521c0.302,2.15,0.776,5.679-0.528,7.725c-0.093-0.181-0.213-0.337-0.394-0.364
			c-0.084-0.016-0.175,0.068-0.119,0.153c0.105,0.163,0.218,0.315,0.339,0.46c-0.491,0.646-1.19,1.112-2.179,1.284
			c-0.064,0.016-0.128,0.028-0.193,0.041c-0.132,0.024-0.087,0.207,0.03,0.22c1.09,0.095,1.985-0.459,2.594-1.27
			c0.309,0.314,0.654,0.598,1.02,0.855c0.739,0.525,1.528,1.148,2.328,1.571C257.23,488.122,257.333,488.042,257.278,487.968z"/>
		<line fill="none" x1="252.417" y1="467.217" x2="252.417" y2="467.213"/>
		<path d="M251.65,484.714c-0.151,0.49-0.145,0.994-0.137,1.502c0,0.009,0.013,0.009,0.013,0c0.008-0.502,0.009-1.007,0.163-1.491
			C251.697,484.7,251.657,484.69,251.65,484.714z"/>
		<line fill="none" x1="251.669" y1="486.517" x2="251.669" y2="486.514"/>
		<line fill="none" x1="241.795" y1="448.216" x2="241.795" y2="448.212"/>
		<path d="M259.196,446.764c-0.152,0.123-0.308,0.236-0.466,0.345c0.192-0.826,0.228-1.901-0.283-2.528
			c-0.047-0.062-0.132,0.016-0.1,0.076c0.019,0.037,0.036,0.076,0.052,0.113c-2.304-0.377-4.811,0.093-7.096,0.406
			c-2.582,0.356-5.11,0.524-7.712,0.536c-0.118,0.002-0.15,0.188-0.028,0.212c0.02,0.003,0.041,0.005,0.061,0.008
			c-0.007,0.1,0.014,0.204,0.021,0.295c0.025,0.289,0.053,0.574,0.083,0.861c0.027,0.271,0.053,0.542,0.085,0.813
			c0.009,0.08,0.007,0.17,0.039,0.245c0.003,0.009,0.006,0.014,0.01,0.019c0.001,0.034,0.01,0.065,0.037,0.081
			c0.022,0.013,0.056,0.01,0.072-0.01c0.185-0.225,0.029-0.811,0.007-1.065c-0.024-0.291-0.051-0.583-0.077-0.876
			c-0.009-0.097-0.004-0.214-0.021-0.321c2.297,0.332,4.733-0.129,7.002-0.434c1.227-0.165,2.455-0.319,3.689-0.423
			c1.287-0.106,2.546-0.048,3.833-0.043c0.038,0,0.069-0.016,0.093-0.036c0.199,0.713,0.025,1.496-0.013,2.225
			c-2.307,1.395-5.196,1.179-7.813,1.013c-1.264-0.08-2.519-0.039-3.783,0.007c-0.611,0.021-1.222,0.054-1.833,0.079
			c-0.33,0.013-0.725-0.016-1.027,0.126c-0.021,0.011-0.021,0.045,0,0.056c0.307,0.139,0.698,0.084,1.027,0.081
			c0.671-0.007,1.344-0.032,2.014-0.056c1.398-0.045,2.77-0.038,4.166,0.049c2.819,0.175,5.858,0.228,8.173-1.646
			C259.55,446.853,259.341,446.647,259.196,446.764z"/>
		<path d="M297.237,447.957c-0.028,0.02-0.058,0.039-0.085,0.058c0.031-0.257-0.033-0.586-0.037-0.786
			c-0.002-0.126-0.002-0.252,0.001-0.378c0.012-0.002,0.023-0.002,0.036-0.003c0.162-0.016,0.167-0.257,0-0.257
			c-0.008,0-0.016,0-0.022,0c0-0.015,0-0.026,0.001-0.039c0.004-0.044,0.007-0.092,0.021-0.134c0.001,0.002,0.002,0.005,0.005,0.01
			c0.037,0.054,0.063,0.114,0.089,0.173c0.033,0.075,0.141,0.012,0.109-0.063c-0.054-0.125-0.104-0.23-0.217-0.308
			c-0.031-0.021-0.071-0.018-0.101,0c-0.106,0.051-0.156,0.196-0.18,0.36c-2.902,0.01-5.774,0.243-8.683,0.05
			c-1.247-0.082-2.487-0.228-3.738-0.256c-0.915-0.021-2.041-0.063-2.853,0.433c-0.027-0.021-0.063-0.036-0.115-0.05
			c-0.044-0.012-0.098,0.007-0.12,0.05c-0.309,0.606-0.569,1.507-0.289,2.169c0.036,0.086,0.16,0.078,0.166-0.021
			c0.028-0.488-0.035-0.931,0.083-1.421c0.042-0.168,0.161-0.351,0.185-0.517c-0.014,0.096,0.039,0.209,0.071,0.299
			c0.012,0.033,0.063,0.018,0.051-0.016c-0.051-0.151,0.036-0.296,0.025-0.401c2.244-0.503,4.516-0.132,6.778,0.021
			c2.774,0.188,5.644,0.183,8.419-0.059c-0.001,0.121,0.002,0.229,0.001,0.297c-0.006,0.262-0.074,0.737,0.045,1.006
			c-1.779,0.991-4.209,0.729-6.152,0.668c-1.369-0.044-2.733-0.049-4.1-0.15c-1.71-0.127-3.477-0.416-5.193-0.271
			c-0.121,0.011-0.12,0.176,0,0.188c3.19,0.302,6.399,0.443,9.602,0.549c1.227,0.04,2.458,0.063,3.684-0.067
			c0.891-0.096,2.007-0.259,2.661-0.937C297.485,448.053,297.358,447.874,297.237,447.957z"/>
	</g>
</g>
</svg>
