<?xml version="1.0" encoding="utf-8"?>
<!DOCTYPE svg PUBLIC "-//W3C//DTD SVG 1.1//EN" "http://www.w3.org/Graphics/SVG/1.1/DTD/svg11.dtd">
<svg version="1.1" id="Layer_3" xmlns="http://www.w3.org/2000/svg" xmlns:xlink="http://www.w3.org/1999/xlink" viewBox="0 0 1280 800">
<defs>
	<filter id="OpacityMaskFilter" filterUnits="userSpaceOnUse" x="244.884" y="501.179" width="64.483" height="99.797">
		<feColorMatrix  type="matrix" values="1 0 0 0 0  0 1 0 0 0  0 0 1 0 0  0 0 0 1 0"/>
	</filter>
</defs>
<mask maskUnits="userSpaceOnUse" x="244.884" y="501.179" width="64.483" height="99.797" id="SVGID_1_">
	<g filter="url(#OpacityMaskFilter)">
		<rect fill="#FFFFFF" width="1280" height="800"/>
	</g>
</mask>
<g mask="url(#SVGID_1_)">
	<g id="hair">
		<g id="XMLID_22_">
			<g>
				<path fill="#494239" d="M309.338,570.37c0.009-0.019,0.036-0.004,0.025,0.017c-0.121,0.229-0.334,0.368-0.586,0.392
					c-0.384,0.218-0.91,0.131-1.321,0.055c-0.682-0.123-1.342-0.339-1.982-0.599c-1.619-0.656-3.17-1.518-4.591-2.53
					c-1.31-0.937-2.637-2.011-3.534-3.362c-0.451-0.679-0.966-1.722-0.716-2.578c-0.186,0.16-0.374,0.45-0.442,0.542
					c-0.321,0.442-0.603,0.912-0.873,1.39c-0.62,1.101-1.183,2.229-1.723,3.373c-1.309,2.758-2.441,5.586-3.317,8.514
					c-1.086,3.63-1.757,7.372-1.3,11.169c0.214,1.781,0.633,3.532,1.115,5.268l-0.256,0.073c-0.4-1.412-0.809-2.813-1.037-4.273
					c-0.256-1.645-0.364-3.31-0.262-4.969c0.242-3.893,1.375-7.683,2.757-11.312c0.851-2.229,1.842-4.41,2.929-6.535
					c0.487-0.949,0.982-1.923,1.605-2.792c0.223-0.311,0.577-0.875,1.021-0.894l0.001-0.003c0.044-0.063,0.14-0.045,0.156,0.022
					c0.145,0.06,0.092,0.285-0.058,0.313c-0.195,1.112,0.246,2.05,0.974,2.943c0.979,1.195,2.205,2.176,3.482,3.031
					c2.049,1.37,4.479,2.799,7.003,2.854c-0.088-0.234-0.268-0.472-0.474-0.695l0.154-0.128c0.006,0.006,0.011,0.014,0.017,0.02
					c0.192,0.239,0.437,0.505,0.529,0.808c0.021,0,0.041,0,0.06,0c0.139-0.002,0.201,0.17,0.119,0.266
					C309.036,570.702,309.227,570.575,309.338,570.37z"/>
				<path fill="#332D25" d="M282.952,503.188c0.005,0.184,0,0.341,0,0.361c0.02,0.719,0.006,1.47,0.139,2.179
					c0.014,0.077-0.023,0.14-0.076,0.172l-0.237,0.043c-0.021-0.049-0.04-0.1-0.059-0.147c-0.014-0.039,0.007-0.077,0.04-0.098
					c-0.1-0.658-0.09-1.343-0.094-2.007c-0.001-0.21-0.13-0.965,0.136-1.063c0.003-0.002,0.007,0,0.011-0.002
					c-0.043-0.273-0.051-0.548-0.001-0.813c0.023-0.123,0.216-0.118,0.243,0c0.113,0.494,0.139,0.991,0.314,1.476
					c0.181,0.498,0.416,0.978,0.697,1.424c0.6,0.953,1.331,1.81,2.113,2.615c0.781,0.808,1.607,1.568,2.422,2.344
					c0.295,0.28,0.897,0.693,1.182,1.134c0.02-0.101,0.067-0.179,0.164-0.179c0.117,0,0.19,0.146,0.196,0.244
					c0,0.02-0.026,0.021-0.032,0.006c-0.052-0.153-0.122-0.138-0.209,0.028c0.666,0.323,1.092,0.938,1.44,1.577
					c0.436,0.794,0.82,1.545,1.412,2.238c1.368,1.602,2.645,3.282,3.782,5.056c2.268,3.534,4.057,7.402,5.1,11.479
					c0.845,3.296,1.251,6.716,1.093,10.12c-0.17,3.683-0.868,7.302-0.804,11.003c0.034,1.914,0.188,3.843,0.627,5.71
					c0.404,1.711,1.069,3.343,1.691,4.982c0.645,1.688,1.333,3.409,2.378,4.896c0.432,0.616,1,1.104,1.47,1.688l-0.154,0.128
					c-0.304-0.328-0.667-0.631-0.898-0.859c-0.641-0.64-1.123-1.44-1.547-2.237c-0.932-1.748-1.578-3.615-2.288-5.461
					c-1.541-4.003-1.82-8.207-1.532-12.46c0.245-3.596,0.873-7.122,0.651-10.743c-0.213-3.478-0.942-6.918-2.159-10.186
					c-1.22-3.276-2.873-6.39-4.879-9.254c-0.994-1.418-2.144-2.695-3.189-4.068c-0.751-0.994-1.088-2.517-2.168-3.219
					c-0.028,0.062-0.128,0.048-0.134-0.027c-0.001-0.018-0.008-0.037-0.018-0.062c-0.041-0.021-0.08-0.046-0.123-0.065
					c-0.08-0.036-0.096-0.104-0.074-0.17c-0.214-0.202-0.525-0.428-0.629-0.521c-0.397-0.377-0.802-0.743-1.202-1.115
					c-0.838-0.784-1.677-1.576-2.44-2.434c-0.707-0.793-1.394-1.641-1.874-2.592C283.26,503.968,283.079,503.587,282.952,503.188z"
					/>
				<path fill="#494239" d="M307.938,569.782c0.206,0.225,0.386,0.461,0.474,0.695c-2.524-0.057-4.954-1.484-7.003-2.854
					c-1.278-0.855-2.504-1.836-3.482-3.031c-0.728-0.896-1.168-1.832-0.974-2.943c0.15-0.029,0.202-0.256,0.058-0.313
					c-0.017-0.067-0.112-0.088-0.156-0.021l-0.001,0.002c-0.445,0.019-0.797,0.583-1.021,0.893c-0.624,0.87-1.118,1.844-1.605,2.793
					c-1.086,2.124-2.078,4.307-2.929,6.534c-1.381,3.631-2.515,7.421-2.757,11.312c-0.103,1.66,0.005,3.325,0.262,4.97
					c0.228,1.461,0.637,2.861,1.037,4.272c0.096,0.337,0.192,0.676,0.285,1.016c0.442,1.619,0.888,3.23,1.514,4.79
					c0.263,0.652,0.805,2.174,1.629,2.642c-3.075,0.17-6.168-0.309-9.134-1.096c-3.131-0.829-6.333-2.063-8.974-3.976
					c-2.897-2.097-5.671-4.389-8.131-6.991c-1.243-1.313-2.385-2.725-3.372-4.239c-1.042-1.604-1.782-3.363-2.533-5.112
					c-0.555-1.291-1.087-2.59-1.633-3.883c-0.465-1.1-1.138-2.618-0.972-3.886c0.054-0.082,0.111-0.16,0.172-0.236
					c0.089-0.115-0.05-0.269-0.163-0.162l-0.001,0.001c-0.05-0.026-0.121-0.018-0.143,0.054c-0.01,0.043-0.021,0.081-0.032,0.125
					c-0.757,0.849-0.915,2.214-0.979,3.289c-0.085,1.448,0.145,2.917,0.446,4.331c0.6,2.839,1.683,5.539,2.375,8.352
					c0.413,1.681,0.827,3.36,1.395,4.997c0.083,0.241,0.927,2.52,1.518,2.309l0.01,0.033c-2.071,0.637-4.161-1.166-5.54-2.48
					c-1.838-1.752-3.384-3.818-4.79-5.927c-3.628-5.438-5.908-11.747-6.687-18.231c-1-8.319-1.194-16.739-0.277-25.08
					c0.873-7.918,2.929-15.557,6.274-22.793c0.584-1.264,1.208-2.511,1.865-3.737c-0.095,0.354-0.174,0.717-0.232,1.079
					c-0.008,0.052,0.062,0.072,0.078,0.021c0.342-1.043,0.733-2.031,1.208-2.994c0.229-0.396,0.458-0.789,0.694-1.183
					c0.301-0.496,0.605-1.003,0.914-1.501c0.789-1.125,1.664-2.183,2.574-3.222c0.784-0.888,1.542-1.755,2.248-2.688
					c0.447-0.514,0.884-1.036,1.281-1.598c0.043-0.062-0.024-0.115-0.082-0.104c0.298-0.429,0.602-0.854,0.925-1.265
					c0.249-0.315,0.637-0.616,0.922-0.948c-0.061,2.729-0.296,5.461-2.4,7.474c-0.952,0.907-2.051,1.634-2.854,2.696
					c-0.438,0.577-0.622,1.485-0.792,2.172c-0.091,0.365-0.164,0.736-0.24,1.104c-0.051,0.251-0.081,0.567-0.142,0.862
					c-0.053,0.002-0.1,0.03-0.115,0.1c-0.003,0.015-0.007,0.027-0.01,0.044c-1.601,0.063-2.723,2.251-3.362,3.44
					c-0.778,1.447-1.652,3.163-1.852,4.817c-0.194,1.599-0.091,3.36,0.374,4.901c0.255,0.853,0.969,1.902,1.846,1.803
					c-0.055,0.103,0.068,0.255,0.205,0.191c2.265-1.054,2.439-3.683,3.212-5.777c0.222,0.465,0.413,0.936,0.575,1.41
					c0.356,1.05,0.572,2.134,0.644,3.268c0.105,1.679,0.017,3.317,0.395,4.967c0.656,2.866,2.655,5.502,4.98,7.255
					c2.092,1.577,4.54,2.24,7.129,2.363c1.461,0.068,2.932-0.047,4.388-0.146c1.323-0.093,2.646-0.237,3.94-0.525
					c1.801-0.397,3.521-1.166,4.836-2.483c1.697-1.708,2.347-4.271,2.979-6.517c0.561-1.995,0.686-3.981,0.802-6.031
					c0.057-0.98,0.131-1.961,0.285-2.931c0.102-0.638,0.208-1.543,0.701-2.015c0.006-0.005,0.012-0.011,0.018-0.021
					c0.948,1.749,2.032,3.41,3.544,4.677c0.229,0.254,0.491,0.447,0.769,0.574c0.209,0.146,0.424,0.279,0.651,0.408
					c0.168,0.096,0.318-0.074,0.282-0.22c0.055-0.002,0.109-0.009,0.163-0.019c0.538-0.081,1.042-0.409,1.385-1.008
					c0.958-1.679,0.142-4.018-0.483-5.654c-0.695-1.826-1.526-3.467-2.91-4.867c-1.036-1.053-2.51-2.316-4.037-2.659
					c-0.049-0.013-0.099-0.022-0.147-0.031c-0.959-1.691-2.068-3.299-3.164-4.901c-0.555-0.815-1.114-1.63-1.663-2.449
					c-0.472-0.705-0.884-1.491-1.41-2.163c0.053-0.033,0.09-0.094,0.076-0.171c-0.132-0.71-0.119-1.46-0.139-2.18
					c0-0.021,0.005-0.18,0-0.36c0.127,0.397,0.308,0.778,0.481,1.12c0.48,0.951,1.167,1.798,1.875,2.591
					c0.764,0.855,1.601,1.647,2.44,2.434c0.4,0.372,0.805,0.738,1.201,1.115c0.104,0.095,0.416,0.319,0.629,0.521
					c-0.022,0.063-0.005,0.134,0.074,0.17c0.043,0.021,0.082,0.045,0.123,0.063c0.01,0.023,0.017,0.044,0.018,0.063
					c0.006,0.074,0.106,0.088,0.134,0.026c1.081,0.702,1.417,2.226,2.168,3.22c1.045,1.372,2.196,2.649,3.189,4.067
					c2.006,2.864,3.66,5.978,4.879,9.254c1.215,3.27,1.946,6.708,2.159,10.187c0.22,3.621-0.408,7.146-0.652,10.743
					c-0.289,4.253-0.008,8.457,1.532,12.46c0.71,1.845,1.356,3.713,2.288,5.461c0.425,0.796,0.907,1.599,1.547,2.236
					C307.271,569.151,307.634,569.453,307.938,569.782z"/>
				<path fill="#332D25" d="M296.345,522.972c0.625,1.64,1.44,3.979,0.483,5.655c-0.342,0.598-0.847,0.927-1.384,1.008l-0.042-0.287
					c0.146-0.021,0.291-0.067,0.435-0.153c0.674-0.403,0.985-1.218,1.034-1.976c0.115-1.815-0.595-3.634-1.315-5.269
					c-0.652-1.485-1.442-2.76-2.635-3.881c-1.067-1.009-2.219-1.748-3.526-2.345l0.006-0.28c1.527,0.343,3.001,1.606,4.037,2.659
					C294.818,519.508,295.65,521.146,296.345,522.972z"/>
				<path fill="#332D25" d="M290.033,524.214c-0.006,0.008-0.012,0.014-0.018,0.02c-0.494,0.472-0.6,1.378-0.701,2.016
					c-0.154,0.969-0.228,1.948-0.285,2.929c-0.118,2.05-0.242,4.037-0.803,6.032c-0.632,2.243-1.281,4.809-2.979,6.516
					c-1.315,1.318-3.035,2.086-4.836,2.485c-1.294,0.287-2.617,0.433-3.94,0.524c-1.456,0.101-2.926,0.216-4.388,0.146
					c-2.589-0.123-5.038-0.786-7.129-2.363c-2.325-1.754-4.325-4.389-4.98-7.255c-0.378-1.647-0.29-3.289-0.395-4.967
					c-0.072-1.134-0.287-2.218-0.644-3.268l0.26-0.089c0.484,1.406,0.736,2.839,0.754,4.403c0.03,2.418,0.319,4.751,1.629,6.847
					c2.138,3.419,5.419,5.849,9.496,6.202c1.47,0.13,2.937,0.052,4.407-0.03c1.398-0.082,2.809-0.179,4.186-0.443
					c2.715-0.521,5.284-1.741,6.569-4.325c0.832-1.671,1.396-3.612,1.812-5.43c0.318-1.377,0.435-2.757,0.506-4.162
					c0.062-1.196,0.123-2.397,0.301-3.583c0.114-0.762,0.221-1.78,0.764-2.393c0.013-0.185,0.112-0.379,0.214-0.509
					c0.086-0.104,0.277-0.067,0.337,0.045c0.625,1.188,1.21,2.34,2.084,3.373c0.756,0.898,1.606,1.686,2.566,2.351
					c0.189,0.06,0.385,0.087,0.578,0.063l0.042,0.286c-0.054,0.01-0.108,0.018-0.163,0.02c0.036,0.146-0.114,0.313-0.282,0.22
					c-0.227-0.129-0.442-0.264-0.651-0.408c-0.278-0.127-0.54-0.321-0.769-0.575C292.065,527.623,290.982,525.962,290.033,524.214z"
					/>
				<path fill="#332D25" d="M258.259,571.778c-1.161,2.188-0.583,5.231-0.046,7.478c0.611,2.549,1.547,5.002,2.191,7.542
					c0.351,1.383,0.675,2.771,1.091,4.14c0.132,0.433,1.043,3.801,1.816,3.235c0.008-0.007,0.017,0.004,0.012,0.011
					c-0.067,0.125-0.141,0.196-0.219,0.225c-0.59,0.211-1.433-2.064-1.517-2.31c-0.568-1.636-0.982-3.315-1.395-4.997
					c-0.692-2.813-1.775-5.513-2.375-8.351c-0.301-1.414-0.532-2.883-0.446-4.33c0.064-1.077,0.222-2.442,0.979-3.29
					c0.01-0.044,0.021-0.082,0.032-0.125c0.022-0.07,0.092-0.08,0.143-0.054l0.001-0.001c0.113-0.105,0.252,0.047,0.163,0.162
					c-0.061,0.076-0.118,0.153-0.172,0.235c-0.167,1.269,0.506,2.786,0.972,3.887c0.545,1.293,1.079,2.592,1.633,3.883
					c0.751,1.749,1.491,3.511,2.533,5.112c0.987,1.517,2.129,2.927,3.372,4.239c2.46,2.604,5.233,4.896,8.132,6.991
					c2.641,1.91,5.842,3.146,8.974,3.975c2.966,0.787,6.061,1.267,9.134,1.097c-0.825-0.468-1.368-1.987-1.629-2.643
					c-0.625-1.559-1.072-3.171-1.514-4.789c-0.092-0.339-0.188-0.678-0.285-1.015l0.256-0.073c0.291,1.04,0.605,2.074,0.911,3.104
					c0.345,1.159,0.715,2.323,1.232,3.418c0.315,0.669,0.827,1.874,1.683,1.983c0.069,0.011,0.101,0.118,0.018,0.137
					c-0.075,0.015-0.147,0.019-0.219,0.016c0.017,0.111-0.047,0.24-0.192,0.25c-2.984,0.199-6.025-0.214-8.917-0.944
					c-3.098-0.784-6.185-1.931-8.887-3.656c-2.844-1.816-5.523-4.113-7.91-6.492c-2.499-2.493-4.646-5.236-6.097-8.469
					c-0.822-1.828-1.563-3.69-2.323-5.542C258.906,574.633,258.198,573.153,258.259,571.778z"/>
				<path fill="#332D25" d="M289.399,515.445l-0.006,0.279c-0.018,0.153-0.244,0.242-0.338,0.076c-1.004-1.76-2.123-3.443-3.26-5.12
					c-0.595-0.877-1.188-1.757-1.764-2.646c-0.432-0.668-0.941-1.354-1.251-2.094l0.237-0.043c0.525,0.672,0.938,1.458,1.41,2.162
					c0.549,0.82,1.108,1.635,1.663,2.449c1.096,1.604,2.204,3.21,3.164,4.902C289.3,515.423,289.35,515.433,289.399,515.445z"/>
				<path fill="#494239" d="M264.884,501.179c0.185,0,0.185,0.289,0,0.289c-0.063,0-0.101-0.036-0.122-0.078
					c-0.002,0.005-0.005,0.01-0.006,0.014c0.291,2.495-0.174,5.642-1.892,7.563c-0.517,0.578-1.11,1.066-1.701,1.565
					c-0.53,0.445-1.289,0.979-1.617,1.606c-0.417,0.796-0.669,1.646-0.856,2.525c-0.139,0.646-0.162,1.562-0.501,2.134
					c-0.073,0.124-0.297,0.114-0.325-0.041c-0.016-0.082-0.006-0.167,0.009-0.254c-0.665,0.1-1.214,0.648-1.623,1.146
					c-0.615,0.748-1.106,1.601-1.541,2.468c-0.637,1.274-1.417,2.76-1.625,4.194c-0.204,1.403-0.136,2.949,0.169,4.332
					c0.14,0.63,0.32,1.386,0.791,1.857c0.481,0.484,0.945,0.305,1.521,0.121c0.065-0.021,0.123,0.021,0.15,0.074
					c1.594-1.294,1.712-3.694,2.504-5.517c0.043-0.098,0.207-0.092,0.251,0c0.282,0.587,0.523,1.168,0.725,1.756l-0.26,0.089
					c-0.163-0.477-0.354-0.945-0.575-1.41c-0.772,2.098-0.946,4.727-3.211,5.777c-0.137,0.063-0.26-0.091-0.205-0.19
					c-0.877,0.101-1.591-0.95-1.846-1.804c-0.465-1.542-0.568-3.305-0.374-4.9c0.2-1.655,1.075-3.37,1.853-4.818
					c0.64-1.188,1.761-3.379,3.361-3.439c0.003-0.018,0.007-0.03,0.01-0.045c0.015-0.066,0.063-0.098,0.115-0.1
					c0.062-0.295,0.091-0.611,0.142-0.863c0.076-0.365,0.149-0.736,0.24-1.104c0.17-0.688,0.355-1.595,0.792-2.172
					c0.804-1.063,1.902-1.789,2.854-2.697c2.104-2.012,2.339-4.742,2.4-7.473c-0.286,0.332-0.674,0.633-0.923,0.947l-0.227-0.188
					c0.006-0.006,0.013-0.014,0.018-0.021c0.292-0.35,0.686-0.927,1.139-1.152c0-0.019,0-0.033,0.001-0.055
					c0.001-0.146,0.191-0.149,0.237-0.03c0.002-0.002,0.005-0.002,0.009-0.002c0.001,0,0.004,0,0.006,0
					C264.765,501.23,264.809,501.179,264.884,501.179z"/>
				<path fill="#332D25" d="M263.342,502.55l0.227,0.188c-0.323,0.408-0.626,0.837-0.924,1.266c0.058-0.012,0.125,0.045,0.082,0.104
					c-0.396,0.562-0.833,1.085-1.281,1.598c-0.708,0.932-1.464,1.8-2.248,2.687c-0.91,1.039-1.785,2.099-2.574,3.223
					c-0.309,0.498-0.613,1.005-0.914,1.502c-0.236,0.393-0.466,0.785-0.694,1.183c-0.474,0.961-0.866,1.951-1.208,2.993
					c-0.017,0.053-0.086,0.031-0.078-0.021c0.058-0.361,0.137-0.725,0.232-1.078c0.001-0.001,0.001-0.001,0.001-0.002l-0.249-0.137
					c0.062-0.113,0.123-0.228,0.186-0.34c0.191-0.345,0.386-0.688,0.583-1.031c0.964-2.308,2.592-4.375,4.196-6.21
					c1.139-1.306,2.247-2.56,3.235-3.984C262.371,503.825,262.827,503.164,263.342,502.55z"/>
				<path fill="#494239" d="M263.146,594.43c0.181-0.057,0.256,0.227,0.079,0.283c-1.574,0.518-3.203-0.348-4.43-1.28
					c-1.708-1.298-3.14-2.937-4.44-4.634c-3.531-4.605-6.126-9.85-7.578-15.478c-0.971-3.771-1.321-7.679-1.595-11.553
					c-0.296-4.168-0.386-8.351-0.198-12.526c0.358-7.919,1.586-15.805,4.285-23.277c1.229-3.411,2.704-6.731,4.446-9.912
					l0.249,0.137c0,0.001,0,0.001-0.001,0.002c-0.659,1.229-1.282,2.476-1.865,3.736c-3.347,7.237-5.403,14.876-6.274,22.793
					c-0.917,8.342-0.723,16.762,0.277,25.08c0.779,6.485,3.06,12.793,6.687,18.232c1.406,2.105,2.951,4.175,4.789,5.928
					c1.379,1.314,3.469,3.116,5.54,2.479C263.124,594.438,263.136,594.434,263.146,594.43z"/>
			</g>
		</g>
		<path fill="#332D25" d="M264.885,501.181c-0.078,0-0.121,0.053-0.133,0.111c-0.002-0.002-0.005-0.003-0.008-0.003
			c-0.558,0.102-1.041,0.83-1.385,1.239c-0.521,0.62-0.984,1.289-1.446,1.957c-0.986,1.428-2.095,2.682-3.233,3.984
			c-1.605,1.836-3.233,3.903-4.198,6.208c-0.197,0.346-0.392,0.688-0.583,1.034c-1.822,3.281-3.356,6.72-4.631,10.25
			c-2.699,7.475-3.927,15.358-4.285,23.279c-0.188,4.176-0.099,8.358,0.197,12.525c0.273,3.873,0.625,7.781,1.597,11.552
			c1.45,5.629,4.045,10.873,7.577,15.479c1.301,1.696,2.733,3.335,4.44,4.632c1.228,0.937,2.856,1.8,4.43,1.28
			c0.178-0.058,0.103-0.338-0.078-0.281c-2.082,0.664-4.185-1.149-5.572-2.473c-1.839-1.751-3.384-3.817-4.79-5.926
			c-3.627-5.439-5.908-11.747-6.686-18.232c-1-8.318-1.196-16.74-0.277-25.078c0.873-7.92,2.93-15.557,6.275-22.795
			c0.584-1.263,1.208-2.511,1.866-3.739c-0.096,0.354-0.176,0.718-0.233,1.082c-0.008,0.051,0.062,0.07,0.079,0.021
			c0.343-1.044,0.733-2.033,1.208-2.994c0.229-0.396,0.458-0.791,0.693-1.182c0.302-0.499,0.604-1.005,0.913-1.503
			c0.79-1.124,1.665-2.186,2.575-3.219c0.785-0.89,1.541-1.757,2.247-2.688c0.45-0.513,0.887-1.037,1.282-1.597
			c0.043-0.062-0.024-0.117-0.082-0.104c0.298-0.431,0.602-0.856,0.925-1.269c0.344-0.438,0.957-0.847,1.194-1.347
			c0.02,0.044,0.06,0.077,0.122,0.077C265.07,501.468,265.07,501.181,264.885,501.181z"/>
		<path fill="#332D25" d="M309.338,570.369c-0.111,0.206-0.301,0.333-0.522,0.375c0.083-0.095,0.021-0.266-0.118-0.264
			c-0.021,0-0.04,0-0.06,0c-0.094-0.305-0.337-0.567-0.53-0.808c-0.474-0.592-1.05-1.084-1.486-1.705
			c-1.045-1.487-1.733-3.208-2.376-4.896c-0.625-1.642-1.29-3.271-1.692-4.981c-0.439-1.867-0.596-3.795-0.627-5.71
			c-0.063-3.701,0.632-7.32,0.803-11.003c0.157-3.404-0.248-6.822-1.094-10.12c-1.043-4.075-2.831-7.943-5.099-11.479
			c-1.138-1.771-2.415-3.455-3.782-5.055c-0.593-0.693-0.976-1.444-1.412-2.24c-0.35-0.639-0.775-1.253-1.439-1.576
			c0.086-0.168,0.156-0.181,0.209-0.029c0.006,0.017,0.032,0.015,0.031-0.003c-0.005-0.101-0.079-0.245-0.195-0.245
			c-0.099,0-0.145,0.077-0.165,0.179c-0.282-0.438-0.887-0.854-1.181-1.135c-0.816-0.772-1.642-1.536-2.424-2.344
			c-0.782-0.807-1.513-1.663-2.11-2.615c-0.284-0.446-0.518-0.925-0.699-1.424c-0.175-0.481-0.201-0.979-0.314-1.475
			c-0.027-0.118-0.22-0.124-0.243,0c-0.157,0.836,0.251,1.766,0.621,2.492c0.481,0.951,1.169,1.799,1.874,2.592
			c0.765,0.855,1.602,1.647,2.441,2.433c0.398,0.373,0.805,0.74,1.203,1.115c0.102,0.096,0.414,0.321,0.627,0.524
			c-0.022,0.063-0.005,0.131,0.074,0.168c0.044,0.021,0.083,0.045,0.124,0.065c0.009,0.021,0.018,0.042,0.018,0.059
			c0.006,0.078,0.107,0.091,0.134,0.031c1.082,0.7,1.417,2.223,2.168,3.215c1.043,1.375,2.195,2.651,3.189,4.072
			c2.006,2.861,3.66,5.976,4.878,9.253c1.216,3.268,1.946,6.707,2.159,10.186c0.221,3.62-0.408,7.146-0.652,10.744
			c-0.288,4.254-0.008,8.457,1.532,12.459c0.71,1.844,1.356,3.712,2.288,5.46c0.425,0.797,0.907,1.6,1.548,2.236
			c0.39,0.388,1.153,0.98,1.371,1.561c-2.522-0.06-4.954-1.484-7.001-2.856c-1.28-0.854-2.507-1.836-3.484-3.031
			c-0.729-0.896-1.167-1.833-0.975-2.942c0.149-0.029,0.203-0.257,0.058-0.315c-0.017-0.064-0.11-0.086-0.157-0.021l-0.001,0.003
			c-0.443,0.016-0.796,0.583-1.021,0.894c-0.625,0.87-1.118,1.843-1.604,2.793c-1.087,2.125-2.078,4.304-2.928,6.534
			c-1.38,3.63-2.516,7.42-2.758,11.31c-0.103,1.662,0.006,3.325,0.261,4.971c0.283,1.811,0.84,3.526,1.322,5.291
			c0.441,1.614,0.888,3.229,1.514,4.788c0.262,0.65,0.804,2.174,1.629,2.641c-3.074,0.17-6.168-0.31-9.134-1.095
			c-3.132-0.829-6.333-2.064-8.972-3.977c-2.898-2.098-5.672-4.389-8.133-6.99c-1.243-1.313-2.385-2.725-3.372-4.24
			c-1.042-1.604-1.783-3.364-2.534-5.113c-0.555-1.289-1.086-2.588-1.634-3.882c-0.464-1.101-1.137-2.618-0.971-3.886
			c0.055-0.081,0.111-0.159,0.172-0.236c0.089-0.115-0.05-0.266-0.163-0.162c0,0-0.001,0.001-0.001,0.002
			c-0.049-0.028-0.121-0.018-0.141,0.053c-0.013,0.042-0.023,0.082-0.033,0.124c-0.757,0.85-0.915,2.214-0.979,3.291
			c-0.087,1.449,0.145,2.917,0.445,4.331c0.601,2.838,1.684,5.539,2.376,8.353c0.413,1.68,0.826,3.358,1.394,4.995
			c0.096,0.273,1.164,3.154,1.737,2.086c0.004-0.009-0.004-0.02-0.012-0.013c-0.772,0.564-1.685-2.804-1.816-3.235
			c-0.416-1.365-0.741-2.758-1.092-4.14c-0.645-2.539-1.579-4.991-2.19-7.542c-0.537-2.246-1.115-5.292,0.045-7.478
			c-0.06,1.373,0.646,2.854,1.132,4.037c0.762,1.852,1.502,3.714,2.323,5.541c1.451,3.231,3.597,5.978,6.098,8.47
			c2.386,2.38,5.065,4.676,7.909,6.494c2.703,1.727,5.79,2.87,8.889,3.655c2.892,0.73,5.932,1.145,8.917,0.943
			c0.145-0.01,0.209-0.139,0.192-0.251c0.072,0.004,0.143,0,0.219-0.015c0.083-0.017,0.051-0.126-0.019-0.135
			c-0.854-0.109-1.365-1.317-1.68-1.984c-0.519-1.095-0.889-2.26-1.232-3.418c-0.819-2.744-1.685-5.521-2.026-8.372
			c-0.458-3.795,0.214-7.537,1.299-11.167c0.877-2.929,2.009-5.757,3.318-8.516c0.541-1.142,1.104-2.271,1.721-3.371
			c0.27-0.479,0.554-0.946,0.874-1.391c0.068-0.095,0.256-0.381,0.442-0.542c-0.251,0.856,0.264,1.898,0.716,2.579
			c0.896,1.354,2.223,2.427,3.533,3.361c1.422,1.015,2.973,1.874,4.592,2.529c0.64,0.259,1.302,0.478,1.98,0.602
			c0.415,0.074,0.94,0.161,1.323-0.057c0.253-0.021,0.466-0.158,0.588-0.392C309.375,570.367,309.348,570.351,309.338,570.369z"/>
		<path fill="#332D25" d="M295.195,529.535c-1.114-0.717-2.085-1.585-2.938-2.601c-0.873-1.034-1.459-2.187-2.084-3.372
			c-0.06-0.112-0.251-0.148-0.337-0.045c-0.101,0.13-0.201,0.326-0.214,0.508c-0.542,0.61-0.65,1.631-0.764,2.392
			c-0.176,1.188-0.24,2.388-0.3,3.584c-0.072,1.405-0.189,2.785-0.507,4.162c-0.417,1.815-0.979,3.758-1.812,5.43
			c-1.287,2.583-3.855,3.807-6.57,4.327c-1.379,0.266-2.788,0.358-4.187,0.44c-1.471,0.083-2.936,0.161-4.406,0.031
			c-4.076-0.354-7.356-2.783-9.495-6.202c-1.31-2.095-1.601-4.428-1.629-6.847c-0.026-2.219-0.519-4.165-1.479-6.16
			c-0.044-0.092-0.208-0.098-0.25,0c-0.896,2.062-0.931,4.867-3.217,5.966c-0.167,0.082-0.021,0.324,0.145,0.247
			c2.265-1.053,2.44-3.685,3.212-5.777c0.708,1.484,1.113,3.028,1.217,4.68c0.106,1.677,0.017,3.313,0.395,4.965
			c0.656,2.866,2.655,5.501,4.98,7.257c2.091,1.575,4.54,2.237,7.13,2.361c1.46,0.069,2.931-0.047,4.387-0.146
			c1.324-0.093,2.645-0.238,3.941-0.526c1.802-0.397,3.522-1.166,4.836-2.484c1.697-1.703,2.346-4.271,2.978-6.516
			c0.562-1.992,0.687-3.981,0.804-6.031c0.056-0.979,0.131-1.962,0.285-2.931c0.101-0.639,0.208-1.543,0.702-2.014
			c0.007-0.007,0.012-0.015,0.017-0.021c1.222,2.253,2.666,4.369,4.966,5.661C295.218,529.996,295.405,529.671,295.195,529.535z"/>
	</g>
</g>
</svg>
