<?xml version="1.0" encoding="utf-8"?>
<!DOCTYPE svg PUBLIC "-//W3C//DTD SVG 1.1//EN" "http://www.w3.org/Graphics/SVG/1.1/DTD/svg11.dtd">
<svg version="1.1" id="Layer_3" xmlns="http://www.w3.org/2000/svg" xmlns:xlink="http://www.w3.org/1999/xlink" viewBox="0 0 1280 800">
<defs>
	<filter id="OpacityMaskFilter" filterUnits="userSpaceOnUse" x="188.405" y="562.469" width="28.996" height="54.259">
		<feColorMatrix  type="matrix" values="1 0 0 0 0  0 1 0 0 0  0 0 1 0 0  0 0 0 1 0"/>
	</filter>
</defs>
<mask maskUnits="userSpaceOnUse" x="188.405" y="562.469" width="28.996" height="54.259" id="SVGID_1_">
	<g filter="url(#OpacityMaskFilter)">
		<rect fill="#FFFFFF" width="1280" height="800"/>
	</g>
</mask>
<g mask="url(#SVGID_1_)">
	<g id="left_palm">
		<g id="XMLID_23_">
			<g>
				<path fill="#332D25" d="M217.273,589.13c0.024,1.927-0.122,3.852-0.279,5.771c-0.167,2.03-0.269,4.02-0.847,5.991
					c-0.331,1.132-0.728,2.24-1.113,3.354c-0.36,1.043-0.641,2.108-0.986,3.152c0.086,0.125-0.047,0.316-0.201,0.226
					c-2.411-1.462-2.208-4.577-2.015-7.018c0.109-1.367,0.307-2.813,0.063-4.179c-0.192-1.075-0.659-1.811-1.47-2.353
					c-1.375,0.732-2.078,2.034-2.689,3.435c-0.35,0.806-0.659,1.622-0.965,2.441c-0.204,0.544-0.36,1.194-0.713,1.666
					c-0.042,0.059-0.11,0.06-0.155,0.026c-0.547,0.986-1.155,1.939-1.657,2.951c-0.34,0.688-0.654,1.396-0.872,2.13
					c-0.19,0.646-0.272,1.308-0.438,1.952c-0.017,0.756-0.244,1.526-0.479,2.219c-0.387,1.127-0.898,2.23-1.578,3.214
					c-1.022,1.479-2.701,3.135-4.627,2.229c-0.068-0.034-0.103-0.129-0.081-0.198c0.087-0.27,0.169-0.563,0.283-0.842
					c0.259-1.517,0.844-2.994,1.263-4.47c0.219-0.772,0.431-1.553,0.583-2.341c0.129-0.663,0.171-1.347,0.288-2.009
					c-0.073,0.012-0.164-0.054-0.13-0.133c0.455-1.132,0.791-2.291,1.088-3.474c0.164-0.642,0.319-1.288,0.493-1.931
					c0.131-0.484,0.221-1.032,0.502-1.45v-0.002c0.004-0.005,0.008-0.009,0.012-0.014c0.04-0.033,0.111-0.017,0.109,0.047
					c-0.023,0.569-0.279,1.146-0.423,1.7c-0.167,0.646-0.32,1.292-0.49,1.938c-0.259,0.987-0.529,1.982-0.939,2.923
					c0.082,0.807-0.103,1.687-0.26,2.47c-0.159,0.791-0.354,1.57-0.579,2.346c-0.358,1.225-0.701,2.46-1.075,3.685
					c0.044-0.046,0.092-0.091,0.145-0.128c0.065-0.05,0.139,0.04,0.105,0.103c-0.269,0.492-0.423,1.009-0.592,1.532
					c1.857,0.759,3.503-1.229,4.359-2.643c0.923-1.523,1.61-3.248,1.796-5.026c-0.018-1.287,0.623-2.684,1.181-3.786
					c0.613-1.211,1.325-2.366,2.073-3.498c0.186-0.621,0.494-1.242,0.719-1.833c0.305-0.806,0.616-1.61,0.987-2.387
					c0.464-0.971,1.278-2.715,2.493-3.006c-0.119-0.067-0.244-0.133-0.376-0.195c-0.14-0.065-0.04-0.285,0.104-0.246
					c2.611,0.746,2.507,3.895,2.344,6.049c-0.196,2.608-0.783,5.986,1.639,7.738c0.323-2.128,1.364-4.173,1.966-6.224
					c0.58-1.978,0.724-3.938,0.894-5.977c0.278-3.354,0.674-6.843-0.286-10.106c-0.001-0.003-0.003-0.005-0.005-0.007
					c-0.588-1.123-0.915-2.387-1.216-3.61c-0.167-0.681-0.319-1.363-0.469-2.051c-0.087-0.399-0.212-0.817-0.283-1.232
					c-0.019-0.035-0.039-0.072-0.056-0.107l0.036-0.02c-0.019-0.144-0.032-0.286-0.032-0.431c0-0.059,0.087-0.088,0.114-0.031
					c0.258,0.54,0.324,1.18,0.45,1.761c0.15,0.685,0.299,1.369,0.463,2.05c0.246,1.019,0.521,2.026,0.905,3.001
					c0.02,0.005,0.036,0.016,0.047,0.03C217.24,585.64,217.255,587.61,217.273,589.13z"/>
				<path fill="#FFE8CA" d="M216.446,584.956c0.959,3.266,0.564,6.753,0.286,10.106c-0.169,2.036-0.313,4-0.894,5.977
					c-0.602,2.051-1.643,4.096-1.966,6.224c-2.421-1.752-1.834-5.13-1.638-7.737c0.163-2.155,0.267-5.304-2.344-6.05
					c-0.144-0.038-0.244,0.181-0.104,0.246c0.133,0.063,0.258,0.128,0.377,0.195c-1.214,0.291-2.029,2.035-2.493,3.006
					c-0.371,0.774-0.682,1.581-0.987,2.387c-0.226,0.592-0.533,1.212-0.719,1.833c-0.749,1.133-1.46,2.287-2.073,3.498
					c-0.559,1.104-1.199,2.499-1.182,3.786c-0.186,1.778-0.873,3.503-1.796,5.026c-0.856,1.414-2.502,3.4-4.359,2.643
					c0.169-0.523,0.323-1.04,0.592-1.531c0.034-0.063-0.04-0.15-0.105-0.104c-0.052,0.038-0.1,0.082-0.145,0.128
					c0.374-1.225,0.717-2.46,1.075-3.685c0.226-0.773,0.42-1.555,0.579-2.346c0.158-0.782,0.342-1.662,0.26-2.47
					c0.41-0.938,0.681-1.936,0.939-2.923c0.169-0.645,0.323-1.29,0.49-1.937c0.144-0.555,0.4-1.132,0.423-1.701
					c0.002-0.063-0.069-0.08-0.109-0.046c0.039-0.045,0.08-0.091,0.121-0.136c1.439-1.56,3.101-2.663,4.965-3.634
					c0.09-0.046,0.026-0.178-0.065-0.157c-0.912,0.202-1.75,0.771-2.5,1.298c-0.947,0.662-1.81,1.451-2.599,2.297
					c-0.781,0.832-1.479,1.752-2.042,2.742c-0.29,0.51-0.646,1.178-0.799,1.825c-0.027,0.003-0.054,0.02-0.064,0.048
					c-0.431,1.067-0.659,2.222-1.092,3.295c-0.511,1.271-1.158,2.491-1.938,3.619c-0.701,1.014-1.564,1.978-2.67,2.549
					c-0.612,0.316-1.167,0.281-1.831,0.148c-0.222-0.044-0.465-0.13-0.705-0.174c-0.144-1.06,0.605-1.944,0.797-2.972
					c2.467-0.787,3.707-3.89,4.025-6.387c0.247-0.187,0.47-0.399,0.655-0.639c0.949-1.222,1.219-2.888,1.388-4.385
					c0.049-0.427,0.083-0.855,0.112-1.284c0.518-0.668,0.98-1.395,1.494-2.053c0.274-0.354,0.546-0.706,0.809-1.066
					c0.454-0.226,0.947-0.38,1.452-0.542c0.096-0.032,0.083-0.188-0.024-0.184c-0.393,0.02-0.769,0.126-1.121,0.293
					c0.238-0.349,0.463-0.702,0.667-1.068c0.075-0.129-0.127-0.249-0.204-0.118c-0.313,0.536-0.668,1.04-1.042,1.53
					c-0.356,0.259-0.67,0.575-0.923,0.92c-0.023,0.033,0.029,0.074,0.055,0.041c0.153-0.181,0.318-0.338,0.491-0.47
					c-0.166,0.211-0.332,0.421-0.498,0.63c-0.36,0.456-0.769,0.921-1.12,1.416c0.054-1.172,0.059-2.343,0.09-3.512
					c0.033-1.276,0.09-2.528,0.419-3.756c0.022-0.018,0.047-0.049,0.082-0.104c0.017-0.028,0.035-0.058,0.053-0.084
					c0.028-0.023,0.058-0.047,0.09-0.063c0.006-0.005,0.003-0.014-0.003-0.013c-0.017,0.005-0.032,0.013-0.048,0.019
					c0.079-0.113,0.167-0.221,0.256-0.324c0.488-0.574,1.161-0.98,1.817-1.333c1.348-0.725,2.85-1.146,4.145-1.971
					c2.562-1.632,3.344-4.62,4.474-7.255c0.053-0.117-0.113-0.228-0.181-0.104c-0.691,1.231-1.105,2.598-1.706,3.875
					c-0.655,1.394-1.605,2.519-2.907,3.347c-1.175,0.749-2.567,1.157-3.807,1.795c-0.679,0.348-1.727,0.934-2.214,1.69
					c-0.032-0.004-0.068,0.007-0.09,0.037c-0.665,0.905-0.592,2.504-0.635,3.565c-0.061,1.55-0.051,3.104-0.141,4.653
					c-0.133,0.224-0.249,0.45-0.338,0.688c-0.028,0.079,0.084,0.142,0.138,0.081c0.057-0.063,0.106-0.123,0.162-0.188
					c-0.118,1.577-0.33,3.263-1.122,4.65c-0.185,0.323-0.411,0.614-0.679,0.862c0.001-0.008,0.001-0.009,0.001-0.015
					c0.009-0.099-0.154-0.12-0.172-0.022c-0.014,0.07-0.028,0.146-0.043,0.222c-0.154,0.119-0.319,0.229-0.496,0.319
					c-0.441,0.23-0.895,0.287-1.356,0.309c-0.017-0.01-0.035-0.019-0.056-0.017c-0.051,0.007-0.098,0.015-0.141,0.022
					c-0.146,0.006-0.293,0.008-0.442,0.014c-0.054-0.207,0-0.617,0.005-0.714c0.024-0.804,0.086-1.604,0.145-2.404
					c0.113-1.557,0.206-3.112,0.063-4.671c-0.088-0.965-0.138-1.935-0.229-2.898c-0.052-0.532-0.033-1.191-0.142-1.755
					c0.037-0.005,0.073-0.042,0.063-0.084c-0.129-0.563-0.375-1.058-0.436-1.646c-0.062-0.583,0.05-1.174,0.209-1.731
					c0.244-0.861,0.703-1.623,1.11-2.408c0.023-0.006,0.045-0.016,0.065-0.035c2.112-2.271,3.199-5.341,4.949-7.874
					c1.542-2.229,4.139-3.813,5.156-6.395c0.989-0.995,0.73-2.762,0.335-4.008c0.009,0,0.017,0.006,0.028,0.006
					c0.185,0,0.185-0.286,0-0.286c-0.058,0-0.095,0.024-0.117,0.064c-0.011-0.011-0.023-0.017-0.037-0.019
					c0.039-0.016,0.068-0.043,0.067-0.091c-0.057-1.467-0.091-3.138,1.354-3.977c1.204-0.694,2.803-0.436,4.072-0.085
					c1.585,0.438,3.087,1.213,4.413,2.182c1.09,0.797,2.251,1.858,2.663,3.188c0.319,1.029-0.17,1.724-0.888,2.361
					c0.031-0.238,0.05-0.479,0.032-0.709c-0.006-0.07-0.114-0.117-0.15-0.039c-0.222,0.483-0.215,1.145-0.264,1.67
					c-0.07,0.766-0.101,1.533-0.105,2.306c-0.006,1.246,0.002,2.607,0.559,3.732c0.018,0.035,0.037,0.071,0.056,0.107
					c0.071,0.415,0.196,0.833,0.283,1.232c0.15,0.688,0.303,1.37,0.469,2.051c0.301,1.226,0.628,2.486,1.216,3.61
					C216.443,584.951,216.445,584.953,216.446,584.956z"/>
				<path fill="#332D25" d="M215.579,568.665c0.25,1.063-0.21,2.167-1.214,2.654c-0.024,0.01-0.047,0.01-0.07,0.01
					c-0.041,0.254-0.086,0.505-0.106,0.746c-0.059,0.711-0.099,1.426-0.102,2.139c-0.002,1.21,0.024,2.541,0.367,3.715l-0.036,0.02
					c-0.557-1.125-0.565-2.486-0.559-3.732c0.004-0.771,0.035-1.54,0.105-2.306c0.049-0.525,0.042-1.187,0.264-1.67
					c0.036-0.078,0.144-0.031,0.15,0.04c0.018,0.229-0.001,0.47-0.032,0.708c0.718-0.64,1.207-1.332,0.888-2.361
					c-0.412-1.329-1.573-2.393-2.663-3.188c-1.326-0.969-2.828-1.743-4.413-2.182c-1.269-0.351-2.869-0.609-4.072,0.085
					c-1.445,0.839-1.41,2.51-1.353,3.978c0.001,0.047-0.028,0.074-0.067,0.09h-0.001H202.6h-0.001
					c-0.028-0.011-0.05-0.029-0.059-0.064c-0.458-1.974,0.249-4.229,2.432-4.646c2.88-0.554,6.168,1.104,8.323,2.891
					C214.246,566.38,215.284,567.414,215.579,568.665z"/>
				<path fill="#332D25" d="M196.003,597.918c-0.055,0.065-0.105,0.127-0.162,0.189c-0.054,0.06-0.167-0.002-0.138-0.082
					c0.09-0.236,0.205-0.464,0.338-0.688c0.09-1.55,0.081-3.104,0.141-4.653c0.043-1.063-0.03-2.66,0.635-3.565
					c0.022-0.03,0.058-0.041,0.09-0.037c0.488-0.759,1.535-1.345,2.214-1.69c1.239-0.638,2.631-1.046,3.807-1.795
					c1.301-0.827,2.252-1.952,2.907-3.347c0.601-1.276,1.015-2.644,1.706-3.875c0.068-0.123,0.233-0.015,0.181,0.104
					c-1.129,2.634-1.911,5.623-4.474,7.254c-1.294,0.822-2.797,1.246-4.145,1.971c-0.657,0.354-1.329,0.759-1.817,1.333
					c-0.09,0.104-0.177,0.211-0.256,0.324c0.017-0.006,0.032-0.013,0.048-0.019c0.006-0.001,0.009,0.009,0.003,0.013
					c-0.032,0.019-0.062,0.039-0.09,0.063c-0.018,0.026-0.036,0.057-0.053,0.084c-0.035,0.057-0.06,0.087-0.082,0.104
					c-0.329,1.228-0.386,2.478-0.419,3.756c-0.031,1.169-0.036,2.34-0.09,3.512c0.351-0.495,0.76-0.96,1.12-1.416
					c0.166-0.209,0.332-0.419,0.498-0.63c-0.173,0.132-0.338,0.289-0.491,0.47c-0.025,0.033-0.078-0.008-0.055-0.041
					c0.252-0.345,0.567-0.661,0.923-0.92c0.373-0.49,0.729-0.994,1.042-1.53c0.077-0.131,0.278-0.011,0.204,0.118
					c-0.204,0.366-0.429,0.723-0.667,1.068c0.353-0.167,0.729-0.273,1.122-0.293c0.107-0.007,0.12,0.149,0.024,0.184
					c-0.505,0.162-0.998,0.316-1.452,0.542c-0.263,0.36-0.534,0.714-0.809,1.066c-0.514,0.659-0.977,1.385-1.493,2.053
					c-0.028,0.429-0.063,0.857-0.112,1.284c-0.169,1.497-0.438,3.163-1.388,4.385c-0.185,0.237-0.408,0.452-0.655,0.639
					c-0.319,2.497-1.559,5.6-4.025,6.387c-0.192,1.025-0.941,1.913-0.797,2.972c0.24,0.044,0.483,0.13,0.705,0.174
					c0.663,0.133,1.219,0.168,1.831-0.148c1.105-0.571,1.969-1.535,2.67-2.548c0.78-1.129,1.427-2.351,1.938-3.62
					c0.433-1.073,0.661-2.228,1.092-3.294c0.01-0.029,0.037-0.045,0.064-0.049c0.153-0.647,0.51-1.315,0.8-1.825
					c0.563-0.99,1.26-1.91,2.041-2.742c0.791-0.845,1.652-1.634,2.599-2.297c0.75-0.527,1.588-1.096,2.5-1.297
					c0.091-0.021,0.155,0.11,0.065,0.156c-1.865,0.972-3.526,2.074-4.965,3.634c-0.041,0.046-0.082,0.091-0.121,0.136
					c-0.004,0.004-0.008,0.008-0.012,0.013c-0.708,0.781-1.357,1.616-1.873,2.536c-0.255,0.453-0.492,0.921-0.656,1.415
					c-0.119,0.359-0.181,0.744-0.317,1.1c-0.011,0.024-0.034,0.041-0.058,0.041c-0.167,0.988-0.623,2.008-0.984,2.874
					c-0.563,1.336-1.26,2.627-2.133,3.788c-0.723,0.959-1.619,1.867-2.739,2.351c-0.787,0.336-1.635,0.118-2.416-0.164
					c-0.017,0.044-0.073,0.068-0.109,0.025c-0.025-0.03-0.047-0.063-0.068-0.092c-0.09-0.034-0.178-0.067-0.265-0.104
					c-0.034-0.012-0.046-0.07,0-0.077c0.054-0.012,0.109-0.013,0.165-0.012c-0.122-0.313-0.07-0.67,0.051-1
					c0.233-0.633,0.55-1.223,0.729-1.869c-0.35,0.088-0.723,0.129-1.12,0.114c-0.088-0.004-0.153-0.068-0.155-0.155
					c-0.029-0.596-0.17-1.145,0.098-1.7c0.007-0.018,0.021-0.024,0.034-0.03c0.651-2.204,0.645-4.48,0.595-6.764
					c-0.025-1.144-0.062-2.288,0.006-3.436c0.055-0.951,0.092-2.028,0.481-2.914c0.024-0.057,0.118-0.026,0.114,0.029
					c-0.003,0.055-0.009,0.111-0.014,0.166c-0.096,1.063-0.333,2.095-0.367,3.173c-0.035,1.146,0,2.292,0.021,3.441
					c0.041,2.213,0.024,4.465-0.724,6.575c-0.005,0.018-0.016,0.028-0.027,0.037c0.002,0.42,0.059,0.841,0.086,1.261
					c3.152,0.005,4.423-3.396,5.008-6.085c-0.614,0.386-1.35,0.602-2.062,0.539c-0.162,0.097-0.267,0.196-0.54,0.104
					c-0.06-0.021-0.105-0.072-0.104-0.141c0-0.037,0.001-0.071,0.001-0.104c-0.021-0.008-0.041-0.015-0.06-0.021
					c-0.064-0.023-0.054-0.113,0.017-0.119c0.015-0.001,0.031-0.001,0.046-0.002c0.021-1.44,0.155-2.874,0.245-4.314
					c0.085-1.397-0.012-2.75-0.054-4.145c-0.028-0.904-0.119-1.807-0.205-2.703c-0.01-0.108-0.028-0.229-0.048-0.354
					c-0.082,0.451-0.244,0.896-0.403,1.32c-0.197,0.526-0.375,1.09-0.652,1.581c-0.027,0.047-0.09,0.011-0.082-0.035
					c0.091-0.622,0.396-1.215,0.6-1.808c0.176-0.516,0.296-1.042,0.464-1.554c-0.036-0.281-0.052-0.563,0.001-0.802
					c-0.486-0.855-0.431-2.089-0.17-2.979c0.278-0.953,0.736-1.853,1.259-2.696c0.005-0.016,0.013-0.031,0.026-0.046
					c0.006-0.008,0.011-0.014,0.017-0.021c0.063-0.102,0.127-0.199,0.192-0.302c0.021-0.031,0.051-0.038,0.079-0.031
					c1.871-2.353,2.915-5.226,4.719-7.626c1.64-2.177,4.119-3.813,5.168-6.402c0.023-0.055,0.078-0.071,0.125-0.061
					c0.591-1.174,0.437-2.521,0.051-3.771c-0.021-0.066,0.017-0.111,0.066-0.125h0.001h0.065h0.001
					c0.014,0.002,0.026,0.008,0.037,0.019c0.022-0.04,0.059-0.064,0.117-0.064c0.185,0,0.185,0.287,0,0.287
					c-0.011,0-0.019-0.007-0.028-0.007c0.395,1.246,0.654,3.013-0.334,4.009c-1.017,2.582-3.615,4.163-5.156,6.394
					c-1.749,2.533-2.836,5.604-4.949,7.874c-0.021,0.021-0.042,0.029-0.065,0.035c-0.409,0.785-0.868,1.547-1.111,2.409
					c-0.159,0.559-0.271,1.147-0.209,1.73c0.062,0.589,0.307,1.081,0.436,1.646c0.01,0.042-0.026,0.08-0.063,0.084
					c0.109,0.563,0.09,1.223,0.142,1.755c0.091,0.966,0.141,1.936,0.229,2.898c0.144,1.559,0.05,3.114-0.063,4.672
					c-0.059,0.8-0.121,1.602-0.145,2.403c-0.005,0.098-0.059,0.507-0.005,0.714c0.148-0.006,0.296-0.008,0.442-0.014
					c0.043-0.01,0.09-0.018,0.141-0.021c0.021-0.002,0.04,0.006,0.056,0.016c0.462-0.021,0.917-0.076,1.356-0.308
					c0.177-0.093,0.342-0.201,0.496-0.32c0.015-0.075,0.029-0.149,0.043-0.22c0.018-0.1,0.181-0.076,0.172,0.021
					c0,0.006,0,0.007-0.001,0.015c0.268-0.246,0.495-0.538,0.679-0.862C195.673,601.181,195.885,599.495,196.003,597.918z"/>
				<path fill="#FFE8CA" d="M191.841,604.564c0.713,0.063,1.449-0.153,2.062-0.539c-0.584,2.688-1.856,6.09-5.008,6.085
					c-0.027-0.42-0.083-0.841-0.086-1.261c0.011-0.009,0.021-0.021,0.027-0.037c0.749-2.11,0.765-4.362,0.724-6.575
					c-0.021-1.149-0.055-2.296-0.021-3.441c0.033-1.078,0.271-2.111,0.367-3.173l0.095,0.008c-0.008,0.046,0.055,0.082,0.082,0.035
					c0.278-0.491,0.456-1.055,0.653-1.581c0.159-0.427,0.321-0.869,0.403-1.321c0.021,0.126,0.038,0.247,0.048,0.355
					c0.086,0.896,0.177,1.799,0.205,2.703c0.042,1.395,0.14,2.744,0.054,4.144c-0.09,1.44-0.225,2.875-0.245,4.315
					c-0.015,0.001-0.031,0.001-0.046,0.002c-0.071,0.005-0.081,0.096-0.017,0.119c0.019,0.007,0.04,0.013,0.06,0.021
					c0,0.032-0.001,0.067-0.001,0.104c-0.001,0.066,0.044,0.117,0.104,0.14C191.574,604.762,191.679,604.66,191.841,604.564z"/>
			</g>
			<g>
				<path fill="none" stroke="#000000" stroke-width="0.25" stroke-miterlimit="10" d="M202.664,567.407L202.664,567.407
					c0.04-0.016,0.069-0.043,0.068-0.09c-0.057-1.468-0.091-3.139,1.353-3.978c1.204-0.693,2.803-0.436,4.072-0.085
					c1.585,0.438,3.087,1.213,4.413,2.182c1.09,0.798,2.251,1.858,2.663,3.188c0.319,1.029-0.17,1.724-0.888,2.361
					c0.031-0.238,0.05-0.479,0.032-0.708c-0.006-0.071-0.114-0.118-0.15-0.04c-0.222,0.483-0.215,1.145-0.264,1.67
					c-0.07,0.766-0.101,1.534-0.105,2.306c-0.006,1.246,0.002,2.607,0.559,3.732c0.018,0.036,0.037,0.071,0.056,0.107
					c0.071,0.415,0.196,0.833,0.283,1.232c0.15,0.688,0.303,1.37,0.469,2.051c0.301,1.226,0.628,2.486,1.216,3.61
					c0.001,0.002,0.004,0.004,0.005,0.007c0.959,3.266,0.564,6.753,0.286,10.106c-0.169,2.036-0.313,3.999-0.894,5.977
					c-0.602,2.051-1.643,4.095-1.966,6.224c-2.421-1.752-1.834-5.13-1.638-7.737c0.163-2.155,0.267-5.304-2.344-6.05
					c-0.144-0.039-0.244,0.181-0.104,0.246c0.133,0.063,0.258,0.128,0.377,0.195c-1.214,0.291-2.029,2.035-2.493,3.006
					c-0.371,0.774-0.682,1.581-0.987,2.387c-0.226,0.592-0.533,1.212-0.719,1.833c-0.749,1.133-1.46,2.287-2.073,3.498
					c-0.559,1.104-1.199,2.499-1.182,3.786c-0.186,1.778-0.873,3.503-1.796,5.026c-0.856,1.414-2.502,3.399-4.359,2.643
					c0.169-0.523,0.323-1.04,0.592-1.531c0.034-0.063-0.04-0.151-0.105-0.104c-0.052,0.037-0.1,0.081-0.145,0.128
					c0.374-1.225,0.717-2.46,1.075-3.685c0.226-0.773,0.42-1.555,0.579-2.346c0.158-0.782,0.342-1.663,0.26-2.47
					c0.41-0.938,0.681-1.936,0.939-2.923c0.169-0.645,0.323-1.29,0.49-1.938c0.144-0.554,0.4-1.131,0.423-1.7
					c0.002-0.063-0.069-0.08-0.109-0.046"/>
				<path fill="none" stroke="#000000" stroke-width="0.25" stroke-miterlimit="10" d="M196.003,597.918
					c-0.118,1.577-0.33,3.263-1.122,4.65c-0.185,0.323-0.411,0.614-0.679,0.862c0.001-0.008,0.001-0.009,0.001-0.015
					c0.009-0.099-0.154-0.12-0.172-0.021c-0.014,0.069-0.028,0.146-0.043,0.221c-0.154,0.119-0.319,0.229-0.496,0.32
					c-0.441,0.229-0.895,0.286-1.357,0.308c-0.017-0.01-0.035-0.019-0.056-0.017c-0.051,0.007-0.098,0.015-0.141,0.022
					c-0.146,0.006-0.293,0.008-0.442,0.014c-0.054-0.207,0-0.616,0.005-0.714c0.024-0.804,0.086-1.604,0.145-2.404
					c0.113-1.558,0.206-3.112,0.063-4.671c-0.088-0.965-0.138-1.935-0.229-2.898c-0.052-0.532-0.033-1.19-0.142-1.755
					c0.037-0.004,0.073-0.042,0.063-0.084c-0.129-0.563-0.375-1.058-0.436-1.646c-0.062-0.583,0.05-1.174,0.209-1.73
					c0.244-0.862,0.703-1.624,1.111-2.409c0.023-0.006,0.045-0.016,0.065-0.035c2.112-2.271,3.199-5.341,4.949-7.874
					c1.542-2.229,4.14-3.813,5.156-6.394c0.988-0.996,0.729-2.763,0.334-4.009c0.009,0,0.017,0.006,0.028,0.006
					c0.185,0,0.185-0.286,0-0.286c-0.058,0-0.095,0.024-0.117,0.064c-0.011-0.011-0.023-0.017-0.037-0.019"/>
				<path fill="none" stroke="#000000" stroke-width="0.25" stroke-miterlimit="10" d="M200.552,599.484
					c0.039-0.045,0.08-0.091,0.121-0.136c1.439-1.56,3.101-2.663,4.965-3.634c0.09-0.046,0.026-0.178-0.065-0.156
					c-0.912,0.201-1.75,0.77-2.5,1.297c-0.947,0.662-1.81,1.451-2.599,2.297c-0.781,0.832-1.479,1.752-2.041,2.742
					c-0.29,0.51-0.647,1.178-0.8,1.825c-0.027,0.003-0.054,0.021-0.064,0.048c-0.431,1.067-0.659,2.222-1.092,3.295
					c-0.511,1.271-1.158,2.491-1.938,3.619c-0.701,1.014-1.564,1.978-2.67,2.55c-0.612,0.315-1.167,0.28-1.831,0.147
					c-0.222-0.044-0.465-0.13-0.705-0.174c-0.144-1.059,0.605-1.944,0.797-2.972c2.467-0.787,3.707-3.89,4.025-6.387
					c0.247-0.187,0.47-0.399,0.655-0.639c0.949-1.222,1.219-2.888,1.388-4.384c0.049-0.428,0.083-0.856,0.112-1.285
					c0.518-0.668,0.98-1.394,1.494-2.053c0.274-0.354,0.546-0.706,0.809-1.066c0.454-0.226,0.947-0.38,1.452-0.542
					c0.096-0.032,0.083-0.188-0.024-0.183c-0.393,0.019-0.769,0.125-1.122,0.292c0.238-0.349,0.464-0.702,0.667-1.068
					c0.075-0.129-0.127-0.249-0.204-0.117c-0.313,0.535-0.669,1.039-1.042,1.529c-0.355,0.259-0.67,0.575-0.923,0.92
					c-0.023,0.033,0.029,0.074,0.055,0.041c0.153-0.181,0.318-0.338,0.491-0.47c-0.166,0.211-0.332,0.421-0.498,0.63
					c-0.36,0.456-0.769,0.921-1.12,1.416c0.054-1.172,0.059-2.343,0.09-3.512c0.033-1.276,0.09-2.528,0.419-3.756
					c0.022-0.018,0.047-0.048,0.082-0.104c0.017-0.028,0.035-0.058,0.053-0.084c0.028-0.023,0.058-0.046,0.09-0.063
					c0.006-0.004,0.003-0.014-0.003-0.013c-0.017,0.005-0.032,0.013-0.048,0.019c0.079-0.113,0.167-0.221,0.256-0.324
					c0.488-0.574,1.161-0.979,1.817-1.333c1.348-0.725,2.85-1.146,4.145-1.971c2.562-1.631,3.344-4.62,4.474-7.254
					c0.053-0.118-0.113-0.229-0.181-0.104c-0.691,1.231-1.105,2.598-1.706,3.876c-0.655,1.394-1.605,2.519-2.907,3.347
					c-1.175,0.748-2.567,1.156-3.807,1.794c-0.679,0.348-1.726,0.934-2.214,1.69c-0.032-0.004-0.068,0.007-0.09,0.037
					c-0.665,0.905-0.592,2.504-0.635,3.565c-0.061,1.55-0.051,3.104-0.141,4.653c-0.133,0.225-0.249,0.45-0.338,0.688
					c-0.028,0.08,0.084,0.142,0.138,0.082c0.057-0.063,0.106-0.124,0.162-0.189v-0.001"/>

					<line fill="none" stroke="#000000" stroke-width="0.25" stroke-miterlimit="10" x1="200.552" y1="599.484" x2="200.541" y2="599.497"/>
				<path fill="none" stroke="#000000" stroke-width="0.25" stroke-miterlimit="10" d="M202.598,567.407L202.598,567.407
					c-0.051,0.014-0.088,0.059-0.067,0.125c0.386,1.249,0.54,2.598-0.051,3.771c-0.046-0.013-0.102,0.006-0.125,0.061
					c-1.05,2.59-3.529,4.228-5.168,6.402c-1.805,2.4-2.849,5.273-4.719,7.626c-0.027-0.007-0.058,0-0.079,0.031
					c-0.065,0.103-0.129,0.2-0.192,0.302c-0.005,0.009-0.01,0.015-0.017,0.021c-0.013,0.015-0.021,0.03-0.026,0.046
					c-0.523,0.846-0.981,1.743-1.259,2.696c-0.26,0.893-0.315,2.124,0.17,2.979c-0.054,0.236-0.037,0.521-0.001,0.802
					c-0.167,0.512-0.288,1.038-0.464,1.554c-0.203,0.593-0.509,1.185-0.6,1.808c-0.008,0.046,0.055,0.082,0.082,0.035
					c0.278-0.491,0.456-1.055,0.653-1.581c0.159-0.427,0.321-0.869,0.403-1.32c0.021,0.126,0.038,0.246,0.048,0.354
					c0.086,0.896,0.177,1.799,0.205,2.703c0.042,1.395,0.14,2.744,0.054,4.145c-0.09,1.439-0.225,2.874-0.245,4.314
					c-0.015,0.001-0.031,0.001-0.046,0.002c-0.071,0.006-0.081,0.096-0.017,0.119c0.019,0.007,0.04,0.014,0.06,0.021
					c0,0.033-0.001,0.067-0.001,0.104c-0.001,0.066,0.044,0.117,0.104,0.141c0.273,0.094,0.378-0.008,0.54-0.104
					c0.714,0.063,1.45-0.153,2.063-0.539c-0.584,2.688-1.856,6.09-5.008,6.085c-0.027-0.42-0.083-0.841-0.086-1.261
					c0.011-0.009,0.021-0.021,0.027-0.038c0.749-2.109,0.765-4.361,0.724-6.574c-0.021-1.149-0.055-2.296-0.021-3.441
					c0.033-1.078,0.271-2.111,0.367-3.173c0.005-0.055,0.01-0.111,0.014-0.166c0.004-0.058-0.089-0.086-0.114-0.029
					c-0.389,0.885-0.426,1.963-0.48,2.914c-0.068,1.146-0.032,2.292-0.006,3.436c0.05,2.281,0.057,4.56-0.595,6.764
					c-0.014,0.006-0.027,0.015-0.034,0.03c-0.268,0.558-0.127,1.104-0.098,1.7c0.002,0.087,0.067,0.151,0.155,0.155
					c0.398,0.015,0.771-0.026,1.121-0.114c-0.181,0.646-0.497,1.236-0.729,1.869c-0.122,0.33-0.173,0.688-0.051,1
					c-0.056-0.001-0.111,0-0.165,0.012c-0.046,0.007-0.034,0.065,0,0.076c0.087,0.035,0.175,0.068,0.265,0.104
					c0.021,0.03,0.042,0.062,0.068,0.092c0.036,0.043,0.092,0.019,0.109-0.025c0.781,0.282,1.629,0.5,2.416,0.163
					c1.119-0.48,2.016-1.391,2.739-2.35c0.874-1.161,1.571-2.452,2.133-3.788c0.363-0.866,0.818-1.886,0.984-2.874
					c0.023,0,0.046-0.017,0.058-0.041c0.136-0.354,0.198-0.738,0.317-1.1c0.164-0.494,0.401-0.962,0.656-1.415
					c0.515-0.92,1.166-1.755,1.873-2.536"/>
				<path fill="none" stroke="#000000" stroke-width="0.25" stroke-miterlimit="10" d="M200.541,599.497v0.003
					c-0.282,0.417-0.372,0.965-0.502,1.449c-0.174,0.643-0.329,1.289-0.493,1.931c-0.299,1.183-0.635,2.342-1.088,3.474
					c-0.034,0.079,0.058,0.145,0.13,0.133c-0.117,0.663-0.159,1.346-0.288,2.009c-0.154,0.788-0.365,1.567-0.583,2.341
					c-0.419,1.477-1.002,2.953-1.263,4.471c-0.114,0.275-0.196,0.571-0.283,0.842c-0.021,0.068,0.013,0.164,0.081,0.197
					c1.926,0.903,3.604-0.752,4.627-2.229c0.679-0.981,1.189-2.087,1.578-3.213c0.237-0.691,0.463-1.463,0.479-2.22
					c0.167-0.646,0.249-1.309,0.438-1.951c0.218-0.735,0.532-1.44,0.872-2.131c0.502-1.012,1.11-1.965,1.657-2.95
					c0.045,0.03,0.113,0.029,0.155-0.026c0.354-0.472,0.51-1.123,0.713-1.667c0.306-0.819,0.615-1.638,0.965-2.441
					c0.611-1.397,1.313-2.699,2.689-3.434c0.813,0.541,1.278,1.274,1.47,2.352c0.244,1.365,0.046,2.812-0.063,4.179
					c-0.193,2.438-0.396,5.556,2.015,7.018c0.154,0.094,0.287-0.101,0.201-0.226c0.346-1.044,0.626-2.109,0.986-3.152
					c0.385-1.113,0.782-2.224,1.113-3.354c0.578-1.975,0.681-3.962,0.847-5.992c0.158-1.921,0.304-3.845,0.279-5.771
					c-0.018-1.521-0.033-3.489-0.875-4.82c-0.011-0.018-0.028-0.026-0.047-0.03c-0.383-0.976-0.659-1.983-0.904-3.001
					c-0.164-0.682-0.313-1.366-0.463-2.05c-0.125-0.581-0.192-1.222-0.45-1.761c-0.027-0.058-0.114-0.025-0.114,0.03
					c0,0.146,0.013,0.287,0.032,0.432c-0.342-1.175-0.369-2.506-0.367-3.716c0.003-0.713,0.042-1.428,0.102-2.139
					c0.021-0.241,0.065-0.492,0.106-0.746c0.023,0,0.046,0,0.07-0.009c1.004-0.488,1.464-1.594,1.214-2.655
					c-0.294-1.251-1.333-2.285-2.287-3.079c-2.153-1.783-5.442-3.441-8.323-2.891c-2.183,0.415-2.889,2.673-2.432,4.646
					c0.009,0.035,0.031,0.056,0.059,0.064"/>
			</g>
		</g>
		<path stroke="#000000" stroke-width="0.25" stroke-miterlimit="10" d="M208.584,583.253c0.019-0.034-0.029-0.06-0.051-0.03
			c-0.991,1.372,0,3.396,0.744,4.656c0.015,0.025,0.06,0.008,0.048-0.021C208.719,586.403,207.684,584.814,208.584,583.253z"/>
	</g>
</g>
</svg>
