<?xml version="1.0" encoding="utf-8"?>
<!DOCTYPE svg PUBLIC "-//W3C//DTD SVG 1.1//EN" "http://www.w3.org/Graphics/SVG/1.1/DTD/svg11.dtd">
<svg version="1.1" id="Layer_3" xmlns="http://www.w3.org/2000/svg" xmlns:xlink="http://www.w3.org/1999/xlink" viewBox="0 0 1280 800">
<defs>
	<filter id="OpacityMaskFilter" filterUnits="userSpaceOnUse" x="338.248" y="564.221" width="28.116" height="54.499">
		<feColorMatrix  type="matrix" values="1 0 0 0 0  0 1 0 0 0  0 0 1 0 0  0 0 0 1 0"/>
	</filter>
</defs>
<mask maskUnits="userSpaceOnUse" x="338.248" y="564.221" width="28.116" height="54.499" id="SVGID_1_">
	<g filter="url(#OpacityMaskFilter)">
		<rect fill="#FFFFFF" width="1280" height="800"/>
	</g>
</mask>
<g mask="url(#SVGID_1_)">
	<g id="right_palm">
		<g id="XMLID_24_">
			<g>
				<path d="M351.586,569.721c-0.004,0.458-0.01,0.914,0.028,1.366c0.041,0.46,0.142,0.886,0.273,1.313
					c-0.025-0.15-0.045-0.303-0.054-0.452c-0.001-0.025,0.031-0.025,0.037-0.006c0.521,1.585,1.35,2.942,2.342,4.273
					c0.45,0.601,0.915,1.19,1.347,1.807c0.454,0.64,0.771,1.398,1.077,2.119c0.632,1.48,1.083,3.027,1.604,4.551
					c0.281,0.815,0.57,1.634,0.923,2.422c0.333,0.748,0.77,1.441,1.106,2.188c0.042,0.094-0.076,0.212-0.154,0.119
					c-0.009-0.015-0.021-0.025-0.03-0.038c0.038,0.217,0.05,0.441,0.075,0.624c0.027,0.201,0.048,0.405,0.07,0.607
					c0.005,0.008,0.009,0.012,0.01,0.018c0.133,0.553,0.109,1.12,0.297,1.674c0.186,0.542,0.438,1.063,0.733,1.561
					c0.584,0.977,1.286,1.872,1.949,2.794c0.79,1.1,1.674,2.432,1.873,3.813c0-0.005,0-0.009,0-0.014
					c0.011-0.115,0.171-0.116,0.182,0c0.133,1.528-0.079,3.091,0.008,4.626c0.082,1.465,0.273,2.96,1.071,4.229
					c0.032,0.051-0.011,0.096-0.058,0.096c-0.021,0.002-0.041-0.008-0.056-0.027c-0.873-1.139-1.071-2.715-1.151-4.104
					c-0.064-1.087-0.104-2.213-0.077-3.326c-0.036,0.129-0.077,0.253-0.128,0.382c-0.036,0.086-0.155,0.056-0.137-0.039
					c0.417-2.415-0.875-4.256-2.225-6.122c-0.656-0.9-1.345-1.815-1.82-2.836c-0.112-0.234-0.235-0.511-0.344-0.798
					c0.039,0.88,0.065,1.765,0.126,2.646c0.082,1.187,0.194,2.391,0.534,3.533c0.318,1.071,0.809,1.931,1.507,2.767
					c0.032-0.15,0.08-0.313,0.161-0.367c0.014-0.01,0.032-0.006,0.044,0.008c0.061,0.049,0.058,0.19,0.069,0.259
					c0.006,0.03-0.037,0.044-0.045,0.014c-0.076-0.323-0.041-0.089-0.069,0.109c-0.004,0.049-0.014,0.095-0.021,0.146
					c0.006,0.005,0.011,0.014,0.017,0.02c0.074,0.085,0.021,0.186-0.059,0.205c-0.027,0.114-0.063,0.225-0.117,0.333
					c-0.25,0.511-0.649,0.634-1.201,0.691c-0.384,0.039-0.752,0.013-1.101-0.069c0.574,1.058,0.409,2.344,0.652,3.494
					c0.207,0.972,0.654,1.798,1.291,2.558c0.587,0.696,1.288,1.42,2.137,1.785c1.051,0.451,1.615-0.182,1.942-1.148
					c0.011-0.032,0.043-0.05,0.074-0.05c0.036,0,0.069,0.021,0.064,0.065c-0.081,0.768-0.461,1.676-1.387,1.624
					c-0.934-0.052-1.767-0.724-2.401-1.356c-0.131-0.131-0.261-0.268-0.391-0.406c-0.557-0.605-1.073-1.304-1.345-2.061
					c-0.525-1.464-0.159-3.224-0.92-4.587c-0.587-0.199-1.108-0.58-1.519-1.112c-0.826-1.065-1.242-2.41-1.542-3.705
					c-0.194-0.829-0.407-1.703-0.526-2.572c0.014,0.051,0.027,0.104,0.04,0.154c0.017,0.067,0.13,0.056,0.122-0.018
					c-0.228-2.546-2.153-4.494-4.017-6.186c0.211,0.184,0.426,0.362,0.642,0.538c0.109,0.088,0.232,0.175,0.359,0.266
					c0.01-0.023,0.033-0.041,0.062-0.044c0.18-0.005,0.113,0.113,0.351,0.209v0.002c-0.001,0.002-0.001,0.002-0.002,0.002
					c-0.129-0.03-0.162-0.005-0.145,0.044c0.092,0.083,0.175,0.173,0.237,0.271c0.006,0.011,0.009,0.021,0.012,0.027
					c0.181,0.194,0.355,0.39,0.523,0.593c0.359,0.44,0.705,0.898,1.001,1.388c0.272,0.45,0.573,0.972,0.782,1.507
					c0.022,0.003,0.043,0.018,0.053,0.041c0.387,1.04,0.432,2.226,0.669,3.31c0.259,1.183,0.578,2.401,1.204,3.451
					c0.587,0.983,1.484,1.794,2.697,1.775c0.769-0.009,1.274-0.149,1.525-0.889c-1.673-1.431-2.059-4.026-2.215-6.087
					c-0.094-1.232-0.114-2.475-0.177-3.711c-0.032-0.611-0.066-1.225-0.137-1.833c-0.041-0.354-0.208-0.848-0.158-1.229
					c-0.786-1.173-1.264-2.674-1.708-3.97c-0.559-1.633-1.036-3.309-1.73-4.895c-0.342-0.784-0.711-1.547-1.219-2.236
					c-0.495-0.673-1.009-1.329-1.489-2.016c-0.578-0.818-1.208-1.729-1.544-2.717c-0.023,0.015-0.054,0.017-0.073-0.008
					c-0.708-0.912-0.708-2.141-0.656-3.282c-0.059,0.027-0.137,0.016-0.146-0.063c-0.118-0.883,0.042-1.744-0.229-2.615
					c-0.206-0.66-0.55-1.282-1.096-1.722c-1.204-0.975-2.9-1.012-4.354-0.724c-1.688,0.338-3.661,0.985-4.895,2.243
					c-1.235,1.257-1.151,2.832-0.74,4.434c0.01,0.044-0.028,0.08-0.064,0.082c-0.022,0.003-0.042-0.009-0.053-0.03
					c-0.645-1.491-0.702-3.233,0.451-4.509c1.309-1.443,3.49-2.25,5.368-2.563c1.514-0.254,3.297-0.234,4.526,0.827
					c0.969,0.838,1.563,2.395,1.457,3.749c0.01,0.015,0.02,0.033,0.018,0.058c-0.006,0.316,0.114,0.607,0.122,0.926
					c0.001,0.042-0.068,0.056-0.074,0.011C351.62,569.852,351.604,569.786,351.586,569.721z"/>
				<path fill="#FFE8CA" d="M366.293,609.404l0.005,0.058c-0.031,0-0.063,0.017-0.074,0.049c-0.328,0.97-0.892,1.603-1.942,1.149
					c-0.85-0.365-1.55-1.089-2.137-1.785c-0.637-0.76-1.084-1.586-1.292-2.559c-0.243-1.149-0.078-2.438-0.651-3.493
					c0.349,0.082,0.716,0.106,1.101,0.068c0.552-0.059,0.952-0.182,1.201-0.69c0.054-0.109,0.09-0.219,0.117-0.334
					c0.081-0.021,0.133-0.119,0.059-0.204c-0.005-0.007-0.01-0.015-0.017-0.021c0.006-0.051,0.017-0.097,0.021-0.146
					c0.028-0.199-0.007-0.437,0.069-0.11c0.008,0.031,0.051,0.02,0.045-0.013c-0.011-0.067-0.009-0.21-0.069-0.259
					c-0.013-0.014-0.031-0.019-0.044-0.009c-0.081,0.057-0.128,0.218-0.161,0.367c-0.7-0.837-1.189-1.692-1.507-2.766
					c-0.34-1.145-0.452-2.35-0.534-3.535c-0.061-0.88-0.087-1.765-0.126-2.645c0.109,0.287,0.232,0.563,0.344,0.798
					c0.476,1.02,1.165,1.934,1.82,2.836c1.351,1.866,2.642,3.707,2.225,6.122c-0.018,0.094,0.101,0.125,0.137,0.039
					c0.051-0.129,0.092-0.253,0.128-0.382c-0.027,1.111,0.013,2.238,0.077,3.325c0.08,1.391,0.278,2.968,1.151,4.104
					C366.252,609.396,366.273,609.406,366.293,609.404z"/>
				<path d="M338.836,612.299c-0.012,0.021-0.021,0.042-0.033,0.061c-0.062,0.106-0.236,0.037-0.2-0.082
					c0.035-0.11,0.067-0.221,0.099-0.328c-0.014-0.063-0.026-0.128-0.034-0.197c-0.005-0.042,0.057-0.055,0.075-0.021
					c0.005,0.009,0.01,0.021,0.015,0.026c0.251-0.863,0.454-1.703,0.47-2.635c0.022-1.154-0.092-2.307-0.259-3.449
					c-0.162-1.107-0.358-2.218-0.509-3.327c-0.125-0.917-0.299-1.903-0.162-2.827c0.004-0.039,0.072-0.039,0.078,0
					c0.017,0.104,0.031,0.204,0.045,0.305c0.246-1.143,0.474-2.265,0.503-3.45c0.036-1.323-0.053-2.642-0.164-3.956
					c-0.204-2.406-0.454-4.84-0.033-7.232c0.775-4.407,3.247-9.191,0.991-13.55c-0.041-0.076,0.007-0.174,0.099-0.174h0.001
					c0.25,0.005,0.486,0.087,0.741,0.092c0.031,0,0.031,0.047,0,0.047c-0.191,0.009-0.372,0.053-0.557,0.076
					c2.241,4.179-0.117,8.949-0.904,13.198c-0.495,2.669-0.199,5.328,0.013,8.007c0.185,2.368,0.438,5.188-0.629,7.4
					c0.101,0.87,0.154,1.754,0.291,2.618c0.179,1.125,0.384,2.24,0.529,3.366c0.232,1.811,0.478,4.08-0.349,5.807
					c0.31,0.438,0.705,0.653,1.306,0.326c0.496-0.27,0.922-0.65,1.284-1.081c0.85-1.006,1.394-2.217,1.668-3.498
					c0.292-1.36,0.373-2.766,0.292-4.149c-0.036-0.673-0.098-1.346-0.201-2.012c-0.031-0.195-0.08-0.401-0.125-0.608
					c-0.027,0.021-0.067,0.016-0.072-0.023c-0.33-1.825,0.57-3.705,1.409-5.363c-0.068-0.229,0.041-0.37,0.223-0.438
					c0.062-0.123,0.124-0.248,0.183-0.366c0.047-0.096,0.213-0.025,0.172,0.067c-0.037,0.084-0.072,0.166-0.108,0.249
					c0.094-0.005,0.195,0.009,0.293,0.027c0.588,0.136,1.181,0.534,1.608,1.038c-0.018-0.03-0.039-0.065-0.055-0.1
					c-0.105-0.121-0.19-0.257-0.231-0.48c-0.01-0.063,0.067-0.125,0.118-0.066c0.578,0.657,1.015,1.494,1.461,2.244
					c0.497,0.834,0.97,1.687,1.369,2.569c0.642,1.429,1.306,3.116,1.3,4.729c0.047-0.181,0.119-0.342,0.227-0.458
					c0.035-0.038,0.099,0.001,0.084,0.05c-0.229,0.742-0.173,1.6-0.162,2.369c0.001,0.176,0.01,0.354,0.022,0.535
					c0.021-0.979,0.039-1.99,0.22-2.937c0.01-0.056,0.103-0.056,0.113,0c0.205,1.105-0.042,2.377-0.079,3.498
					c-0.055,1.647-0.077,3.308,0.077,4.95c0.133,1.414,0.331,3.046,1.159,4.248c0.805,1.168,1.927,1.184,3.143,0.824
					c-0.391-0.627-0.539-1.481-0.609-2.175c-0.114-1.079-0.068-2.168,0.041-3.247c0.193-1.937,0.556-3.853,0.722-5.788
					c-0.059-1.027-0.016-2.085,0.029-3.114c-0.073-0.147-0.151-0.299-0.238-0.444c-0.458-0.771-0.971-1.504-1.491-2.229
					c-0.997-1.396-1.987-2.8-2.545-4.438c-0.046-0.136,0.167-0.191,0.213-0.061c0.632,1.794,1.802,3.304,2.889,4.84
					c0.452,0.64,0.905,1.287,1.292,1.972c0.026,0.011,0.048,0.033,0.049,0.069c0,0.009,0.001,0.016,0.001,0.021
					c0.035,0.063,0.07,0.127,0.104,0.188c0.235,0.439,0.5,0.929,0.667,1.428c0.01-0.115,0.024-0.233,0.045-0.354
					c0.006-0.038,0.071-0.028,0.068,0.01c-0.065,1.024,0.281,2.186,0.508,3.179c0.138,0.6,0.284,1.2,0.427,1.802
					c0.074,0.314,0.196,0.655,0.23,0.989c0.368,1.098,1.214,2.098,2.037,2.838c0.433,0.392,0.987,0.871,1.588,0.97
					c0.556,0.086,0.732-0.318,0.808-0.761c-0.39-0.615-0.423-1.648-0.479-2.279c-0.063-0.71-0.089-1.415-0.011-2.105
					c0.005-0.042,0.046-0.054,0.07-0.032c0.008,0.009,0.013,0.02,0.016,0.032c0.07,0.634,0.095,1.303,0.158,1.949
					c0.048,0.512,0.11,1.029,0.237,1.53c0.031,0.122,0.07,0.239,0.111,0.359c0.024-0.004,0.049,0.003,0.055,0.032
					c0.008,0.059,0.016,0.114,0.022,0.179c0.066,0.186,0.135,0.368,0.177,0.563c0.014,0.063-0.059,0.102-0.107,0.062
					c-0.028-0.022-0.054-0.049-0.08-0.075c-0.051,0.322-0.193,0.624-0.51,0.737c-0.565,0.204-1.214-0.199-1.649-0.522
					c-0.949-0.705-2.105-1.854-2.6-3.09c-0.002-0.005-0.006-0.008-0.009-0.011c-0.264-0.47-0.308-1.114-0.428-1.636
					c-0.14-0.604-0.283-1.212-0.408-1.82c-0.122-0.59-0.242-1.175-0.281-1.766c-0.282-0.55-0.488-1.132-0.734-1.695
					c0.042,0.992,0.071,2.005-0.006,2.982c-0.002,0.041-0.024,0.066-0.05,0.082c-0.09,1.681-0.45,3.36-0.618,5.027
					c-0.107,1.091-0.189,2.197-0.088,3.291c0.085,0.898,0.349,1.621,0.664,2.428c0.07,0.006,0.109,0.104,0.06,0.156
					c0.012,0.031,0.024,0.062,0.038,0.094c0.04,0.104-0.114,0.188-0.184,0.106c-0.023-0.028-0.047-0.059-0.069-0.089
					c-1.064,0.492-2.361,0.466-3.188-0.461c-0.952-1.063-1.26-2.611-1.434-3.985c-0.174-1.382-0.217-2.774-0.196-4.167
					c-0.043,0.02-0.105-0.001-0.116-0.057c-0.188-0.931-0.096-2.013-0.08-2.959c0.006-0.273-0.021-0.672,0.002-1.06
					c-0.043,0.018-0.095,0.005-0.106-0.056c-0.199-0.919-0.269-1.854-0.528-2.767c-0.266-0.933-0.604-1.839-1.023-2.715
					c-0.387-0.813-0.818-1.606-1.274-2.383c-0.14-0.237-0.291-0.477-0.444-0.715c0.027,0.068,0.05,0.141,0.068,0.207
					c0.017,0.064-0.063,0.093-0.097,0.045c-0.474-0.641-0.914-1.296-1.633-1.685c-0.181-0.097-0.571-0.272-0.835-0.271
					c-0.381,0.843-0.81,1.665-1.125,2.537c-0.27,0.734-0.418,1.459-0.5,2.212c0.302,0.577,0.326,1.405,0.401,2.032
					c0.1,0.818,0.164,1.646,0.16,2.472c-0.006,1.64-0.205,3.288-0.818,4.819c-0.473,1.181-1.336,2.503-2.49,3.11
					C339.855,612.913,339.158,612.859,338.836,612.299z"/>
				<path fill="#FFE8CA" d="M353.891,590.273v-0.002c-0.238-0.098-0.171-0.215-0.351-0.209c-0.028,0.003-0.051,0.021-0.062,0.044
					c-0.127-0.092-0.25-0.179-0.359-0.267c-0.216-0.176-0.431-0.354-0.642-0.538c-0.014-0.01-0.027-0.021-0.041-0.036
					c-0.392-0.354-0.78-0.698-1.148-1.033c-0.016-0.016-0.031-0.028-0.046-0.041c-0.587-0.561-1.148-1.145-1.685-1.751
					c-1.213-1.378-2.407-3.058-2.727-4.901c-0.008-0.408,0.005-0.814-0.054-1.229c-0.001-0.01-0.01-0.015-0.021-0.015
					c0.004-0.067,0.009-0.138,0.015-0.206c0.012-0.113-0.186-0.14-0.201-0.024c-0.025,0.183-0.041,0.361-0.045,0.544
					c-0.052,0.051-0.054,0.147-0.001,0.202c0,0.086,0.004,0.175,0.01,0.261c0,0-0.001,0.001,0,0.002
					c-0.1,1.063,0.384,2.315,0.827,3.148c0.725,1.364,1.857,2.493,2.97,3.545c0.39,0.366,0.792,0.733,1.196,1.103
					c2.025,1.845,4.096,3.766,4.805,6.479v0.002c0.119,0.869,0.332,1.743,0.526,2.572c0.301,1.295,0.717,2.641,1.542,3.705
					c0.411,0.533,0.932,0.914,1.519,1.113c0.761,1.362,0.395,3.123,0.92,4.587c0.272,0.757,0.79,1.453,1.345,2.06l-0.122,0.107
					c-0.024-0.021-0.065-0.01-0.07,0.032c-0.078,0.69-0.051,1.396,0.011,2.105c0.055,0.631,0.089,1.664,0.479,2.279
					c-0.076,0.439-0.251,0.847-0.808,0.761c-0.601-0.099-1.155-0.578-1.588-0.97c-0.823-0.74-1.667-1.74-2.036-2.838
					c-0.035-0.334-0.156-0.675-0.23-0.989c-0.143-0.602-0.289-1.202-0.427-1.802c-0.227-0.993-0.573-2.152-0.508-3.179
					c0.003-0.039-0.062-0.048-0.068-0.01c-0.021,0.118-0.035,0.236-0.045,0.354c-0.167-0.499-0.432-0.986-0.667-1.428
					c-0.033-0.063-0.069-0.128-0.104-0.188c0-0.008-0.001-0.014-0.001-0.021c-0.001-0.036-0.023-0.061-0.049-0.069
					c-0.387-0.685-0.839-1.332-1.292-1.973c-1.086-1.535-2.257-3.045-2.889-4.839c-0.046-0.133-0.259-0.076-0.213,0.061
					c0.559,1.64,1.548,3.043,2.545,4.438c0.521,0.726,1.035,1.459,1.491,2.229c0.087,0.146,0.165,0.297,0.238,0.444
					c-0.045,1.03-0.088,2.086-0.029,3.114c-0.166,1.938-0.528,3.854-0.722,5.788c-0.109,1.079-0.155,2.169-0.041,3.247
					c0.07,0.691,0.218,1.549,0.609,2.175c-1.216,0.357-2.338,0.344-3.143-0.825c-0.828-1.201-1.025-2.834-1.159-4.247
					c-0.154-1.645-0.132-3.303-0.077-4.95c0.037-1.121,0.284-2.393,0.079-3.498c-0.01-0.056-0.103-0.056-0.113,0
					c-0.182,0.943-0.2,1.956-0.22,2.937c-0.012-0.181-0.021-0.359-0.022-0.535c-0.011-0.771-0.068-1.627,0.162-2.369
					c0.014-0.049-0.05-0.089-0.084-0.05c-0.108,0.116-0.18,0.277-0.227,0.459c0.005-1.614-0.659-3.304-1.3-4.73
					c-0.398-0.885-0.872-1.735-1.369-2.569c-0.447-0.75-0.885-1.587-1.461-2.244c-0.051-0.059-0.128,0.005-0.118,0.066
					c0.041,0.226,0.125,0.359,0.231,0.479c0.017,0.033,0.037,0.068,0.055,0.102c-0.428-0.505-1.021-0.903-1.608-1.039
					c-0.099-0.021-0.2-0.032-0.293-0.027c0.036-0.083,0.071-0.164,0.108-0.248c0.041-0.096-0.125-0.164-0.172-0.068
					c-0.059,0.118-0.122,0.243-0.183,0.366c-0.182,0.065-0.291,0.211-0.223,0.438c-0.839,1.658-1.738,3.538-1.409,5.364
					c0.005,0.038,0.045,0.044,0.072,0.022c0.046,0.207,0.095,0.413,0.125,0.608c0.104,0.666,0.165,1.339,0.201,2.012
					c0.08,1.386,0,2.789-0.293,4.149c-0.274,1.281-0.818,2.492-1.668,3.498c-0.362,0.431-0.788,0.813-1.284,1.081
					c-0.602,0.327-0.997,0.11-1.306-0.326c0.824-1.726,0.581-3.996,0.349-5.807c-0.145-1.126-0.35-2.241-0.529-3.366
					c-0.137-0.864-0.19-1.747-0.291-2.618c1.069-2.213,0.815-5.032,0.63-7.4c-0.211-2.679-0.507-5.338-0.013-8.007
					c0.788-4.249,3.146-9.02,0.905-13.198c0.185-0.023,0.365-0.067,0.557-0.076c0.031,0,0.031-0.047,0-0.047
					c-0.255-0.005-0.49-0.087-0.741-0.092h-0.001l-0.001-0.007c0.036-0.002,0.074-0.038,0.064-0.082
					c-0.411-1.602-0.496-3.177,0.741-4.434c1.233-1.259,3.207-1.905,4.894-2.243c1.455-0.288,3.152-0.251,4.354,0.724
					c0.545,0.438,0.89,1.062,1.095,1.721c0.271,0.871,0.11,1.733,0.229,2.615c0.01,0.077,0.088,0.09,0.147,0.063
					c-0.052,1.144-0.051,2.37,0.656,3.28c0.02,0.024,0.05,0.022,0.073,0.01c0.336,0.984,0.967,1.896,1.544,2.717
					c0.48,0.686,0.995,1.343,1.489,2.015c0.507,0.69,0.875,1.453,1.218,2.237c0.696,1.586,1.172,3.261,1.73,4.894
					c0.445,1.296,0.923,2.797,1.708,3.971c-0.051,0.381,0.117,0.875,0.158,1.229c0.07,0.608,0.105,1.221,0.137,1.833
					c0.063,1.236,0.083,2.479,0.177,3.711c0.156,2.061,0.542,4.656,2.215,6.086c-0.25,0.738-0.756,0.88-1.525,0.889
					c-1.211,0.02-2.109-0.791-2.697-1.774c-0.625-1.05-0.944-2.271-1.204-3.451c-0.237-1.084-0.282-2.27-0.668-3.31
					c-0.009-0.023-0.031-0.038-0.053-0.041c-0.21-0.535-0.51-1.058-0.783-1.508c-0.296-0.486-0.642-0.944-1-1.387
					c-0.168-0.204-0.343-0.396-0.524-0.593c-0.002-0.009-0.005-0.02-0.012-0.028c-0.062-0.1-0.145-0.188-0.237-0.271
					c-0.017-0.05,0.015-0.074,0.145-0.044C353.89,590.275,353.89,590.275,353.891,590.273z"/>
				<path d="M356.494,595.488c0.009,0.069-0.105,0.085-0.122,0.017c-0.013-0.052-0.026-0.104-0.04-0.154v-0.003
					c-0.009-0.062-0.017-0.122-0.024-0.185c-0.321-1.067-0.678-2.038-1.337-2.98c-0.35-0.499-0.725-0.975-1.133-1.426
					c-0.009-0.012-0.02-0.021-0.027-0.028c-0.375-0.138-0.717-0.516-1.011-0.759c-0.432-0.359-0.855-0.727-1.27-1.104
					c-0.938-0.861-1.838-1.772-2.629-2.771c-1.126-1.424-2.248-3.16-2.367-5.019c-0.001-0.001,0-0.002,0-0.002
					c0.006-0.078,0.017-0.154,0.032-0.229c0.014,0.008,0.032,0.011,0.051,0.011c0,0.002,0,0.002,0,0.002c0,0.039,0,0.079,0,0.118
					c0.001,0.008,0.012,0.008,0.012,0c0-0.039,0.001-0.079,0.001-0.12c0.062-0.001,0.103-0.036,0.12-0.081
					c0.008,0.259,0.035,0.516,0.08,0.77c0.006,0.358,0.029,0.72,0.132,1.086c0.203,0.724,0.529,1.396,0.953,2.02
					c0.915,1.35,2.126,2.463,3.327,3.549c0.242,0.229,0.49,0.458,0.741,0.681c0.151,0.133,0.303,0.268,0.455,0.396
					c0.014,0.014,0.027,0.025,0.041,0.036C354.341,590.994,356.266,592.943,356.494,595.488z"/>
				<path d="M356.308,595.163c0.008,0.063,0.016,0.123,0.024,0.186c-0.71-2.716-2.78-4.636-4.805-6.479l0.004-0.005
					c0.414,0.38,0.838,0.745,1.27,1.104c0.294,0.243,0.637,0.621,1.011,0.758c0.007,0.009,0.018,0.02,0.027,0.029
					c0.408,0.451,0.783,0.927,1.133,1.426C355.63,593.125,355.987,594.096,356.308,595.163z"/>
				<path d="M352.437,589.267c-0.152-0.129-0.304-0.263-0.455-0.396c-0.251-0.224-0.499-0.45-0.741-0.681
					c0.016,0.013,0.031,0.025,0.046,0.041C351.657,588.567,352.045,588.911,352.437,589.267z"/>
				<path d="M351.531,588.863l-0.004,0.005c-0.405-0.367-0.808-0.734-1.196-1.103c-1.112-1.052-2.245-2.181-2.97-3.545
					c-0.441-0.833-0.926-2.088-0.826-3.148c0.119,1.857,1.24,3.597,2.367,5.019C349.693,587.091,350.594,588.002,351.531,588.863z"
					/>
				<path d="M349.557,586.44c0.536,0.606,1.098,1.19,1.685,1.751c-1.201-1.086-2.412-2.199-3.327-3.55
					c-0.423-0.62-0.75-1.296-0.953-2.019c-0.103-0.366-0.125-0.729-0.132-1.086C347.149,583.384,348.343,585.063,349.557,586.44z"/>
				<path d="M346.777,580.311c0.059,0.413,0.046,0.819,0.054,1.229c-0.045-0.254-0.072-0.511-0.08-0.771
					c0.016-0.038,0.016-0.086-0.002-0.122c-0.001-0.114,0.001-0.23,0.008-0.351C346.767,580.296,346.776,580.301,346.777,580.311z"
					/>
				<path d="M346.57,580.064c0.016-0.113,0.213-0.089,0.201,0.024c-0.006,0.068-0.011,0.14-0.015,0.206
					c-0.009,0-0.018,0.004-0.022,0.014c-0.04,0.083-0.073,0.17-0.101,0.26c-0.002-0.001-0.006-0.001-0.01-0.001
					c-0.042,0-0.074,0.016-0.098,0.041C346.529,580.427,346.545,580.246,346.57,580.064z"/>
				<path d="M346.749,580.646c0.018,0.035,0.018,0.084,0.002,0.121C346.749,580.729,346.749,580.688,346.749,580.646z"/>
				<path d="M346.749,580.646c0,0.041,0,0.08,0.002,0.121c-0.018,0.045-0.059,0.081-0.12,0.082c0.001-0.047,0.001-0.095,0.001-0.142
					c0-0.01-0.015-0.01-0.015,0c0.001,0.047,0.001,0.095,0.001,0.142c-0.02,0-0.037-0.002-0.051-0.01
					c0.017-0.094,0.039-0.185,0.067-0.271C346.693,580.571,346.731,580.604,346.749,580.646z"/>
				<path d="M346.757,580.296c-0.006,0.118-0.009,0.234-0.008,0.351c-0.018-0.043-0.056-0.074-0.115-0.077
					c0.028-0.092,0.063-0.178,0.101-0.26C346.738,580.3,346.747,580.296,346.757,580.296z"/>
				<path d="M346.623,580.567c0.004,0,0.008,0,0.01,0.001c-0.028,0.089-0.05,0.18-0.067,0.271c-0.017-0.007-0.031-0.017-0.042-0.029
					c-0.003-0.066-0.001-0.137,0.001-0.202C346.549,580.582,346.581,580.567,346.623,580.567z"/>
				<path d="M346.632,580.709c0,0.047,0,0.095-0.001,0.142c-0.003,0.003-0.005,0.003-0.008,0.003c-0.001,0-0.004,0-0.005,0
					c0,0,0,0,0-0.003c0-0.047,0-0.095-0.001-0.142C346.617,580.699,346.632,580.699,346.632,580.709z"/>
				<path d="M346.631,580.851c0,0.041-0.001,0.081-0.001,0.121c0,0.007-0.01,0.007-0.012,0c0-0.04,0-0.08,0-0.119
					c0.001,0,0.004,0,0.005,0C346.626,580.854,346.628,580.854,346.631,580.851z"/>
				<path d="M346.567,580.841c-0.015,0.075-0.025,0.151-0.032,0.229c-0.006-0.086-0.01-0.176-0.01-0.261
					C346.536,580.824,346.55,580.834,346.567,580.841z"/>
				<path d="M346.526,580.608c-0.002,0.065-0.004,0.136-0.001,0.202C346.472,580.757,346.473,580.658,346.526,580.608z"/>
			</g>
		</g>
		<path d="M346.875,586.93c-0.011-0.024-0.045-0.004-0.042,0.019c0.365,2.079-0.441,3.895-0.82,5.891
			c-0.025,0.136,0.15,0.18,0.202,0.06c0.423-1.016,0.683-2.15,0.849-3.233C347.202,588.756,347.25,587.784,346.875,586.93z"/>
	</g>
</g>
</svg>
