<?xml version="1.0" encoding="utf-8"?>
<!DOCTYPE svg PUBLIC "-//W3C//DTD SVG 1.1//EN" "http://www.w3.org/Graphics/SVG/1.1/DTD/svg11.dtd">
<svg version="1.1" id="Layer_3" xmlns="http://www.w3.org/2000/svg" xmlns:xlink="http://www.w3.org/1999/xlink" viewBox="0 0 1280 800">
<defs>
	<filter id="OpacityMaskFilter" filterUnits="userSpaceOnUse" x="250.144" y="185.968" width="23.831" height="62.788">
		<feColorMatrix  type="matrix" values="1 0 0 0 0  0 1 0 0 0  0 0 1 0 0  0 0 0 1 0"/>
	</filter>
</defs>
<mask maskUnits="userSpaceOnUse" x="250.144" y="185.968" width="23.831" height="62.788" id="SVGID_1_">
	<g filter="url(#OpacityMaskFilter)">
		<rect fill="#FFFFFF" width="1280" height="800"/>
	</g>
</mask>
<g mask="url(#SVGID_1_)">
	<g id="rope">
		<g id="XMLID_1_">
			<g>
				<path d="M269.994,225.97c1.298-0.055,2.291,1.155,1.901,2.428c-0.354,1.164-1.446,1.775-2.541,2.138
					c-1.79,0.597-3.743,0.784-5.625,0.837c-1.907,0.055-3.833-0.02-5.725-0.286c-1.612-0.227-3.654-0.532-4.896-1.698
					c-0.434-0.409-0.752-0.96-0.72-1.575c0.053-1.021,0.664-1.71,1.549-2.166c0.14-0.072,0.284,0.045,0.255,0.198
					c-0.265,1.318,1.16,1.84,2.197,2.071c1.359,0.301,2.763,0.355,4.15,0.383c1.455,0.031,2.921,0.195,4.374,0.125
					c1.961-0.095,3.648-0.69,4.941-2.22c0.023-0.028,0.049-0.045,0.076-0.055c-0.002-0.002-0.005-0.005-0.009-0.006
					C269.851,226.083,269.912,225.974,269.994,225.97z M270.658,229.548c1.377-0.996,1.297-2.965-0.428-3.333
					c-0.024,0.023-0.05,0.033-0.077,0.037c0.038,0.068,0.043,0.158-0.021,0.233c-1.295,1.534-3.059,2.248-5.043,2.325
					c-1.667,0.065-3.358-0.11-5.028-0.164c-1.637-0.051-6.344-0.021-6.248-2.528c-0.508,0.312-0.9,0.719-1.033,1.343
					c-0.371,1.734,1.742,2.504,3.055,2.852c1.993,0.533,4.086,0.694,6.144,0.73c1.671,0.029,3.355-0.041,5.009-0.299
					C268.224,230.553,269.622,230.296,270.658,229.548z"/>
				<path fill="#D6BD7F" d="M270.229,226.214c1.726,0.369,1.805,2.338,0.428,3.333c-1.037,0.75-2.434,1.005-3.67,1.197
					c-1.654,0.258-3.338,0.328-5.009,0.299c-2.056-0.036-4.149-0.197-6.144-0.73c-1.313-0.348-3.424-1.117-3.055-2.852
					c0.133-0.624,0.525-1.032,1.033-1.343c-0.095,2.507,4.612,2.477,6.248,2.528c1.67,0.054,3.36,0.229,5.028,0.164
					c1.984-0.077,3.748-0.791,5.043-2.325c0.064-0.076,0.059-0.166,0.021-0.233C270.18,226.247,270.205,226.237,270.229,226.214z"/>
			</g>
		</g>
		<g>
			<g id="XMLID_8_">
				<g>
					<path d="M272.499,191.099c0.439,0.573,0.795,1.302,0.636,2.044c-0.186,0.862-0.867,1.455-1.579,1.912
						c-0.132,0.083-0.252-0.125-0.122-0.208c0.048-0.031,0.092-0.06,0.137-0.091l0.039-0.027c3.85-2.657-2.001-5.901-4.492-6.615
						c-0.683-0.195-1.424-0.376-2.138-0.285c-0.894,0.114-1.783,0.34-2.63,0.646c-1.024,0.369-2.068,0.841-2.892,1.57
						c-0.341,0.303-0.667,0.645-0.868,1.06c-0.196,0.412-0.196,0.832-0.331,1.254c-0.001,0.004-0.007,0.006-0.01,0
						c-0.018-0.037-0.033-0.074-0.046-0.113c-0.25-0.749,0.4-1.683,0.909-2.169c0.813-0.778,1.859-1.295,2.911-1.677
						c0.969-0.353,2.021-0.689,3.057-0.786c0.778-0.072,1.593,0.122,2.329,0.354C269.246,188.554,271.298,189.533,272.499,191.099z"
						/>
					<path fill="#D6BD7F" d="M267.118,188.115c2.491,0.714,8.342,3.958,4.492,6.615c-0.86-2.506-2.843-4.879-5.561-5.343
						c-2.999-0.51-5.3,2.253-6.878,4.417c-0.584-0.364-0.854-0.903-1.066-1.523l0.099-0.033c0.013,0.039,0.028,0.076,0.046,0.113
						c0.003,0.006,0.009,0.004,0.01,0c0.135-0.423,0.135-0.843,0.331-1.254c0.2-0.415,0.526-0.757,0.868-1.06
						c0.824-0.729,1.868-1.201,2.892-1.57c0.847-0.306,1.737-0.532,2.63-0.646C265.693,187.739,266.435,187.92,267.118,188.115z"/>
					<path d="M271.61,194.73l-0.039,0.027c-0.652-0.757-0.984-1.777-1.574-2.59c-0.898-1.241-2.287-2.29-3.836-2.525
						c-3.024-0.458-5.243,2.245-6.824,4.429c-0.047,0.065-0.124,0.094-0.2,0.053c-0.842-0.459-1.187-1.245-1.431-2.136
						c-0.05-0.179,0.223-0.254,0.278-0.077c0.039,0.125,0.078,0.25,0.121,0.37c0.213,0.621,0.482,1.16,1.066,1.523
						c1.578-2.163,3.879-4.926,6.878-4.417C268.767,189.852,270.75,192.225,271.61,194.73z"/>
				</g>
			</g>
		</g>
		<g id="XMLID_4_">
			<g>
				<path d="M270.336,217.626c1.164,0.839,2.043,2.369,1.036,3.681c-1.674,2.178-5.236-0.024-6.828-1.147
					c-1.297-0.917-2.42-1.989-3.514-3.137c-1.261-1.319-2.493-2.691-3.525-4.202c-1.208-1.771-2.208-3.948-2.511-6.081
					c-0.131-0.914,0.009-1.523,0.657-2.164c0.268-0.264,0.938,0.148,1.167,0.332c0.488,0.392,0.782,0.898,1.011,1.475
					c0.039,0.096-0.07,0.17-0.155,0.152c1.375,2.461,2.815,4.879,4.626,7.053c1.921,2.309,4.513,4.917,7.7,5.1
					c0.034-0.316,0.109-0.624,0.127-0.944C270.132,217.649,270.245,217.562,270.336,217.626z M271.148,221.133
					c0.847-1.093,0.173-2.37-0.768-3.127c-0.036,0.278-0.096,0.551-0.11,0.833c-0.004,0.074-0.062,0.144-0.14,0.141
					c-3.199-0.12-5.854-2.616-7.8-4.926c-2.083-2.471-3.957-5.305-5.218-8.29c-0.015-0.035,0.004-0.068,0.031-0.082
					c-0.296-0.42-0.677-0.768-1.211-0.864c-0.383-0.068-0.65,0.765-0.667,1.064c-0.059,1.054,0.293,2.126,0.658,3.102
					c0.924,2.47,2.336,4.518,4.091,6.49c2.117,2.379,4.483,4.857,7.524,6.02C268.661,221.923,270.287,222.249,271.148,221.133z"/>
				<path fill="#D6BD7F" d="M270.381,218.006c0.939,0.757,1.614,2.034,0.768,3.127c-0.861,1.116-2.488,0.79-3.608,0.361
					c-3.041-1.164-5.408-3.642-7.524-6.02c-1.755-1.972-3.168-4.021-4.091-6.491c-0.364-0.976-0.717-2.048-0.658-3.102
					c0.017-0.3,0.283-1.132,0.667-1.064c0.536,0.096,0.917,0.443,1.211,0.864c-0.027,0.014-0.046,0.047-0.031,0.082
					c1.262,2.985,3.137,5.819,5.218,8.29c1.945,2.31,4.601,4.806,7.8,4.926c0.078,0.003,0.136-0.066,0.14-0.141
					C270.285,218.556,270.345,218.283,270.381,218.006z"/>
			</g>
		</g>
		<g id="XMLID_5_">
			<g>
				<path d="M272.059,202.882c-0.286,1.599-1.522,2.944-2.926,3.918c-1.196,0.829-2.485,1.532-3.797,2.157
					c-1.369,0.654-2.797,1.269-4.293,1.559c-1.037,0.197-2.214,0.369-3.164-0.197c-0.798-0.475-1.51-1.14-2.051-1.894
					c-0.48-0.668-1.007-1.583-0.822-2.447c0.085-0.39,0.285-0.699,0.591-0.955c0.377-0.314,0.413-0.181,0.782-0.095
					c0.046,0.012,0.073,0.046,0.083,0.087c0.006-0.001,0.013-0.001,0.02,0c0.029-0.003,0.058,0.009,0.073,0.037
					c0.008,0.01,0.012,0.023,0.012,0.036c0.011,0.065,0.027,0.128,0.045,0.188c0.001,0.004,0.002,0.006,0.002,0.01
					c0.035,0.115,0.078,0.224,0.132,0.327c0.017,0.003,0.027-0.013,0.027-0.047c0.001-0.041,0.003-0.101-0.023-0.134
					c-0.021-0.027-0.01-0.076-0.012-0.108c0-0.015,0.023-0.022,0.03-0.008c0.013,0.026,0.04,0.061,0.04,0.091
					c0,0.024-0.006,0.043-0.002,0.068c0.005,0.041,0.01,0.082,0.001,0.123c-0.005,0.024-0.02,0.047-0.04,0.056
					c0.546,0.999,1.947,1.378,2.994,1.37c1.408-0.01,2.809-0.368,4.125-0.85c3.19-1.167,6.376-3.267,7.247-6.746
					c0.021-0.082,0.132-0.091,0.173-0.021c0.705,1.148,1.036,2.525,0.96,3.87c-0.006,0.111-0.163,0.11-0.172,0
					C272.081,203.144,272.07,203.015,272.059,202.882z M271.423,204.029c0.523-1.037,0.523-2.07,0.244-3.18
					c-0.009-0.036-0.001-0.065,0.015-0.088c-0.109-0.354-0.248-0.705-0.427-1.047c-0.946,3.592-4.313,5.769-7.674,6.897
					c-1.461,0.491-3.108,0.911-4.661,0.663c-0.619-0.099-1.252-0.303-1.729-0.729c-0.283-0.252-0.65-0.667-0.768-1.086
					c-0.095-0.04-0.106-0.174-0.036-0.239c0-0.014-0.001-0.028-0.001-0.042c-0.013,0.004-0.027,0.006-0.043,0.005
					c-0.167-0.021-0.311-0.126-0.475-0.004c-0.188,0.14-0.369,0.31-0.468,0.528c-0.163,0.359-0.165,0.758-0.056,1.135
					c0.246,0.857,0.808,1.617,1.436,2.235c0.509,0.501,1.179,1.129,1.91,1.271c1.282,0.25,2.705-0.097,3.914-0.516
					c2.268-0.787,4.589-1.955,6.529-3.375C270.02,205.804,270.919,205.028,271.423,204.029z"/>
				<path fill="#D6BD7F" d="M271.666,200.849c0.279,1.11,0.279,2.144-0.244,3.18c-0.504,1-1.402,1.775-2.29,2.426
					c-1.94,1.42-4.262,2.589-6.529,3.375c-1.208,0.419-2.632,0.766-3.914,0.516c-0.73-0.142-1.401-0.77-1.91-1.271
					c-0.628-0.619-1.188-1.378-1.436-2.235c-0.109-0.377-0.106-0.776,0.056-1.135c0.099-0.218,0.28-0.388,0.468-0.528
					c0.164-0.122,0.308-0.017,0.475,0.004c0.017,0.001,0.031-0.001,0.043-0.005c0,0.014,0.001,0.028,0.001,0.042
					c-0.071,0.065-0.059,0.2,0.036,0.239c0.117,0.42,0.484,0.833,0.768,1.086c0.476,0.427,1.109,0.631,1.729,0.729
					c1.552,0.249,3.199-0.172,4.661-0.663c3.36-1.128,6.728-3.306,7.674-6.897c0.179,0.343,0.318,0.692,0.427,1.047
					C271.665,200.783,271.657,200.813,271.666,200.849z"/>
			</g>
		</g>
		<g>
			<g id="XMLID_7_">
				<g>
					<path fill="#D6BD7F" d="M271.976,187.417c0.811,0.51,1.722,1.206,1.521,2.283c-0.163,0.884-0.958,1.589-1.619,2.129
						c-1.652,1.345-3.71,2.29-5.701,3.014c-1.18,0.431-2.373,0.793-3.512,1.332c-1.404,0.664-2.62,1.588-3.726,2.667
						c-1.354,1.318-3.078,4.493-1.538,6.236c0.082,0.092,0.168,0.182,0.257,0.266c-0.021-0.017-0.051-0.028-0.087-0.028
						c-0.662-0.017-1.422-0.622-1.842-1.088c-0.485-0.543-0.667-1.278-0.686-1.988c-0.041-1.533,0.744-3.115,1.678-4.281
						c0.977-1.223,2.338-2.047,3.668-2.829c0.917-0.537,1.795-1.109,2.779-1.515c1.996-0.827,4.065-1.456,5.999-2.424
						c1.183-0.592,3.104-1.641,2.769-3.251c-0.017-0.083-0.054-0.166-0.086-0.244c-0.017-0.041-0.052-0.059-0.088-0.059l0.186-0.24
						C271.957,187.403,271.966,187.411,271.976,187.417z"/>
					<path d="M273.498,189.701c0.2-1.078-0.711-1.773-1.521-2.283c-0.01-0.006-0.02-0.014-0.027-0.021
						c-0.092-0.096,0.021-0.268,0.156-0.199c0.25,0.133,0.483,0.285,0.708,0.456c3.652,2.791-3.377,6.159-5.337,6.986
						c-2.475,1.045-5.132,1.604-7.239,3.381c-1.746,1.472-4.442,4.899-2.41,7.08c0.028-0.021,0.065-0.031,0.118-0.045
						c0.165-0.042,0.237,0.195,0.091,0.258c0.001,0.005,0.002,0.006,0.002,0.01c0.016,0.046-0.001,0.106-0.036,0.137
						c-0.002,0.004-0.005,0.006-0.008,0.009c-0.06,0.055-0.141,0.053-0.201,0c-0.04-0.035-0.08-0.07-0.117-0.106
						c-0.006-0.005-0.013-0.011-0.018-0.018c-0.089-0.084-0.175-0.174-0.257-0.266c-1.54-1.744,0.183-4.918,1.538-6.236
						c1.105-1.079,2.322-2.003,3.726-2.667c1.14-0.537,2.332-0.901,3.512-1.332c1.991-0.724,4.049-1.668,5.701-3.014
						C272.541,191.29,273.335,190.584,273.498,189.701z"/>
					<path d="M271.938,187.938c0.336,1.61-1.584,2.659-2.769,3.251c-1.934,0.969-4.003,1.598-5.999,2.424
						c-0.983,0.406-1.862,0.979-2.779,1.515c-1.332,0.782-2.693,1.606-3.668,2.829c-0.936,1.167-1.719,2.748-1.678,4.281
						c0.018,0.71,0.2,1.445,0.686,1.988c0.42,0.468,1.182,1.073,1.842,1.088c0.036,0,0.065,0.011,0.087,0.028
						c0.005,0.007,0.012,0.013,0.018,0.018c0.072,0.082,0.036,0.244-0.105,0.246c-0.549,0.013-1.178-0.406-1.597-0.725
						c-2.072-1.576-1.183-4.701,0.054-6.507c0.813-1.187,1.897-2.087,3.115-2.838c1.037-0.64,2.097-1.338,3.202-1.856
						c1.901-0.89,3.94-1.449,5.855-2.31c1.299-0.585,4.089-1.757,3.482-3.631c-0.022-0.065,0.028-0.105,0.081-0.105
						c0.036,0,0.072,0.018,0.088,0.059C271.884,187.772,271.921,187.854,271.938,187.938z"/>
				</g>
				<g>
					<path fill="none" stroke="#000000" stroke-width="0.25" stroke-miterlimit="10" d="M257.677,205.362
						c0.037,0.036,0.077,0.072,0.117,0.106c0.06,0.053,0.141,0.055,0.201,0c0.002-0.002,0.005-0.005,0.008-0.009
						c0.035-0.031,0.051-0.091,0.036-0.137c0-0.004-0.001-0.005-0.002-0.01c0.146-0.063,0.074-0.3-0.091-0.258
						c-0.053,0.014-0.09,0.024-0.118,0.045c-2.032-2.18,0.664-5.608,2.41-7.08c2.107-1.778,4.764-2.336,7.239-3.381
						c1.96-0.827,8.99-4.195,5.337-6.986c-0.226-0.171-0.458-0.323-0.708-0.456c-0.135-0.069-0.249,0.103-0.156,0.199
						c0.007,0.007,0.017,0.015,0.027,0.021c0.811,0.51,1.722,1.206,1.521,2.283c-0.163,0.884-0.958,1.589-1.619,2.129
						c-1.652,1.345-3.71,2.29-5.701,3.014c-1.18,0.431-2.373,0.793-3.512,1.332c-1.404,0.664-2.62,1.588-3.726,2.667
						c-1.354,1.318-3.078,4.493-1.538,6.236c0.082,0.092,0.168,0.182,0.257,0.266"/>
					<path fill="none" stroke="#000000" stroke-width="0.25" stroke-miterlimit="10" d="M257.659,205.345
						c-0.021-0.017-0.051-0.028-0.087-0.028c-0.662-0.017-1.422-0.622-1.842-1.088c-0.485-0.543-0.667-1.278-0.686-1.988
						c-0.041-1.533,0.744-3.115,1.678-4.281c0.977-1.223,2.338-2.047,3.668-2.829c0.917-0.537,1.795-1.109,2.779-1.515
						c1.996-0.827,4.065-1.456,5.999-2.424c1.183-0.592,3.104-1.641,2.769-3.251c-0.017-0.083-0.054-0.166-0.086-0.244
						c-0.017-0.041-0.052-0.059-0.088-0.059c-0.053,0-0.103,0.04-0.081,0.105c0.607,1.874-2.183,3.046-3.482,3.631
						c-1.916,0.861-3.955,1.42-5.856,2.31c-1.104,0.518-2.165,1.216-3.202,1.856c-1.217,0.75-2.302,1.651-3.115,2.838
						c-1.236,1.806-2.125,4.931-0.054,6.507c0.419,0.319,1.048,0.738,1.597,0.725c0.141-0.002,0.177-0.164,0.105-0.246
						C257.67,205.357,257.665,205.351,257.659,205.345z"/>
				</g>
			</g>
		</g>
		<g>
			<g id="XMLID_6_">
				<g>
					<path d="M272.515,205.463c0.78,2.187,0.16,4.993-2.016,6.169c-0.216,0.115-0.409-0.209-0.192-0.331
						c0.059-0.032,0.116-0.067,0.171-0.105c0.042-0.031,0.085-0.062,0.126-0.092c2.347-1.792,2.299-4.863,0.7-7.148
						c-1.564-2.238-3.893-3.847-6.104-5.388c-0.957-0.666-1.901-1.339-2.824-2.053c-1.157-0.895-2.414-1.711-3.412-2.791
						c-0.85-0.918-1.637-2.126-1.673-3.423c-0.037-1.312,0.532-2.523,0.594-3.813c0.002-0.032,0.015-0.055,0.035-0.07
						c0.056-0.047,0.163-0.026,0.161,0.07c-0.007,0.385-0.096,0.765-0.173,1.139c-0.327,1.584-0.6,3.088,0.264,4.563
						c0.787,1.346,2.032,2.312,3.266,3.227c2.07,1.538,4.219,2.978,6.269,4.54C269.604,201.404,271.685,203.142,272.515,205.463z"/>
					<path fill="#D6BD7F" d="M271.304,203.957c1.601,2.285,1.647,5.356-0.7,7.148l-0.202-0.154c0.027,0,0.054-0.007,0.083-0.025
						c0.361-0.213,0.363-0.606,0.413-0.982c0.08-0.586,0.034-1.181-0.077-1.758c-0.213-1.112-0.802-2.151-1.5-3.03
						c-1.633-2.059-3.878-3.56-6.091-4.927c-0.987-0.613-1.989-1.201-2.984-1.804c-1.216-0.734-2.258-1.761-3.099-2.903
						c-1.642-2.234-2.436-5.251-0.815-7.714c0.39-0.588,0.913-1.071,1.458-1.508l0.126,0.118c-0.02,0.015-0.032,0.039-0.035,0.07
						c-0.062,1.29-0.631,2.502-0.594,3.813c0.036,1.296,0.824,2.505,1.673,3.423c0.999,1.079,2.255,1.896,3.412,2.791
						c0.922,0.714,1.867,1.387,2.824,2.053C267.411,200.109,269.739,201.719,271.304,203.957z"/>
					<path d="M270.822,208.186c0.11,0.578,0.156,1.172,0.077,1.758c-0.05,0.375-0.051,0.77-0.413,0.982
						c-0.029,0.018-0.056,0.025-0.083,0.025h-0.001c-0.142,0-0.236-0.218-0.082-0.31c0.331-0.196,0.273-1.229,0.254-1.568
						c-0.153-2.672-2.224-4.757-4.22-6.31c-2.016-1.566-4.266-2.754-6.388-4.158c-2.087-1.383-3.91-3.527-4.563-5.981
						c-0.674-2.535,0.128-4.94,2.247-6.512c0.108-0.081,0.25,0.104,0.144,0.187c-0.547,0.438-1.07,0.919-1.458,1.508
						c-1.62,2.462-0.827,5.479,0.815,7.714c0.841,1.142,1.882,2.169,3.099,2.903c0.995,0.604,1.997,1.191,2.984,1.804
						c2.212,1.369,4.458,2.869,6.091,4.927C270.02,206.035,270.609,207.074,270.822,208.186z"/>
				</g>
				<g>
					<path fill="none" stroke="#000000" stroke-width="0.25" stroke-miterlimit="10" d="M270.402,210.951
						c0.027,0,0.054-0.007,0.083-0.025c0.361-0.213,0.363-0.605,0.413-0.982c0.08-0.586,0.034-1.181-0.077-1.758
						c-0.213-1.112-0.802-2.151-1.5-3.03c-1.633-2.059-3.878-3.56-6.091-4.927c-0.987-0.613-1.989-1.2-2.983-1.804
						c-1.217-0.734-2.258-1.761-3.099-2.903c-1.642-2.234-2.436-5.251-0.815-7.714c0.39-0.588,0.913-1.071,1.458-1.508
						c0.106-0.083-0.036-0.268-0.144-0.187c-2.119,1.572-2.921,3.978-2.247,6.512c0.654,2.454,2.477,4.598,4.563,5.981
						c2.123,1.404,4.371,2.592,6.388,4.158c1.996,1.552,4.067,3.638,4.22,6.31c0.019,0.338,0.077,1.372-0.254,1.568
						C270.166,210.734,270.259,210.951,270.402,210.951L270.402,210.951z"/>
					<path fill="none" stroke="#000000" stroke-width="0.25" stroke-miterlimit="10" d="M270.604,211.105
						c-0.041,0.031-0.083,0.062-0.126,0.092c-0.055,0.039-0.113,0.073-0.171,0.105c-0.217,0.12-0.024,0.446,0.192,0.331
						c2.175-1.177,2.796-3.983,2.016-6.169c-0.829-2.323-2.911-4.06-4.81-5.507c-2.05-1.562-4.198-3.002-6.268-4.54
						c-1.234-0.915-2.479-1.879-3.266-3.227c-0.863-1.476-0.59-2.978-0.264-4.563c0.077-0.375,0.166-0.754,0.173-1.139
						c0.001-0.096-0.105-0.118-0.161-0.07c-0.02,0.015-0.032,0.039-0.035,0.07c-0.062,1.29-0.631,2.502-0.594,3.813
						c0.036,1.296,0.824,2.505,1.673,3.423c0.999,1.079,2.255,1.896,3.412,2.791c0.922,0.714,1.867,1.387,2.824,2.053
						c2.211,1.54,4.54,3.148,6.104,5.388C272.903,206.242,272.951,209.313,270.604,211.105z"/>
				</g>
			</g>
		</g>
		<g id="XMLID_3_">
			<g>
				<path d="M270.226,207.911c-0.009-0.002-0.019-0.006-0.028-0.012c-1.546-0.852-3.591,1.027-4.623,1.973
					c-4.211,3.864-7.202,8.895-10.055,13.783c-1.034,1.77-2.033,3.563-2.97,5.386c-0.833,1.62-1.52,3.28-1.826,5.084
					c-0.555,3.253,0.01,6.573,1.855,9.297c-0.551-1.552-0.478-3.443-0.432-5.03c0.065-2.2,0.467-4.25,1.349-6.278
					c1.413-3.251,3.512-6.114,5.285-9.163c0.969-1.666,1.927-3.321,3.016-4.915c1.338-1.958,2.769-3.917,4.466-5.585
					c0.941-0.923,2.352-2.293,3.813-2.13c0.077,0.009,0.155,0.022,0.233,0.04c0.2,0.045,0.114,0.349-0.083,0.304
					c-0.786-0.174-1.586,0.275-2.207,0.709c-0.923,0.646-1.73,1.452-2.48,2.288c-1.637,1.83-3.066,3.845-4.385,5.91
					c-1.177,1.842-2.202,3.771-3.359,5.627c-1.882,3.011-3.991,6.104-4.86,9.595c-0.381,1.529-0.458,3.106-0.44,4.677
					c0.016,1.378-0.007,2.982,0.594,4.256c0.054,0.113-0.013,0.216-0.1,0.256c0.027,0.036,0.054,0.073,0.082,0.107
					c0.151,0.193-0.119,0.468-0.273,0.272c-2.694-3.434-3.285-7.969-2.011-12.1c0.536-1.737,1.384-3.33,2.246-4.925
					c0.977-1.81,1.997-3.594,3.062-5.353c1.583-2.617,3.168-5.282,5.054-7.696c1.421-1.821,2.95-3.63,4.736-5.108
					c1.103-0.911,2.95-2.384,4.454-1.516C270.475,207.748,270.365,207.956,270.226,207.911z"/>
				<path fill="#D6BD7F" d="M270.226,207.911c0.527,0.735,0.668,1.827-0.151,2.41c-1.46-0.163-2.873,1.208-3.813,2.13
					c-1.697,1.667-3.126,3.626-4.466,5.585c-1.089,1.593-2.047,3.249-3.016,4.915c-1.773,3.049-3.872,5.913-5.285,9.163
					c-0.882,2.027-1.283,4.079-1.349,6.278c-0.046,1.587-0.119,3.478,0.432,5.03c-1.846-2.724-2.41-6.044-1.855-9.297
					c0.307-1.804,0.993-3.464,1.826-5.084c0.937-1.823,1.937-3.616,2.97-5.386c2.853-4.887,5.844-9.918,10.055-13.783
					c1.033-0.946,3.077-2.825,4.623-1.973C270.207,207.904,270.217,207.909,270.226,207.911z"/>
			</g>
			<g>
				<path fill="none" stroke="#000000" stroke-width="0.25" stroke-miterlimit="10" d="M269.994,210.375
					c0.028-0.018,0.055-0.036,0.082-0.055c0.82-0.583,0.679-1.674,0.151-2.41c-0.107-0.151-0.233-0.287-0.369-0.401"/>
			</g>
		</g>
		<g id="XMLID_2_">
			<g>
				<path d="M271.207,240.537c0.584,1.359,0.963,2.818,0.806,4.306c-0.156,1.48-0.938,2.772-1.906,3.866
					c-0.091,0.104-0.285,0.024-0.274-0.113c0.157-2.142-0.224-4.277-1.055-6.257c-1.323-3.157-3.495-5.998-6.083-8.225
					c-2.216-1.909-4.666-3.579-6.661-5.732c-1.779-1.922-3.061-4.189-3.123-6.863c-0.054-2.324,0.847-4.639,3.389-5.018
					c0.104-0.017,0.199,0.041,0.203,0.154c0.019,0.478,0.101,0.937-0.014,1.406c-0.023,0.095-0.106,0.122-0.178,0.103
					c-0.223,2.424-0.133,4.881,1.388,6.928c1.058,1.424,2.499,2.477,3.829,3.626c1.29,1.114,2.564,2.249,3.756,3.463
					C267.685,234.626,269.847,237.371,271.207,240.537z M270.177,248.127c1.01-1.244,1.681-2.72,1.565-4.364
					c-0.121-1.705-0.819-3.335-1.64-4.814c-1.692-3.051-4.01-5.673-6.551-8.043c-1.246-1.163-2.538-2.272-3.842-3.371
					c-1.119-0.941-2.196-1.991-2.866-3.312c-1.12-2.204-0.943-4.594-0.615-6.965c-0.01-0.139-0.024-0.277-0.035-0.416
					c-1.016,0.198-1.898,0.74-2.384,1.692c-1.208,2.369-0.485,5.542,0.909,7.663c1.631,2.481,4.052,4.313,6.336,6.153
					c2.432,1.958,4.638,4.061,6.326,6.714C269.106,241.777,270.286,244.888,270.177,248.127z"/>
				<path fill="#D6BD7F" d="M271.743,243.763c0.115,1.646-0.556,3.121-1.565,4.364c0.109-3.24-1.071-6.351-2.796-9.063
					c-1.688-2.654-3.895-4.755-6.326-6.714c-2.284-1.841-4.707-3.671-6.336-6.153c-1.394-2.12-2.116-5.294-0.909-7.663
					c0.486-0.954,1.368-1.495,2.384-1.692c0.01,0.139,0.024,0.277,0.035,0.416c-0.328,2.371-0.505,4.762,0.615,6.965
					c0.669,1.32,1.747,2.37,2.866,3.312c1.305,1.099,2.596,2.208,3.842,3.371c2.541,2.37,4.858,4.993,6.551,8.043
					C270.924,240.428,271.622,242.058,271.743,243.763z"/>
			</g>
		</g>
	</g>
</g>
</svg>
